<?xml version="1.0" standalone="no"?>
<!DOCTYPE svg PUBLIC "-//W3C//DTD SVG 1.1//EN" "http://www.w3.org/Graphics/SVG/1.1/DTD/svg11.dtd" >
<svg>
<metadata>
Created by FontForge 20090622 at Thu Jan  7 09:57:30 2016
 By deploy user
Copyright &#194;&#169; 2010 Berton Hasebe, under exclusive license to Schwartzco Inc. d/b/a Commercial Type.
</metadata>
<defs>
<font id="Platform-Hairline" horiz-adv-x="599" >
  <font-face 
    font-family="Platform Hairline"
    font-weight="250"
    font-stretch="normal"
    units-per-em="1000"
    panose-1="2 11 2 4 3 2 2 2 2 4"
    ascent="825"
    descent="-175"
    x-height="535"
    cap-height="692"
    bbox="-66 -209 1077 1010"
    underline-thickness="50"
    underline-position="-50"
    unicode-range="U+0020-U+FB02"
  />
<missing-glyph horiz-adv-x="166" 
 />
    <glyph glyph-name="f_f" unicode="ff" horiz-adv-x="360" 
d="M247 0h-10v525h-164v-525h-10v525h-53v10h53v91q0 51 17.5 78t68.5 27h27v-10h-27q-45 0 -60.5 -24.5t-15.5 -70.5v-91h164v91q0 51 17.5 78t68.5 27h27v-10h-27q-45 0 -60.5 -24.5t-15.5 -70.5v-91h100v-10h-100v-525z" />
    <glyph glyph-name=".notdef" horiz-adv-x="166" 
 />
    <glyph glyph-name=".null" horiz-adv-x="0" 
 />
    <glyph glyph-name="nonmarkingreturn" horiz-adv-x="333" 
 />
    <glyph glyph-name="space" unicode=" " horiz-adv-x="166" 
 />
    <glyph glyph-name="exclam" unicode="!" horiz-adv-x="142" 
d="M66 692h10v-563h-10v563zM71 -5q-19 0 -19 19t19 19t19 -19t-19 -19z" />
    <glyph glyph-name="quotedbl" unicode="&#x22;" horiz-adv-x="140" 
d="M30 692h10v-148h-10v148zM100 692h10v-148h-10v148z" />
    <glyph glyph-name="numbersign" unicode="#" horiz-adv-x="487" 
d="M79 489v10h102l47 193h10l-47 -193h173l47 193h10l-47 -193h99v-10h-101l-62 -256h99v-10h-101l-54 -223h-10l54 223h-175l-54 -223h-10l54 223h-99v10h102l62 256h-99zM188 489l-62 -256h174l62 256h-174z" />
    <glyph glyph-name="dollar" unicode="$" horiz-adv-x="422" 
d="M32 156h10q0 -65 43.5 -110.5t119.5 -45.5h5v362q-86 31 -125 70t-39 107t43 112t121 45v57h10v-57q67 -3 107 -42.5t47 -107.5h-10q-7 64 -44.5 100.5t-99.5 39.5v-317q92 -33 131 -79.5t39 -125.5q0 -73 -47 -120.5t-123 -52.5v-69h-10v68h-5q-81 0 -127 48t-46 118z
M380 164q0 78 -37.5 121t-122.5 74v-359q72 5 116 49.5t44 114.5zM56 539q0 -64 36 -100.5t118 -66.5v314q-74 -1 -114 -42t-40 -105z" />
    <glyph glyph-name="percent" unicode="%" horiz-adv-x="686" 
d="M607 692h12l-542 -692h-12zM22 546q0 65 42.5 109.5t109.5 44.5q70 0 113.5 -44t43.5 -110q0 -65 -43 -109t-112 -44q-67 0 -110.5 44t-43.5 109zM32 546q0 -61 40.5 -102t103.5 -41q64 0 104.5 41.5t40.5 101.5q0 62 -40.5 103t-106.5 41q-62 0 -102 -41.5t-40 -102.5z
M355 149q0 65 42.5 109.5t109.5 44.5q70 0 113.5 -44t43.5 -110q0 -65 -43 -109t-112 -44q-67 0 -110.5 44t-43.5 109zM365 149q0 -61 40.5 -102t103.5 -41q64 0 104.5 41.5t40.5 101.5q0 62 -40.5 103t-106.5 41q-62 0 -102 -41.5t-40 -102.5z" />
    <glyph glyph-name="ampersand" unicode="&#x26;" horiz-adv-x="615" 
d="M92 538q0 73 46.5 119t117.5 46q69 0 115 -46.5t46 -118.5t-47 -118t-116 -46q-22 0 -42 5l280 -267q59 89 59 221q0 25 -1 38h10q1 -13 1 -38q0 -135 -62 -228l110 -105h-14l-102 97q-77 -107 -216 -107q-106 0 -171.5 55.5t-65.5 139.5q0 71 38.5 124t100.5 81
q-40 19 -63.5 57.5t-23.5 90.5zM277 0q135 0 209 104l-294 281q-63 -26 -102.5 -77.5t-39.5 -122.5q0 -79 63 -132t164 -53zM102 538q0 -69 43 -111.5t109 -42.5q65 0 109 43.5t44 110.5q0 68 -43.5 111.5t-107.5 43.5q-66 0 -110 -43t-44 -112z" />
    <glyph glyph-name="quotesingle" unicode="'" horiz-adv-x="70" 
d="M30 692h10v-148h-10v148z" />
    <glyph glyph-name="parenleft" unicode="(" horiz-adv-x="190" 
d="M170 731v-10h-21q-49 0 -65 -23t-16 -73v-694q0 -50 16 -73t65 -23h21v-10h-21q-54 0 -72.5 25.5t-18.5 75.5v704q0 50 18.5 75.5t72.5 25.5h21z" />
    <glyph glyph-name="parenright" unicode=")" horiz-adv-x="190" 
d="M20 721v10h21q54 0 72.5 -25.5t18.5 -75.5v-704q0 -50 -18.5 -75.5t-72.5 -25.5h-21v10h21q49 0 65 23t16 73v694q0 50 -16 73t-65 23h-21z" />
    <glyph glyph-name="asterisk" unicode="*" horiz-adv-x="363" 
d="M41 436l-5 9l136 81l-137 81l5 9l137 -82v158h10v-158l136 81l5 -9l-136 -80l136 -81l-5 -8l-136 80v-157h-10v157z" />
    <glyph glyph-name="plus" unicode="+" horiz-adv-x="411" 
d="M20 332v10h181v182h10v-182h180v-10h-180v-183h-10v183h-181z" />
    <glyph glyph-name="comma" unicode="," horiz-adv-x="108" 
d="M34 -106h-10l35 103h-5q-19 0 -19 19t19 19t19 -19q0 -6 -3 -15z" />
    <glyph glyph-name="hyphen" unicode="-" horiz-adv-x="229" 
d="M40 282v10h149v-10h-149z" />
    <glyph glyph-name="period" unicode="." horiz-adv-x="108" 
d="M54 -3q-19 0 -19 19t19 19t19 -19t-19 -19z" />
    <glyph glyph-name="slash" unicode="/" horiz-adv-x="419" 
d="M16 -175h-12l399 906h12z" />
    <glyph glyph-name="zero" unicode="0" horiz-adv-x="475" 
d="M54 184v325q0 91 46 144t137 53q86 0 135 -54.5t49 -142.5v-325q0 -88 -49 -142.5t-135 -54.5q-91 0 -137 53t-46 144zM64 509v-325q0 -87 43.5 -137t129.5 -50q81 0 127.5 52t46.5 135v325q0 83 -46.5 135t-127.5 52q-86 0 -129.5 -50t-43.5 -137z" />
    <glyph glyph-name="one" unicode="1" horiz-adv-x="153" 
d="M12 648v10l74 34h9v-692h-10v681z" />
    <glyph glyph-name="two" unicode="2" horiz-adv-x="427" 
d="M47 515h-10q0 78 42.5 134.5t129.5 56.5q85 0 129.5 -51t44.5 -136q0 -59 -27 -109.5t-79 -113.5l-234 -286h360v-10h-373v10l239 292q53 63 78.5 110.5t25.5 106.5q0 81 -41.5 129t-122.5 48q-82 0 -122 -53.5t-40 -127.5z" />
    <glyph glyph-name="three" unicode="3" horiz-adv-x="432" 
d="M20 190h10q0 -81 47.5 -135.5t137.5 -54.5q80 0 131.5 52t51.5 137q0 93 -59 139.5t-153 46.5h-26v10l218 297h-333v10h346v-10l-218 -297h13q98 0 160 -49t62 -147q0 -89 -54.5 -144t-138.5 -55q-94 0 -144.5 57.5t-50.5 142.5z" />
    <glyph glyph-name="four" unicode="4" horiz-adv-x="454" 
d="M347 0h-10v265h-327v10l328 417h9v-417h97v-10h-97v-265zM337 676l-314 -401h314v401z" />
    <glyph glyph-name="five" unicode="5" horiz-adv-x="441" 
d="M377 692v-10h-319v-343q20 46 64.5 72.5t105.5 26.5q86 0 131.5 -54t45.5 -143v-57q0 -88 -48.5 -142.5t-134.5 -54.5q-91 0 -136.5 53t-45.5 144h10q0 -87 43 -137t129 -50q81 0 127 52t46 135v57q0 84 -43 135.5t-124 51.5q-67 0 -111 -32t-59 -87l-10 1v382h329z" />
    <glyph glyph-name="six" unicode="6" horiz-adv-x="461" 
d="M396 618l-8 -5q-44 84 -151 84q-86 0 -129.5 -50t-43.5 -137v-193q16 57 60.5 89t114.5 32q85 0 133.5 -54.5t48.5 -142.5v-57q0 -88 -49 -142.5t-135 -54.5q-91 0 -137 53t-46 144v326q0 91 46 144t137 53q111 0 159 -89zM64 184q0 -87 43.5 -137t129.5 -50
q81 0 127.5 52t46.5 135v57q0 83 -45.5 135t-126.5 52q-85 0 -129 -48t-46 -131v-65z" />
    <glyph glyph-name="seven" unicode="7" horiz-adv-x="402" 
d="M109 0h-12l269 682h-352v10h363v-10z" />
    <glyph glyph-name="eight" unicode="8" horiz-adv-x="448" 
d="M224 -13q-86 0 -141.5 54.5t-55.5 137.5q0 70 40.5 121t108.5 65q-59 14 -94 59.5t-35 109.5q0 75 49.5 123.5t127.5 48.5t127.5 -48.5t49.5 -123.5q0 -64 -35.5 -109.5t-94.5 -59.5q68 -14 109 -65t41 -121q0 -83 -55.5 -137.5t-141.5 -54.5zM224 -3q82 0 134.5 51.5
t52.5 130.5q0 76 -50.5 127t-129.5 54h-15q-79 -3 -129 -54t-50 -127q0 -79 52.5 -130.5t134.5 -51.5zM224 370h7q70 2 115 47.5t45 116.5t-47 116.5t-120 45.5t-120 -45.5t-47 -116.5q0 -72 47 -118t120 -46z" />
    <glyph glyph-name="nine" unicode="9" horiz-adv-x="461" 
d="M65 76l8 5q44 -84 151 -84q86 0 129.5 50t43.5 137v193q-35 -121 -175 -121q-85 0 -133.5 54.5t-48.5 142.5v57q0 88 49 142.5t135 54.5q91 0 137 -53t46 -144v-326q0 -91 -46 -144t-137 -53q-111 0 -159 89zM397 510q0 87 -43.5 137t-129.5 50q-81 0 -127.5 -52
t-46.5 -135v-57q0 -83 45.5 -135t126.5 -52q85 0 129 47.5t46 130.5v66z" />
    <glyph glyph-name="colon" unicode=":" horiz-adv-x="108" 
d="M54 -3q-19 0 -19 19t19 19t19 -19t-19 -19zM54 344q-19 0 -19 19t19 19t19 -19t-19 -19z" />
    <glyph glyph-name="semicolon" unicode=";" horiz-adv-x="108" 
d="M34 -106h-10l35 103h-5q-19 0 -19 19t19 19t19 -19q0 -6 -3 -15zM54 344q-19 0 -19 19t19 19t19 -19t-19 -19z" />
    <glyph glyph-name="less" unicode="&#x3c;" horiz-adv-x="397" 
d="M370 180v-12l-344 164v12l344 163v-12l-332 -157z" />
    <glyph glyph-name="equal" unicode="=" horiz-adv-x="429" 
d="M400 393v-10h-371v10h371zM29 272v10h371v-10h-371z" />
    <glyph glyph-name="greater" unicode="&#x3e;" horiz-adv-x="397" 
d="M27 168v12l332 158l-332 157v12l344 -163v-12z" />
    <glyph glyph-name="question" unicode="?" horiz-adv-x="472" 
d="M47 494h-10q-1 30 6.5 62t27 67t61.5 57.5t101 22.5q94 0 148.5 -55.5t54.5 -139.5q0 -82 -55 -137.5t-148 -57.5v-184h-10v194q94 0 148.5 52.5t54.5 132.5t-51.5 132.5t-141.5 52.5q-45 0 -80 -14.5t-55 -36.5t-32 -50.5t-16 -52t-3 -45.5zM228 -5q-19 0 -19 19t19 19
t19 -19t-19 -19z" />
    <glyph glyph-name="at" unicode="@" horiz-adv-x="955" 
d="M258 283q0 94 60 153.5t149 59.5q70 0 124 -39.5t74 -105.5v138h10v-291q0 -116 101 -116q60 0 100 66t40 189q0 166 -116 278t-312 112q-197 0 -322.5 -126t-125.5 -315q0 -192 123 -315t336 -123q98 0 181.5 34.5t130.5 82.5l8 -8q-48 -48 -133.5 -83.5t-186.5 -35.5
q-218 0 -343.5 126t-125.5 322q0 194 128 322.5t330 128.5q200 0 319 -114.5t119 -285.5q0 -128 -42.5 -196.5t-107.5 -68.5q-111 0 -111 126v17q-20 -65 -75 -104.5t-125 -39.5q-89 0 -148 58.5t-59 153.5zM268 283q0 -90 56 -146t141 -56q84 0 142 57.5t58 144.5
q0 88 -57 145.5t-141 57.5q-85 0 -142 -56.5t-57 -146.5z" />
    <glyph glyph-name="A" unicode="A" 
d="M13 0h-11l293 692h10l292 -692h-11l-130 308h-313zM300 678l-152 -360h304z" />
    <glyph glyph-name="B" unicode="B" horiz-adv-x="423" 
d="M61 692h129q89 0 134 -42.5t45 -122.5q0 -67 -32 -110t-92 -56q72 -10 110.5 -56t38.5 -119q0 -87 -50.5 -136.5t-146.5 -49.5h-136v692zM197 355h-126v-345h126q91 0 139 47t48 129q0 80 -47 124.5t-140 44.5zM190 682h-119v-317h119q82 0 125.5 42.5t43.5 119.5
q0 155 -169 155z" />
    <glyph glyph-name="C" unicode="C" horiz-adv-x="617" 
d="M597 86l7 -7q-36 -37 -94 -64.5t-133 -27.5q-152 0 -250 100.5t-98 258.5t97.5 259t248.5 101q133 0 218 -79l-7 -7q-82 76 -211 76q-147 0 -241.5 -98.5t-94.5 -251.5t95.5 -251t242.5 -98q72 0 128.5 26.5t91.5 62.5z" />
    <glyph glyph-name="D" unicode="D" horiz-adv-x="496" 
d="M123 682h-52v-672h51q156 0 245.5 92t89.5 244q0 153 -89 244.5t-245 91.5zM61 692h62q161 0 252.5 -94.5t91.5 -251.5q0 -156 -92 -251t-253 -95h-61v692z" />
    <glyph glyph-name="E" unicode="E" horiz-adv-x="344" 
d="M298 364v-10h-227v-344h235v-10h-245v692h243v-10h-233v-318h227z" />
    <glyph glyph-name="F" unicode="F" horiz-adv-x="338" 
d="M71 0h-10v692h242v-10h-232v-318h226v-10h-226v-354z" />
    <glyph glyph-name="G" unicode="G" horiz-adv-x="699" 
d="M449 330v10h196v-340h-10v100q-99 -113 -259 -113q-151 0 -249 100.5t-98 258.5t98.5 259t249.5 101q90 0 155 -33t100 -78l-8 -7q-34 43 -97 75.5t-150 32.5q-147 0 -242.5 -98t-95.5 -252t95 -251.5t242 -97.5q163 0 259 118v215h-186z" />
    <glyph glyph-name="H" unicode="H" horiz-adv-x="584" 
d="M71 0h-10v692h10v-324h442v324h10v-692h-10v358h-442v-358z" />
    <glyph glyph-name="I" unicode="I" horiz-adv-x="132" 
d="M61 692h10v-692h-10v692z" />
    <glyph glyph-name="J" unicode="J" horiz-adv-x="190" 
d="M130 692v-597q0 -50 -15.5 -72.5t-65.5 -22.5h-31v10h31q45 0 58 19t13 66v597h10z" />
    <glyph glyph-name="K" unicode="K" horiz-adv-x="469" 
d="M443 692h15l-377 -331l391 -361h-14l-387 357v-357h-10v692h10v-327z" />
    <glyph glyph-name="L" unicode="L" horiz-adv-x="312" 
d="M291 10v-10h-230v692h10v-682h220z" />
    <glyph glyph-name="M" unicode="M" horiz-adv-x="802" 
d="M71 0h-10v692h11l329 -680l329 680h11v-692h-10v671l-325 -671h-10l-325 671v-671z" />
    <glyph glyph-name="N" unicode="N" horiz-adv-x="646" 
d="M71 0h-10v692h10l504 -675v675h10v-692h-10l-504 675v-675z" />
    <glyph glyph-name="O" unicode="O" horiz-adv-x="753" 
d="M39 346q0 -153 96 -251t240 -98t241.5 99.5t97.5 249.5q0 151 -97 250.5t-241 99.5q-143 0 -240 -98.5t-97 -251.5zM29 346q0 157 99.5 258.5t247.5 101.5q149 0 248.5 -102t99.5 -258q0 -154 -100.5 -256.5t-248.5 -102.5t-247 101t-99 258z" />
    <glyph glyph-name="P" unicode="P" horiz-adv-x="382" 
d="M71 0h-10v692h98q93 0 144 -42.5t51 -126.5q0 -83 -54 -129t-141 -46h-88v-348zM71 682v-324h88q83 0 134 43.5t51 121.5q0 80 -48.5 119.5t-136.5 39.5h-88z" />
    <glyph glyph-name="Q" unicode="Q" horiz-adv-x="753" 
d="M29 346q0 157 99.5 258.5t247.5 101.5q149 0 248.5 -102t99.5 -258q0 -90 -36.5 -165t-100.5 -124l67 -65l-7 -7l-69 66q-89 -64 -203 -64q-148 0 -247 101t-99 258zM511 116l7 7l61 -59q63 47 99 120.5t36 161.5q0 151 -97 250.5t-241 99.5q-143 0 -240 -98.5
t-97 -251.5t96 -251t240 -98q110 0 196 61z" />
    <glyph glyph-name="R" unicode="R" horiz-adv-x="421" 
d="M71 0h-10v692h98q195 0 195 -169q0 -141 -136 -169l208 -354h-11l-207 352q-21 -4 -49 -4h-88v-348zM71 682v-324h88q85 0 135 40.5t50 124.5q0 86 -47 122.5t-138 36.5h-88z" />
    <glyph glyph-name="S" unicode="S" horiz-adv-x="422" 
d="M32 156h10q0 -65 43.5 -110.5t119.5 -45.5q78 0 126.5 45.5t48.5 118.5q0 79 -38.5 122t-128.5 75q-89 32 -128 70.5t-39 107.5t43.5 113t121.5 44q71 0 113.5 -39.5t49.5 -110.5h-10q-7 66 -47 103t-106 37q-74 0 -114.5 -41.5t-40.5 -105.5q0 -65 37.5 -101.5
t123.5 -67.5q94 -33 133.5 -79.5t39.5 -126.5q0 -77 -51.5 -125.5t-133.5 -48.5q-81 0 -127 48t-46 118z" />
    <glyph glyph-name="T" unicode="T" horiz-adv-x="347" 
d="M17 682v10h313v-10h-153v-682h-10v682h-150z" />
    <glyph glyph-name="U" unicode="U" horiz-adv-x="574" 
d="M56 692h10v-458q0 -110 56 -173.5t165 -63.5q102 0 161.5 65.5t59.5 171.5v458h10v-458q0 -110 -62 -178.5t-169 -68.5q-114 0 -172.5 66.5t-58.5 180.5v458z" />
    <glyph glyph-name="V" unicode="V" horiz-adv-x="601" 
d="M2 692h12l288 -678l286 678h11l-292 -692h-10z" />
    <glyph glyph-name="W" unicode="W" horiz-adv-x="956" 
d="M940 692h11l-239 -692h-10l-222 673l-222 -673h-10l-243 692h11l237 -673l222 673h10l222 -673z" />
    <glyph glyph-name="X" unicode="X" horiz-adv-x="580" 
d="M22 692h13l254 -324l253 324h13l-260 -332l283 -360h-12l-277 352l-274 -352h-13l281 360z" />
    <glyph glyph-name="Y" unicode="Y" horiz-adv-x="431" 
d="M419 692h12l-209 -315v-377h-10v377l-212 315h12l205 -305z" />
    <glyph glyph-name="Z" unicode="Z" horiz-adv-x="574" 
d="M38 682v10h506v-10l-501 -672h501v-10h-514v10l501 672h-493z" />
    <glyph glyph-name="bracketleft" unicode="[" horiz-adv-x="184" 
d="M164 731v-10h-96v-886h96v-10h-106v906h106z" />
    <glyph glyph-name="backslash" unicode="\" horiz-adv-x="419" 
d="M415 -175h-12l-399 906h12z" />
    <glyph glyph-name="bracketright" unicode="]" horiz-adv-x="184" 
d="M20 721v10h106v-906h-106v10h96v886h-96z" />
    <glyph glyph-name="asciicircum" unicode="^" horiz-adv-x="363" 
d="M20 385h-10l167 307h10l166 -307h-10l-161 297z" />
    <glyph glyph-name="underscore" unicode="_" horiz-adv-x="631" 
d="M595 -59v-10h-559v10h559z" />
    <glyph glyph-name="grave" unicode="`" horiz-adv-x="416" 
d="M216 585h-11l-64 121h11z" />
    <glyph glyph-name="a" unicode="a" horiz-adv-x="422" 
d="M31 158q0 73 47.5 120.5t121.5 47.5q55 0 98.5 -30.5t57.5 -81.5v147q0 83 -40 127t-108 44q-72 0 -109 -41t-37 -105h-10q0 68 40.5 112t115.5 44t116.5 -46.5t41.5 -134.5v-361h-10v101q-16 -51 -58 -81t-98 -30q-73 0 -121 47.5t-48 120.5zM41 158q0 -68 45 -113
t114 -45q67 0 111.5 44.5t44.5 113.5t-44.5 113.5t-111.5 44.5q-70 0 -114.5 -45t-44.5 -113z" />
    <glyph glyph-name="b" unicode="b" horiz-adv-x="621" 
d="M68 0h-10v731h10v-386q22 90 93.5 144.5t164.5 54.5q113 0 190 -78t77 -199q0 -120 -78 -198t-191 -78q-93 0 -163.5 54t-92.5 144v-189zM68 267q0 -119 73.5 -192.5t182.5 -73.5q108 0 183.5 75.5t75.5 190.5q0 116 -74 191.5t-183 75.5q-108 0 -183 -73.5t-75 -193.5z
" />
    <glyph glyph-name="c" unicode="c" horiz-adv-x="529" 
d="M501 96l8 -6q-30 -40 -83 -69.5t-126 -29.5q-120 0 -196 78.5t-76 197.5t77.5 198t194.5 79q76 0 128 -28.5t79 -67.5l-8 -6q-26 37 -76 64.5t-123 27.5q-112 0 -187 -76.5t-75 -190.5q0 -115 73.5 -190.5t188.5 -75.5q70 0 121.5 28.5t79.5 66.5z" />
    <glyph glyph-name="d" unicode="d" horiz-adv-x="621" 
d="M28 267q0 122 77.5 199.5t190.5 77.5q93 0 164 -55.5t93 -145.5v388h10v-731h-10v193q-23 -92 -94.5 -147t-164.5 -55q-114 0 -190 76.5t-76 199.5zM38 267q0 -119 73.5 -192.5t182.5 -73.5t184 75.5t75 190.5q0 118 -75 192.5t-182 74.5q-109 0 -183.5 -74.5
t-74.5 -192.5z" />
    <glyph glyph-name="e" unicode="e" horiz-adv-x="567" 
d="M544 270h-506v-3q0 -120 71.5 -193t184.5 -73q82 0 144 44.5t89 114.5l9 -4q-28 -73 -92 -119t-150 -46q-117 0 -191.5 76t-74.5 200q0 122 73.5 199.5t184.5 77.5q113 0 185.5 -70.5t72.5 -189.5v-14zM286 534q-103 0 -173.5 -71t-74.5 -183h496v4q0 115 -69.5 182.5
t-178.5 67.5z" />
    <glyph glyph-name="f" unicode="f" horiz-adv-x="186" 
d="M73 0h-10v525h-53v10h53v91q0 51 17.5 78t68.5 27h27v-10h-27q-45 0 -60.5 -24.5t-15.5 -70.5v-91h100v-10h-100v-525z" />
    <glyph glyph-name="g" unicode="g" horiz-adv-x="621" 
d="M563 535v-443q0 -142 -76 -208t-198 -66q-131 0 -218 66l6 8q85 -64 212 -64q55 0 101.5 14.5t83.5 44.5t58 82.5t21 122.5v101q-23 -92 -94.5 -147t-164.5 -55q-114 0 -190 76.5t-76 199.5q0 122 77.5 199.5t190.5 77.5q93 0 164 -55.5t93 -145.5v192h10zM38 267
q0 -119 73.5 -192.5t182.5 -73.5t184 75.5t75 190.5q0 118 -75 192.5t-182 74.5q-109 0 -183.5 -74.5t-74.5 -192.5z" />
    <glyph glyph-name="h" unicode="h" horiz-adv-x="430" 
d="M364 0v360q0 78 -36.5 124.5t-107.5 46.5q-73 0 -112.5 -49t-39.5 -133v-349h-10v731h10v-311q12 58 53.5 89.5t98.5 31.5q77 0 115.5 -49.5t38.5 -130.5v-361h-10z" />
    <glyph glyph-name="i" unicode="i" horiz-adv-x="126" 
d="M58 535h10v-535h-10v535zM63 631q-7 0 -12.5 5.5t-5.5 12.5t5.5 12.5t12.5 5.5t12.5 -5.5t5.5 -12.5t-5.5 -12.5t-12.5 -5.5z" />
    <glyph glyph-name="j" unicode="j" horiz-adv-x="126" 
d="M58 535h10v-605q0 -51 -17.5 -78t-68.5 -27h-24v10h24q45 0 60.5 24.5t15.5 70.5v605zM63 631q-7 0 -12.5 5.5t-5.5 12.5t5.5 12.5t12.5 5.5t12.5 -5.5t5.5 -12.5t-5.5 -12.5t-12.5 -5.5z" />
    <glyph glyph-name="k" unicode="k" horiz-adv-x="410" 
d="M386 535h16l-323 -254l332 -281h-16l-327 277v-277h-10v731h10v-446z" />
    <glyph glyph-name="l" unicode="l" horiz-adv-x="126" 
d="M58 731h10v-731h-10v731z" />
    <glyph glyph-name="m" unicode="m" horiz-adv-x="683" 
d="M347 365v-365h-10v363q0 168 -131 168q-67 0 -102.5 -49t-35.5 -132v-350h-10v535h10v-110q12 56 49.5 86t89.5 30q59 0 93 -33.5t43 -90.5q11 59 49.5 91.5t92.5 32.5q73 0 107.5 -48.5t34.5 -130.5v-358h-10v359q0 78 -32.5 123t-98.5 45q-65 0 -102 -45.5t-37 -120.5z
" />
    <glyph glyph-name="n" unicode="n" horiz-adv-x="430" 
d="M364 0v360q0 78 -36.5 124.5t-107.5 46.5q-73 0 -112.5 -49t-39.5 -133v-349h-10v535h10v-115q12 58 53.5 89.5t98.5 31.5q77 0 115.5 -49.5t38.5 -130.5v-361h-10z" />
    <glyph glyph-name="o" unicode="o" 
d="M38 267q0 -119 74 -192.5t186 -73.5q111 0 187 75t76 191q0 117 -75 192t-186 75t-186.5 -74.5t-75.5 -192.5zM28 267q0 123 78 200t194 77t193.5 -78t77.5 -199q0 -120 -79 -198t-194 -78q-117 0 -193.5 76.5t-76.5 199.5z" />
    <glyph glyph-name="p" unicode="p" horiz-adv-x="621" 
d="M68 -175h-10v710h10v-190q22 90 93.5 144.5t164.5 54.5q113 0 190 -78t77 -199q0 -120 -78 -198t-191 -78q-93 0 -163.5 54t-92.5 144v-364zM68 267q0 -119 73.5 -192.5t182.5 -73.5q108 0 183.5 75.5t75.5 190.5q0 116 -74 191.5t-183 75.5q-108 0 -183 -73.5
t-75 -193.5z" />
    <glyph glyph-name="q" unicode="q" horiz-adv-x="621" 
d="M28 267q0 122 77.5 199.5t190.5 77.5q93 0 164 -55.5t93 -145.5v192h10v-710h-10v368q-23 -92 -94.5 -147t-164.5 -55q-114 0 -190 76.5t-76 199.5zM38 267q0 -119 73.5 -192.5t182.5 -73.5t184 75.5t75 190.5q0 118 -75 192.5t-182 74.5q-109 0 -183.5 -74.5
t-74.5 -192.5z" />
    <glyph glyph-name="r" unicode="r" horiz-adv-x="207" 
d="M58 535h10v-72q25 72 110 72h9v-10h-9q-110 0 -110 -127v-398h-10v535z" />
    <glyph glyph-name="s" unicode="s" horiz-adv-x="335" 
d="M301 412h-10q-1 59 -33 89t-89 30q-56 0 -89.5 -32t-33.5 -78q0 -54 33.5 -85.5t96.5 -52.5q71 -23 104.5 -58.5t33.5 -93.5q0 -65 -42 -101t-107 -36q-75 0 -110 42t-35 106h10q0 -59 32.5 -98.5t102.5 -39.5q60 0 99.5 33t39.5 93q0 53 -29.5 86t-102.5 58
q-70 24 -103 57.5t-33 89.5q0 51 36 85.5t97 34.5q62 0 97 -33.5t35 -95.5z" />
    <glyph glyph-name="t" unicode="t" horiz-adv-x="198" 
d="M182 535v-10h-109v-431q0 -43 13.5 -63.5t53.5 -20.5h41v-10h-41q-45 0 -61 23.5t-16 70.5v431h-53v10h53v81h10v-81h109z" />
    <glyph glyph-name="u" unicode="u" horiz-adv-x="427" 
d="M65 535v-360q0 -79 36 -125t109 -46q71 0 109.5 49t39.5 133v349h10v-535h-10v116q-13 -58 -53 -90t-96 -32q-78 0 -116.5 49.5t-38.5 131.5v360h10z" />
    <glyph glyph-name="v" unicode="v" horiz-adv-x="493" 
d="M-2 535h12l237 -523l236 523h12l-242 -535h-12z" />
    <glyph glyph-name="w" unicode="w" horiz-adv-x="834" 
d="M822 535h12l-202 -535h-14l-201 520l-200 -520h-14l-203 535h12l198 -522l201 522h12l202 -522z" />
    <glyph glyph-name="x" unicode="x" horiz-adv-x="500" 
d="M500 0h-13l-237 268l-236 -268h-14l243 276l-229 259h14l222 -251l222 251h14l-229 -259z" />
    <glyph glyph-name="y" unicode="y" horiz-adv-x="494" 
d="M-2 535h12l241 -529l233 529h12l-313 -710h-12l74 168z" />
    <glyph glyph-name="z" unicode="z" horiz-adv-x="443" 
d="M419 10v-10h-395v10l382 515h-373v10h386v-10l-382 -515h382z" />
    <glyph glyph-name="braceleft" unicode="{" horiz-adv-x="245" 
d="M123 625v-242q0 -43 -8 -65.5t-36 -30.5q20 -5 30 -20t12 -31t2 -45v-260q0 -50 16 -73t65 -23h21v-10h-21q-54 0 -72.5 25.5t-18.5 75.5v260q0 23 -0.5 33.5t-3.5 25.5t-10 21t-20 11t-32 5h-24v10h24q19 0 32 5t19.5 11.5t10 21.5t4 25.5t0.5 32.5v242q0 50 18.5 75.5
t72.5 25.5h21v-10h-21q-49 0 -65 -23t-16 -73z" />
    <glyph glyph-name="bar" unicode="|" horiz-adv-x="164" 
d="M77 731h10v-906h-10v906z" />
    <glyph glyph-name="braceright" unicode="}" horiz-adv-x="245" 
d="M122 383v242q0 50 -16 73t-65 23h-21v10h21q54 0 72.5 -25.5t18.5 -75.5v-242q0 -22 0.5 -32.5t4 -25.5t10 -21.5t19.5 -11.5t32 -5h24v-10h-24q-19 0 -32 -5t-20 -11t-10 -21t-3.5 -25.5t-0.5 -33.5v-260q0 -50 -18.5 -75.5t-72.5 -25.5h-21v10h21q49 0 65 23t16 73v260
q0 29 2 45t12 31t30 20q-28 8 -36 30.5t-8 65.5z" />
    <glyph glyph-name="asciitilde" unicode="~" horiz-adv-x="434" 
d="M33 260h-10q2 39 23.5 67.5t62.5 28.5q31 0 54.5 -11t56.5 -35q23 -16 35 -23.5t31 -14t39 -6.5q36 0 55 26t21 60h10q-2 -38 -23.5 -67t-62.5 -29q-30 0 -53.5 10.5t-57.5 35.5q-33 24 -55 34t-50 10q-36 0 -55 -26t-21 -60z" />
    <glyph glyph-name="uni00A0" unicode="&#xa0;" horiz-adv-x="166" 
 />
    <glyph glyph-name="exclamdown" unicode="&#xa1;" horiz-adv-x="142" 
d="M76 -101h-10v563h10v-563zM71 596q19 0 19 -19t-19 -19t-19 19t19 19z" />
    <glyph glyph-name="cent" unicode="&#xa2;" horiz-adv-x="532" 
d="M502 96l8 -6q-30 -40 -83 -69.5t-127 -29.5v-59h-10v59q-116 4 -188.5 81.5t-72.5 194.5q0 116 74 194.5t187 82.5v60h10v-60q77 0 129 -28.5t79 -67.5l-8 -6q-26 37 -76 64.5t-124 27.5v-533q71 0 122.5 28.5t79.5 66.5zM39 267q0 -112 70 -187t181 -79v533
q-109 -4 -180 -80t-71 -187z" />
    <glyph glyph-name="sterling" unicode="&#xa3;" horiz-adv-x="477" 
d="M24 334v10h77v175q0 85 44.5 136t129.5 51q87 0 129.5 -56.5t42.5 -134.5h-10q0 74 -40 127.5t-122 53.5q-81 0 -122.5 -48t-41.5 -129v-175h174v-10h-174v-324h336v-10h-423v10h77v324h-77z" />
    <glyph glyph-name="yen" unicode="&#xa5;" horiz-adv-x="436" 
d="M26 392v10h183l-206 290h12l205 -290l203 290h12l-204 -290h183v-10h-189v-109h189v-10h-189v-273h-10v273h-189v10h189v109h-189z" />
    <glyph glyph-name="brokenbar" unicode="&#xa6;" horiz-adv-x="126" 
d="M58 254h10v-429h-10v429zM58 731h10v-418h-10v418z" />
    <glyph glyph-name="section" unicode="&#xa7;" horiz-adv-x="560" 
d="M320 119l-70 28l-110 43q-104 40 -104 132q0 63 39.5 99.5t97.5 36.5q9 0 21 -2q-81 44 -81 125q0 68 44.5 112.5t128.5 44.5q62 0 102.5 -29t55 -68.5t12.5 -87.5h-10q3 72 -36 123.5t-124 51.5q-79 0 -121 -41.5t-42 -105.5q0 -51 31 -83t98 -58l170 -66
q102 -40 102 -133q0 -61 -39.5 -97.5t-97.5 -36.5q-15 0 -25 3q97 -46 97 -134q0 -69 -51 -113.5t-132 -44.5q-96 0 -141.5 56.5t-42.5 137.5h10q-3 -76 40.5 -130t133.5 -54q77 0 125 42t48 106q0 45 -29 80t-100 63zM418 364l-184 72q-31 12 -61 12q-55 0 -91 -34t-36 -92
q0 -41 26 -72.5t72 -49.5l108 -43l73 -28q31 -12 62 -12q54 0 90.5 33.5t36.5 90.5q0 87 -96 123z" />
    <glyph glyph-name="dieresis" unicode="&#xa8;" horiz-adv-x="378" 
d="M136 632q-17 0 -17 17t17 17t17 -17t-17 -17zM253 632q-17 0 -17 17t17 17t17 -17t-17 -17z" />
    <glyph glyph-name="copyright" unicode="&#xa9;" horiz-adv-x="764" 
d="M39 346q0 -156 97 -252.5t244 -96.5q146 0 245.5 98.5t99.5 250.5q0 153 -98 251.5t-244 98.5q-147 0 -245.5 -97.5t-98.5 -252.5zM29 346q0 159 101.5 259.5t252.5 100.5t251.5 -101t100.5 -259q0 -156 -102.5 -257.5t-252.5 -101.5q-152 0 -251.5 99.5t-99.5 259.5z
M528 499l-6 -8q-47 44 -127 44q-83 0 -135.5 -54t-52.5 -135t51.5 -134t138.5 -53q79 0 126 50l7 -7q-47 -53 -133 -53q-91 0 -145.5 56t-54.5 141q0 86 55 142.5t143 56.5q84 0 133 -46z" />
    <glyph glyph-name="ordfeminine" unicode="&#xaa;" horiz-adv-x="326" 
d="M56 579h-10q0 52 30.5 85t86.5 33q57 0 88.5 -35t31.5 -101v-272h-10v69q-11 -34 -42 -55.5t-74 -21.5q-55 0 -91 36t-36 90q0 56 36 92t91 36q41 0 72.5 -21t43.5 -59v106q0 62 -29 94t-81 32t-79.5 -30.5t-27.5 -77.5zM40 407q0 -50 33 -83t84 -33q50 0 82.5 31.5
t33.5 82.5q0 54 -32.5 87t-83.5 33t-84 -33.5t-33 -84.5z" />
    <glyph glyph-name="guillemotleft" unicode="&#xab;" horiz-adv-x="249" 
d="M119 426h11l-98 -157l98 -157h-11l-98 157zM217 426h11l-98 -157l98 -157h-11l-98 157z" />
    <glyph glyph-name="registered" unicode="&#xae;" horiz-adv-x="442" 
d="M23 536q0 89 57 145.5t142 56.5q84 0 140.5 -57t56.5 -145q0 -87 -57.5 -144t-141.5 -57q-85 0 -141 55.5t-56 145.5zM33 536q0 -85 53.5 -138t133.5 -53t134.5 54t54.5 137q0 84 -53.5 138t-133.5 54t-134.5 -53.5t-54.5 -138.5zM283 430l-51 108q-8 -1 -16 -1h-36v-107
h-10v220h46q69 0 69 -56q0 -44 -43 -54l52 -110h-11zM180 640v-93h36q59 0 59 47q0 46 -59 46h-36z" />
    <glyph glyph-name="macron" unicode="&#xaf;" horiz-adv-x="366" 
d="M90 630v10h186v-10h-186z" />
    <glyph glyph-name="degree" unicode="&#xb0;" horiz-adv-x="300" 
d="M26 571q0 54 34 90.5t89 36.5q57 0 91 -35t34 -90t-33.5 -90.5t-89.5 -35.5q-57 0 -91 35t-34 89zM36 571q0 -49 31 -81.5t84 -32.5q52 0 82.5 32.5t30.5 83.5q0 50 -31 82.5t-84 32.5q-50 0 -81.5 -33.5t-31.5 -83.5z" />
    <glyph glyph-name="twosuperior" unicode="&#xb2;" horiz-adv-x="264" 
d="M50 598h-10q0 41 22.5 70.5t69.5 29.5q46 0 69.5 -26.5t23.5 -71.5q0 -51 -53 -113l-118 -142h178v-10h-191v10l123 148q51 60 51 107q0 41 -21 64.5t-62 23.5q-42 0 -62 -26.5t-20 -63.5z" />
    <glyph glyph-name="threesuperior" unicode="&#xb3;" horiz-adv-x="279" 
d="M33 437h10q0 -41 24 -69t69 -28q41 0 67 27t26 70q0 47 -29.5 69t-77.5 23h-17v10l108 143h-163v10h175v-10l-107 -143h4q52 -1 84.5 -26t32.5 -76q0 -48 -29 -77.5t-74 -29.5q-49 0 -76 30.5t-27 76.5z" />
    <glyph glyph-name="acute" unicode="&#xb4;" horiz-adv-x="415" 
d="M227 585h-11l66 121h11z" />
    <glyph glyph-name="paragraph" unicode="&#xb6;" horiz-adv-x="320" 
d="M166 692h10v-692h-10v460q-63 0 -101.5 31t-38.5 89q0 53 37 82.5t103 29.5zM252 692h10v-692h-10v692z" />
    <glyph glyph-name="periodcentered" unicode="&#xb7;" horiz-adv-x="98" 
d="M49 310q-19 0 -19 19t19 19t19 -19t-19 -19z" />
    <glyph glyph-name="cedilla" unicode="&#xb8;" horiz-adv-x="371" 
d="M131 0h10v-40q98 -1 98 -84q0 -42 -27.5 -63.5t-74.5 -21.5h-6v10h6q92 0 92 75q0 74 -92 74h-6v50z" />
    <glyph glyph-name="onesuperior" unicode="&#xb9;" horiz-adv-x="129" 
d="M20 659v11l41 22h10v-357h-10v345z" />
    <glyph glyph-name="ordmasculine" unicode="&#xba;" horiz-adv-x="446" 
d="M30 491q0 -88 54.5 -142t137.5 -54q81 0 137.5 55.5t56.5 140.5q0 86 -55 141.5t-138 55.5q-82 0 -137.5 -55t-55.5 -142zM20 491q0 91 58.5 149t144.5 58q87 0 145 -58t58 -149q0 -90 -59 -148t-145 -58q-87 0 -144.5 57t-57.5 149z" />
    <glyph glyph-name="guillemotright" unicode="&#xbb;" horiz-adv-x="249" 
d="M119 426h11l98 -157l-98 -157h-11l98 157zM21 426h11l98 -157l-98 -157h-11l98 157z" />
    <glyph glyph-name="onequarter" unicode="&#xbc;" horiz-adv-x="566" 
d="M476 0h-10v133h-179v10l179 214h10v-214h44v-10h-44v-133zM466 341l-166 -198h166v198zM504 692h12l-498 -692h-12zM89 659v11l41 22h10v-357h-10v345z" />
    <glyph glyph-name="onehalf" unicode="&#xbd;" horiz-adv-x="585" 
d="M361 263h-10q0 41 22.5 70.5t69.5 29.5q46 0 69.5 -26.5t23.5 -71.5q0 -51 -53 -113l-118 -142h178v-10h-191v10l123 148q51 60 51 107q0 41 -21 64.5t-62 23.5q-42 0 -62 -26.5t-20 -63.5zM500 692h12l-498 -692h-12zM85 659v11l41 22h10v-357h-10v345z" />
    <glyph glyph-name="threequarters" unicode="&#xbe;" horiz-adv-x="638" 
d="M548 0h-10v133h-179v10l179 214h10v-214h44v-10h-44v-133zM538 341l-166 -198h166v198zM576 692h12l-498 -692h-12zM51 437h10q0 -41 24 -69t69 -28q41 0 67 27t26 70q0 47 -29.5 69t-77.5 23h-17v10l108 143h-163v10h175v-10l-107 -143h4q52 -1 84.5 -26t32.5 -76
q0 -48 -29 -77.5t-74 -29.5q-49 0 -76 30.5t-27 76.5z" />
    <glyph glyph-name="questiondown" unicode="&#xbf;" horiz-adv-x="472" 
d="M425 97h10q1 -30 -6.5 -62t-27 -67t-61.5 -57.5t-101 -22.5q-94 0 -148.5 55.5t-54.5 139.5q0 82 55 137.5t148 57.5v156h10v-166q-94 0 -148.5 -52.5t-54.5 -132.5t51.5 -132.5t141.5 -52.5q45 0 80 14.5t55 36.5t32 50.5t16 52t3 45.5zM244 596q19 0 19 -19t-19 -19
t-19 19t19 19z" />
    <glyph glyph-name="Agrave" unicode="&#xc0;" 
d="M13 0h-11l293 692h10l292 -692h-11l-130 308h-313zM300 678l-152 -360h304zM305 733h-12l-64 112h12z" />
    <glyph glyph-name="Aacute" unicode="&#xc1;" 
d="M13 0h-11l293 692h10l292 -692h-11l-130 308h-313zM300 678l-152 -360h304zM305 733h-12l64 112h12z" />
    <glyph glyph-name="Acircumflex" unicode="&#xc2;" 
d="M13 0h-11l293 692h10l292 -692h-11l-130 308h-313zM300 678l-152 -360h304zM294 847h12l104 -114h-13l-97 105l-97 -105h-13z" />
    <glyph glyph-name="Atilde" unicode="&#xc3;" 
d="M13 0h-11l293 692h10l292 -692h-11l-130 308h-313zM300 678l-152 -360h304zM423 831h10q-1 -32 -17.5 -52t-44.5 -20q-7 0 -15 1.5t-13 3.5t-13 6t-11 6l-12 8t-10 7q-43 29 -67 29t-37.5 -17.5t-14.5 -44.5h-10q1 32 17.5 52t44.5 20q7 0 15 -1.5t12.5 -3t13 -6
l10.5 -5.5t12 -8l10 -7q2 -2 10 -7l11 -7t10 -6t12 -5.5t11.5 -3t13.5 -1.5q23 0 37 17t15 45z" />
    <glyph glyph-name="Adieresis" unicode="&#xc4;" 
d="M13 0h-11l293 692h10l292 -692h-11l-130 308h-313zM300 678l-152 -360h304zM232 778q-17 0 -17 17t17 17t17 -17t-17 -17zM369 778q-17 0 -17 17t17 17t17 -17t-17 -17z" />
    <glyph glyph-name="Aring" unicode="&#xc5;" 
d="M13 0h-11l293 692h10l292 -692h-11l-130 308h-313zM300 678l-152 -360h304zM234 796q0 -27 18 -45.5t47 -18.5q31 0 49 18.5t18 47.5t-18 46.5t-50 17.5q-28 0 -46 -18.5t-18 -47.5zM224 796q0 34 20.5 55t53.5 21q37 0 57.5 -20.5t20.5 -53.5q0 -34 -21 -55t-56 -21
q-33 0 -54 21t-21 53z" />
    <glyph glyph-name="AE" unicode="&#xc6;" horiz-adv-x="721" 
d="M675 364v-10h-227v-344h235v-10h-245v273h-252l-171 -273h-12l435 692h243v-10h-233v-318h227zM193 283h245v390z" />
    <glyph glyph-name="Ccedilla" unicode="&#xc7;" horiz-adv-x="617" 
d="M597 86l7 -7q-36 -37 -94 -64.5t-133 -27.5q-25 0 -48 3v-30q98 -1 98 -84q0 -42 -27.5 -63.5t-74.5 -21.5h-6v10h6q92 0 92 75q0 74 -92 74h-6v42q-130 19 -210 115.5t-80 238.5q0 158 97.5 259t248.5 101q133 0 218 -79l-7 -7q-82 76 -211 76q-147 0 -241.5 -98.5
t-94.5 -251.5t95.5 -251t242.5 -98q72 0 128.5 26.5t91.5 62.5z" />
    <glyph glyph-name="Egrave" unicode="&#xc8;" horiz-adv-x="344" 
d="M298 364v-10h-227v-344h235v-10h-245v692h243v-10h-233v-318h227zM200 733h-12l-64 112h12z" />
    <glyph glyph-name="Eacute" unicode="&#xc9;" horiz-adv-x="344" 
d="M298 364v-10h-227v-344h235v-10h-245v692h243v-10h-233v-318h227zM179 733h-12l64 112h12z" />
    <glyph glyph-name="Ecircumflex" unicode="&#xca;" horiz-adv-x="344" 
d="M297 364v-10h-227v-344h235v-10h-245v692h243v-10h-233v-318h227zM176 847h12l104 -114h-13l-97 105l-97 -105h-13z" />
    <glyph glyph-name="Edieresis" unicode="&#xcb;" horiz-adv-x="344" 
d="M298 364v-10h-227v-344h235v-10h-245v692h243v-10h-233v-318h227zM118 778q-17 0 -17 17t17 17t17 -17t-17 -17zM255 778q-17 0 -17 17t17 17t17 -17t-17 -17z" />
    <glyph glyph-name="Igrave" unicode="&#xcc;" horiz-adv-x="132" 
d="M61 692h10v-692h-10v692zM72 733h-12l-64 112h12z" />
    <glyph glyph-name="Iacute" unicode="&#xcd;" horiz-adv-x="132" 
d="M61 692h10v-692h-10v692zM71 733h-12l64 112h12z" />
    <glyph glyph-name="Icircumflex" unicode="&#xce;" horiz-adv-x="132" 
d="M61 692h10v-692h-10v692zM61 847h12l104 -114h-13l-97 105l-97 -105h-13z" />
    <glyph glyph-name="Idieresis" unicode="&#xcf;" horiz-adv-x="132" 
d="M61 692h10v-692h-10v692zM0 778q-17 0 -17 17t17 17t17 -17t-17 -17zM137 778q-17 0 -17 17t17 17t17 -17t-17 -17z" />
    <glyph glyph-name="Eth" unicode="&#xd0;" horiz-adv-x="507" 
d="M71 692h62q161 0 252.5 -94.5t91.5 -251.5q0 -156 -92 -251t-253 -95h-61v350h-61v10h61v332zM133 682h-52v-322h150v-10h-150v-340h51q156 0 245.5 92t89.5 244q0 153 -89 244.5t-245 91.5z" />
    <glyph glyph-name="Ntilde" unicode="&#xd1;" horiz-adv-x="646" 
d="M71 0h-10v692h10l504 -675v675h10v-692h-10l-504 675v-675zM447 831h10q-1 -32 -17.5 -52t-44.5 -20q-7 0 -15 1.5t-13 3.5t-13 6t-11 6l-12 8t-10 7q-43 29 -67 29t-37.5 -17.5t-14.5 -44.5h-10q1 32 17.5 52t44.5 20q7 0 15 -1.5t12.5 -3t13 -6l10.5 -5.5t12 -8l10 -7
q2 -2 10 -7l11 -7t10 -6t12 -5.5t11.5 -3t13.5 -1.5q23 0 37 17t15 45z" />
    <glyph glyph-name="Ograve" unicode="&#xd2;" horiz-adv-x="753" 
d="M39 346q0 -153 96 -251t240 -98t241.5 99.5t97.5 249.5q0 151 -97 250.5t-241 99.5q-143 0 -240 -98.5t-97 -251.5zM29 346q0 157 99.5 258.5t247.5 101.5q149 0 248.5 -102t99.5 -258q0 -154 -100.5 -256.5t-248.5 -102.5t-247 101t-99 258zM390 733h-12l-64 112h12z
" />
    <glyph glyph-name="Oacute" unicode="&#xd3;" horiz-adv-x="753" 
d="M39 346q0 -153 96 -251t240 -98t241.5 99.5t97.5 249.5q0 151 -97 250.5t-241 99.5q-143 0 -240 -98.5t-97 -251.5zM29 346q0 157 99.5 258.5t247.5 101.5q149 0 248.5 -102t99.5 -258q0 -154 -100.5 -256.5t-248.5 -102.5t-247 101t-99 258zM369 733h-12l64 112h12z" />
    <glyph glyph-name="Ocircumflex" unicode="&#xd4;" horiz-adv-x="753" 
d="M39 346q0 -153 96 -251t240 -98t241.5 99.5t97.5 249.5q0 151 -97 250.5t-241 99.5q-143 0 -240 -98.5t-97 -251.5zM29 346q0 157 99.5 258.5t247.5 101.5q149 0 248.5 -102t99.5 -258q0 -154 -100.5 -256.5t-248.5 -102.5t-247 101t-99 258zM370 847h12l104 -114h-13
l-97 105l-97 -105h-13z" />
    <glyph glyph-name="Otilde" unicode="&#xd5;" horiz-adv-x="753" 
d="M39 346q0 -153 96 -251t240 -98t241.5 99.5t97.5 249.5q0 151 -97 250.5t-241 99.5q-143 0 -240 -98.5t-97 -251.5zM29 346q0 157 99.5 258.5t247.5 101.5q149 0 248.5 -102t99.5 -258q0 -154 -100.5 -256.5t-248.5 -102.5t-247 101t-99 258zM499 831h10
q-1 -32 -17.5 -52t-44.5 -20q-7 0 -15 1.5t-13 3.5t-13 6t-11 6l-12 8t-10 7t-8.5 6t-9.5 6t-8.5 5t-10 5t-9 3.5t-10.5 3t-11 0.5q-24 0 -37.5 -17.5t-14.5 -44.5h-10q1 32 17.5 52t44.5 20q7 0 15 -1.5t12.5 -3t13 -6l10.5 -5.5t12 -8l10 -7q2 -2 10 -7l11 -7t10 -6
t12 -5.5t11.5 -3t13.5 -1.5q23 0 37 17t15 45z" />
    <glyph glyph-name="Odieresis" unicode="&#xd6;" horiz-adv-x="753" 
d="M39 346q0 -153 96 -251t240 -98t241.5 99.5t97.5 249.5q0 151 -97 250.5t-241 99.5q-143 0 -240 -98.5t-97 -251.5zM29 346q0 157 99.5 258.5t247.5 101.5q149 0 248.5 -102t99.5 -258q0 -154 -100.5 -256.5t-248.5 -102.5t-247 101t-99 258zM308 778q-17 0 -17 17t17 17
t17 -17t-17 -17zM445 778q-17 0 -17 17t17 17t17 -17t-17 -17z" />
    <glyph glyph-name="multiply" unicode="&#xd7;" horiz-adv-x="342" 
d="M310 483l7 -7l-139 -140l136 -135l-7 -7l-136 135l-139 -139l-7 7l139 139l-139 139l7 7l139 -139z" />
    <glyph glyph-name="Oslash" unicode="&#xd8;" horiz-adv-x="753" 
d="M29 346q0 157 99.5 258.5t247.5 101.5q131 0 227 -83l69 80l8 -6l-69 -81q113 -103 113 -270q0 -154 -100.5 -256.5t-248.5 -102.5q-135 0 -230 84l-69 -81l-8 6l70 81q-109 103 -109 269zM714 346q0 161 -109 262l-453 -530q90 -81 223 -81q144 0 241.5 99.5t97.5 249.5
zM39 346q0 -161 105 -261l453 530q-94 81 -221 81q-143 0 -240 -98.5t-97 -251.5z" />
    <glyph glyph-name="Ugrave" unicode="&#xd9;" horiz-adv-x="574" 
d="M56 692h10v-458q0 -110 56 -173.5t165 -63.5q102 0 161.5 65.5t59.5 171.5v458h10v-458q0 -110 -62 -178.5t-169 -68.5q-114 0 -172.5 66.5t-58.5 180.5v458zM314 733h-12l-64 112h12z" />
    <glyph glyph-name="Uacute" unicode="&#xda;" horiz-adv-x="574" 
d="M56 692h10v-458q0 -110 56 -173.5t165 -63.5q102 0 161.5 65.5t59.5 171.5v458h10v-458q0 -110 -62 -178.5t-169 -68.5q-114 0 -172.5 66.5t-58.5 180.5v458zM279 733h-12l64 112h12z" />
    <glyph glyph-name="Ucircumflex" unicode="&#xdb;" horiz-adv-x="574" 
d="M56 692h10v-458q0 -110 56 -173.5t165 -63.5q102 0 161.5 65.5t59.5 171.5v458h10v-458q0 -110 -62 -178.5t-169 -68.5q-114 0 -172.5 66.5t-58.5 180.5v458zM281 847h12l104 -114h-13l-97 105l-97 -105h-13z" />
    <glyph glyph-name="Udieresis" unicode="&#xdc;" horiz-adv-x="574" 
d="M56 692h10v-458q0 -110 56 -173.5t165 -63.5q102 0 161.5 65.5t59.5 171.5v458h10v-458q0 -110 -62 -178.5t-169 -68.5q-114 0 -172.5 66.5t-58.5 180.5v458zM219 778q-17 0 -17 17t17 17t17 -17t-17 -17zM356 778q-17 0 -17 17t17 17t17 -17t-17 -17z" />
    <glyph glyph-name="Yacute" unicode="&#xdd;" horiz-adv-x="431" 
d="M419 692h12l-209 -315v-377h-10v377l-212 315h12l205 -305zM217 733h-12l64 112h12z" />
    <glyph glyph-name="Thorn" unicode="&#xde;" horiz-adv-x="380" 
d="M61 692h10v-179h115q75 0 120.5 -39.5t45.5 -117.5q0 -79 -46 -120t-120 -41h-115v-195h-10v692zM186 503h-115v-298h115q69 0 112.5 38t43.5 113q0 73 -43 110t-113 37z" />
    <glyph glyph-name="germandbls" unicode="&#xdf;" horiz-adv-x="461" 
d="M68 0h-10v558q0 78 33.5 128.5t112.5 50.5q67 0 107.5 -40.5t40.5 -107.5q0 -55 -33 -93t-84 -51q89 -11 142.5 -66.5t53.5 -153.5q0 -109 -68.5 -167t-173.5 -58h-11v10h11q100 0 166 55.5t66 159.5q0 106 -64.5 160t-167.5 54h-11v10h14q62 0 106 38.5t44 101.5
q0 62 -38 100t-100 38q-73 0 -104.5 -48t-31.5 -121v-558z" />
    <glyph glyph-name="agrave" unicode="&#xe0;" horiz-adv-x="422" 
d="M31 158q0 73 47.5 120.5t121.5 47.5q55 0 98.5 -30.5t57.5 -81.5v147q0 83 -40 127t-108 44q-72 0 -109 -41t-37 -105h-10q0 68 40.5 112t115.5 44t116.5 -46.5t41.5 -134.5v-361h-10v101q-16 -51 -58 -81t-98 -30q-73 0 -121 47.5t-48 120.5zM41 158q0 -68 45 -113
t114 -45q67 0 111.5 44.5t44.5 113.5t-44.5 113.5t-111.5 44.5q-70 0 -114.5 -45t-44.5 -113zM217 585h-11l-64 121h11z" />
    <glyph glyph-name="aacute" unicode="&#xe1;" horiz-adv-x="422" 
d="M31 158q0 73 47.5 120.5t121.5 47.5q55 0 98.5 -30.5t57.5 -81.5v147q0 83 -40 127t-108 44q-72 0 -109 -41t-37 -105h-10q0 68 40.5 112t115.5 44t116.5 -46.5t41.5 -134.5v-361h-10v101q-16 -51 -58 -81t-98 -30q-73 0 -121 47.5t-48 120.5zM41 158q0 -68 45 -113
t114 -45q67 0 111.5 44.5t44.5 113.5t-44.5 113.5t-111.5 44.5q-70 0 -114.5 -45t-44.5 -113zM203 585h-11l66 121h11z" />
    <glyph glyph-name="acircumflex" unicode="&#xe2;" horiz-adv-x="422" 
d="M31 158q0 73 47.5 120.5t121.5 47.5q55 0 98.5 -30.5t57.5 -81.5v147q0 83 -40 127t-108 44q-72 0 -109 -41t-37 -105h-10q0 68 40.5 112t115.5 44t116.5 -46.5t41.5 -134.5v-361h-10v101q-16 -51 -58 -81t-98 -30q-73 0 -121 47.5t-48 120.5zM41 158q0 -68 45 -113
t114 -45q67 0 111.5 44.5t44.5 113.5t-44.5 113.5t-111.5 44.5q-70 0 -114.5 -45t-44.5 -113zM200 709h12l103 -130h-13l-96 121l-96 -121h-13z" />
    <glyph glyph-name="atilde" unicode="&#xe3;" horiz-adv-x="422" 
d="M31 158q0 73 47.5 120.5t121.5 47.5q55 0 98.5 -30.5t57.5 -81.5v147q0 83 -40 127t-108 44q-72 0 -109 -41t-37 -105h-10q0 68 40.5 112t115.5 44t116.5 -46.5t41.5 -134.5v-361h-10v101q-16 -51 -58 -81t-98 -30q-73 0 -121 47.5t-48 120.5zM41 158q0 -68 45 -113
t114 -45q67 0 111.5 44.5t44.5 113.5t-44.5 113.5t-111.5 44.5q-70 0 -114.5 -45t-44.5 -113zM322 677h10q-1 -33 -17 -52.5t-43 -19.5q-7 0 -14.5 1.5t-13 3.5t-13 6t-11 6.5l-11 7.5l-10.5 7q-43 29 -66 29q-24 0 -36.5 -17t-13.5 -45h-10q1 32 16.5 52t43.5 20
q7 0 14.5 -1.5t13 -3t12.5 -6t10.5 -6.5t11.5 -7.5t10 -6.5t11.5 -8t13.5 -9l12 -6t15 -5.5t15 -1.5q23 0 36 17t14 45z" />
    <glyph glyph-name="adieresis" unicode="&#xe4;" horiz-adv-x="422" 
d="M31 158q0 73 47.5 120.5t121.5 47.5q55 0 98.5 -30.5t57.5 -81.5v147q0 83 -40 127t-108 44q-72 0 -109 -41t-37 -105h-10q0 68 40.5 112t115.5 44t116.5 -46.5t41.5 -134.5v-361h-10v101q-16 -51 -58 -81t-98 -30q-73 0 -121 47.5t-48 120.5zM41 158q0 -68 45 -113
t114 -45q67 0 111.5 44.5t44.5 113.5t-44.5 113.5t-111.5 44.5q-70 0 -114.5 -45t-44.5 -113zM149 632q-17 0 -17 17t17 17t17 -17t-17 -17zM266 632q-17 0 -17 17t17 17t17 -17t-17 -17z" />
    <glyph glyph-name="aring" unicode="&#xe5;" horiz-adv-x="422" 
d="M31 158q0 73 47.5 120.5t121.5 47.5q55 0 98.5 -30.5t57.5 -81.5v147q0 83 -40 127t-108 44q-72 0 -109 -41t-37 -105h-10q0 68 40.5 112t115.5 44t116.5 -46.5t41.5 -134.5v-361h-10v101q-16 -51 -58 -81t-98 -30q-73 0 -121 47.5t-48 120.5zM41 158q0 -68 45 -113
t114 -45q67 0 111.5 44.5t44.5 113.5t-44.5 113.5t-111.5 44.5q-70 0 -114.5 -45t-44.5 -113zM143 659q0 -27 18 -45.5t47 -18.5q31 0 49 18.5t18 47.5t-18 46.5t-50 17.5q-28 0 -46 -18.5t-18 -47.5zM133 659q0 34 20.5 55t53.5 21q37 0 57.5 -20.5t20.5 -53.5
q0 -34 -21 -55t-56 -21q-33 0 -54 21t-21 53z" />
    <glyph glyph-name="ae" unicode="&#xe6;" horiz-adv-x="885" 
d="M602 534q-103 0 -173.5 -71t-74.5 -183h496v4q0 115 -69.5 182.5t-178.5 67.5zM41 158q0 -68 45 -113t114 -45q67 0 110.5 43t45.5 111q0 73 -44 117.5t-112 44.5q-70 0 -114.5 -45t-44.5 -113zM610 1q82 0 144 44.5t89 114.5l9 -4q-28 -73 -92 -119t-150 -46t-150.5 42
t-94.5 116q-4 -71 -49.5 -115t-115.5 -44q-73 0 -121 47.5t-48 120.5t47.5 120.5t121.5 47.5q100 0 145 -83q-1 8 -1 24v94q0 171 -140 171q-69 0 -103 -40.5t-35 -105.5h-10q1 70 37 113t111 43q73 0 111.5 -46t38.5 -135v-13q23 89 90 142.5t158 53.5q113 0 185.5 -70.5
t72.5 -189.5v-14h-506v-3q0 -120 71.5 -193t184.5 -73z" />
    <glyph glyph-name="ccedilla" unicode="&#xe7;" horiz-adv-x="529" 
d="M499 96l8 -6q-30 -40 -83 -69.5t-126 -29.5q-20 0 -38 3v-34q98 -1 98 -84q0 -42 -27.5 -63.5t-74.5 -21.5h-6v10h6q92 0 92 75q0 74 -92 74h-6v45q-101 16 -162.5 90.5t-61.5 181.5q0 119 77.5 198t194.5 79q76 0 128 -28.5t79 -67.5l-8 -6q-26 37 -76 64.5t-123 27.5
q-112 0 -187 -76.5t-75 -190.5q0 -115 73.5 -190.5t188.5 -75.5q70 0 121.5 28.5t79.5 66.5z" />
    <glyph glyph-name="egrave" unicode="&#xe8;" horiz-adv-x="567" 
d="M544 270h-506v-3q0 -120 71.5 -193t184.5 -73q82 0 144 44.5t89 114.5l9 -4q-28 -73 -92 -119t-150 -46q-117 0 -191.5 76t-74.5 200q0 122 73.5 199.5t184.5 77.5q113 0 185.5 -70.5t72.5 -189.5v-14zM286 534q-103 0 -173.5 -71t-74.5 -183h496v4q0 115 -69.5 182.5
t-178.5 67.5zM296 585h-11l-64 121h11z" />
    <glyph glyph-name="eacute" unicode="&#xe9;" horiz-adv-x="567" 
d="M544 270h-506v-3q0 -120 71.5 -193t184.5 -73q82 0 144 44.5t89 114.5l9 -4q-28 -73 -92 -119t-150 -46q-117 0 -191.5 76t-74.5 200q0 122 73.5 199.5t184.5 77.5q113 0 185.5 -70.5t72.5 -189.5v-14zM286 534q-103 0 -173.5 -71t-74.5 -183h496v4q0 115 -69.5 182.5
t-178.5 67.5zM287 585h-11l66 121h11z" />
    <glyph glyph-name="ecircumflex" unicode="&#xea;" horiz-adv-x="567" 
d="M544 270h-506v-3q0 -120 71.5 -193t184.5 -73q82 0 144 44.5t89 114.5l9 -4q-28 -73 -92 -119t-150 -46q-117 0 -191.5 76t-74.5 200q0 122 73.5 199.5t184.5 77.5q113 0 185.5 -70.5t72.5 -189.5v-14zM286 534q-103 0 -173.5 -71t-74.5 -183h496v4q0 115 -69.5 182.5
t-178.5 67.5zM283 709h12l103 -130h-13l-96 121l-96 -121h-13z" />
    <glyph glyph-name="edieresis" unicode="&#xeb;" horiz-adv-x="567" 
d="M544 270h-506v-3q0 -120 71.5 -193t184.5 -73q82 0 144 44.5t89 114.5l9 -4q-28 -73 -92 -119t-150 -46q-117 0 -191.5 76t-74.5 200q0 122 73.5 199.5t184.5 77.5q113 0 185.5 -70.5t72.5 -189.5v-14zM286 534q-103 0 -173.5 -71t-74.5 -183h496v4q0 115 -69.5 182.5
t-178.5 67.5zM231 632q-17 0 -17 17t17 17t17 -17t-17 -17zM348 632q-17 0 -17 17t17 17t17 -17t-17 -17z" />
    <glyph glyph-name="igrave" unicode="&#xec;" horiz-adv-x="126" 
d="M58 535h10v-535h-10v535zM70 585h-11l-64 121h11z" />
    <glyph glyph-name="iacute" unicode="&#xed;" horiz-adv-x="126" 
d="M58 535h10v-535h-10v535zM65 585h-11l66 121h11z" />
    <glyph glyph-name="icircumflex" unicode="&#xee;" horiz-adv-x="126" 
d="M57 709h12l82 -130h-12l-76 120l-76 -120h-12zM58 535h10v-535h-10v535z" />
    <glyph glyph-name="idieresis" unicode="&#xef;" horiz-adv-x="126" 
d="M17 632q-17 0 -17 17t17 17t17 -17t-17 -17zM110 632q-17 0 -17 17t17 17t17 -17t-17 -17zM58 535h10v-535h-10v535z" />
    <glyph glyph-name="eth" unicode="&#xf0;" 
d="M150 596l136 45l-99 90h15l95 -87l97 33l3 -9l-92 -31l170 -153q96 -87 96 -217q0 -120 -79 -198t-194 -78q-117 0 -193.5 76.5t-76.5 199.5t78 200t194 77q71 0 126 -29l-132 119l-141 -47zM38 267q0 -119 74 -192.5t186 -73.5q111 0 187 75t76 191q0 117 -75 192
t-186 75t-186.5 -74.5t-75.5 -192.5z" />
    <glyph glyph-name="ntilde" unicode="&#xf1;" horiz-adv-x="430" 
d="M364 0v360q0 78 -36.5 124.5t-107.5 46.5q-73 0 -112.5 -49t-39.5 -133v-349h-10v535h10v-115q12 58 53.5 89.5t98.5 31.5q77 0 115.5 -49.5t38.5 -130.5v-361h-10zM327 677h10q-1 -33 -17 -52.5t-43 -19.5q-7 0 -14.5 1.5t-13 3.5t-13 6t-11 6.5l-11 7.5l-10.5 7
q-2 1 -10 6.5t-10.5 7.5t-9.5 5.5t-11.5 5t-11 3t-13.5 1.5q-24 0 -36.5 -17t-13.5 -45h-10q1 32 16.5 52t43.5 20q7 0 14.5 -1.5t13 -3t12.5 -6t10.5 -6.5t11.5 -7.5t10 -6.5t11.5 -8t13.5 -9l12 -6t15 -5.5t15 -1.5q23 0 36 17t14 45z" />
    <glyph glyph-name="ograve" unicode="&#xf2;" 
d="M38 267q0 -119 74 -192.5t186 -73.5q111 0 187 75t76 191q0 117 -75 192t-186 75t-186.5 -74.5t-75.5 -192.5zM28 267q0 123 78 200t194 77t193.5 -78t77.5 -199q0 -120 -79 -198t-194 -78q-117 0 -193.5 76.5t-76.5 199.5zM308 585h-11l-64 121h11z" />
    <glyph glyph-name="oacute" unicode="&#xf3;" 
d="M38 267q0 -119 74 -192.5t186 -73.5q111 0 187 75t76 191q0 117 -75 192t-186 75t-186.5 -74.5t-75.5 -192.5zM28 267q0 123 78 200t194 77t193.5 -78t77.5 -199q0 -120 -79 -198t-194 -78q-117 0 -193.5 76.5t-76.5 199.5zM299 585h-11l66 121h11z" />
    <glyph glyph-name="ocircumflex" unicode="&#xf4;" 
d="M38 267q0 -119 74 -192.5t186 -73.5q111 0 187 75t76 191q0 117 -75 192t-186 75t-186.5 -74.5t-75.5 -192.5zM28 267q0 123 78 200t194 77t193.5 -78t77.5 -199q0 -120 -79 -198t-194 -78q-117 0 -193.5 76.5t-76.5 199.5zM295 709h12l103 -130h-13l-96 121l-96 -121
h-13z" />
    <glyph glyph-name="otilde" unicode="&#xf5;" 
d="M38 267q0 -119 74 -192.5t186 -73.5q111 0 187 75t76 191q0 117 -75 192t-186 75t-186.5 -74.5t-75.5 -192.5zM28 267q0 123 78 200t194 77t193.5 -78t77.5 -199q0 -120 -79 -198t-194 -78q-117 0 -193.5 76.5t-76.5 199.5zM421 677h10q-1 -33 -17 -52.5t-43 -19.5
q-7 0 -14.5 1.5t-13 3.5t-13 6t-11 6.5l-11 7.5l-10.5 7q-43 29 -66 29q-24 0 -36.5 -17t-13.5 -45h-10q1 32 16.5 52t43.5 20q7 0 14.5 -1.5t13 -3t12.5 -6t10.5 -6.5t11.5 -7.5t10 -6.5t11.5 -8t13.5 -9l12 -6t15 -5.5t15 -1.5q23 0 36 17t14 45z" />
    <glyph glyph-name="odieresis" unicode="&#xf6;" 
d="M38 267q0 -119 74 -192.5t186 -73.5q111 0 187 75t76 191q0 117 -75 192t-186 75t-186.5 -74.5t-75.5 -192.5zM28 267q0 123 78 200t194 77t193.5 -78t77.5 -199q0 -120 -79 -198t-194 -78q-117 0 -193.5 76.5t-76.5 199.5zM243 632q-17 0 -17 17t17 17t17 -17t-17 -17z
M360 632q-17 0 -17 17t17 17t17 -17t-17 -17z" />
    <glyph glyph-name="divide" unicode="&#xf7;" horiz-adv-x="412" 
d="M206 466q-8 0 -13 5t-5 13t5 13t13 5t13 -5t5 -13t-5 -13t-13 -5zM206 166q-8 0 -13 5t-5 13t5 13t13 5t13 -5t5 -13t-5 -13t-13 -5zM20 332v10h372v-10h-372z" />
    <glyph glyph-name="oslash" unicode="&#xf8;" 
d="M28 267q0 123 78 200t194 77q102 0 177 -64l55 64l8 -6l-55 -64q86 -80 86 -207q0 -120 -79 -198t-194 -78q-104 0 -175 59l-52 -60l-8 6l52 61q-87 77 -87 210zM38 267q0 -128 84 -202l349 408q-72 61 -171 61q-111 0 -186.5 -74.5t-75.5 -192.5zM561 267q0 123 -83 199
l-348 -408q69 -57 168 -57q111 0 187 75t76 191z" />
    <glyph glyph-name="ugrave" unicode="&#xf9;" horiz-adv-x="427" 
d="M65 535v-360q0 -79 36 -125t109 -46q71 0 109.5 49t39.5 133v349h10v-535h-10v116q-13 -58 -53 -90t-96 -32q-78 0 -116.5 49.5t-38.5 131.5v360h10zM221 585h-11l-64 121h11z" />
    <glyph glyph-name="uacute" unicode="&#xfa;" horiz-adv-x="427" 
d="M65 535v-360q0 -79 36 -125t109 -46q71 0 109.5 49t39.5 133v349h10v-535h-10v116q-13 -58 -53 -90t-96 -32q-78 0 -116.5 49.5t-38.5 131.5v360h10zM210 585h-11l66 121h11z" />
    <glyph glyph-name="ucircumflex" unicode="&#xfb;" horiz-adv-x="427" 
d="M65 535v-360q0 -79 36 -125t109 -46q71 0 109.5 49t39.5 133v349h10v-535h-10v116q-13 -58 -53 -90t-96 -32q-78 0 -116.5 49.5t-38.5 131.5v360h10zM206 709h12l103 -130h-13l-96 121l-96 -121h-13z" />
    <glyph glyph-name="udieresis" unicode="&#xfc;" horiz-adv-x="427" 
d="M65 535v-360q0 -79 36 -125t109 -46q71 0 109.5 49t39.5 133v349h10v-535h-10v116q-13 -58 -53 -90t-96 -32q-78 0 -116.5 49.5t-38.5 131.5v360h10zM154 632q-17 0 -17 17t17 17t17 -17t-17 -17zM271 632q-17 0 -17 17t17 17t17 -17t-17 -17z" />
    <glyph glyph-name="yacute" unicode="&#xfd;" horiz-adv-x="494" 
d="M0 535h12l241 -529l233 529h12l-313 -710h-12l74 168zM252 585h-11l66 121h11z" />
    <glyph glyph-name="thorn" unicode="&#xfe;" horiz-adv-x="621" 
d="M68 -175h-10v906h10v-386q22 90 93.5 144.5t164.5 54.5q113 0 190 -78t77 -199q0 -120 -78 -198t-191 -78q-93 0 -163.5 54t-92.5 144v-364zM68 267q0 -119 73.5 -192.5t182.5 -73.5q108 0 183.5 75.5t75.5 190.5q0 116 -74 191.5t-183 75.5q-108 0 -183 -73.5
t-75 -193.5z" />
    <glyph glyph-name="ydieresis" unicode="&#xff;" horiz-adv-x="494" 
d="M0 535h12l241 -529l233 529h12l-313 -710h-12l74 168zM196 632q-17 0 -17 17t17 17t17 -17t-17 -17zM313 632q-17 0 -17 17t17 17t17 -17t-17 -17z" />
    <glyph glyph-name="Amacron" unicode="&#x100;" 
d="M13 0h-11l293 692h10l292 -692h-11l-130 308h-313zM300 678l-152 -360h304zM207 778v10h186v-10h-186z" />
    <glyph glyph-name="amacron" unicode="&#x101;" horiz-adv-x="422" 
d="M31 158q0 73 47.5 120.5t121.5 47.5q55 0 98.5 -30.5t57.5 -81.5v147q0 83 -40 127t-108 44q-72 0 -109 -41t-37 -105h-10q0 68 40.5 112t115.5 44t116.5 -46.5t41.5 -134.5v-361h-10v101q-16 -51 -58 -81t-98 -30q-73 0 -121 47.5t-48 120.5zM41 158q0 -68 45 -113
t114 -45q67 0 111.5 44.5t44.5 113.5t-44.5 113.5t-111.5 44.5q-70 0 -114.5 -45t-44.5 -113zM116 630v10h186v-10h-186z" />
    <glyph glyph-name="Abreve" unicode="&#x102;" 
d="M13 0h-11l293 692h10l292 -692h-11l-130 308h-313zM300 678l-152 -360h304zM191 837h10q1 -31 24.5 -60.5t74.5 -29.5t74.5 29.5t24.5 60.5h10q-1 -35 -27 -67.5t-82 -32.5q-57 0 -82.5 33t-26.5 67z" />
    <glyph glyph-name="abreve" unicode="&#x103;" horiz-adv-x="422" 
d="M31 158q0 73 47.5 120.5t121.5 47.5q55 0 98.5 -30.5t57.5 -81.5v147q0 83 -40 127t-108 44q-72 0 -109 -41t-37 -105h-10q0 68 40.5 112t115.5 44t116.5 -46.5t41.5 -134.5v-361h-10v101q-16 -51 -58 -81t-98 -30q-73 0 -121 47.5t-48 120.5zM41 158q0 -68 45 -113
t114 -45q67 0 111.5 44.5t44.5 113.5t-44.5 113.5t-111.5 44.5q-70 0 -114.5 -45t-44.5 -113zM98 700h10q1 -33 24 -63.5t75 -30.5q51 0 74.5 30t24.5 64h10q-1 -37 -26.5 -70.5t-82.5 -33.5t-82.5 33.5t-26.5 70.5z" />
    <glyph glyph-name="Aogonek" unicode="&#x104;" 
d="M13 0h-11l293 692h10l292 -692q-84 -35 -84 -97q0 -34 23.5 -51.5t60.5 -18.5v-10q-42 1 -68 21.5t-26 58.5q0 65 81 101l-128 304h-313zM300 678l-152 -360h304z" />
    <glyph glyph-name="aogonek" unicode="&#x105;" horiz-adv-x="422" 
d="M366 -167v-10q-42 1 -68 21.5t-26 58.5q0 66 84 102v96q-16 -51 -58 -81t-98 -30q-73 0 -121 47.5t-48 120.5t47.5 120.5t121.5 47.5q55 0 98.5 -30.5t57.5 -81.5v147q0 83 -40 127t-108 44q-72 0 -109 -41t-37 -105h-10q0 68 40.5 112t115.5 44t116.5 -46.5t41.5 -134.5
v-361q-84 -35 -84 -97q0 -34 23.5 -51.5t60.5 -18.5zM41 158q0 -68 45 -113t114 -45q67 0 111.5 44.5t44.5 113.5t-44.5 113.5t-111.5 44.5q-70 0 -114.5 -45t-44.5 -113z" />
    <glyph glyph-name="Cacute" unicode="&#x106;" horiz-adv-x="617" 
d="M597 86l7 -7q-36 -37 -94 -64.5t-133 -27.5q-152 0 -250 100.5t-98 258.5t97.5 259t248.5 101q133 0 218 -79l-7 -7q-82 76 -211 76q-147 0 -241.5 -98.5t-94.5 -251.5t95.5 -251t242.5 -98q72 0 128.5 26.5t91.5 62.5zM357 733h-12l64 112h12z" />
    <glyph glyph-name="cacute" unicode="&#x107;" horiz-adv-x="529" 
d="M499 96l8 -6q-30 -40 -83 -69.5t-126 -29.5q-120 0 -196 78.5t-76 197.5t77.5 198t194.5 79q76 0 128 -28.5t79 -67.5l-8 -6q-26 37 -76 64.5t-123 27.5q-112 0 -187 -76.5t-75 -190.5q0 -115 73.5 -190.5t188.5 -75.5q70 0 121.5 28.5t79.5 66.5zM293 585h-11l66 121h11
z" />
    <glyph glyph-name="Ccircumflex" unicode="&#x108;" horiz-adv-x="617" 
d="M597 86l7 -7q-36 -37 -94 -64.5t-133 -27.5q-152 0 -250 100.5t-98 258.5t97.5 259t248.5 101q133 0 218 -79l-7 -7q-82 76 -211 76q-147 0 -241.5 -98.5t-94.5 -251.5t95.5 -251t242.5 -98q72 0 128.5 26.5t91.5 62.5zM357 847h12l104 -114h-13l-97 105l-97 -105h-13z
" />
    <glyph glyph-name="ccircumflex" unicode="&#x109;" horiz-adv-x="529" 
d="M499 96l8 -6q-30 -40 -83 -69.5t-126 -29.5q-120 0 -196 78.5t-76 197.5t77.5 198t194.5 79q76 0 128 -28.5t79 -67.5l-8 -6q-26 37 -76 64.5t-123 27.5q-112 0 -187 -76.5t-75 -190.5q0 -115 73.5 -190.5t188.5 -75.5q70 0 121.5 28.5t79.5 66.5zM289 709h12l103 -130
h-13l-96 121l-96 -121h-13z" />
    <glyph glyph-name="Cdotaccent" unicode="&#x10a;" horiz-adv-x="617" 
d="M597 86l7 -7q-36 -37 -94 -64.5t-133 -27.5q-152 0 -250 100.5t-98 258.5t97.5 259t248.5 101q133 0 218 -79l-7 -7q-82 76 -211 76q-147 0 -241.5 -98.5t-94.5 -251.5t95.5 -251t242.5 -98q72 0 128.5 26.5t91.5 62.5zM364 768q-8 0 -13 5t-5 13t5 13t13 5t13 -5t5 -13
t-5 -13t-13 -5z" />
    <glyph glyph-name="cdotaccent" unicode="&#x10b;" horiz-adv-x="529" 
d="M499 96l8 -6q-30 -40 -83 -69.5t-126 -29.5q-120 0 -196 78.5t-76 197.5t77.5 198t194.5 79q76 0 128 -28.5t79 -67.5l-8 -6q-26 37 -76 64.5t-123 27.5q-112 0 -187 -76.5t-75 -190.5q0 -115 73.5 -190.5t188.5 -75.5q70 0 121.5 28.5t79.5 66.5zM295 631
q-7 0 -12.5 5.5t-5.5 12.5t5.5 12.5t12.5 5.5t12.5 -5.5t5.5 -12.5t-5.5 -12.5t-12.5 -5.5z" />
    <glyph glyph-name="Ccaron" unicode="&#x10c;" horiz-adv-x="617" 
d="M597 86l7 -7q-36 -37 -94 -64.5t-133 -27.5q-152 0 -250 100.5t-98 258.5t97.5 259t248.5 101q133 0 218 -79l-7 -7q-82 76 -211 76q-147 0 -241.5 -98.5t-94.5 -251.5t95.5 -251t242.5 -98q72 0 128.5 26.5t91.5 62.5zM370 733h-12l-104 114h13l97 -105l97 105h13z" />
    <glyph glyph-name="ccaron" unicode="&#x10d;" horiz-adv-x="529" 
d="M499 96l8 -6q-30 -40 -83 -69.5t-126 -29.5q-120 0 -196 78.5t-76 197.5t77.5 198t194.5 79q76 0 128 -28.5t79 -67.5l-8 -6q-26 37 -76 64.5t-123 27.5q-112 0 -187 -76.5t-75 -190.5q0 -115 73.5 -190.5t188.5 -75.5q70 0 121.5 28.5t79.5 66.5zM301 584h-12l-103 130
h13l96 -121l96 121h13z" />
    <glyph glyph-name="Dcaron" unicode="&#x10e;" horiz-adv-x="496" 
d="M123 682h-52v-672h51q156 0 245.5 92t89.5 244q0 153 -89 244.5t-245 91.5zM61 692h62q161 0 252.5 -94.5t91.5 -251.5q0 -156 -92 -251t-253 -95h-61v692zM231 733h-12l-104 114h13l97 -105l97 105h13z" />
    <glyph glyph-name="dcaron" unicode="&#x10f;" horiz-adv-x="621" 
d="M28 267q0 122 77.5 199.5t190.5 77.5q93 0 164 -55.5t93 -145.5v388h10v-731h-10v193q-23 -92 -94.5 -147t-164.5 -55q-114 0 -190 76.5t-76 199.5zM38 267q0 -119 73.5 -192.5t182.5 -73.5t184 75.5t75 190.5q0 118 -75 192.5t-182 74.5q-109 0 -183.5 -74.5
t-74.5 -192.5zM631 731h10l-16 -121h-10z" />
    <glyph glyph-name="Dcroat" unicode="&#x110;" horiz-adv-x="507" 
d="M71 692h62q161 0 252.5 -94.5t91.5 -251.5q0 -156 -92 -251t-253 -95h-61v350h-61v10h61v332zM133 682h-52v-322h150v-10h-150v-340h51q156 0 245.5 92t89.5 244q0 153 -89 244.5t-245 91.5z" />
    <glyph glyph-name="dcroat" unicode="&#x111;" horiz-adv-x="659" 
d="M437 623v10h148v98h10v-98h59v-10h-59v-623h-10v193q-23 -92 -94.5 -147t-164.5 -55q-114 0 -190 76.5t-76 199.5q0 122 77.5 199.5t190.5 77.5q93 0 164 -55.5t93 -145.5v280h-148zM70 267q0 -119 73.5 -192.5t182.5 -73.5t184 75.5t75 190.5q0 118 -75 192.5t-182 74.5
q-109 0 -183.5 -74.5t-74.5 -192.5z" />
    <glyph glyph-name="Emacron" unicode="&#x112;" horiz-adv-x="344" 
d="M298 364v-10h-227v-344h235v-10h-245v692h243v-10h-233v-318h227zM93 778v10h186v-10h-186z" />
    <glyph glyph-name="emacron" unicode="&#x113;" horiz-adv-x="567" 
d="M544 270h-506v-3q0 -120 71.5 -193t184.5 -73q82 0 144 44.5t89 114.5l9 -4q-28 -73 -92 -119t-150 -46q-117 0 -191.5 76t-74.5 200q0 122 73.5 199.5t184.5 77.5q113 0 185.5 -70.5t72.5 -189.5v-14zM286 534q-103 0 -173.5 -71t-74.5 -183h496v4q0 115 -69.5 182.5
t-178.5 67.5zM196 630v10h186v-10h-186z" />
    <glyph glyph-name="Ebreve" unicode="&#x114;" horiz-adv-x="344" 
d="M298 364v-10h-227v-344h235v-10h-245v692h243v-10h-233v-318h227zM69 837h10q1 -31 24.5 -60.5t74.5 -29.5t74.5 29.5t24.5 60.5h10q-1 -35 -27 -67.5t-82 -32.5q-57 0 -82.5 33t-26.5 67z" />
    <glyph glyph-name="ebreve" unicode="&#x115;" horiz-adv-x="567" 
d="M544 270h-506v-3q0 -120 71.5 -193t184.5 -73q82 0 144 44.5t89 114.5l9 -4q-28 -73 -92 -119t-150 -46q-117 0 -191.5 76t-74.5 200q0 122 73.5 199.5t184.5 77.5q113 0 185.5 -70.5t72.5 -189.5v-14zM286 534q-103 0 -173.5 -71t-74.5 -183h496v4q0 115 -69.5 182.5
t-178.5 67.5zM171 700h10q1 -33 24 -63.5t75 -30.5q51 0 74.5 30t24.5 64h10q-1 -37 -26.5 -70.5t-82.5 -33.5t-82.5 33.5t-26.5 70.5z" />
    <glyph glyph-name="Edotaccent" unicode="&#x116;" horiz-adv-x="344" 
d="M298 364v-10h-227v-344h235v-10h-245v692h243v-10h-233v-318h227zM186 768q-8 0 -13 5t-5 13t5 13t13 5t13 -5t5 -13t-5 -13t-13 -5z" />
    <glyph glyph-name="edotaccent" unicode="&#x117;" horiz-adv-x="567" 
d="M544 270h-506v-3q0 -120 71.5 -193t184.5 -73q82 0 144 44.5t89 114.5l9 -4q-28 -73 -92 -119t-150 -46q-117 0 -191.5 76t-74.5 200q0 122 73.5 199.5t184.5 77.5q113 0 185.5 -70.5t72.5 -189.5v-14zM286 534q-103 0 -173.5 -71t-74.5 -183h496v4q0 115 -69.5 182.5
t-178.5 67.5zM289 631q-7 0 -12.5 5.5t-5.5 12.5t5.5 12.5t12.5 5.5t12.5 -5.5t5.5 -12.5t-5.5 -12.5t-12.5 -5.5z" />
    <glyph glyph-name="Eogonek" unicode="&#x118;" horiz-adv-x="344" 
d="M298 364v-10h-227v-344h235v-10h-56q-39 -6 -61.5 -30t-22.5 -59q0 -32 23.5 -54.5t60.5 -23.5v-10q-41 1 -67.5 26t-26.5 62q0 66 63 89h-158v692h243v-10h-233v-318h227z" />
    <glyph glyph-name="eogonek" unicode="&#x119;" horiz-adv-x="567" 
d="M544 270h-506v-3q0 -120 71.5 -193t184.5 -73q82 0 144 44.5t89 114.5l9 -4q-32 -83 -109 -130q-79 -48 -79 -117q0 -36 29.5 -57.5t79.5 -18.5v-10q-55 -2 -87 21.5t-32 64.5q0 58 47 97q-47 -15 -91 -15q-117 0 -191.5 76t-74.5 200q0 122 73.5 199.5t184.5 77.5
q113 0 185.5 -70.5t72.5 -189.5v-14zM286 534q-103 0 -173.5 -71t-74.5 -183h496v4q0 115 -69.5 182.5t-178.5 67.5z" />
    <glyph glyph-name="Ecaron" unicode="&#x11a;" horiz-adv-x="344" 
d="M298 364v-10h-227v-344h235v-10h-245v692h243v-10h-233v-318h227zM192 733h-12l-104 114h13l97 -105l97 105h13z" />
    <glyph glyph-name="ecaron" unicode="&#x11b;" horiz-adv-x="567" 
d="M544 270h-506v-3q0 -120 71.5 -193t184.5 -73q82 0 144 44.5t89 114.5l9 -4q-28 -73 -92 -119t-150 -46q-117 0 -191.5 76t-74.5 200q0 122 73.5 199.5t184.5 77.5q113 0 185.5 -70.5t72.5 -189.5v-14zM286 534q-103 0 -173.5 -71t-74.5 -183h496v4q0 115 -69.5 182.5
t-178.5 67.5zM295 584h-12l-103 130h13l96 -121l96 121h13z" />
    <glyph glyph-name="Gcircumflex" unicode="&#x11c;" horiz-adv-x="699" 
d="M449 330v10h196v-340h-10v100q-99 -113 -259 -113q-151 0 -249 100.5t-98 258.5t98.5 259t249.5 101q90 0 155 -33t100 -78l-8 -7q-34 43 -97 75.5t-150 32.5q-147 0 -242.5 -98t-95.5 -252t95 -251.5t242 -97.5q163 0 259 118v215h-186zM361 847h12l104 -114h-13
l-97 105l-97 -105h-13z" />
    <glyph glyph-name="gcircumflex" unicode="&#x11d;" horiz-adv-x="621" 
d="M563 535v-443q0 -142 -76 -208t-198 -66q-131 0 -218 66l6 8q85 -64 212 -64q55 0 101.5 14.5t83.5 44.5t58 82.5t21 122.5v101q-23 -92 -94.5 -147t-164.5 -55q-114 0 -190 76.5t-76 199.5q0 122 77.5 199.5t190.5 77.5q93 0 164 -55.5t93 -145.5v192h10zM38 267
q0 -119 73.5 -192.5t182.5 -73.5t184 75.5t75 190.5q0 118 -75 192.5t-182 74.5q-109 0 -183.5 -74.5t-74.5 -192.5zM291 709h12l103 -130h-13l-96 121l-96 -121h-13z" />
    <glyph glyph-name="Gbreve" unicode="&#x11e;" horiz-adv-x="699" 
d="M449 330v10h196v-340h-10v100q-99 -113 -259 -113q-151 0 -249 100.5t-98 258.5t98.5 259t249.5 101q90 0 155 -33t100 -78l-8 -7q-34 43 -97 75.5t-150 32.5q-147 0 -242.5 -98t-95.5 -252t95 -251.5t242 -97.5q163 0 259 118v215h-186zM258 837h10q1 -31 24.5 -60.5
t74.5 -29.5t74.5 29.5t24.5 60.5h10q-1 -35 -27 -67.5t-82 -32.5q-57 0 -82.5 33t-26.5 67z" />
    <glyph glyph-name="gbreve" unicode="&#x11f;" horiz-adv-x="621" 
d="M563 535v-443q0 -142 -76 -208t-198 -66q-131 0 -218 66l6 8q85 -64 212 -64q55 0 101.5 14.5t83.5 44.5t58 82.5t21 122.5v101q-23 -92 -94.5 -147t-164.5 -55q-114 0 -190 76.5t-76 199.5q0 122 77.5 199.5t190.5 77.5q93 0 164 -55.5t93 -145.5v192h10zM38 267
q0 -119 73.5 -192.5t182.5 -73.5t184 75.5t75 190.5q0 118 -75 192.5t-182 74.5q-109 0 -183.5 -74.5t-74.5 -192.5zM186 700h10q1 -33 24 -63.5t75 -30.5q51 0 74.5 30t24.5 64h10q-1 -37 -26.5 -70.5t-82.5 -33.5t-82.5 33.5t-26.5 70.5z" />
    <glyph glyph-name="Gdotaccent" unicode="&#x120;" horiz-adv-x="699" 
d="M449 330v10h196v-340h-10v100q-99 -113 -259 -113q-151 0 -249 100.5t-98 258.5t98.5 259t249.5 101q90 0 155 -33t100 -78l-8 -7q-34 43 -97 75.5t-150 32.5q-147 0 -242.5 -98t-95.5 -252t95 -251.5t242 -97.5q163 0 259 118v215h-186zM368 768q-8 0 -13 5t-5 13t5 13
t13 5t13 -5t5 -13t-5 -13t-13 -5z" />
    <glyph glyph-name="gdotaccent" unicode="&#x121;" horiz-adv-x="621" 
d="M563 535v-443q0 -142 -76 -208t-198 -66q-131 0 -218 66l6 8q85 -64 212 -64q55 0 101.5 14.5t83.5 44.5t58 82.5t21 122.5v101q-23 -92 -94.5 -147t-164.5 -55q-114 0 -190 76.5t-76 199.5q0 122 77.5 199.5t190.5 77.5q93 0 164 -55.5t93 -145.5v192h10zM38 267
q0 -119 73.5 -192.5t182.5 -73.5t184 75.5t75 190.5q0 118 -75 192.5t-182 74.5q-109 0 -183.5 -74.5t-74.5 -192.5zM287 631q-7 0 -12.5 5.5t-5.5 12.5t5.5 12.5t12.5 5.5t12.5 -5.5t5.5 -12.5t-5.5 -12.5t-12.5 -5.5z" />
    <glyph glyph-name="Gcommaaccent" unicode="&#x122;" horiz-adv-x="699" 
d="M449 330v10h196v-340h-10v100q-99 -113 -259 -113q-151 0 -249 100.5t-98 258.5t98.5 259t249.5 101q90 0 155 -33t100 -78l-8 -7q-34 43 -97 75.5t-150 32.5q-147 0 -242.5 -98t-95.5 -252t95 -251.5t242 -97.5q163 0 259 118v215h-186zM347 -176h-12l37 95h-3
q-19 0 -19 19t19 19t19 -19q0 -6 -3 -15z" />
    <glyph glyph-name="gcommaaccent" unicode="&#x123;" horiz-adv-x="621" 
d="M563 535v-443q0 -142 -76 -208t-198 -66q-131 0 -218 66l6 8q85 -64 212 -64q55 0 101.5 14.5t83.5 44.5t58 82.5t21 122.5v101q-23 -92 -94.5 -147t-164.5 -55q-114 0 -190 76.5t-76 199.5q0 122 77.5 199.5t190.5 77.5q93 0 164 -55.5t93 -145.5v192h10zM38 267
q0 -119 73.5 -192.5t182.5 -73.5t184 75.5t75 190.5q0 118 -75 192.5t-182 74.5q-109 0 -183.5 -74.5t-74.5 -192.5zM303 743h12l-37 -95h3q19 0 19 -19t-19 -19t-19 19q0 6 3 15z" />
    <glyph glyph-name="Hcircumflex" unicode="&#x124;" horiz-adv-x="584" 
d="M71 0h-10v692h10v-324h442v324h10v-692h-10v358h-442v-358zM286 847h12l104 -114h-13l-97 105l-97 -105h-13z" />
    <glyph glyph-name="hcircumflex" unicode="&#x125;" horiz-adv-x="430" 
d="M364 0v360q0 78 -36.5 124.5t-107.5 46.5q-73 0 -112.5 -49t-39.5 -133v-349h-10v731h10v-311q12 58 53.5 89.5t98.5 31.5q77 0 115.5 -49.5t38.5 -130.5v-361h-10zM200 881h12l104 -114h-13l-97 105l-97 -105h-13z" />
    <glyph glyph-name="Hbar" unicode="&#x126;" horiz-adv-x="594" 
d="M76 0h-10v542h-61v10h61v140h10v-140h442v140h10v-140h61v-10h-61v-542h-10v358h-442v-358zM76 368h442v174h-442v-174z" />
    <glyph glyph-name="hbar" unicode="&#x127;" horiz-adv-x="436" 
d="M5 623v10h59v98h10v-98h142v-10h-142v-203q12 58 53.5 89.5t98.5 31.5q77 0 115.5 -49.5t38.5 -130.5v-361h-10v360q0 78 -36.5 124.5t-107.5 46.5q-73 0 -112.5 -49t-39.5 -133v-349h-10v623h-59z" />
    <glyph glyph-name="Itilde" unicode="&#x128;" horiz-adv-x="132" 
d="M61 692h10v-692h-10v692zM191 831h10q-1 -32 -17.5 -52t-44.5 -20q-7 0 -15 1.5t-13 3.5t-13 6t-11 6l-12 8t-10 7t-8.5 6t-9.5 6t-8.5 5t-10 5t-9 3.5t-10.5 3t-11 0.5q-24 0 -37.5 -17.5t-14.5 -44.5h-10q1 32 17.5 52t44.5 20q27 0 73 -31q2 -2 10 -7l11 -7t10 -6
t12 -5.5t11.5 -3t13.5 -1.5q23 0 37 17t15 45z" />
    <glyph glyph-name="itilde" unicode="&#x129;" horiz-adv-x="126" 
d="M58 535h10v-535h-10v535zM183 677h10q-1 -33 -17 -52.5t-43 -19.5q-7 0 -14.5 1.5t-13 3.5t-13 6t-11 6.5l-11 7.5l-10.5 7q-2 1 -10 6.5t-10.5 7.5t-9.5 5.5t-11.5 5t-11 3t-13.5 1.5q-24 0 -36.5 -17t-13.5 -45h-10q1 32 16.5 52t43.5 20q7 0 14.5 -1.5t13 -3t12.5 -6
t10.5 -6.5t11.5 -7.5t10 -6.5t11.5 -8t13.5 -9l12 -6t15 -5.5t15 -1.5q23 0 36 17t14 45z" />
    <glyph glyph-name="Imacron" unicode="&#x12a;" horiz-adv-x="132" 
d="M61 692h10v-692h-10v692zM-25 778v10h186v-10h-186z" />
    <glyph glyph-name="imacron" unicode="&#x12b;" horiz-adv-x="126" 
d="M-11 630v10h148v-10h-148zM58 535h10v-535h-10v535z" />
    <glyph glyph-name="Ibreve" unicode="&#x12c;" horiz-adv-x="132" 
d="M61 692h10v-692h-10v692zM-42 837h10q1 -31 24.5 -60.5t74.5 -29.5t74.5 29.5t24.5 60.5h10q-1 -35 -27 -67.5t-82 -32.5q-57 0 -82.5 33t-26.5 67z" />
    <glyph glyph-name="ibreve" unicode="&#x12d;" horiz-adv-x="126" 
d="M58 535h10v-535h-10v535zM-43 700h10q1 -33 23 -63.5t71 -30.5q48 0 70.5 30.5t23.5 63.5h10q-1 -37 -26 -70.5t-78 -33.5q-54 0 -78.5 33.5t-25.5 70.5z" />
    <glyph glyph-name="Iogonek" unicode="&#x12e;" horiz-adv-x="132" 
d="M71 -167v-10q-42 1 -68 21.5t-26 58.5q0 66 84 102v687h10v-692q-84 -35 -84 -97q0 -34 23.5 -51.5t60.5 -18.5z" />
    <glyph glyph-name="iogonek" unicode="&#x12f;" horiz-adv-x="126" 
d="M68 -167v-10q-42 1 -68 21.5t-26 58.5q0 66 84 102v530h10v-535q-84 -35 -84 -97q0 -34 23.5 -51.5t60.5 -18.5zM63 631q-7 0 -12.5 5.5t-5.5 12.5t5.5 12.5t12.5 5.5t12.5 -5.5t5.5 -12.5t-5.5 -12.5t-12.5 -5.5z" />
    <glyph glyph-name="Idotaccent" unicode="&#x130;" horiz-adv-x="132" 
d="M61 692h10v-692h-10v692zM68 768q-8 0 -13 5t-5 13t5 13t13 5t13 -5t5 -13t-5 -13t-13 -5z" />
    <glyph glyph-name="dotlessi" unicode="&#x131;" horiz-adv-x="126" 
d="M58 535h10v-535h-10v535z" />
    <glyph glyph-name="IJ" unicode="&#x132;" horiz-adv-x="323" 
d="M61 692h10v-692h-10v692zM263 692v-597q0 -50 -15.5 -72.5t-65.5 -22.5h-31v10h31q45 0 58 19t13 66v597h10z" />
    <glyph glyph-name="ij" unicode="&#x133;" horiz-adv-x="295" 
d="M52 535h10v-535h-10v535zM57 631q-7 0 -12.5 5.5t-5.5 12.5t5.5 12.5t12.5 5.5t12.5 -5.5t5.5 -12.5t-5.5 -12.5t-12.5 -5.5zM232 535h10v-605q0 -51 -17.5 -78t-68.5 -27h-26v10h26q45 0 60.5 24.5t15.5 70.5v605zM237 631q-7 0 -12.5 5.5t-5.5 12.5t5.5 12.5t12.5 5.5
t12.5 -5.5t5.5 -12.5t-5.5 -12.5t-12.5 -5.5z" />
    <glyph glyph-name="Jcircumflex" unicode="&#x134;" horiz-adv-x="190" 
d="M130 692v-597q0 -50 -15.5 -72.5t-65.5 -22.5h-31v10h31q45 0 58 19t13 66v597h10zM113 847h12l104 -114h-13l-97 105l-97 -105h-13z" />
    <glyph glyph-name="jcircumflex" unicode="&#x135;" horiz-adv-x="126" 
d="M58 535h10v-605q0 -51 -17.5 -78t-68.5 -27h-24v10h24q45 0 60.5 24.5t15.5 70.5v605zM57 709h12l82 -130h-12l-76 120l-76 -120h-12z" />
    <glyph glyph-name="Kcommaaccent" unicode="&#x136;" horiz-adv-x="469" 
d="M443 692h15l-377 -331l391 -361h-14l-387 357v-357h-10v692h10v-327zM232 -176h-12l37 95h-3q-19 0 -19 19t19 19t19 -19q0 -6 -3 -15z" />
    <glyph glyph-name="kcommaaccent" unicode="&#x137;" horiz-adv-x="410" 
d="M386 535h16l-323 -254l332 -281h-16l-327 277v-277h-10v731h10v-446zM198 -176h-12l37 95h-3q-19 0 -19 19t19 19t19 -19q0 -6 -3 -15z" />
    <glyph glyph-name="Lacute" unicode="&#x139;" horiz-adv-x="312" 
d="M291 10v-10h-230v692h10v-682h220zM75 733h-12l64 112h12z" />
    <glyph glyph-name="lacute" unicode="&#x13a;" horiz-adv-x="126" 
d="M73 768h-12l64 112h12zM58 731h10v-731h-10v731z" />
    <glyph glyph-name="Lcommaaccent" unicode="&#x13b;" horiz-adv-x="312" 
d="M291 10v-10h-230v692h10v-682h220zM157 -176h-12l37 95h-3q-19 0 -19 19t19 19t19 -19q0 -6 -3 -15z" />
    <glyph glyph-name="lcommaaccent" unicode="&#x13c;" horiz-adv-x="131" 
d="M63 731h10v-731h-10v731zM47 -176h-12l37 95h-3q-19 0 -19 19t19 19t19 -19q0 -6 -3 -15z" />
    <glyph glyph-name="Lcaron" unicode="&#x13d;" horiz-adv-x="312" 
d="M283 10v-10h-230v692h10v-682h220zM131 692h10l-16 -121h-10z" />
    <glyph glyph-name="lcaron" unicode="&#x13e;" horiz-adv-x="126" 
d="M58 731h10v-731h-10v731zM136 731h10l-16 -121h-10z" />
    <glyph glyph-name="Ldot" unicode="&#x13f;" horiz-adv-x="312" 
d="M291 10v-10h-230v692h10v-682h220zM240 335q-19 0 -19 19t19 19t19 -19t-19 -19z" />
    <glyph glyph-name="ldot" unicode="&#x140;" horiz-adv-x="160" 
d="M58 731h10v-731h-10v731zM143 335q-19 0 -19 19t19 19t19 -19t-19 -19z" />
    <glyph glyph-name="Lslash" unicode="&#x141;" horiz-adv-x="337" 
d="M10 237l55 36v419h10v-412l151 100v-11l-151 -100v-259h220v-10h-230v262l-55 -36v11z" />
    <glyph glyph-name="lslash" unicode="&#x142;" horiz-adv-x="134" 
d="M126 535v-11l-54 -42v-482h-10v474l-52 -41v11l52 41v246h10v-238z" />
    <glyph glyph-name="Nacute" unicode="&#x143;" horiz-adv-x="646" 
d="M71 0h-10v692h10l504 -675v675h10v-692h-10l-504 675v-675zM317 733h-12l64 112h12z" />
    <glyph glyph-name="nacute" unicode="&#x144;" horiz-adv-x="430" 
d="M364 0v360q0 78 -36.5 124.5t-107.5 46.5q-73 0 -112.5 -49t-39.5 -133v-349h-10v535h10v-115q12 58 53.5 89.5t98.5 31.5q77 0 115.5 -49.5t38.5 -130.5v-361h-10zM214 585h-11l66 121h11z" />
    <glyph glyph-name="Ncommaaccent" unicode="&#x145;" horiz-adv-x="646" 
d="M71 0h-10v692h10l504 -675v675h10v-692h-10l-504 675v-675zM303 -176h-12l37 95h-3q-19 0 -19 19t19 19t19 -19q0 -6 -3 -15z" />
    <glyph glyph-name="ncommaaccent" unicode="&#x146;" horiz-adv-x="430" 
d="M364 0v360q0 78 -36.5 124.5t-107.5 46.5q-73 0 -112.5 -49t-39.5 -133v-349h-10v535h10v-115q12 58 53.5 89.5t98.5 31.5q77 0 115.5 -49.5t38.5 -130.5v-361h-10zM195 -176h-12l37 95h-3q-19 0 -19 19t19 19t19 -19q0 -6 -3 -15z" />
    <glyph glyph-name="Ncaron" unicode="&#x147;" horiz-adv-x="646" 
d="M71 0h-10v692h10l504 -675v675h10v-692h-10l-504 675v-675zM330 733h-12l-104 114h13l97 -105l97 105h13z" />
    <glyph glyph-name="ncaron" unicode="&#x148;" horiz-adv-x="430" 
d="M364 0v360q0 78 -36.5 124.5t-107.5 46.5q-73 0 -112.5 -49t-39.5 -133v-349h-10v535h10v-115q12 58 53.5 89.5t98.5 31.5q77 0 115.5 -49.5t38.5 -130.5v-361h-10zM222 584h-12l-103 130h13l96 -121l96 121h13z" />
    <glyph glyph-name="napostrophe" unicode="&#x149;" horiz-adv-x="432" 
d="M366 0v360q0 78 -36.5 124.5t-107.5 46.5q-73 0 -112.5 -49t-39.5 -133v-349h-10v535h10v-115q12 58 53.5 89.5t98.5 31.5q77 0 115.5 -49.5t38.5 -130.5v-361h-10zM0 560h-11l34 99h-4q-19 0 -19 19t19 19t19 -19q0 -7 -3 -16z" />
    <glyph glyph-name="Eng" unicode="&#x14a;" horiz-adv-x="646" 
d="M71 0h-10v692h11l503 -677v677h10v-794q0 -36 -14 -54.5t-51 -18.5h-19v10h19q32 0 43.5 16t11.5 47v100l-504 679v-677z" />
    <glyph glyph-name="eng" unicode="&#x14b;" horiz-adv-x="414" 
d="M374 361v-431q0 -51 -17.5 -78t-68.5 -27h-27v10h27q45 0 60.5 24.5t15.5 70.5v430q0 78 -37 124.5t-109 46.5t-110.5 -49t-39.5 -133v-349h-10v535h10v-115q12 58 53 89.5t97 31.5q78 0 117 -49t39 -131z" />
    <glyph glyph-name="Omacron" unicode="&#x14c;" horiz-adv-x="753" 
d="M39 346q0 -153 96 -251t240 -98t241.5 99.5t97.5 249.5q0 151 -97 250.5t-241 99.5q-143 0 -240 -98.5t-97 -251.5zM29 346q0 157 99.5 258.5t247.5 101.5q149 0 248.5 -102t99.5 -258q0 -154 -100.5 -256.5t-248.5 -102.5t-247 101t-99 258zM283 778v10h186v-10h-186z
" />
    <glyph glyph-name="omacron" unicode="&#x14d;" 
d="M38 267q0 -119 74 -192.5t186 -73.5q111 0 187 75t76 191q0 117 -75 192t-186 75t-186.5 -74.5t-75.5 -192.5zM28 267q0 123 78 200t194 77t193.5 -78t77.5 -199q0 -120 -79 -198t-194 -78q-117 0 -193.5 76.5t-76.5 199.5zM208 630v10h186v-10h-186z" />
    <glyph glyph-name="Obreve" unicode="&#x14e;" horiz-adv-x="753" 
d="M39 346q0 -153 96 -251t240 -98t241.5 99.5t97.5 249.5q0 151 -97 250.5t-241 99.5q-143 0 -240 -98.5t-97 -251.5zM29 346q0 157 99.5 258.5t247.5 101.5q149 0 248.5 -102t99.5 -258q0 -154 -100.5 -256.5t-248.5 -102.5t-247 101t-99 258zM266 837h10
q1 -31 24.5 -60.5t74.5 -29.5t74.5 29.5t24.5 60.5h10q-1 -35 -27 -67.5t-82 -32.5q-57 0 -82.5 33t-26.5 67z" />
    <glyph glyph-name="obreve" unicode="&#x14f;" 
d="M38 267q0 -119 74 -192.5t186 -73.5q111 0 187 75t76 191q0 117 -75 192t-186 75t-186.5 -74.5t-75.5 -192.5zM28 267q0 123 78 200t194 77t193.5 -78t77.5 -199q0 -120 -79 -198t-194 -78q-117 0 -193.5 76.5t-76.5 199.5zM190 700h10q1 -33 24 -63.5t75 -30.5
q51 0 74.5 30t24.5 64h10q-1 -37 -26.5 -70.5t-82.5 -33.5t-82.5 33.5t-26.5 70.5z" />
    <glyph glyph-name="Ohungarumlaut" unicode="&#x150;" horiz-adv-x="753" 
d="M39 346q0 -153 96 -251t240 -98t241.5 99.5t97.5 249.5q0 151 -97 250.5t-241 99.5q-143 0 -240 -98.5t-97 -251.5zM29 346q0 157 99.5 258.5t247.5 101.5q149 0 248.5 -102t99.5 -258q0 -154 -100.5 -256.5t-248.5 -102.5t-247 101t-99 258zM425 733h-11l52 112h11z
M341 733h-11l52 112h11z" />
    <glyph glyph-name="ohungarumlaut" unicode="&#x151;" 
d="M38 267q0 -119 74 -192.5t186 -73.5q111 0 187 75t76 191q0 117 -75 192t-186 75t-186.5 -74.5t-75.5 -192.5zM28 267q0 123 78 200t194 77t193.5 -78t77.5 -199q0 -120 -79 -198t-194 -78q-117 0 -193.5 76.5t-76.5 199.5zM347 585h-11l53 121h11zM263 585h-11l53 121
h11z" />
    <glyph glyph-name="OE" unicode="&#x152;" horiz-adv-x="659" 
d="M613 364v-10h-227v-344h235v-10h-244q-160 0 -254 96.5t-94 249.5q0 154 93.5 250t253.5 96h243v-10h-233v-318h227zM39 346q0 -148 91 -242t246 -94v672q-156 0 -246.5 -93.5t-90.5 -242.5z" />
    <glyph glyph-name="oe" unicode="&#x153;" horiz-adv-x="1102" 
d="M28 267q0 123 78 200t194 77q101 0 174.5 -60.5t91.5 -159.5q17 99 86.5 159.5t166.5 60.5q113 0 185.5 -70.5t72.5 -189.5v-14h-506v-3q0 -120 71.5 -193t184.5 -73q82 0 144 44.5t89 114.5l9 -4q-28 -73 -92 -119t-150 -46q-103 0 -174 59t-88 159q-19 -98 -93 -158
t-174 -60q-117 0 -193.5 76.5t-76.5 199.5zM819 534q-103 0 -173.5 -71t-74.5 -183h496v4q0 115 -69.5 182.5t-178.5 67.5zM38 267q0 -119 74 -192.5t186 -73.5q111 0 187 75t76 191q0 117 -75 192t-186 75t-186.5 -74.5t-75.5 -192.5z" />
    <glyph glyph-name="Racute" unicode="&#x154;" horiz-adv-x="421" 
d="M71 0h-10v692h98q195 0 195 -169q0 -141 -136 -169l208 -354h-11l-207 352q-21 -4 -49 -4h-88v-348zM71 682v-324h88q85 0 135 40.5t50 124.5q0 86 -47 122.5t-138 36.5h-88zM185 733h-12l64 112h12z" />
    <glyph glyph-name="racute" unicode="&#x155;" horiz-adv-x="207" 
d="M58 535h10v-72q25 72 110 72h9v-10h-9q-110 0 -110 -127v-398h-10v535zM121 585h-11l66 121h11z" />
    <glyph glyph-name="Rcommaaccent" unicode="&#x156;" horiz-adv-x="421" 
d="M71 0h-10v692h98q195 0 195 -169q0 -141 -136 -169l208 -354h-11l-207 352q-21 -4 -49 -4h-88v-348zM71 682v-324h88q85 0 135 40.5t50 124.5q0 86 -47 122.5t-138 36.5h-88zM191 -176h-12l37 95h-3q-19 0 -19 19t19 19t19 -19q0 -6 -3 -15z" />
    <glyph glyph-name="rcommaaccent" unicode="&#x157;" horiz-adv-x="210" 
d="M61 535h10v-72q25 72 110 72h9v-10h-9q-110 0 -110 -127v-398h-10v535zM46 -176h-12l37 95h-3q-19 0 -19 19t19 19t19 -19q0 -6 -3 -15z" />
    <glyph glyph-name="Rcaron" unicode="&#x158;" horiz-adv-x="421" 
d="M71 0h-10v692h98q195 0 195 -169q0 -141 -136 -169l208 -354h-11l-207 352q-21 -4 -49 -4h-88v-348zM71 682v-324h88q85 0 135 40.5t50 124.5q0 86 -47 122.5t-138 36.5h-88zM196 733h-12l-104 114h13l97 -105l97 105h13z" />
    <glyph glyph-name="rcaron" unicode="&#x159;" horiz-adv-x="207" 
d="M65 535h10v-72q25 72 110 72h9v-10h-9q-110 0 -110 -127v-398h-10v535zM134 584h-12l-98 130h13l91 -121l91 121h13z" />
    <glyph glyph-name="Sacute" unicode="&#x15a;" horiz-adv-x="422" 
d="M32 156h10q0 -65 43.5 -110.5t119.5 -45.5q78 0 126.5 45.5t48.5 118.5q0 79 -38.5 122t-128.5 75q-89 32 -128 70.5t-39 107.5t43.5 113t121.5 44q71 0 113.5 -39.5t49.5 -110.5h-10q-7 66 -47 103t-106 37q-74 0 -114.5 -41.5t-40.5 -105.5q0 -65 37.5 -101.5
t123.5 -67.5q94 -33 133.5 -79.5t39.5 -126.5q0 -77 -51.5 -125.5t-133.5 -48.5q-81 0 -127 48t-46 118zM204 733h-12l64 112h12z" />
    <glyph glyph-name="sacute" unicode="&#x15b;" horiz-adv-x="335" 
d="M301 412h-10q-1 59 -33 89t-89 30q-56 0 -89.5 -32t-33.5 -78q0 -54 33.5 -85.5t96.5 -52.5q71 -23 104.5 -58.5t33.5 -93.5q0 -65 -42 -101t-107 -36q-75 0 -110 42t-35 106h10q0 -59 32.5 -98.5t102.5 -39.5q60 0 99.5 33t39.5 93q0 53 -29.5 86t-102.5 58
q-70 24 -103 57.5t-33 89.5q0 51 36 85.5t97 34.5q62 0 97 -33.5t35 -95.5zM169 585h-11l66 121h11z" />
    <glyph glyph-name="Scircumflex" unicode="&#x15c;" horiz-adv-x="422" 
d="M32 156h10q0 -65 43.5 -110.5t119.5 -45.5q78 0 126.5 45.5t48.5 118.5q0 79 -38.5 122t-128.5 75q-89 32 -128 70.5t-39 107.5t43.5 113t121.5 44q71 0 113.5 -39.5t49.5 -110.5h-10q-7 66 -47 103t-106 37q-74 0 -114.5 -41.5t-40.5 -105.5q0 -65 37.5 -101.5
t123.5 -67.5q94 -33 133.5 -79.5t39.5 -126.5q0 -77 -51.5 -125.5t-133.5 -48.5q-81 0 -127 48t-46 118zM204 847h12l104 -114h-13l-97 105l-97 -105h-13z" />
    <glyph glyph-name="scircumflex" unicode="&#x15d;" horiz-adv-x="335" 
d="M301 412h-10q-1 59 -33 89t-89 30q-56 0 -89.5 -32t-33.5 -78q0 -54 33.5 -85.5t96.5 -52.5q71 -23 104.5 -58.5t33.5 -93.5q0 -65 -42 -101t-107 -36q-75 0 -110 42t-35 106h10q0 -59 32.5 -98.5t102.5 -39.5q60 0 99.5 33t39.5 93q0 53 -29.5 86t-102.5 58
q-70 24 -103 57.5t-33 89.5q0 51 36 85.5t97 34.5q62 0 97 -33.5t35 -95.5zM166 709h12l103 -130h-13l-96 121l-96 -121h-13z" />
    <glyph glyph-name="Scedilla" unicode="&#x15e;" horiz-adv-x="422" 
d="M32 156h10q0 -65 43.5 -110.5t119.5 -45.5q78 0 126.5 45.5t48.5 118.5q0 79 -38.5 122t-128.5 75q-89 32 -128 70.5t-39 107.5t43.5 113t121.5 44q71 0 113.5 -39.5t49.5 -110.5h-10q-7 66 -47 103t-106 37q-74 0 -114.5 -41.5t-40.5 -105.5q0 -65 37.5 -101.5
t123.5 -67.5q94 -33 133.5 -79.5t39.5 -126.5q0 -77 -51.5 -125.5t-133.5 -48.5q-11 0 -29 2v-32q98 -1 98 -84q0 -42 -27.5 -63.5t-74.5 -21.5h-6v10h6q92 0 92 75q0 74 -92 74h-6v44q-63 11 -98.5 56t-35.5 106z" />
    <glyph glyph-name="scedilla" unicode="&#x15f;" horiz-adv-x="335" 
d="M301 412h-10q-1 59 -33 89t-89 30q-56 0 -89.5 -32t-33.5 -78q0 -54 33.5 -85.5t96.5 -52.5q71 -23 104.5 -58.5t33.5 -93.5q0 -65 -42 -101t-107 -36q-10 0 -28 2v-36q98 -1 98 -84q0 -42 -27.5 -63.5t-74.5 -21.5h-6v10h6q92 0 92 75q0 74 -92 74h-6v47q-55 11 -81 51
t-26 94h10q0 -59 32.5 -98.5t102.5 -39.5q60 0 99.5 33t39.5 93q0 53 -29.5 86t-102.5 58q-70 24 -103 57.5t-33 89.5q0 51 36 85.5t97 34.5q62 0 97 -33.5t35 -95.5z" />
    <glyph glyph-name="Scaron" unicode="&#x160;" horiz-adv-x="422" 
d="M32 156h10q0 -65 43.5 -110.5t119.5 -45.5q78 0 126.5 45.5t48.5 118.5q0 79 -38.5 122t-128.5 75q-89 32 -128 70.5t-39 107.5t43.5 113t121.5 44q71 0 113.5 -39.5t49.5 -110.5h-10q-7 66 -47 103t-106 37q-74 0 -114.5 -41.5t-40.5 -105.5q0 -65 37.5 -101.5
t123.5 -67.5q94 -33 133.5 -79.5t39.5 -126.5q0 -77 -51.5 -125.5t-133.5 -48.5q-81 0 -127 48t-46 118zM217 733h-12l-104 114h13l97 -105l97 105h13z" />
    <glyph glyph-name="scaron" unicode="&#x161;" horiz-adv-x="335" 
d="M301 412h-10q-1 59 -33 89t-89 30q-56 0 -89.5 -32t-33.5 -78q0 -54 33.5 -85.5t96.5 -52.5q71 -23 104.5 -58.5t33.5 -93.5q0 -65 -42 -101t-107 -36q-75 0 -110 42t-35 106h10q0 -59 32.5 -98.5t102.5 -39.5q60 0 99.5 33t39.5 93q0 53 -29.5 86t-102.5 58
q-70 24 -103 57.5t-33 89.5q0 51 36 85.5t97 34.5q62 0 97 -33.5t35 -95.5zM178 584h-12l-103 130h13l96 -121l96 121h13z" />
    <glyph glyph-name="Tcommaaccent" unicode="&#x162;" horiz-adv-x="347" 
d="M17 682v10h313v-10h-153v-682h-10v682h-150zM151 -176h-12l37 95h-3q-19 0 -19 19t19 19t19 -19q0 -6 -3 -15z" />
    <glyph glyph-name="tcommaaccent" unicode="&#x163;" horiz-adv-x="198" 
d="M182 535v-10h-109v-431q0 -43 13.5 -63.5t53.5 -20.5h41v-10h-41q-45 0 -61 23.5t-16 70.5v431h-53v10h53v81h10v-81h109zM106 -176h-12l37 95h-3q-19 0 -19 19t19 19t19 -19q0 -6 -3 -15z" />
    <glyph glyph-name="Tcaron" unicode="&#x164;" horiz-adv-x="347" 
d="M17 682v10h313v-10h-153v-682h-10v682h-150zM179 733h-12l-104 114h13l97 -105l97 105h13z" />
    <glyph glyph-name="tcaron" unicode="&#x165;" horiz-adv-x="198" 
d="M182 535v-10h-109v-431q0 -43 13.5 -63.5t53.5 -20.5h41v-10h-41q-45 0 -61 23.5t-16 70.5v431h-53v10h53v81h10v-81h109zM139 731h10l-16 -121h-10z" />
    <glyph glyph-name="Tbar" unicode="&#x166;" horiz-adv-x="347" 
d="M17 682v10h313v-10h-153v-278h110v-10h-110v-394h-10v394h-110v10h110v278h-150z" />
    <glyph glyph-name="tbar" unicode="&#x167;" horiz-adv-x="198" 
d="M182 535v-10h-109v-198h109v-10h-109v-223q0 -43 13.5 -63.5t53.5 -20.5h41v-10h-41q-45 0 -61 23.5t-16 70.5v223h-53v10h53v198h-53v10h53v81h10v-81h109z" />
    <glyph glyph-name="Utilde" unicode="&#x168;" horiz-adv-x="574" 
d="M56 692h10v-458q0 -110 56 -173.5t165 -63.5q102 0 161.5 65.5t59.5 171.5v458h10v-458q0 -110 -62 -178.5t-169 -68.5q-114 0 -172.5 66.5t-58.5 180.5v458zM411 831h10q-1 -32 -17.5 -52t-44.5 -20q-7 0 -15 1.5t-13 3.5t-13 6t-11 6l-12 8t-10 7q-43 29 -67 29
t-37.5 -17.5t-14.5 -44.5h-10q1 32 17.5 52t44.5 20q7 0 15 -1.5t12.5 -3t13 -6l10.5 -5.5t12 -8l10 -7q2 -2 10 -7l11 -7t10 -6t12 -5.5t11.5 -3t13.5 -1.5q23 0 37 17t15 45z" />
    <glyph glyph-name="utilde" unicode="&#x169;" horiz-adv-x="427" 
d="M65 535v-360q0 -79 36 -125t109 -46q71 0 109.5 49t39.5 133v349h10v-535h-10v116q-13 -58 -53 -90t-96 -32q-78 0 -116.5 49.5t-38.5 131.5v360h10zM332 677h10q-1 -33 -17 -52.5t-43 -19.5q-7 0 -14.5 1.5t-13 3.5t-13 6t-11 6.5l-11 7.5l-10.5 7q-43 29 -66 29
q-24 0 -36.5 -17t-13.5 -45h-10q1 32 16.5 52t43.5 20q7 0 14.5 -1.5t13 -3t12.5 -6t10.5 -6.5t11.5 -7.5t10 -6.5t11.5 -8t13.5 -9l12 -6t15 -5.5t15 -1.5q23 0 36 17t14 45z" />
    <glyph glyph-name="Umacron" unicode="&#x16a;" horiz-adv-x="574" 
d="M56 692h10v-458q0 -110 56 -173.5t165 -63.5q102 0 161.5 65.5t59.5 171.5v458h10v-458q0 -110 -62 -178.5t-169 -68.5q-114 0 -172.5 66.5t-58.5 180.5v458zM194 778v10h186v-10h-186z" />
    <glyph glyph-name="umacron" unicode="&#x16b;" horiz-adv-x="427" 
d="M65 535v-360q0 -79 36 -125t109 -46q71 0 109.5 49t39.5 133v349h10v-535h-10v116q-13 -58 -53 -90t-96 -32q-78 0 -116.5 49.5t-38.5 131.5v360h10zM122 630v10h186v-10h-186z" />
    <glyph glyph-name="Ubreve" unicode="&#x16c;" horiz-adv-x="574" 
d="M56 692h10v-458q0 -110 56 -173.5t165 -63.5q102 0 161.5 65.5t59.5 171.5v458h10v-458q0 -110 -62 -178.5t-169 -68.5q-114 0 -172.5 66.5t-58.5 180.5v458zM178 837h10q1 -31 24.5 -60.5t74.5 -29.5t74.5 29.5t24.5 60.5h10q-1 -35 -27 -67.5t-82 -32.5q-57 0 -82.5 33
t-26.5 67z" />
    <glyph glyph-name="ubreve" unicode="&#x16d;" horiz-adv-x="427" 
d="M65 535v-360q0 -79 36 -125t109 -46q71 0 109.5 49t39.5 133v349h10v-535h-10v116q-13 -58 -53 -90t-96 -32q-78 0 -116.5 49.5t-38.5 131.5v360h10zM101 700h10q1 -33 24 -63.5t75 -30.5q51 0 74.5 30t24.5 64h10q-1 -37 -26.5 -70.5t-82.5 -33.5t-82.5 33.5t-26.5 70.5
z" />
    <glyph glyph-name="Uring" unicode="&#x16e;" horiz-adv-x="574" 
d="M56 692h10v-458q0 -110 56 -173.5t165 -63.5q102 0 161.5 65.5t59.5 171.5v458h10v-458q0 -110 -62 -178.5t-169 -68.5q-114 0 -172.5 66.5t-58.5 180.5v458zM223 796q0 -27 18 -45.5t47 -18.5q31 0 49 18.5t18 47.5t-18 46.5t-50 17.5q-28 0 -46 -18.5t-18 -47.5z
M213 796q0 34 20.5 55t53.5 21q37 0 57.5 -20.5t20.5 -53.5q0 -34 -21 -55t-56 -21q-33 0 -54 21t-21 53z" />
    <glyph glyph-name="uring" unicode="&#x16f;" horiz-adv-x="427" 
d="M65 535v-360q0 -79 36 -125t109 -46q71 0 109.5 49t39.5 133v349h10v-535h-10v116q-13 -58 -53 -90t-96 -32q-78 0 -116.5 49.5t-38.5 131.5v360h10zM146 659q0 -27 18 -45.5t47 -18.5q31 0 49 18.5t18 47.5t-18 46.5t-50 17.5q-28 0 -46 -18.5t-18 -47.5zM136 659
q0 34 20.5 55t53.5 21q37 0 57.5 -20.5t20.5 -53.5q0 -34 -21 -55t-56 -21q-33 0 -54 21t-21 53z" />
    <glyph glyph-name="Uhungarumlaut" unicode="&#x170;" horiz-adv-x="574" 
d="M56 692h10v-458q0 -110 56 -173.5t165 -63.5q102 0 161.5 65.5t59.5 171.5v458h10v-458q0 -110 -62 -178.5t-169 -68.5q-114 0 -172.5 66.5t-58.5 180.5v458zM325 733h-11l52 112h11zM241 733h-11l52 112h11z" />
    <glyph glyph-name="uhungarumlaut" unicode="&#x171;" horiz-adv-x="427" 
d="M65 535v-360q0 -79 36 -125t109 -46q71 0 109.5 49t39.5 133v349h10v-535h-10v116q-13 -58 -53 -90t-96 -32q-78 0 -116.5 49.5t-38.5 131.5v360h10zM258 585h-11l53 121h11zM174 585h-11l53 121h11z" />
    <glyph glyph-name="Uogonek" unicode="&#x172;" horiz-adv-x="574" 
d="M56 692h10v-458q0 -110 56 -173.5t165 -63.5q102 0 161.5 65.5t59.5 171.5v458h10v-458q0 -90 -41 -151.5t-117 -86.5q-40 -13 -62.5 -37.5t-22.5 -55.5q0 -34 23.5 -51.5t60.5 -18.5v-10q-42 1 -68 21.5t-26 58.5q0 55 59 87q-18 -3 -37 -3q-114 0 -172.5 66.5
t-58.5 180.5v458z" />
    <glyph glyph-name="uogonek" unicode="&#x173;" horiz-adv-x="427" 
d="M369 -167v-10q-42 1 -68 21.5t-26 58.5q0 66 84 102v111q-13 -58 -53 -90t-96 -32q-78 0 -116.5 49.5t-38.5 131.5v360h10v-360q0 -79 36 -125t109 -46q71 0 109.5 49t39.5 133v349h10v-535q-84 -35 -84 -97q0 -34 23.5 -51.5t60.5 -18.5z" />
    <glyph glyph-name="Wcircumflex" unicode="&#x174;" horiz-adv-x="956" 
d="M940 692h11l-239 -692h-10l-222 673l-222 -673h-10l-243 692h11l237 -673l222 673h10l222 -673zM474 847h12l104 -114h-13l-97 105l-97 -105h-13z" />
    <glyph glyph-name="wcircumflex" unicode="&#x175;" horiz-adv-x="834" 
d="M822 535h12l-202 -535h-14l-201 520l-200 -520h-14l-203 535h12l198 -522l201 522h12l202 -522zM411 709h12l103 -130h-13l-96 121l-96 -121h-13z" />
    <glyph glyph-name="Ycircumflex" unicode="&#x176;" horiz-adv-x="431" 
d="M419 692h12l-209 -315v-377h-10v377l-212 315h12l205 -305zM211 847h12l104 -114h-13l-97 105l-97 -105h-13z" />
    <glyph glyph-name="ycircumflex" unicode="&#x177;" horiz-adv-x="494" 
d="M-2 535h12l241 -529l233 529h12l-313 -710h-12l74 168zM246 709h12l103 -130h-13l-96 121l-96 -121h-13z" />
    <glyph glyph-name="Ydieresis" unicode="&#x178;" horiz-adv-x="431" 
d="M419 692h12l-209 -315v-377h-10v377l-212 315h12l205 -305zM151 778q-17 0 -17 17t17 17t17 -17t-17 -17zM288 778q-17 0 -17 17t17 17t17 -17t-17 -17z" />
    <glyph glyph-name="Zacute" unicode="&#x179;" horiz-adv-x="574" 
d="M38 682v10h506v-10l-501 -672h501v-10h-514v10l501 672h-493zM279 733h-12l64 112h12z" />
    <glyph glyph-name="zacute" unicode="&#x17a;" horiz-adv-x="443" 
d="M419 10v-10h-395v10l382 515h-373v10h386v-10l-382 -515h382zM220 585h-11l66 121h11z" />
    <glyph glyph-name="Zdotaccent" unicode="&#x17b;" horiz-adv-x="574" 
d="M38 682v10h506v-10l-501 -672h501v-10h-514v10l501 672h-493zM286 768q-8 0 -13 5t-5 13t5 13t13 5t13 -5t5 -13t-5 -13t-13 -5z" />
    <glyph glyph-name="zdotaccent" unicode="&#x17c;" horiz-adv-x="443" 
d="M419 10v-10h-395v10l382 515h-373v10h386v-10l-382 -515h382zM222 631q-8 0 -13 5.5t-5 12.5t5 12.5t13 5.5t13 -5.5t5 -12.5t-5 -12.5t-13 -5.5z" />
    <glyph glyph-name="Zcaron" unicode="&#x17d;" horiz-adv-x="574" 
d="M38 682v10h506v-10l-501 -672h501v-10h-514v10l501 672h-493zM292 733h-12l-104 114h13l97 -105l97 105h13z" />
    <glyph glyph-name="zcaron" unicode="&#x17e;" horiz-adv-x="443" 
d="M419 10v-10h-395v10l382 515h-373v10h386v-10l-382 -515h382zM228 584h-12l-103 130h13l96 -121l96 121h13z" />
    <glyph glyph-name="florin" unicode="&#x192;" horiz-adv-x="281" 
d="M52 375v10h52l37 208q9 51 32 75t71 24h27v-10h-28q-44 0 -64 -22t-28 -68l-37 -207h103v-10h-105l-96 -550h-10l96 550h-50z" />
    <glyph glyph-name="Aringacute" unicode="&#x1fa;" 
d="M13 0h-11l293 692h10l292 -692h-11l-130 308h-313zM300 678l-152 -360h304zM236 796q0 -27 18 -45.5t47 -18.5q31 0 49 18.5t18 47.5t-18 46.5t-50 17.5q-28 0 -46 -18.5t-18 -47.5zM226 796q0 34 20.5 55t53.5 21q37 0 57.5 -20.5t20.5 -53.5q0 -34 -21 -55t-56 -21
q-33 0 -54 21t-21 53zM304 898h-12l64 112h12z" />
    <glyph glyph-name="aringacute" unicode="&#x1fb;" horiz-adv-x="422" 
d="M31 158q0 73 47.5 120.5t121.5 47.5q55 0 98.5 -30.5t57.5 -81.5v147q0 83 -40 127t-108 44q-72 0 -109 -41t-37 -105h-10q0 68 40.5 112t115.5 44t116.5 -46.5t41.5 -134.5v-361h-10v101q-16 -51 -58 -81t-98 -30q-73 0 -121 47.5t-48 120.5zM41 158q0 -68 45 -113
t114 -45q67 0 111.5 44.5t44.5 113.5t-44.5 113.5t-111.5 44.5q-70 0 -114.5 -45t-44.5 -113zM143 659q0 -27 18 -45.5t47 -18.5q31 0 49 18.5t18 47.5t-18 46.5t-50 17.5q-28 0 -46 -18.5t-18 -47.5zM133 659q0 34 20.5 55t53.5 21q37 0 57.5 -20.5t20.5 -53.5
q0 -34 -21 -55t-56 -21q-33 0 -54 21t-21 53zM211 775h-12l64 112h12z" />
    <glyph glyph-name="AEacute" unicode="&#x1fc;" horiz-adv-x="721" 
d="M675 364v-10h-227v-344h235v-10h-245v273h-252l-171 -273h-12l435 692h243v-10h-233v-318h227zM193 283h245v390zM527 733h-12l64 112h12z" />
    <glyph glyph-name="aeacute" unicode="&#x1fd;" horiz-adv-x="885" 
d="M614 534q-103 0 -173.5 -71t-74.5 -183h496v4q0 115 -69.5 182.5t-178.5 67.5zM53 158q0 -68 45 -113t114 -45q67 0 110.5 43t45.5 111q0 73 -44 117.5t-112 44.5q-70 0 -114.5 -45t-44.5 -113zM622 1q82 0 144 44.5t89 114.5l9 -4q-28 -73 -92 -119t-150 -46t-150.5 42
t-94.5 116q-4 -71 -49.5 -115t-115.5 -44q-73 0 -121 47.5t-48 120.5t47.5 120.5t121.5 47.5q100 0 145 -83q-1 8 -1 24v94q0 171 -140 171q-69 0 -103 -40.5t-35 -105.5h-10q1 70 37 113t111 43q73 0 111.5 -46t38.5 -135v-13q23 89 90 142.5t158 53.5q113 0 185.5 -70.5
t72.5 -189.5v-14h-506v-3q0 -120 71.5 -193t184.5 -73zM402 585h-11l66 121h11z" />
    <glyph glyph-name="Oslashacute" unicode="&#x1fe;" horiz-adv-x="753" 
d="M27 346q0 157 99.5 258.5t247.5 101.5q131 0 227 -83l69 80l8 -6l-69 -81q113 -103 113 -270q0 -154 -100.5 -256.5t-248.5 -102.5q-135 0 -230 84l-69 -81l-8 6l70 81q-109 103 -109 269zM712 346q0 161 -109 262l-453 -530q90 -81 223 -81q144 0 241.5 99.5t97.5 249.5
zM37 346q0 -161 105 -261l453 530q-94 81 -221 81q-143 0 -240 -98.5t-97 -251.5zM375 733h-12l64 112h12z" />
    <glyph glyph-name="oslashacute" unicode="&#x1ff;" 
d="M286 585h-11l66 121h11zM28 267q0 123 78 200t194 77q102 0 177 -64l55 64l8 -6l-55 -64q86 -80 86 -207q0 -120 -79 -198t-194 -78q-104 0 -175 59l-52 -60l-8 6l52 61q-87 77 -87 210zM38 267q0 -128 84 -202l349 408q-72 61 -171 61q-111 0 -186.5 -74.5t-75.5 -192.5
zM561 267q0 123 -83 199l-348 -408q69 -57 168 -57q111 0 187 75t76 191z" />
    <glyph glyph-name="Scommaaccent" unicode="&#x218;" horiz-adv-x="422" 
d="M32 156h10q0 -65 43.5 -110.5t119.5 -45.5q78 0 126.5 45.5t48.5 118.5q0 79 -38.5 122t-128.5 75q-89 32 -128 70.5t-39 107.5t43.5 113t121.5 44q71 0 113.5 -39.5t49.5 -110.5h-10q-7 66 -47 103t-106 37q-74 0 -114.5 -41.5t-40.5 -105.5q0 -65 37.5 -101.5
t123.5 -67.5q94 -33 133.5 -79.5t39.5 -126.5q0 -77 -51.5 -125.5t-133.5 -48.5q-81 0 -127 48t-46 118zM190 -176h-12l37 95h-3q-19 0 -19 19t19 19t19 -19q0 -6 -3 -15z" />
    <glyph glyph-name="scommaaccent" unicode="&#x219;" horiz-adv-x="335" 
d="M301 412h-10q-1 59 -33 89t-89 30q-56 0 -89.5 -32t-33.5 -78q0 -54 33.5 -85.5t96.5 -52.5q71 -23 104.5 -58.5t33.5 -93.5q0 -65 -42 -101t-107 -36q-75 0 -110 42t-35 106h10q0 -59 32.5 -98.5t102.5 -39.5q60 0 99.5 33t39.5 93q0 53 -29.5 86t-102.5 58
q-70 24 -103 57.5t-33 89.5q0 51 36 85.5t97 34.5q62 0 97 -33.5t35 -95.5zM153 -176h-12l37 95h-3q-19 0 -19 19t19 19t19 -19q0 -6 -3 -15z" />
    <glyph glyph-name="uni021A" unicode="&#x21a;" horiz-adv-x="347" 
d="M17 682v10h313v-10h-153v-682h-10v682h-150zM151 -176h-12l37 95h-3q-19 0 -19 19t19 19t19 -19q0 -6 -3 -15z" />
    <glyph glyph-name="uni021B" unicode="&#x21b;" horiz-adv-x="198" 
d="M182 535v-10h-109v-431q0 -43 13.5 -63.5t53.5 -20.5h41v-10h-41q-45 0 -61 23.5t-16 70.5v431h-53v10h53v81h10v-81h109zM106 -176h-12l37 95h-3q-19 0 -19 19t19 19t19 -19q0 -6 -3 -15z" />
    <glyph glyph-name="uni0237" unicode="&#x237;" horiz-adv-x="127" 
d="M59 535h10v-605q0 -51 -17.5 -78t-68.5 -27h-27v10h27q45 0 60.5 24.5t15.5 70.5v605z" />
    <glyph glyph-name="circumflex" unicode="&#x2c6;" horiz-adv-x="347" 
d="M167 709h12l103 -130h-13l-96 121l-96 -121h-13z" />
    <glyph glyph-name="caron" unicode="&#x2c7;" horiz-adv-x="347" 
d="M179 584h-12l-103 130h13l96 -121l96 121h13z" />
    <glyph glyph-name="breve" unicode="&#x2d8;" horiz-adv-x="362" 
d="M73 700h10q1 -33 24 -63.5t75 -30.5q51 0 74.5 30t24.5 64h10q-1 -37 -26.5 -70.5t-82.5 -33.5t-82.5 33.5t-26.5 70.5z" />
    <glyph glyph-name="dotaccent" unicode="&#x2d9;" horiz-adv-x="342" 
d="M173 631q-7 0 -12.5 5.5t-5.5 12.5t5.5 12.5t12.5 5.5t12.5 -5.5t5.5 -12.5t-5.5 -12.5t-12.5 -5.5z" />
    <glyph glyph-name="ring" unicode="&#x2da;" horiz-adv-x="357" 
d="M112 659q0 -27 18 -45.5t47 -18.5q31 0 49 18.5t18 47.5t-18 46.5t-50 17.5q-28 0 -46 -18.5t-18 -47.5zM102 659q0 34 20.5 55t53.5 21q37 0 57.5 -20.5t20.5 -53.5q0 -34 -21 -55t-56 -21q-33 0 -54 21t-21 53z" />
    <glyph glyph-name="ogonek" unicode="&#x2db;" horiz-adv-x="374" 
d="M225 -167v-10q-42 1 -68 21.5t-26 58.5q0 66 84 102v4h10v-9q-84 -35 -84 -97q0 -34 23.5 -51.5t60.5 -18.5z" />
    <glyph glyph-name="tilde" unicode="&#x2dc;" horiz-adv-x="369" 
d="M302 677h10q-1 -33 -17 -52.5t-43 -19.5q-7 0 -14.5 1.5t-13 3.5t-13 6t-11 6.5l-11 7.5l-10.5 7q-2 1 -10 6.5t-10.5 7.5t-9.5 5.5t-11.5 5t-11 3t-13.5 1.5q-24 0 -36.5 -17t-13.5 -45h-10q1 32 16.5 52t43.5 20q7 0 14.5 -1.5t13 -3t12.5 -6t10.5 -6.5t11.5 -7.5
t10 -6.5t11.5 -8t13.5 -9l12 -6t15 -5.5t15 -1.5q23 0 36 17t14 45z" />
    <glyph glyph-name="hungarumlaut" unicode="&#x2dd;" horiz-adv-x="294" 
d="M179 585h-11l53 121h11zM95 585h-11l53 121h11z" />
    <glyph glyph-name="Wgrave" unicode="&#x1e80;" horiz-adv-x="956" 
d="M940 692h11l-239 -692h-10l-222 673l-222 -673h-10l-243 692h11l237 -673l222 673h10l222 -673zM494 733h-12l-64 112h12z" />
    <glyph glyph-name="wgrave" unicode="&#x1e81;" horiz-adv-x="834" 
d="M822 535h12l-202 -535h-14l-201 520l-200 -520h-14l-203 535h12l198 -522l201 522h12l202 -522zM417 585h-11l-64 121h11z" />
    <glyph glyph-name="Wacute" unicode="&#x1e82;" horiz-adv-x="956" 
d="M940 692h11l-239 -692h-10l-222 673l-222 -673h-10l-243 692h11l237 -673l222 673h10l222 -673zM483 733h-12l64 112h12z" />
    <glyph glyph-name="wacute" unicode="&#x1e83;" horiz-adv-x="834" 
d="M822 535h12l-202 -535h-14l-201 520l-200 -520h-14l-203 535h12l198 -522l201 522h12l202 -522zM426 585h-11l66 121h11z" />
    <glyph glyph-name="Wdieresis" unicode="&#x1e84;" horiz-adv-x="956" 
d="M940 692h11l-239 -692h-10l-222 673l-222 -673h-10l-243 692h11l237 -673l222 673h10l222 -673zM412 778q-17 0 -17 17t17 17t17 -17t-17 -17zM549 778q-17 0 -17 17t17 17t17 -17t-17 -17z" />
    <glyph glyph-name="wdieresis" unicode="&#x1e85;" horiz-adv-x="834" 
d="M822 535h12l-202 -535h-14l-201 520l-200 -520h-14l-203 535h12l198 -522l201 522h12l202 -522zM359 632q-17 0 -17 17t17 17t17 -17t-17 -17zM476 632q-17 0 -17 17t17 17t17 -17t-17 -17z" />
    <glyph glyph-name="Ygrave" unicode="&#x1ef2;" horiz-adv-x="431" 
d="M419 692h12l-209 -315v-377h-10v377l-212 315h12l205 -305zM233 733h-12l-64 112h12z" />
    <glyph glyph-name="ygrave" unicode="&#x1ef3;" horiz-adv-x="494" 
d="M-2 535h12l241 -529l233 529h12l-313 -710h-12l74 168zM272 585h-11l-64 121h11z" />
    <glyph glyph-name="uni2009" unicode="&#x2009;" horiz-adv-x="15" 
 />
    <glyph glyph-name="endash" unicode="&#x2013;" horiz-adv-x="595" 
d="M557 290v-10h-519v10h519z" />
    <glyph glyph-name="emdash" unicode="&#x2014;" horiz-adv-x="920" 
d="M882 290v-10h-844v10h844z" />
    <glyph glyph-name="quoteleft" unicode="&#x2018;" horiz-adv-x="118" 
d="M73 692h10l-34 -99h5q19 0 19 -19t-19 -19t-19 19q0 7 3 16z" />
    <glyph glyph-name="quoteright" unicode="&#x2019;" horiz-adv-x="118" 
d="M45 558h-10l34 99h-5q-19 0 -19 19t19 19t19 -19q0 -7 -3 -16z" />
    <glyph glyph-name="quotesinglbase" unicode="&#x201a;" horiz-adv-x="119" 
d="M46 -41h-11l34 99h-4q-19 0 -19 19t19 19t19 -19q0 -7 -3 -16z" />
    <glyph glyph-name="quotedblleft" unicode="&#x201c;" horiz-adv-x="190" 
d="M73 692h10l-34 -99h5q19 0 19 -19t-19 -19t-19 19q0 7 3 16zM145 692h10l-34 -99h5q19 0 19 -19t-19 -19t-19 19q0 7 3 16z" />
    <glyph glyph-name="quotedblright" unicode="&#x201d;" horiz-adv-x="190" 
d="M45 558h-10l34 99h-5q-19 0 -19 19t19 19t19 -19q0 -7 -3 -16zM117 558h-10l34 99h-5q-19 0 -19 19t19 19t19 -19q0 -7 -3 -16z" />
    <glyph glyph-name="quotedblbase" unicode="&#x201e;" horiz-adv-x="193" 
d="M120 -41h-11l34 99h-4q-19 0 -19 19t19 19t19 -19q0 -7 -3 -16zM46 -41h-11l34 99h-4q-19 0 -19 19t19 19t19 -19q0 -7 -3 -16z" />
    <glyph glyph-name="dagger" unicode="&#x2020;" horiz-adv-x="346" 
d="M316 515v-10h-138v-505h-10v505h-138v10h138v177h10v-177h138z" />
    <glyph glyph-name="daggerdbl" unicode="&#x2021;" horiz-adv-x="346" 
d="M316 195v-10h-138v-185h-10v185h-138v10h138v310h-138v10h138v177h10v-177h138v-10h-138v-310h138z" />
    <glyph glyph-name="bullet" unicode="&#x2022;" horiz-adv-x="158" 
d="M30 297q0 21 14 35t35 14t35 -14t14 -35t-14 -34.5t-35 -13.5t-35 13.5t-14 34.5z" />
    <glyph glyph-name="ellipsis" unicode="&#x2026;" horiz-adv-x="314" 
d="M157 -5q-19 0 -19 19t19 19t19 -19t-19 -19zM49 -5q-19 0 -19 19t19 19t19 -19t-19 -19zM265 -5q-19 0 -19 19t19 19t19 -19t-19 -19z" />
    <glyph glyph-name="perthousand" unicode="&#x2030;" horiz-adv-x="1038" 
d="M707 149q0 65 42.5 109.5t109.5 44.5q70 0 113.5 -44t43.5 -110q0 -65 -43 -109t-112 -44q-67 0 -110.5 44t-43.5 109zM717 149q0 -61 40.5 -102t103.5 -41q64 0 104.5 41.5t40.5 101.5q0 62 -40.5 103t-106.5 41q-62 0 -102 -41.5t-40 -102.5zM607 692h12l-542 -692h-12
zM22 546q0 65 42.5 109.5t109.5 44.5q70 0 113.5 -44t43.5 -110q0 -65 -43 -109t-112 -44q-67 0 -110.5 44t-43.5 109zM32 546q0 -61 40.5 -102t103.5 -41q64 0 104.5 41.5t40.5 101.5q0 62 -40.5 103t-106.5 41q-62 0 -102 -41.5t-40 -102.5zM355 149q0 65 42.5 109.5
t109.5 44.5q70 0 113.5 -44t43.5 -110q0 -65 -43 -109t-112 -44q-67 0 -110.5 44t-43.5 109zM365 149q0 -61 40.5 -102t103.5 -41q64 0 104.5 41.5t40.5 101.5q0 62 -40.5 103t-106.5 41q-62 0 -102 -41.5t-40 -102.5z" />
    <glyph glyph-name="guilsinglleft" unicode="&#x2039;" horiz-adv-x="151" 
d="M119 426h11l-98 -157l98 -157h-11l-98 157z" />
    <glyph glyph-name="guilsinglright" unicode="&#x203a;" horiz-adv-x="151" 
d="M32 112h-11l98 157l-98 157h11l98 -157z" />
    <glyph glyph-name="fraction" unicode="&#x2044;" horiz-adv-x="588" 
d="M536 692h12l-498 -692h-12z" />
    <glyph glyph-name="Euro" unicode="&#x20ac;" horiz-adv-x="634" 
d="M5 403v10h56q21 132 114 212.5t227 80.5q133 0 218 -79l-7 -7q-82 76 -211 76t-219.5 -78t-111.5 -205h345v-10h-347q-3 -23 -3 -57q0 -26 3 -52h347v-10h-346q20 -129 111 -208t223 -79q72 0 128.5 26.5t91.5 62.5l7 -7q-36 -37 -94 -64.5t-133 -27.5q-136 0 -230 81.5
t-114 215.5h-55v10h54q-3 26 -3 52q0 30 3 57h-54z" />
    <glyph glyph-name="trademark" unicode="&#x2122;" horiz-adv-x="518" 
d="M490 410h-10v263l-133 -263h-8l-133 262v-262h-10v282h11l136 -269l136 269h11v-282zM97 410h-10v272h-59v10h128v-10h-59v-272z" />
    <glyph glyph-name="onethird" unicode="&#x2153;" horiz-adv-x="596" 
d="M355 102h10q0 -41 24 -69t69 -28q41 0 67 27t26 70q0 47 -29.5 69t-77.5 23h-17v10l108 143h-163v10h175v-10l-107 -143h4q52 -1 84.5 -26t32.5 -76q0 -48 -29 -77.5t-74 -29.5q-49 0 -76 30.5t-27 76.5zM504 692h12l-498 -692h-12zM89 659v11l41 22h10v-357h-10v345z
" />
    <glyph glyph-name="twothirds" unicode="&#x2154;" horiz-adv-x="664" 
d="M571 692h12l-498 -692h-12zM40 598h-10q0 41 22.5 70.5t69.5 29.5q46 0 69.5 -26.5t23.5 -71.5q0 -51 -53 -113l-118 -142h178v-10h-191v10l123 148q51 60 51 107q0 41 -21 64.5t-62 23.5q-42 0 -62 -26.5t-20 -63.5zM423 102h10q0 -41 24 -69t69 -28q41 0 67 27t26 70
q0 47 -29.5 69t-77.5 23h-17v10l108 143h-163v10h175v-10l-107 -143h4q52 -1 84.5 -26t32.5 -76q0 -48 -29 -77.5t-74 -29.5q-49 0 -76 30.5t-27 76.5z" />
    <glyph glyph-name="oneeighth" unicode="&#x215b;" horiz-adv-x="590" 
d="M450 -5q-44 0 -75 28.5t-31 70.5q0 34 21 60.5t55 35.5q-29 8 -46.5 30.5t-17.5 53.5q0 39 27 64t67 25t67 -25t27 -64q0 -31 -17.5 -53.5t-47.5 -30.5q35 -8 56 -34.5t21 -61.5q0 -42 -30 -70.5t-76 -28.5zM450 5q41 0 68.5 25.5t27.5 63.5t-27.5 64.5t-68.5 26.5
t-68.5 -26.5t-27.5 -64.5q0 -37 28 -63t68 -26zM366 274q0 -35 23.5 -57t60.5 -22t60.5 22t23.5 57t-24 57t-60 22t-60 -22t-24 -57zM504 692h12l-498 -692h-12zM89 659v11l41 22h10v-357h-10v345z" />
    <glyph glyph-name="threeeighths" unicode="&#x215c;" horiz-adv-x="641" 
d="M501 -5q-44 0 -75 28.5t-31 70.5q0 34 21 60.5t55 35.5q-29 8 -46.5 30.5t-17.5 53.5q0 39 27 64t67 25t67 -25t27 -64q0 -31 -17.5 -53.5t-47.5 -30.5q35 -8 56 -34.5t21 -61.5q0 -42 -30 -70.5t-76 -28.5zM501 5q41 0 68.5 25.5t27.5 63.5t-27.5 64.5t-68.5 26.5
t-68.5 -26.5t-27.5 -64.5q0 -37 28 -63t68 -26zM417 274q0 -35 23.5 -57t60.5 -22t60.5 22t23.5 57t-24 57t-60 22t-60 -22t-24 -57zM30 437h10q0 -41 24 -69t69 -28q41 0 67 27t26 70q0 47 -29.5 69t-77.5 23h-17v10l108 143h-163v10h175v-10l-107 -143h4q52 -1 84.5 -26
t32.5 -76q0 -48 -29 -77.5t-74 -29.5q-49 0 -76 30.5t-27 76.5zM555 692h12l-498 -692h-12z" />
    <glyph glyph-name="fiveeighths" unicode="&#x215d;" horiz-adv-x="652" 
d="M512 -5q-44 0 -75 28.5t-31 70.5q0 34 21 60.5t55 35.5q-29 8 -46.5 30.5t-17.5 53.5q0 39 27 64t67 25t67 -25t27 -64q0 -31 -17.5 -53.5t-47.5 -30.5q35 -8 56 -34.5t21 -61.5q0 -42 -30 -70.5t-76 -28.5zM512 5q41 0 68.5 25.5t27.5 63.5t-27.5 64.5t-68.5 26.5
t-68.5 -26.5t-27.5 -64.5q0 -37 28 -63t68 -26zM428 274q0 -35 23.5 -57t60.5 -22t60.5 22t23.5 57t-24 57t-60 22t-60 -22t-24 -57zM226 693v-10h-160v-164q24 45 83 45q44 0 69 -27.5t25 -74.5v-30q0 -44 -26 -73t-70 -29q-47 0 -71 27.5t-24 74.5h10q0 -92 85 -92
q40 0 63 25.5t23 66.5v29q0 43 -21.5 68t-62.5 25q-33 0 -54.5 -16.5t-28.5 -42.5h-10v198h170zM566 692h12l-498 -692h-12z" />
    <glyph glyph-name="seveneighths" unicode="&#x215e;" horiz-adv-x="604" 
d="M464 -5q-44 0 -75 28.5t-31 70.5q0 34 21 60.5t55 35.5q-29 8 -46.5 30.5t-17.5 53.5q0 39 27 64t67 25t67 -25t27 -64q0 -31 -17.5 -53.5t-47.5 -30.5q35 -8 56 -34.5t21 -61.5q0 -42 -30 -70.5t-76 -28.5zM464 5q41 0 68.5 25.5t27.5 63.5t-27.5 64.5t-68.5 26.5
t-68.5 -26.5t-27.5 -64.5q0 -37 28 -63t68 -26zM380 274q0 -35 23.5 -57t60.5 -22t60.5 22t23.5 57t-24 57t-60 22t-60 -22t-24 -57zM116 335h-12l157 347h-197v10h208v-10zM518 692h12l-498 -692h-12z" />
    <glyph glyph-name="minus" unicode="&#x2212;" horiz-adv-x="411" 
d="M20 332v10h371v-10h-371z" />
    <glyph glyph-name="uni24C5" unicode="&#x24c5;" horiz-adv-x="764" 
d="M29 346q0 159 101.5 259.5t252.5 100.5t251.5 -101t100.5 -259q0 -156 -102.5 -257.5t-252.5 -101.5q-152 0 -251.5 99.5t-99.5 259.5zM39 346q0 -156 97 -252.5t244 -96.5q146 0 245.5 98.5t99.5 250.5q0 153 -98 251.5t-244 98.5q-147 0 -245.5 -97.5t-98.5 -252.5z
M379 339h-54v-185h-10v386h64q115 0 115 -99q0 -49 -32 -75.5t-83 -26.5zM325 530v-181h54q47 0 76 23.5t29 68.5q0 89 -105 89h-54z" />
    <glyph glyph-name="f_i" unicode="&#xfb01;" horiz-adv-x="305" 
d="M237 535h10v-535h-10v535zM242 631q-8 0 -13 5.5t-5 12.5t5 12.5t13 5.5t13 -5.5t5 -12.5t-5 -12.5t-13 -5.5zM73 0h-10v525h-53v10h53v91q0 51 17.5 78t68.5 27h20v-10h-20q-45 0 -60.5 -24.5t-15.5 -70.5v-91h93v-10h-93v-525z" />
    <glyph glyph-name="f_l" unicode="&#xfb02;" horiz-adv-x="305" 
d="M237 731h10v-731h-10v731zM73 0h-10v525h-53v10h53v91q0 51 17.5 78t68.5 27h20v-10h-20q-45 0 -60.5 -24.5t-15.5 -70.5v-91h93v-10h-93v-525z" />
    <glyph glyph-name="space_uni0326" horiz-adv-x="352" 
d="M177 -176h-12l37 95h-3q-19 0 -19 19t19 19t19 -19q0 -6 -3 -15z" />
    <glyph glyph-name="caron.alt" horiz-adv-x="433" 
d="M282 731h10l-16 -121h-10z" />
    <glyph glyph-name="space_uni0326.alt" horiz-adv-x="352" 
d="M197 743h12l-37 -95h3q19 0 19 -19t-19 -19t-19 19q0 6 3 15z" />
    <glyph glyph-name="acute.pl" horiz-adv-x="433" 
d="M226 585h-11l40 121h11z" />
    <glyph glyph-name="grave.uc" horiz-adv-x="417" 
d="M212 733h-12l-64 112h12z" />
    <glyph glyph-name="dieresis.uc" horiz-adv-x="378" 
d="M118 778q-17 0 -17 17t17 17t17 -17t-17 -17zM255 778q-17 0 -17 17t17 17t17 -17t-17 -17z" />
    <glyph glyph-name="macron.uc" horiz-adv-x="436" 
d="M133 778v10h186v-10h-186z" />
    <glyph glyph-name="acute.uc" horiz-adv-x="416" 
d="M227 733h-12l64 112h12z" />
    <glyph glyph-name="circumflex.uc" horiz-adv-x="336" 
d="M160 847h12l104 -114h-13l-97 105l-97 -105h-13z" />
    <glyph glyph-name="caron.uc" horiz-adv-x="336" 
d="M173 733h-12l-104 114h13l97 -105l97 105h13z" />
    <glyph glyph-name="breve.uc" horiz-adv-x="362" 
d="M73 837h10q1 -31 24.5 -60.5t74.5 -29.5t74.5 29.5t24.5 60.5h10q-1 -35 -27 -67.5t-82 -32.5q-57 0 -82.5 33t-26.5 67z" />
    <glyph glyph-name="dotaccent.uc" horiz-adv-x="342" 
d="M173 768q-7 0 -12.5 5t-5.5 13t5.5 13t12.5 5t12.5 -5t5.5 -13t-5.5 -13t-12.5 -5z" />
    <glyph glyph-name="ring.uc" horiz-adv-x="430" 
d="M149 796q0 -27 18 -45.5t47 -18.5q31 0 49 18.5t18 47.5t-18 46.5t-50 17.5q-28 0 -46 -18.5t-18 -47.5zM139 796q0 34 20.5 55t53.5 21q37 0 57.5 -20.5t20.5 -53.5q0 -34 -21 -55t-56 -21q-33 0 -54 21t-21 53z" />
    <glyph glyph-name="tilde.uc" horiz-adv-x="445" 
d="M348 831h10q-1 -32 -17.5 -52t-44.5 -20q-7 0 -15 1.5t-13 3.5t-13 6t-11 6l-12 8t-10 7t-8.5 6t-9.5 6t-8.5 5t-10 5t-9 3.5t-10.5 3t-11 0.5q-24 0 -37.5 -17.5t-14.5 -44.5h-10q1 32 17.5 52t44.5 20q27 0 73 -31q2 -2 10 -7l11 -7t10 -6t12 -5.5t11.5 -3t13.5 -1.5
q23 0 37 17t15 45z" />
    <glyph glyph-name="hungarumlaut.uc" horiz-adv-x="295" 
d="M165 733h-11l52 112h11zM81 733h-11l52 112h11z" />
    <glyph glyph-name="acute.ucpl" horiz-adv-x="432" 
d="M236 733h-11l39 112h11z" />
    <glyph glyph-name="Cacute.pl" horiz-adv-x="617" 
d="M353 733h-11l39 112h11zM597 86l7 -7q-36 -37 -94 -64.5t-133 -27.5q-152 0 -250 100.5t-98 258.5t97.5 259t248.5 101q133 0 218 -79l-7 -7q-82 76 -211 76q-147 0 -241.5 -98.5t-94.5 -251.5t95.5 -251t242.5 -98q72 0 128.5 26.5t91.5 62.5z" />
    <glyph glyph-name="Nacute.pl" horiz-adv-x="646" 
d="M71 0h-10v692h10l504 -675v675h10v-692h-10l-504 675v-675zM331 733h-11l39 112h11z" />
    <glyph glyph-name="Oacute.pl" horiz-adv-x="753" 
d="M39 346q0 -153 96 -251t240 -98t241.5 99.5t97.5 249.5q0 151 -97 250.5t-241 99.5q-143 0 -240 -98.5t-97 -251.5zM29 346q0 157 99.5 258.5t247.5 101.5q149 0 248.5 -102t99.5 -258q0 -154 -100.5 -256.5t-248.5 -102.5t-247 101t-99 258zM377 733h-11l39 112h11z" />
    <glyph glyph-name="Sacute.pl" horiz-adv-x="422" 
d="M32 156h10q0 -65 43.5 -110.5t119.5 -45.5q78 0 126.5 45.5t48.5 118.5q0 79 -38.5 122t-128.5 75q-89 32 -128 70.5t-39 107.5t43.5 113t121.5 44q71 0 113.5 -39.5t49.5 -110.5h-10q-7 66 -47 103t-106 37q-74 0 -114.5 -41.5t-40.5 -105.5q0 -65 37.5 -101.5
t123.5 -67.5q94 -33 133.5 -79.5t39.5 -126.5q0 -77 -51.5 -125.5t-133.5 -48.5q-81 0 -127 48t-46 118zM215 733h-11l39 112h11z" />
    <glyph glyph-name="Zacute.pl" horiz-adv-x="574" 
d="M38 682v10h506v-10l-501 -672h501v-10h-514v10l501 672h-493zM290 733h-11l39 112h11z" />
    <glyph glyph-name="cacute.pl" horiz-adv-x="527" 
d="M499 96l8 -6q-30 -40 -83 -69.5t-126 -29.5q-120 0 -196 78.5t-76 197.5t77.5 198t194.5 79q76 0 128 -28.5t79 -67.5l-8 -6q-26 37 -76 64.5t-123 27.5q-112 0 -187 -76.5t-75 -190.5q0 -115 73.5 -190.5t188.5 -75.5q70 0 121.5 28.5t79.5 66.5zM292 585h-11l40 121h11
z" />
    <glyph glyph-name="idotaccent" horiz-adv-x="126" 
d="M58 535h10v-535h-10v535zM63 631q-7 0 -12.5 5.5t-5.5 12.5t5.5 12.5t12.5 5.5t12.5 -5.5t5.5 -12.5t-5.5 -12.5t-12.5 -5.5z" />
    <glyph glyph-name="nacute.pl" horiz-adv-x="430" 
d="M364 0v360q0 78 -36.5 124.5t-107.5 46.5q-73 0 -112.5 -49t-39.5 -133v-349h-10v535h10v-115q12 58 53.5 89.5t98.5 31.5q77 0 115.5 -49.5t38.5 -130.5v-361h-10zM212 585h-11l40 121h11z" />
    <glyph glyph-name="oacute.pl" 
d="M38 267q0 -119 74 -192.5t186 -73.5q111 0 187 75t76 191q0 117 -75 192t-186 75t-186.5 -74.5t-75.5 -192.5zM28 267q0 123 78 200t194 77t193.5 -78t77.5 -199q0 -120 -79 -198t-194 -78q-117 0 -193.5 76.5t-76.5 199.5zM294 585h-11l40 121h11z" />
    <glyph glyph-name="sacute.pl" horiz-adv-x="335" 
d="M301 412h-10q-1 59 -33 89t-89 30q-56 0 -89.5 -32t-33.5 -78q0 -54 33.5 -85.5t96.5 -52.5q71 -23 104.5 -58.5t33.5 -93.5q0 -65 -42 -101t-107 -36q-75 0 -110 42t-35 106h10q0 -59 32.5 -98.5t102.5 -39.5q60 0 99.5 33t39.5 93q0 53 -29.5 86t-102.5 58
q-70 24 -103 57.5t-33 89.5q0 51 36 85.5t97 34.5q62 0 97 -33.5t35 -95.5zM168 585h-11l40 121h11z" />
    <glyph glyph-name="zacute.pl" horiz-adv-x="443" 
d="M419 10v-10h-395v10l382 515h-373v10h386v-10l-382 -515h382zM225 585h-11l40 121h11z" />
    <glyph glyph-name="zero.num" horiz-adv-x="253" 
d="M32 432v163q0 48 24 75.5t72 27.5q44 0 68.5 -28.5t24.5 -74.5v-163q0 -46 -24.5 -74.5t-68.5 -28.5q-48 0 -72 27.5t-24 75.5zM42 595v-163q0 -43 21.5 -68t64.5 -25q39 0 61 26t22 67v163q0 41 -22 67t-61 26q-43 0 -64.5 -25t-21.5 -68z" />
    <glyph glyph-name="one.num" horiz-adv-x="98" 
d="M9 659v11l41 22h10v-357h-10v345z" />
    <glyph glyph-name="two.num" horiz-adv-x="229" 
d="M30 598h-10q0 41 22.5 70.5t69.5 29.5q46 0 69.5 -26.5t23.5 -71.5q0 -51 -53 -113l-118 -142h178v-10h-191v10l123 148q51 60 51 107q0 41 -21 64.5t-62 23.5q-42 0 -62 -26.5t-20 -63.5z" />
    <glyph glyph-name="three.num" horiz-adv-x="245" 
d="M17 436h10q0 -41 24 -69t69 -28q41 0 67 27t26 70q0 47 -29.5 69.5t-77.5 23.5h-17v10l108 143h-163v10h175v-10l-107 -143h4q52 -1 84.5 -26.5t32.5 -76.5q0 -48 -29 -77.5t-74 -29.5q-49 0 -76 30.5t-27 76.5z" />
    <glyph glyph-name="four.num" horiz-adv-x="253" 
d="M192 335h-10v133h-165v10l166 214h9v-214h48v-10h-48v-133zM182 674l-152 -196h152v196z" />
    <glyph glyph-name="five.num" horiz-adv-x="241" 
d="M202 692v-10h-160v-161q23 42 82 42q44 0 68.5 -28t24.5 -73v-30q0 -46 -25 -74.5t-70 -28.5q-47 0 -70.5 27.5t-23.5 75.5h10q0 -93 84 -93q41 0 63 25.5t22 67.5v30q0 41 -21.5 66t-61.5 25q-65 0 -82 -57h-10v196h170z" />
    <glyph glyph-name="six.num" horiz-adv-x="246" 
d="M32 432v163q0 48 24 75.5t72 27.5q58 0 82 -47l-8 -4q-21 41 -74 41q-43 0 -64.5 -25t-21.5 -68v-83q23 50 87 50q43 0 68 -28.5t25 -73.5v-28q0 -46 -25 -74.5t-69 -28.5q-48 0 -72 27.5t-24 75.5zM42 460v-28q0 -43 21.5 -68t64.5 -25q39 0 61.5 26t22.5 67v28
q0 41 -22 66.5t-61 25.5q-44 0 -65.5 -24.5t-21.5 -67.5z" />
    <glyph glyph-name="seven.num" horiz-adv-x="214" 
d="M12 682v10h188v-10l-136 -347h-12l137 347h-177z" />
    <glyph glyph-name="eight.num" horiz-adv-x="264" 
d="M132 329q-44 0 -75 29t-31 71q0 34 21 60.5t55 35.5q-29 8 -46.5 30.5t-17.5 53.5q0 39 27 64t67 25t67 -25t27 -64q0 -31 -17.5 -53.5t-47.5 -30.5q35 -8 56 -34.5t21 -61.5q0 -42 -30.5 -71t-75.5 -29zM132 339q41 0 68.5 26t27.5 64t-27.5 64.5t-68.5 26.5
t-68.5 -26.5t-27.5 -64.5q0 -37 28 -63.5t68 -26.5zM48 609q0 -35 23.5 -57t60.5 -22t60.5 22t23.5 57t-24 57t-60 22t-60 -22t-24 -57z" />
    <glyph glyph-name="nine.num" horiz-adv-x="247" 
d="M215 595v-163q0 -48 -24 -75.5t-71 -27.5q-59 0 -83 47l8 4q21 -41 75 -41q42 0 63.5 25t21.5 68v83q-22 -50 -86 -50q-45 0 -70 28.5t-25 73.5v28q0 46 25.5 74.5t70.5 28.5q47 0 71 -27.5t24 -75.5zM205 567v28q0 43 -21.5 68t-63.5 25q-40 0 -63 -25.5t-23 -67.5v-28
q0 -41 22.5 -66.5t62.5 -25.5q43 0 64.5 24.5t21.5 67.5z" />
    <glyph glyph-name="zero.den" horiz-adv-x="253" 
d="M32 97v163q0 48 24 75.5t72 27.5q44 0 68.5 -28.5t24.5 -74.5v-163q0 -46 -24.5 -74.5t-68.5 -28.5q-48 0 -72 27.5t-24 75.5zM42 260v-163q0 -43 21.5 -68t64.5 -25q39 0 61 26t22 67v163q0 41 -22 67t-61 26q-43 0 -64.5 -25t-21.5 -68z" />
    <glyph glyph-name="one.den" horiz-adv-x="99" 
d="M10 324v11l41 22h10v-357h-10v345z" />
    <glyph glyph-name="two.den" horiz-adv-x="225" 
d="M26 263h-10q0 41 22.5 70.5t69.5 29.5q46 0 69.5 -26.5t23.5 -71.5q0 -51 -53 -113l-118 -142h178v-10h-191v10l123 148q51 60 51 107q0 41 -21 64.5t-62 23.5q-42 0 -62 -26.5t-20 -63.5z" />
    <glyph glyph-name="three.den" horiz-adv-x="236" 
d="M13 101h10q0 -41 24 -69t69 -28q41 0 67 27t26 70q0 47 -29.5 69.5t-77.5 23.5h-17v10l108 143h-163v10h175v-10l-107 -143h4q52 -1 84.5 -26.5t32.5 -76.5q0 -48 -29 -77.5t-74 -29.5q-49 0 -76 30.5t-27 76.5z" />
    <glyph glyph-name="four.den" horiz-adv-x="245" 
d="M188 0h-10v133h-165v10l166 214h9v-214h48v-10h-48v-133zM178 339l-152 -196h152v196z" />
    <glyph glyph-name="five.den" horiz-adv-x="236" 
d="M200 357v-10h-160v-161q23 42 82 42q44 0 68.5 -28t24.5 -73v-30q0 -46 -25 -74.5t-70 -28.5q-47 0 -70.5 27.5t-23.5 75.5h10q0 -93 84 -93q41 0 63 25.5t22 67.5v30q0 41 -21.5 66t-61.5 25q-65 0 -82 -57h-10v196h170z" />
    <glyph glyph-name="six.den" horiz-adv-x="242" 
d="M32 97v163q0 48 24 75.5t72 27.5q58 0 82 -47l-8 -4q-21 41 -74 41q-43 0 -64.5 -25t-21.5 -68v-83q23 50 87 50q43 0 68 -28.5t25 -73.5v-28q0 -46 -25 -74.5t-69 -28.5q-48 0 -72 27.5t-24 75.5zM42 125v-28q0 -43 21.5 -68t64.5 -25q39 0 61.5 26t22.5 67v28
q0 41 -22 66.5t-61 25.5q-44 0 -65.5 -24.5t-21.5 -67.5z" />
    <glyph glyph-name="seven.den" horiz-adv-x="206" 
d="M8 347v10h188v-10l-136 -347h-12l136 347h-176z" />
    <glyph glyph-name="eight.den" horiz-adv-x="252" 
d="M126 -6q-44 0 -75 29t-31 71q0 34 21 60.5t55 35.5q-29 8 -46.5 30.5t-17.5 53.5q0 39 27 64t67 25t67 -25t27 -64q0 -31 -17.5 -53.5t-47.5 -30.5q35 -8 56 -34.5t21 -61.5q0 -42 -30.5 -71t-75.5 -29zM126 4q41 0 68.5 26t27.5 64t-27.5 64.5t-68.5 26.5t-68.5 -26.5
t-27.5 -64.5q0 -37 28 -63.5t68 -26.5zM42 274q0 -35 23.5 -57t60.5 -22t60.5 22t23.5 57t-24 57t-60 22t-60 -22t-24 -57z" />
    <glyph glyph-name="nine.den" horiz-adv-x="245" 
d="M213 260v-163q0 -48 -24 -75.5t-71 -27.5q-59 0 -83 47l8 4q21 -41 75 -41q42 0 63.5 25t21.5 68v83q-22 -50 -86 -50q-45 0 -70 28.5t-25 73.5v28q0 46 25.5 74.5t70.5 28.5q47 0 71 -27.5t24 -75.5zM203 232v28q0 43 -21.5 68t-63.5 25q-40 0 -63 -25.5t-23 -67.5v-28
q0 -41 22.5 -66.5t62.5 -25.5q43 0 64.5 24.5t21.5 67.5z" />
    <glyph glyph-name="a.alt" horiz-adv-x="621" 
d="M28 267q0 122 77.5 199.5t190.5 77.5q93 0 164 -55.5t93 -145.5v192h10v-535h-10v193q-23 -92 -94.5 -147t-164.5 -55q-114 0 -190 76.5t-76 199.5zM38 267q0 -119 73.5 -192.5t182.5 -73.5t184 75.5t75 190.5q0 118 -75 192.5t-182 74.5q-109 0 -183.5 -74.5
t-74.5 -192.5z" />
    <glyph glyph-name="k.alt" horiz-adv-x="408" 
d="M60 731h10v-293q16 47 57 75t94 28q68 0 114 -46t46 -117t-46.5 -117.5t-114.5 -46.5q-43 0 -70 16l233 -230h-14l-253 248q-34 34 -46 71v-319h-10v731zM70 378q0 -69 42.5 -111.5t107.5 -42.5q63 0 107 43.5t44 110.5t-43 110t-107 43q-62 0 -105.5 -41t-45.5 -105v-7z
" />
    <glyph glyph-name="u.alt" horiz-adv-x="426" 
d="M56 535h10v-371q0 -71 36 -115.5t111 -44.5q70 0 108.5 45.5t38.5 114.5v371h10v-371q0 -74 -41.5 -122t-115.5 -48q-80 0 -118.5 47t-38.5 123v371z" />
    <glyph glyph-name="w.alt" horiz-adv-x="730" 
d="M360 535h10v-371q0 -71 36 -115.5t111 -44.5q70 0 108.5 45.5t38.5 114.5v371h10v-371q0 -74 -41.5 -122t-115.5 -48q-67 0 -105 34.5t-47 90.5q-12 -58 -51 -91.5t-101 -33.5q-80 0 -118.5 47t-38.5 123v371h10v-371q0 -71 36 -115.5t111 -44.5q70 0 108.5 45.5
t38.5 114.5v371z" />
    <glyph glyph-name="y.alt" horiz-adv-x="427" 
d="M71 -140l5 9q57 -41 135 -41q71 0 109 43.5t39 123.5v121q-13 -58 -53 -90t-96 -32q-78 0 -116.5 49.5t-38.5 131.5v360h10v-360q0 -79 36 -125t109 -46q71 0 109.5 49t39.5 133v349h10v-540q-1 -85 -41.5 -131t-116.5 -46q-82 0 -140 42z" />
    <glyph glyph-name="aacute.alt" horiz-adv-x="621" 
d="M293 585h-11l66 121h11zM28 267q0 122 77.5 199.5t190.5 77.5q93 0 164 -55.5t93 -145.5v192h10v-535h-10v193q-23 -92 -94.5 -147t-164.5 -55q-114 0 -190 76.5t-76 199.5zM38 267q0 -119 73.5 -192.5t182.5 -73.5t184 75.5t75 190.5q0 118 -75 192.5t-182 74.5
q-109 0 -183.5 -74.5t-74.5 -192.5z" />
    <glyph glyph-name="abreve.alt" horiz-adv-x="621" 
d="M186 700h10q1 -33 24 -63.5t75 -30.5q51 0 74.5 30t24.5 64h10q-1 -37 -26.5 -70.5t-82.5 -33.5t-82.5 33.5t-26.5 70.5zM28 267q0 122 77.5 199.5t190.5 77.5q93 0 164 -55.5t93 -145.5v192h10v-535h-10v193q-23 -92 -94.5 -147t-164.5 -55q-114 0 -190 76.5t-76 199.5z
M38 267q0 -119 73.5 -192.5t182.5 -73.5t184 75.5t75 190.5q0 118 -75 192.5t-182 74.5q-109 0 -183.5 -74.5t-74.5 -192.5z" />
    <glyph glyph-name="acircumflex.alt" horiz-adv-x="621" 
d="M292 709h12l103 -130h-13l-96 121l-96 -121h-13zM28 267q0 122 77.5 199.5t190.5 77.5q93 0 164 -55.5t93 -145.5v192h10v-535h-10v193q-23 -92 -94.5 -147t-164.5 -55q-114 0 -190 76.5t-76 199.5zM38 267q0 -119 73.5 -192.5t182.5 -73.5t184 75.5t75 190.5
q0 118 -75 192.5t-182 74.5q-109 0 -183.5 -74.5t-74.5 -192.5z" />
    <glyph glyph-name="adieresis.alt" horiz-adv-x="621" 
d="M238 632q-17 0 -17 17t17 17t17 -17t-17 -17zM355 632q-17 0 -17 17t17 17t17 -17t-17 -17zM28 267q0 122 77.5 199.5t190.5 77.5q93 0 164 -55.5t93 -145.5v192h10v-535h-10v193q-23 -92 -94.5 -147t-164.5 -55q-114 0 -190 76.5t-76 199.5zM38 267q0 -119 73.5 -192.5
t182.5 -73.5t184 75.5t75 190.5q0 118 -75 192.5t-182 74.5q-109 0 -183.5 -74.5t-74.5 -192.5z" />
    <glyph glyph-name="agrave.alt" horiz-adv-x="621" 
d="M314 585h-11l-64 121h11zM28 267q0 122 77.5 199.5t190.5 77.5q93 0 164 -55.5t93 -145.5v192h10v-535h-10v193q-23 -92 -94.5 -147t-164.5 -55q-114 0 -190 76.5t-76 199.5zM38 267q0 -119 73.5 -192.5t182.5 -73.5t184 75.5t75 190.5q0 118 -75 192.5t-182 74.5
q-109 0 -183.5 -74.5t-74.5 -192.5z" />
    <glyph glyph-name="amacron.alt" horiz-adv-x="621" 
d="M203 630v10h186v-10h-186zM28 267q0 122 77.5 199.5t190.5 77.5q93 0 164 -55.5t93 -145.5v192h10v-535h-10v193q-23 -92 -94.5 -147t-164.5 -55q-114 0 -190 76.5t-76 199.5zM38 267q0 -119 73.5 -192.5t182.5 -73.5t184 75.5t75 190.5q0 118 -75 192.5t-182 74.5
q-109 0 -183.5 -74.5t-74.5 -192.5z" />
    <glyph glyph-name="aogonek.alt" horiz-adv-x="621" 
d="M28 267q0 122 77.5 199.5t190.5 77.5q93 0 164 -55.5t93 -145.5v192h10v-535q-84 -35 -84 -97q0 -34 23.5 -51.5t60.5 -18.5v-10q-42 1 -68 21.5t-26 58.5q0 66 84 102v188q-23 -92 -94.5 -147t-164.5 -55q-114 0 -190 76.5t-76 199.5zM38 267q0 -119 73.5 -192.5
t182.5 -73.5t184 75.5t75 190.5q0 118 -75 192.5t-182 74.5q-109 0 -183.5 -74.5t-74.5 -192.5z" />
    <glyph glyph-name="aring.alt" horiz-adv-x="621" 
d="M231 659q0 -27 18 -45.5t47 -18.5q31 0 49 18.5t18 47.5t-18 46.5t-50 17.5q-28 0 -46 -18.5t-18 -47.5zM221 659q0 34 20.5 55t53.5 21q37 0 57.5 -20.5t20.5 -53.5q0 -34 -21 -55t-56 -21q-33 0 -54 21t-21 53zM28 267q0 122 77.5 199.5t190.5 77.5q93 0 164 -55.5
t93 -145.5v192h10v-535h-10v193q-23 -92 -94.5 -147t-164.5 -55q-114 0 -190 76.5t-76 199.5zM38 267q0 -119 73.5 -192.5t182.5 -73.5t184 75.5t75 190.5q0 118 -75 192.5t-182 74.5q-109 0 -183.5 -74.5t-74.5 -192.5z" />
    <glyph glyph-name="aringacute.alt" horiz-adv-x="621" 
d="M28 267q0 122 77.5 199.5t190.5 77.5q93 0 164 -55.5t93 -145.5v192h10v-535h-10v193q-23 -92 -94.5 -147t-164.5 -55q-114 0 -190 76.5t-76 199.5zM38 267q0 -119 73.5 -192.5t182.5 -73.5t184 75.5t75 190.5q0 118 -75 192.5t-182 74.5q-109 0 -183.5 -74.5
t-74.5 -192.5zM231 659q0 -27 18 -45.5t47 -18.5q31 0 49 18.5t18 47.5t-18 46.5t-50 17.5q-28 0 -46 -18.5t-18 -47.5zM221 659q0 34 20.5 55t53.5 21q37 0 57.5 -20.5t20.5 -53.5q0 -34 -21 -55t-56 -21q-33 0 -54 21t-21 53zM295 775h-12l64 112h12z" />
    <glyph glyph-name="atilde.alt" horiz-adv-x="621" 
d="M416 677h10q-1 -33 -17 -52.5t-43 -19.5q-7 0 -14.5 1.5t-13 3.5t-13 6t-11 6.5l-11 7.5l-10.5 7q-43 29 -66 29q-24 0 -36.5 -17t-13.5 -45h-10q1 32 16.5 52t43.5 20q7 0 14.5 -1.5t13 -3t12.5 -6t10.5 -6.5t11.5 -7.5t10 -6.5t11.5 -8t13.5 -9l12 -6t15 -5.5t15 -1.5
q23 0 36 17t14 45zM28 267q0 122 77.5 199.5t190.5 77.5q93 0 164 -55.5t93 -145.5v192h10v-535h-10v193q-23 -92 -94.5 -147t-164.5 -55q-114 0 -190 76.5t-76 199.5zM38 267q0 -119 73.5 -192.5t182.5 -73.5t184 75.5t75 190.5q0 118 -75 192.5t-182 74.5
q-109 0 -183.5 -74.5t-74.5 -192.5z" />
    <glyph glyph-name="kcommaaccent.alt" horiz-adv-x="408" 
d="M192 -176h-12l37 95h-3q-19 0 -19 19t19 19t19 -19q0 -6 -3 -15zM60 731h10v-293q16 47 57 75t94 28q68 0 114 -46t46 -117t-46.5 -117.5t-114.5 -46.5q-43 0 -70 16l233 -230h-14l-253 248q-34 34 -46 71v-319h-10v731zM70 378q0 -69 42.5 -111.5t107.5 -42.5
q63 0 107 43.5t44 110.5t-43 110t-107 43q-62 0 -105.5 -41t-45.5 -105v-7z" />
    <glyph glyph-name="uacute.alt" horiz-adv-x="426" 
d="M211 585h-11l66 121h11zM56 535h10v-371q0 -71 36 -115.5t111 -44.5q70 0 108.5 45.5t38.5 114.5v371h10v-371q0 -74 -41.5 -122t-115.5 -48q-80 0 -118.5 47t-38.5 123v371z" />
    <glyph glyph-name="ugrave.alt" horiz-adv-x="426" 
d="M225 585h-11l-64 121h11zM56 535h10v-371q0 -71 36 -115.5t111 -44.5q70 0 108.5 45.5t38.5 114.5v371h10v-371q0 -74 -41.5 -122t-115.5 -48q-80 0 -118.5 47t-38.5 123v371z" />
    <glyph glyph-name="ucircumflex.alt" horiz-adv-x="426" 
d="M207 709h12l103 -130h-13l-96 121l-96 -121h-13zM56 535h10v-371q0 -71 36 -115.5t111 -44.5q70 0 108.5 45.5t38.5 114.5v371h10v-371q0 -74 -41.5 -122t-115.5 -48q-80 0 -118.5 47t-38.5 123v371z" />
    <glyph glyph-name="udieresis.alt" horiz-adv-x="426" 
d="M155 632q-17 0 -17 17t17 17t17 -17t-17 -17zM272 632q-17 0 -17 17t17 17t17 -17t-17 -17zM56 535h10v-371q0 -71 36 -115.5t111 -44.5q70 0 108.5 45.5t38.5 114.5v371h10v-371q0 -74 -41.5 -122t-115.5 -48q-80 0 -118.5 47t-38.5 123v371z" />
    <glyph glyph-name="ubreve.alt" horiz-adv-x="426" 
d="M104 700h10q1 -33 24 -63.5t75 -30.5q51 0 74.5 30t24.5 64h10q-1 -37 -26.5 -70.5t-82.5 -33.5t-82.5 33.5t-26.5 70.5zM56 535h10v-371q0 -71 36 -115.5t111 -44.5q70 0 108.5 45.5t38.5 114.5v371h10v-371q0 -74 -41.5 -122t-115.5 -48q-80 0 -118.5 47t-38.5 123v371
z" />
    <glyph glyph-name="uhungarumlaut.alt" horiz-adv-x="426" 
d="M249 585h-11l53 121h11zM165 585h-11l53 121h11zM56 535h10v-371q0 -71 36 -115.5t111 -44.5q70 0 108.5 45.5t38.5 114.5v371h10v-371q0 -74 -41.5 -122t-115.5 -48q-80 0 -118.5 47t-38.5 123v371z" />
    <glyph glyph-name="umacron.alt" horiz-adv-x="426" 
d="M120 630v10h186v-10h-186zM56 535h10v-371q0 -71 36 -115.5t111 -44.5q70 0 108.5 45.5t38.5 114.5v371h10v-371q0 -74 -41.5 -122t-115.5 -48q-80 0 -118.5 47t-38.5 123v371z" />
    <glyph glyph-name="uogonek.alt" horiz-adv-x="426" 
d="M297 -167v-10q-41 1 -67.5 23t-26.5 62q0 54 53 91q-20 -5 -43 -5q-80 0 -118.5 47t-38.5 123v371h10v-371q0 -71 36 -115.5t111 -44.5q70 0 108.5 45.5t38.5 114.5v371h10v-371q0 -103 -73 -148q-26 -15 -41 -26.5t-29 -33.5t-14 -48q0 -35 23.5 -54.5t60.5 -20.5z" />
    <glyph glyph-name="uring.alt" horiz-adv-x="426" 
d="M144 659q0 -27 18 -45.5t47 -18.5q31 0 49 18.5t18 47.5t-18 46.5t-50 17.5q-28 0 -46 -18.5t-18 -47.5zM134 659q0 34 20.5 55t53.5 21q37 0 57.5 -20.5t20.5 -53.5q0 -34 -21 -55t-56 -21q-33 0 -54 21t-21 53zM56 535h10v-371q0 -71 36 -115.5t111 -44.5
q70 0 108.5 45.5t38.5 114.5v371h10v-371q0 -74 -41.5 -122t-115.5 -48q-80 0 -118.5 47t-38.5 123v371z" />
    <glyph glyph-name="utilde.alt" horiz-adv-x="426" 
d="M331 677h10q-1 -33 -17 -52.5t-43 -19.5q-7 0 -14.5 1.5t-13 3.5t-13 6t-11 6.5l-11 7.5l-10.5 7q-43 29 -66 29q-24 0 -36.5 -17t-13.5 -45h-10q1 32 16.5 52t43.5 20q7 0 14.5 -1.5t13 -3t12.5 -6t10.5 -6.5t11.5 -7.5t10 -6.5t11.5 -8t13.5 -9l12 -6t15 -5.5t15 -1.5
q23 0 36 17t14 45zM56 535h10v-371q0 -71 36 -115.5t111 -44.5q70 0 108.5 45.5t38.5 114.5v371h10v-371q0 -74 -41.5 -122t-115.5 -48q-80 0 -118.5 47t-38.5 123v371z" />
    <glyph glyph-name="wacute.alt" horiz-adv-x="730" 
d="M370 585h-11l66 121h11zM360 535h10v-371q0 -71 36 -115.5t111 -44.5q70 0 108.5 45.5t38.5 114.5v371h10v-371q0 -74 -41.5 -122t-115.5 -48q-67 0 -105 34.5t-47 90.5q-12 -58 -51 -91.5t-101 -33.5q-80 0 -118.5 47t-38.5 123v371h10v-371q0 -71 36 -115.5t111 -44.5
q70 0 108.5 45.5t38.5 114.5v371z" />
    <glyph glyph-name="wcircumflex.alt" horiz-adv-x="730" 
d="M359 709h12l103 -130h-13l-96 121l-96 -121h-13zM360 535h10v-371q0 -71 36 -115.5t111 -44.5q70 0 108.5 45.5t38.5 114.5v371h10v-371q0 -74 -41.5 -122t-115.5 -48q-67 0 -105 34.5t-47 90.5q-12 -58 -51 -91.5t-101 -33.5q-80 0 -118.5 47t-38.5 123v371h10v-371
q0 -71 36 -115.5t111 -44.5q70 0 108.5 45.5t38.5 114.5v371z" />
    <glyph glyph-name="wdieresis.alt" horiz-adv-x="730" 
d="M307 632q-17 0 -17 17t17 17t17 -17t-17 -17zM424 632q-17 0 -17 17t17 17t17 -17t-17 -17zM360 535h10v-371q0 -71 36 -115.5t111 -44.5q70 0 108.5 45.5t38.5 114.5v371h10v-371q0 -74 -41.5 -122t-115.5 -48q-67 0 -105 34.5t-47 90.5q-12 -58 -51 -91.5t-101 -33.5
q-80 0 -118.5 47t-38.5 123v371h10v-371q0 -71 36 -115.5t111 -44.5q70 0 108.5 45.5t38.5 114.5v371z" />
    <glyph glyph-name="wgrave.alt" horiz-adv-x="730" 
d="M371 585h-11l-64 121h11zM360 535h10v-371q0 -71 36 -115.5t111 -44.5q70 0 108.5 45.5t38.5 114.5v371h10v-371q0 -74 -41.5 -122t-115.5 -48q-67 0 -105 34.5t-47 90.5q-12 -58 -51 -91.5t-101 -33.5q-80 0 -118.5 47t-38.5 123v371h10v-371q0 -71 36 -115.5t111 -44.5
q70 0 108.5 45.5t38.5 114.5v371z" />
    <glyph glyph-name="yacute.alt" horiz-adv-x="427" 
d="M65 535v-360q0 -79 36 -125t109 -46q71 0 109.5 49t39.5 133v349h10v-535h-10v116q-13 -58 -53 -90t-96 -32q-78 0 -116.5 49.5t-38.5 131.5v360h10zM210 585h-11l66 121h11z" />
    <glyph glyph-name="ydieresis.alt" horiz-adv-x="427" 
d="M154 632q-17 0 -17 17t17 17t17 -17t-17 -17zM271 632q-17 0 -17 17t17 17t17 -17t-17 -17zM71 -140l5 9q57 -41 135 -41q71 0 109 43.5t39 123.5v121q-13 -58 -53 -90t-96 -32q-78 0 -116.5 49.5t-38.5 131.5v360h10v-360q0 -79 36 -125t109 -46q71 0 109.5 49t39.5 133
v349h10v-540q-1 -85 -41.5 -131t-116.5 -46q-82 0 -140 42z" />
    <glyph glyph-name="ycircumflex.alt" horiz-adv-x="427" 
d="M71 -140l5 9q57 -41 135 -41q71 0 109 43.5t39 123.5v121q-13 -58 -53 -90t-96 -32q-78 0 -116.5 49.5t-38.5 131.5v360h10v-360q0 -79 36 -125t109 -46q71 0 109.5 49t39.5 133v349h10v-540q-1 -85 -41.5 -131t-116.5 -46q-82 0 -140 42zM206 709h12l103 -130h-13
l-96 121l-96 -121h-13z" />
    <glyph glyph-name="ygrave.alt" horiz-adv-x="427" 
d="M71 -140l5 9q57 -41 135 -41q71 0 109 43.5t39 123.5v121q-13 -58 -53 -90t-96 -32q-78 0 -116.5 49.5t-38.5 131.5v360h10v-360q0 -79 36 -125t109 -46q71 0 109.5 49t39.5 133v349h10v-540q-1 -85 -41.5 -131t-116.5 -46q-82 0 -140 42zM225 585h-11l-64 121h11z" />
    <glyph glyph-name="f.short" horiz-adv-x="179" 
d="M73 0h-10v525h-53v10h53v91q0 51 17.5 78t68.5 27h20v-10h-20q-45 0 -60.5 -24.5t-15.5 -70.5v-91h93v-10h-93v-525z" />
    <glyph glyph-name="f_f.short" horiz-adv-x="353" 
d="M247 0h-10v525h-164v-525h-10v525h-53v10h53v91q0 51 17.5 78t68.5 27h27v-10h-27q-45 0 -60.5 -24.5t-15.5 -70.5v-91h164v91q0 51 17.5 78t68.5 27h20v-10h-20q-45 0 -60.5 -24.5t-15.5 -70.5v-91h93v-10h-93v-525z" />
    <glyph glyph-name="questiondown.uc" horiz-adv-x="472" 
d="M425 196h10q1 -30 -6.5 -62t-27 -67t-61.5 -57.5t-101 -22.5q-94 0 -148.5 55.5t-54.5 139.5q0 82 55 137.5t148 57.5v186h10v-196q-94 0 -148.5 -52.5t-54.5 -132.5t51.5 -132.5t141.5 -52.5q45 0 80 14.5t55 36.5t32 50.5t16 52t3 45.5zM244 697q19 0 19 -19t-19 -19
t-19 19t19 19z" />
    <glyph glyph-name="exclamdown.uc" horiz-adv-x="142" 
d="M76 0h-10v563h10v-563zM71 697q19 0 19 -19t-19 -19t-19 19t19 19z" />
    <glyph glyph-name="hyphen.uc" horiz-adv-x="229" 
d="M40 308v10h149v-10h-149z" />
    <glyph glyph-name="endash.uc" 
d="M559 316v-10h-519v10h519z" />
    <glyph glyph-name="emdash.uc" horiz-adv-x="924" 
d="M884 316v-10h-844v10h844z" />
    <glyph glyph-name="guilsinglleft.uc" horiz-adv-x="151" 
d="M119 426h11l-98 -157l98 -157h-11l-98 157z" />
    <glyph glyph-name="guilsinglright.uc" horiz-adv-x="151" 
d="M32 112h-11l98 157l-98 157h11l98 -157z" />
    <glyph glyph-name="guillemotleft.uc" horiz-adv-x="249" 
d="M119 426h11l-98 -157l98 -157h-11l-98 157zM217 426h11l-98 -157l98 -157h-11l-98 157z" />
    <glyph glyph-name="guillemotright.uc" horiz-adv-x="249" 
d="M119 426h11l98 -157l-98 -157h-11l98 157zM21 426h11l98 -157l-98 -157h-11l98 157z" />
    <glyph glyph-name="parenleft.uc" horiz-adv-x="185" 
d="M170 731v-10h-21q-49 0 -65 -23t-16 -73v-694q0 -50 16 -73t65 -23h21v-10h-21q-54 0 -72.5 25.5t-18.5 75.5v704q0 50 18.5 75.5t72.5 25.5h21z" />
    <glyph glyph-name="parenright.uc" horiz-adv-x="185" 
d="M15 721v10h21q54 0 72.5 -25.5t18.5 -75.5v-704q0 -50 -18.5 -75.5t-72.5 -25.5h-21v10h21q49 0 65 23t16 73v694q0 50 -16 73t-65 23h-21z" />
    <glyph glyph-name="bracketleft.uc" horiz-adv-x="179" 
d="M164 731v-10h-96v-886h96v-10h-106v906h106z" />
    <glyph glyph-name="bracketright.uc" horiz-adv-x="179" 
d="M15 721v10h106v-906h-106v10h96v886h-96z" />
    <glyph glyph-name="braceleft.uc" horiz-adv-x="240" 
d="M123 625v-242q0 -43 -8 -65.5t-36 -30.5q20 -5 30 -20t12 -31t2 -45v-260q0 -50 16 -73t65 -23h21v-10h-21q-54 0 -72.5 25.5t-18.5 75.5v260q0 23 -0.5 33.5t-3.5 25.5t-10 21t-20 11t-32 5h-24v10h24q19 0 32 5t19.5 11.5t10 21.5t4 25.5t0.5 32.5v242q0 50 18.5 75.5
t72.5 25.5h21v-10h-21q-49 0 -65 -23t-16 -73z" />
    <glyph glyph-name="braceright.uc" horiz-adv-x="240" 
d="M117 383v242q0 50 -16 73t-65 23h-21v10h21q54 0 72.5 -25.5t18.5 -75.5v-242q0 -22 0.5 -32.5t4 -25.5t10 -21.5t19.5 -11.5t32 -5h24v-10h-24q-19 0 -32 -5t-20 -11t-10 -21t-3.5 -25.5t-0.5 -33.5v-260q0 -50 -18.5 -75.5t-72.5 -25.5h-21v10h21q49 0 65 23t16 73v260
q0 29 2 45t12 31t30 20q-28 8 -36 30.5t-8 65.5z" />
    <glyph glyph-name="slash.uc" horiz-adv-x="419" 
d="M69 -55h-12l346 786h12z" />
    <glyph glyph-name="backslash.uc" horiz-adv-x="419" 
d="M362 -55h-12l-346 786h12z" />
    <glyph glyph-name="bar.uc" horiz-adv-x="164" 
d="M77 731h10v-786h-10v786z" />
    <glyph glyph-name="at.uc" horiz-adv-x="955" 
d="M258 313q0 94 60 153.5t149 59.5q70 0 124 -39.5t74 -105.5v138h10v-291q0 -116 101 -116q60 0 100 66t40 189q0 166 -116 278t-312 112q-197 0 -322.5 -126t-125.5 -315q0 -192 123 -315t336 -123q98 0 181.5 34.5t130.5 82.5l8 -8q-48 -48 -133.5 -83.5t-186.5 -35.5
q-218 0 -343.5 126t-125.5 322q0 194 128 322.5t330 128.5q200 0 319 -114.5t119 -285.5q0 -128 -42.5 -196.5t-107.5 -68.5q-111 0 -111 126v17q-20 -65 -75 -104.5t-125 -39.5q-89 0 -148 58.5t-59 153.5zM268 313q0 -90 56 -146t141 -56q84 0 142 57.5t58 144.5
q0 88 -57 145.5t-141 57.5q-85 0 -142 -56.5t-57 -146.5z" />
    </font>
</defs>
</svg>
