<?xml version="1.0" standalone="no"?>
<!DOCTYPE svg PUBLIC "-//W3C//DTD SVG 1.1//EN" "http://www.w3.org/Graphics/SVG/1.1/DTD/svg11.dtd" >
<svg>
<metadata>
Created by FontForge 20090622 at Thu Jan  7 09:58:35 2016
 By deploy user
Copyright &#194;&#169; 2010 Berton Hasebe, under exclusive license to Schwartzco Inc. d/b/a Commercial Type.
</metadata>
<defs>
<font id="Platform-LightItalic" horiz-adv-x="613" >
  <font-face 
    font-family="Platform Light"
    font-weight="300"
    font-style="italic"
    font-stretch="normal"
    units-per-em="1000"
    panose-1="2 11 3 4 3 2 2 9 2 4"
    ascent="825"
    descent="-175"
    x-height="535"
    cap-height="692"
    bbox="-111 -245 1104 1061"
    underline-thickness="50"
    underline-position="-50"
    slope="-10"
    unicode-range="U+0020-U+FB02"
  />
<missing-glyph horiz-adv-x="153" 
 />
    <glyph glyph-name="f_f" unicode="ff" horiz-adv-x="459" 
d="M397 592l-10 -57h101l-9 -51h-101l-85 -484h-57l85 484h-159l-85 -484h-57l85 484h-57l9 51h57l10 57q13 75 47 107t100 32h36l-9 -51h-31q-42 0 -60 -22t-26 -66l-10 -57h159l10 57q13 75 47 107t100 32h36l-9 -51h-31q-42 0 -60 -22t-26 -66z" />
    <glyph glyph-name=".notdef" horiz-adv-x="153" 
 />
    <glyph glyph-name=".null" horiz-adv-x="0" 
 />
    <glyph glyph-name="nonmarkingreturn" horiz-adv-x="333" 
 />
    <glyph glyph-name="space" unicode=" " horiz-adv-x="153" 
 />
    <glyph glyph-name="exclam" unicode="!" horiz-adv-x="187" 
d="M198 692l-95 -537h-58l95 537h58zM54 -7q-20 0 -34 14t-14 35t14 35t34 14t34 -14t14 -35t-14 -35t-34 -14z" />
    <glyph glyph-name="quotedbl" unicode="&#x22;" horiz-adv-x="230" 
d="M103 692h55l-36 -206h-55zM219 692h55l-36 -206h-55z" />
    <glyph glyph-name="numbersign" unicode="#" horiz-adv-x="525" 
d="M453 200h-105l-66 -200h-57l66 200h-134l-67 -200h-57l67 200h-96l9 53h104l72 215h-96l9 53h104l58 171h57l-57 -171h133l57 171h57l-57 -171h96l-9 -53h-104l-72 -215h98zM246 468l-72 -215h134l72 215h-134z" />
    <glyph glyph-name="dollar" unicode="$" horiz-adv-x="455" 
d="M334 763l-11 -63q63 -13 96 -62t28 -116h-53q1 47 -20 81.5t-60 46.5l-46 -263q77 -41 110.5 -85t33.5 -118q0 -83 -55 -139.5t-150 -56.5h-9l-10 -56h-50l11 62q-71 16 -106.5 70.5t-29.5 136.5h57q-7 -129 88 -156l53 304q-62 34 -92.5 75t-30.5 104q0 74 49.5 125
t136.5 52l10 58h50zM352 184q0 47 -21.5 78.5t-73.5 61.5l-50 -285q62 0 103.5 36t41.5 109zM146 529q0 -70 76 -117l43 242q-58 -4 -88.5 -37t-30.5 -88z" />
    <glyph glyph-name="percent" unicode="%" horiz-adv-x="759" 
d="M745 692l-635 -692h-61l637 692h59zM231 653q-50 0 -84.5 -37t-34.5 -92q0 -45 28 -74.5t74 -29.5q53 0 86.5 36.5t33.5 91.5q0 46 -28 75.5t-75 29.5zM59 524q0 71 50 123t122 52q71 0 113.5 -43.5t42.5 -107.5q0 -73 -50 -123.5t-123 -50.5q-70 0 -112.5 42.5
t-42.5 107.5zM574 273q-50 0 -84.5 -37t-34.5 -92q0 -45 28 -74.5t74 -29.5q53 0 86.5 36.5t33.5 91.5q0 46 -28 75.5t-75 29.5zM402 144q0 71 50 123t122 52q71 0 113.5 -43.5t42.5 -107.5q0 -73 -50 -123.5t-123 -50.5q-70 0 -112.5 42.5t-42.5 107.5z" />
    <glyph glyph-name="ampersand" unicode="&#x26;" horiz-adv-x="602" 
d="M476 536q0 -81 -52.5 -132.5t-135.5 -51.5h-4l160 -197q54 86 71 216h53q-20 -160 -90 -259l92 -112h-66l-59 71q-81 -81 -198 -81q-102 0 -164.5 53.5t-62.5 140.5q0 73 41.5 126t111.5 79q-59 47 -59 125q0 74 52 131.5t136 57.5q77 0 125.5 -47t48.5 -120zM247 42
q96 0 164 70l-199 240q-65 -22 -98.5 -65.5t-33.5 -102.5q0 -61 45.5 -101.5t121.5 -40.5zM302 652q-56 0 -93 -39t-37 -99q0 -49 33 -81t83 -32q58 0 94 36.5t36 98.5q0 51 -32.5 83.5t-83.5 32.5z" />
    <glyph glyph-name="quotesingle" unicode="'" horiz-adv-x="114" 
d="M103 692h55l-36 -206h-55z" />
    <glyph glyph-name="parenleft" unicode="(" horiz-adv-x="225" 
d="M1 -57l123 699q11 64 38.5 88.5t86.5 24.5h46l-8 -48h-38q-36 0 -50 -13.5t-21 -52.5l-123 -698q-6 -36 5 -53t44 -17h35l-9 -48h-28q-63 0 -87 32t-14 86z" />
    <glyph glyph-name="parenright" unicode=")" horiz-adv-x="225" 
d="M230 637l-123 -699q-11 -64 -38.5 -88.5t-86.5 -24.5h-46l8 48h38q36 0 50 13.5t21 52.5l123 698q6 36 -5 53t-44 17h-35l8 48h29q63 0 87 -32t14 -86z" />
    <glyph glyph-name="asterisk" unicode="*" horiz-adv-x="372" 
d="M353 420l-105 71l-23 -131h-45l22 125l-112 -61l-18 37l121 66l-102 70l24 36l100 -69l23 128h45l-22 -128l112 62l20 -36l-120 -65l104 -71z" />
    <glyph glyph-name="plus" unicode="+" horiz-adv-x="486" 
d="M455 312h-177l-32 -185h-53l32 185h-177l9 49h176l33 185h53l-33 -185h178z" />
    <glyph glyph-name="comma" unicode="," horiz-adv-x="155" 
d="M66 -16l-53 -92h-44l61 104q-38 9 -38 46q0 22 14 35.5t35 13.5q20 0 33.5 -13t13.5 -34q0 -23 -22 -60z" />
    <glyph glyph-name="hyphen" unicode="-" horiz-adv-x="256" 
d="M38 258l10 56h180l-10 -56h-180z" />
    <glyph glyph-name="period" unicode="." horiz-adv-x="155" 
d="M39 -7q-20 0 -34 14t-14 35t14 35t34 14t34 -14t14 -35t-14 -35t-34 -14z" />
    <glyph glyph-name="slash" unicode="/" horiz-adv-x="442" 
d="M484 731l-507 -906h-57l506 906h58z" />
    <glyph glyph-name="zero" unicode="0" horiz-adv-x="499" 
d="M380 199l51 287q13 75 -21.5 121t-105.5 46q-128 0 -155 -159l-52 -295q-13 -74 20.5 -116.5t104.5 -42.5q130 0 158 159zM489 486l-51 -288q-19 -104 -74 -157.5t-142 -53.5q-102 0 -150.5 60t-32.5 154l52 296q37 209 213 209q100 0 150.5 -63.5t34.5 -156.5z" />
    <glyph glyph-name="one" unicode="1" horiz-adv-x="198" 
d="M213 692l-122 -692h-58l111 631l-77 -29l10 56l82 34h54z" />
    <glyph glyph-name="two" unicode="2" horiz-adv-x="437" 
d="M379 0h-394l9 55l288 290q55 55 78 95t23 95q0 50 -31 84t-84 34q-39 0 -66.5 -12.5t-42 -35.5t-21 -44.5t-10.5 -49.5h-56q6 83 54 139t142 56q82 0 129.5 -48.5t47.5 -122.5q0 -65 -29 -114.5t-93 -112.5l-257 -254h322z" />
    <glyph glyph-name="three" unicode="3" horiz-adv-x="445" 
d="M2 182h57q2 -65 40 -103.5t104 -38.5t109 42t43 117q0 69 -43 106.5t-118 37.5h-52l9 48l235 247h-297l10 54h366l-10 -58l-234 -240q81 -5 137.5 -54t56.5 -141q0 -94 -60 -153t-152 -59q-93 0 -147 53.5t-54 141.5z" />
    <glyph glyph-name="four" unicode="4" horiz-adv-x="487" 
d="M472 242h-85l-43 -242h-58l43 242h-311l9 52l382 398h57l-70 -396h85zM392 601l-294 -305h240z" />
    <glyph glyph-name="five" unicode="5" horiz-adv-x="455" 
d="M18 182h58q-4 -65 25 -103.5t97 -38.5q131 0 157 153l6 35q13 74 -17 116.5t-100 42.5q-86 0 -127 -64h-57l65 369h341l-10 -54h-283l-42 -240q15 16 48 29.5t72 13.5q94 0 139.5 -59.5t29.5 -155.5l-6 -37q-16 -101 -72 -151.5t-144 -50.5q-96 0 -142 55t-38 140z" />
    <glyph glyph-name="six" unicode="6" horiz-adv-x="481" 
d="M445 245l-7 -48q-15 -101 -71.5 -155.5t-145.5 -54.5q-95 0 -148 60.5t-37 152.5l51 293q17 98 70.5 155.5t149.5 57.5q75 0 118 -33.5t57 -75.5l-50 -24q-35 80 -125 80q-73 0 -110 -41.5t-51 -118.5l-19 -104q18 24 55 44t88 20q92 0 140.5 -57t34.5 -151zM380 199
l7 47q11 70 -21.5 112t-100.5 42q-66 0 -107.5 -39.5t-53.5 -105.5l-10 -57q-12 -68 23 -113t104 -45q136 0 159 159z" />
    <glyph glyph-name="seven" unicode="7" horiz-adv-x="411" 
d="M450 640l-350 -640h-62l349 638h-320l10 54h383z" />
    <glyph glyph-name="eight" unicode="8" horiz-adv-x="471" 
d="M283 654q-64 0 -102.5 -39.5t-38.5 -105.5q0 -53 37.5 -88.5t94.5 -35.5q62 0 100.5 37.5t38.5 103.5q0 59 -36.5 93.5t-93.5 34.5zM81 509q0 83 56 140t145 57q86 0 139 -49t53 -131q0 -67 -35.5 -111.5t-81.5 -60.5q84 -54 84 -161q0 -88 -59 -147t-156 -59
q-94 0 -151 53.5t-57 135.5q0 74 37.5 124.5t94.5 74.5q-26 18 -47.5 53t-21.5 81zM233 336q-67 0 -111 -44t-44 -116q0 -56 40 -96.5t108 -40.5q66 0 109.5 42t44.5 111q1 65 -38.5 104.5t-108.5 39.5z" />
    <glyph glyph-name="nine" unicode="9" horiz-adv-x="485" 
d="M67 450l6 43q15 102 69.5 157.5t147.5 55.5q95 0 149 -59.5t38 -151.5l-52 -296q-18 -104 -66.5 -158t-145.5 -54q-137 0 -183 107l50 26q39 -80 133 -80q71 0 105 40.5t48 118.5l19 106q-15 -25 -51 -45t-85 -20q-97 0 -146 58t-36 152zM132 494l-7 -44
q-12 -74 23.5 -115.5t100.5 -41.5q68 0 107.5 39t51.5 106l10 57q13 70 -23.5 114t-104.5 44q-133 0 -158 -159z" />
    <glyph glyph-name="colon" unicode=":" horiz-adv-x="155" 
d="M39 -7q-20 0 -34 14t-14 35t14 35t34 14t34 -14t14 -35t-14 -35t-34 -14zM100 342q-20 0 -34 14t-14 35t14 35t34 14t34 -14t14 -35t-14 -35t-34 -14z" />
    <glyph glyph-name="semicolon" unicode=";" horiz-adv-x="155" 
d="M66 -16l-53 -92h-44l61 104q-38 9 -38 46q0 22 14 35.5t35 13.5q20 0 33.5 -13t13.5 -34q0 -23 -22 -60zM101 342q-20 0 -34 14t-14 35t14 35t34 14t34 -14t14 -35t-14 -35t-34 -14z" />
    <glyph glyph-name="less" unicode="&#x3c;" horiz-adv-x="436" 
d="M45 310l10 56l384 170l-11 -58l-324 -142l276 -147l-10 -49z" />
    <glyph glyph-name="equal" unicode="=" horiz-adv-x="487" 
d="M61 382l9 49h406l-9 -49h-406zM35 234l9 49h406l-9 -49h-406z" />
    <glyph glyph-name="greater" unicode="&#x3e;" horiz-adv-x="439" 
d="M421 366l-10 -56l-386 -171l11 58l329 145l-279 144l9 50z" />
    <glyph glyph-name="question" unicode="?" horiz-adv-x="451" 
d="M261 322l-29 -165h-58l37 213h33q74 0 117 38.5t43 114.5q0 57 -35 92.5t-92 35.5q-41 0 -71.5 -16t-46 -41.5t-23 -50t-9.5 -49.5h-55q0 23 6 49t21 55t37 52t59 38t82 15q87 0 137.5 -51t50.5 -129q0 -86 -55.5 -143t-148.5 -58zM182 -7q-20 0 -34 14t-14 35t14 35
t34 14t34 -14t14 -35t-14 -35t-34 -14z" />
    <glyph glyph-name="at" unicode="@" horiz-adv-x="945" 
d="M477 445q-72 0 -118 -55t-44 -130q0 -57 37 -97.5t98 -40.5q75 0 126.5 54t44.5 141q-5 59 -45 93.5t-99 34.5zM720 73q-51 0 -76 23.5t-29 53.5q-22 -32 -65 -55.5t-100 -23.5q-85 0 -139.5 50.5t-55.5 136.5q-1 100 63.5 169t158.5 69q59 0 101.5 -24t63.5 -64l14 81
h57l-48 -278q-15 -87 55 -87q65 0 108 64t43 159q0 156 -104.5 247t-277.5 91q-119 0 -210.5 -57.5t-137.5 -150.5t-46 -203q0 -176 115 -280t303 -104q160 0 278 104l32 -37q-48 -49 -130 -84t-182 -35q-221 0 -349 122.5t-128 314.5q0 195 128.5 328.5t329.5 133.5
t319.5 -110.5t118.5 -279.5q0 -123 -63 -198.5t-147 -75.5z" />
    <glyph glyph-name="A" unicode="A" horiz-adv-x="609" 
d="M507 0l-63 264h-276l-143 -264h-61l377 692h59l164 -692h-57zM360 617l-164 -301h235z" />
    <glyph glyph-name="B" unicode="B" horiz-adv-x="446" 
d="M409 211q0 -97 -62 -154t-174 -57h-159l122 692h123q82 0 130 -42t48 -120q0 -66 -31 -108.5t-82 -60.5q85 -41 85 -150zM221 334h-90l-49 -282h92q83 0 129 42t46 117q0 56 -31.5 89.5t-96.5 33.5zM257 640h-72l-45 -256h83q71 0 112.5 38.5t41.5 107.5q0 50 -29.5 80
t-90.5 30z" />
    <glyph glyph-name="C" unicode="C" 
d="M546 96l28 -40q-83 -69 -215 -69q-142 0 -228.5 91t-86.5 237q0 173 104.5 282t261.5 109q149 0 232 -88l-36 -41q-75 77 -194 77q-138 0 -223.5 -94t-85.5 -245q0 -122 70.5 -199t185.5 -77q108 0 187 57z" />
    <glyph glyph-name="D" unicode="D" horiz-adv-x="527" 
d="M15 0l122 692h81q139 0 216.5 -85.5t77.5 -218.5q0 -184 -107 -286t-283 -102h-107zM185 640l-103 -588h38q153 0 242.5 88t89.5 247q0 111 -61 182t-174 71h-32z" />
    <glyph glyph-name="E" unicode="E" horiz-adv-x="377" 
d="M296 0h-282l122 692h278l-10 -53h-219l-45 -254h214l-10 -53h-214l-49 -279h225z" />
    <glyph glyph-name="F" unicode="F" horiz-adv-x="373" 
d="M344 332h-214l-58 -332h-58l122 692h278l-9 -53h-221l-44 -254h213z" />
    <glyph glyph-name="G" unicode="G" horiz-adv-x="690" 
d="M653 342l-60 -342h-56l7 42q-23 -19 -71.5 -37t-109.5 -18q-143 0 -231 89.5t-88 235.5q0 166 103 280t265 114q94 0 158 -35.5t96 -84.5l-41 -36q-74 104 -213 104q-136 0 -222.5 -96t-86.5 -246q0 -121 72 -197t189 -76q116 0 190 67l32 183h-137l10 53h194z" />
    <glyph glyph-name="H" unicode="H" horiz-adv-x="612" 
d="M447 0l59 335h-375l-59 -335h-58l122 692h58l-53 -303h374l54 303h58l-122 -692h-58z" />
    <glyph glyph-name="I" unicode="I" horiz-adv-x="179" 
d="M194 692l-122 -692h-58l122 692h58z" />
    <glyph glyph-name="J" unicode="J" horiz-adv-x="234" 
d="M249 692l-101 -572q-12 -67 -38.5 -94t-87.5 -27l-45 1l9 52h36q36 0 48.5 15t19.5 53l101 572h58z" />
    <glyph glyph-name="K" unicode="K" horiz-adv-x="480" 
d="M194 692l-55 -309l335 309h72l-356 -330l249 -362h-65l-241 345l-61 -345h-58l122 692h58z" />
    <glyph glyph-name="L" unicode="L" horiz-adv-x="363" 
d="M294 0h-280l122 692h58l-113 -639h222z" />
    <glyph glyph-name="M" unicode="M" horiz-adv-x="810" 
d="M752 608l-364 -608h-60l-152 608l-107 -608h-55l122 692h78l154 -627l373 627h84l-122 -692h-58z" />
    <glyph glyph-name="N" unicode="N" horiz-adv-x="628" 
d="M467 0l-293 594l-105 -594h-55l122 692h54l292 -600l106 600h55l-122 -692h-54z" />
    <glyph glyph-name="O" unicode="O" horiz-adv-x="745" 
d="M44 316q0 159 102.5 274.5t264.5 115.5q143 0 232 -92.5t89 -238.5q0 -168 -105 -278t-264 -110q-141 0 -230 91.5t-89 237.5zM411 654q-136 0 -222 -98t-86 -240q0 -121 72.5 -199t187.5 -78q133 0 221.5 93.5t88.5 242.5q0 124 -72 201.5t-190 77.5z" />
    <glyph glyph-name="P" unicode="P" horiz-adv-x="416" 
d="M439 534q0 -96 -61 -149.5t-159 -53.5h-89l-58 -331h-58l122 692h130q83 0 128 -42.5t45 -115.5zM268 640h-83l-45 -257h81q73 0 115.5 38.5t42.5 112.5q0 46 -29 76t-82 30z" />
    <glyph glyph-name="Q" unicode="Q" horiz-adv-x="745" 
d="M44 316q0 159 101.5 274.5t265.5 115.5q144 0 232.5 -92.5t88.5 -238.5q0 -179 -118 -292l56 -60l-37 -36l-60 63q-91 -63 -210 -63q-141 0 -230 91.5t-89 237.5zM411 654q-136 0 -222 -98.5t-86 -239.5q0 -121 72.5 -199t187.5 -78q97 0 173 51l-69 74l39 37l70 -77
q97 95 97 251q0 124 -72 201.5t-190 77.5z" />
    <glyph glyph-name="R" unicode="R" horiz-adv-x="449" 
d="M439 534q0 -78 -41 -128.5t-112 -67.5l120 -338h-58l-118 332h-100l-58 -332h-58l122 692h130q83 0 128 -42.5t45 -115.5zM268 640h-83l-45 -257h81q73 0 115.5 38.5t42.5 112.5q0 47 -29 76.5t-82 29.5z" />
    <glyph glyph-name="S" unicode="S" horiz-adv-x="460" 
d="M282 655q-64 0 -98 -34t-34 -92q0 -47 27.5 -77t84.5 -63q80 -46 115 -89t35 -116q0 -83 -55 -139.5t-150 -56.5q-99 0 -150 57.5t-44 155.5h57q-4 -73 29.5 -117t107.5 -44q62 0 103.5 36t41.5 108q0 50 -26 83t-92 70q-73 41 -107.5 82.5t-34.5 108.5q0 75 50.5 126
t139.5 51q85 0 130 -51.5t40 -131.5h-53q1 57 -29.5 95t-87.5 38z" />
    <glyph glyph-name="T" unicode="T" horiz-adv-x="408" 
d="M452 638h-153l-113 -638h-58l113 638h-154l10 54h365z" />
    <glyph glyph-name="U" unicode="U" horiz-adv-x="601" 
d="M189 692l-77 -435q-18 -102 26.5 -159.5t138.5 -57.5q172 0 210 215l77 437h57l-77 -440q-46 -265 -267 -265q-125 0 -184.5 75.5t-38.5 191.5l77 438h58z" />
    <glyph glyph-name="V" unicode="V" horiz-adv-x="603" 
d="M237 0l-166 692h59l147 -620l335 620h62l-377 -692h-60z" />
    <glyph glyph-name="W" unicode="W" horiz-adv-x="938" 
d="M624 0l-98 614l-281 -614h-60l-111 692h57l97 -611l276 611h65l96 -612l284 612h57l-323 -692h-59z" />
    <glyph glyph-name="X" unicode="X" horiz-adv-x="585" 
d="M159 692l158 -287l251 287h71l-294 -336l197 -356h-62l-174 311l-272 -311h-71l315 360l-185 332h66z" />
    <glyph glyph-name="Y" unicode="Y" horiz-adv-x="424" 
d="M198 363l-134 329h61l110 -270l202 270h68l-249 -329l-65 -363h-58z" />
    <glyph glyph-name="Z" unicode="Z" horiz-adv-x="576" 
d="M507 0h-524l9 53l544 585h-435l10 54h515l-10 -53l-551 -585h450z" />
    <glyph glyph-name="bracketleft" unicode="[" horiz-adv-x="225" 
d="M-21 -175l164 930h151l-8 -48h-97l-147 -834h97l-9 -48h-151z" />
    <glyph glyph-name="backslash" unicode="\" horiz-adv-x="442" 
d="M333 -175l-220 906h52l219 -906h-51z" />
    <glyph glyph-name="bracketright" unicode="]" horiz-adv-x="225" 
d="M251 755l-164 -930h-151l8 48h97l147 834h-96l8 48h151z" />
    <glyph glyph-name="asciicircum" unicode="^" horiz-adv-x="413" 
d="M311 692l114 -307h-55l-94 252l-179 -252h-63l218 307h59z" />
    <glyph glyph-name="underscore" unicode="_" horiz-adv-x="618" 
d="M-30 -108l9 49h548l-9 -49h-548z" />
    <glyph glyph-name="grave" unicode="`" horiz-adv-x="466" 
d="M220 717h52l53 -132h-51z" />
    <glyph glyph-name="a" unicode="a" horiz-adv-x="446" 
d="M17 150q0 80 51.5 134t135.5 54q46 0 81 -19t50 -48l14 79q11 66 -15.5 104.5t-85.5 38.5q-55 0 -82 -28.5t-37 -78.5h-54q9 68 52 111.5t120 43.5q96 0 134 -56t24 -138l-61 -347h-52l7 44q-16 -23 -48 -38t-67 -15q-72 0 -119.5 44t-47.5 115zM204 290q-59 0 -95 -39
t-36 -101q0 -48 31 -79.5t83 -31.5q54 0 93 38.5t39 98.5q0 51 -31.5 82.5t-83.5 31.5z" />
    <glyph glyph-name="b" unicode="b" horiz-adv-x="614" 
d="M197 731l-48 -270q29 35 80 59t110 24q114 0 181 -70.5t67 -189.5q0 -121 -81 -207t-203 -86q-80 0 -136 38t-77 94l-22 -123h-57l129 731h57zM339 493q-100 0 -163 -70t-63 -178q0 -89 53.5 -146t137.5 -57q97 0 160.5 69.5t63.5 172.5q0 94 -51 151.5t-138 57.5z" />
    <glyph glyph-name="c" unicode="c" horiz-adv-x="518" 
d="M278 43q92 0 168 68l33 -33q-75 -87 -201 -87q-113 0 -182 71t-69 183q0 127 81 213t203 86q77 0 129.5 -29t77.5 -68l-40 -33q-64 78 -167 78q-98 0 -161 -70t-63 -177q0 -89 54 -145.5t137 -56.5z" />
    <glyph glyph-name="d" unicode="d" horiz-adv-x="612" 
d="M305 544q85 0 140.5 -38t78.5 -94l56 319h57l-129 -731h-54l13 79q-23 -33 -71.5 -60.5t-117.5 -27.5q-114 0 -182.5 72.5t-68.5 186.5q0 123 77 208.5t201 85.5zM278 42q97 0 160 70.5t63 177.5q0 90 -53 146.5t-143 56.5q-95 0 -157 -67.5t-62 -168.5q0 -96 52 -155.5
t140 -59.5z" />
    <glyph glyph-name="e" unicode="e" horiz-adv-x="560" 
d="M540 251h-454v-9q0 -92 51 -146t138 -54q137 0 208 126l42 -22q-36 -73 -99.5 -114t-150.5 -41q-112 0 -180 68.5t-68 182.5q0 129 77.5 215.5t191.5 86.5q115 0 181.5 -66t65.5 -179q0 -24 -3 -48zM297 493q-78 0 -134.5 -51.5t-72.5 -140.5h395q2 88 -47 140t-141 52z
" />
    <glyph glyph-name="f" unicode="f" horiz-adv-x="243" 
d="M181 592l-10 -57h101l-9 -51h-101l-85 -484h-57l85 484h-57l9 51h57l10 57q13 75 47 107t100 32h36l-9 -51h-31q-42 0 -60 -22t-26 -66z" />
    <glyph glyph-name="g" unicode="g" horiz-adv-x="612" 
d="M460 51l4 23q-26 -32 -73.5 -57.5t-112.5 -25.5q-114 0 -182.5 72.5t-68.5 186.5q0 123 77 208.5t201 85.5q84 0 139.5 -38t78.5 -93l22 122h57l-85 -484q-41 -233 -257 -233q-139 0 -236 78l32 45q84 -72 204 -72q84 0 133.5 43.5t66.5 138.5zM278 42q97 0 160 70.5
t63 177.5q0 90 -53 146.5t-143 56.5q-95 0 -157 -67.5t-62 -168.5q0 -96 52 -155.5t140 -59.5z" />
    <glyph glyph-name="h" unicode="h" horiz-adv-x="459" 
d="M300 0l60 337q12 71 -11.5 112.5t-82.5 41.5q-111 0 -136 -141l-62 -350h-57l129 731h57l-45 -251q15 25 48.5 43t72.5 18q91 0 125 -60t19 -144l-60 -337h-57z" />
    <glyph glyph-name="i" unicode="i" horiz-adv-x="172" 
d="M162 535l-94 -535h-57l94 535h57zM153 605q-19 0 -32.5 13.5t-13.5 33.5t13.5 33.5t32.5 13.5t32.5 -13.5t13.5 -33.5t-13.5 -33.5t-32.5 -13.5z" />
    <glyph glyph-name="j" unicode="j" horiz-adv-x="172" 
d="M162 535l-98 -559q-14 -80 -49 -115.5t-102 -35.5h-24l9 51h15q47 0 65.5 22.5t28.5 77.5l98 559h57zM153 605q-19 0 -32.5 13.5t-13.5 33.5t13.5 33.5t32.5 13.5t32.5 -13.5t13.5 -33.5t-13.5 -33.5t-32.5 -13.5z" />
    <glyph glyph-name="k" unicode="k" horiz-adv-x="423" 
d="M197 731l-75 -422l261 226h74l-283 -246l199 -289h-64l-193 275l-48 -275h-57l129 731h57z" />
    <glyph glyph-name="l" unicode="l" horiz-adv-x="172" 
d="M197 731l-129 -731h-57l129 731h57z" />
    <glyph glyph-name="m" unicode="m" horiz-adv-x="724" 
d="M407 350l-62 -350h-57l60 337q12 72 -8.5 113t-77.5 41q-107 0 -132 -141l-62 -350h-57l94 535h57l-10 -55q16 25 48 43t69 18q103 0 129 -84q51 84 143 84q48 0 81 -18t46.5 -47t18 -65.5t-4.5 -73.5l-60 -337h-57l60 337q12 72 -8.5 113t-77.5 41q-107 0 -132 -141z
" />
    <glyph glyph-name="n" unicode="n" horiz-adv-x="459" 
d="M300 0l60 337q12 71 -11.5 112.5t-82.5 41.5q-111 0 -136 -141l-62 -350h-57l94 535h57l-10 -55q15 25 48.5 43t72.5 18q91 0 125 -60t19 -144l-60 -337h-57z" />
    <glyph glyph-name="o" unicode="o" horiz-adv-x="593" 
d="M310 493q-99 0 -161.5 -70t-62.5 -178q0 -89 54.5 -146t140.5 -57q99 0 162.5 68.5t63.5 171.5q0 93 -54.5 152t-142.5 59zM27 245q0 126 80 212.5t203 86.5q114 0 185 -72.5t71 -189.5q0 -121 -80.5 -206t-204.5 -85q-112 0 -183 70t-71 184z" />
    <glyph glyph-name="p" unicode="p" horiz-adv-x="614" 
d="M162 535l-13 -74q28 35 79 59t111 24q114 0 181 -70.5t67 -189.5q0 -121 -81 -207t-203 -86q-80 0 -136 38t-77 94l-53 -298h-57l125 710h57zM339 493q-100 0 -163 -70t-63 -178q0 -89 53.5 -146t137.5 -57q97 0 160.5 69.5t63.5 172.5q0 94 -51 151.5t-138 57.5z" />
    <glyph glyph-name="q" unicode="q" 
d="M305 544q84 0 140.5 -37.5t78.5 -93.5l22 122h57l-126 -710h-57l44 250q-24 -33 -72 -58.5t-114 -25.5q-114 0 -182.5 72.5t-68.5 186.5q0 123 77 208.5t201 85.5zM278 42q97 0 160 70.5t63 177.5q0 90 -53 146.5t-143 56.5q-95 0 -157 -67.5t-62 -168.5q0 -96 52 -155.5
t140 -59.5z" />
    <glyph glyph-name="r" unicode="r" horiz-adv-x="262" 
d="M290 535l-10 -57h-14q-65 0 -95.5 -33.5t-42.5 -102.5l-60 -342h-57l94 535h57l-11 -64q41 69 139 64z" />
    <glyph glyph-name="s" unicode="s" horiz-adv-x="379" 
d="M212 493q-43 0 -69 -21.5t-26 -62.5q0 -32 18.5 -53.5t68.5 -48.5q68 -37 96.5 -71.5t28.5 -93.5q0 -70 -50 -109t-116 -39q-85 0 -126 45.5t-36 123.5h55q-4 -54 23 -87.5t84 -33.5q45 0 76.5 25.5t31.5 74.5q0 39 -23.5 63.5t-76.5 52.5q-61 33 -86 66.5t-25 84.5
q0 58 43 95t111 37q71 0 110 -43t32 -112h-54q2 47 -19.5 77t-70.5 30z" />
    <glyph glyph-name="t" unicode="t" horiz-adv-x="251" 
d="M185 616l-14 -81h111l-9 -51h-111l-61 -348q-8 -43 1.5 -65t50.5 -22h44l-9 -51q-14 -2 -37 -2q-132 0 -107 139l61 349h-57l9 51h57l14 81h57z" />
    <glyph glyph-name="u" unicode="u" horiz-adv-x="455" 
d="M159 535l-59 -337q-12 -71 10 -112.5t80 -41.5q111 0 137 143l61 348h57l-94 -535h-57l10 55q-15 -26 -48 -43.5t-73 -17.5q-47 0 -79.5 18t-46 47t-18 65.5t3.5 73.5l59 337h57z" />
    <glyph glyph-name="v" unicode="v" horiz-adv-x="487" 
d="M104 535l109 -468l258 468h61l-299 -535h-59l-129 535h59z" />
    <glyph glyph-name="w" unicode="w" horiz-adv-x="826" 
d="M487 535l85 -464l236 464h58l-275 -535h-60l-87 459l-235 -459h-61l-101 535h59l84 -464l234 464h63z" />
    <glyph glyph-name="x" unicode="x" horiz-adv-x="494" 
d="M120 535l133 -219l206 219h72l-250 -265l166 -270h-61l-142 230l-218 -230h-69l259 276l-160 259h64z" />
    <glyph glyph-name="y" unicode="y" horiz-adv-x="487" 
d="M45 535h59l111 -462l255 462h62l-396 -710h-58l98 178z" />
    <glyph glyph-name="z" unicode="z" horiz-adv-x="445" 
d="M461 485l-401 -435h325l-9 -50h-391l9 50l393 435h-314l9 50h388z" />
    <glyph glyph-name="braceleft" unicode="{" horiz-adv-x="234" 
d="M10 -57l45 254q7 37 -1 52t-30 15h-17l8 50h9q33 0 44.5 13.5t18.5 53.5l46 261q11 64 38.5 88.5t86.5 24.5h46l-8 -48h-38q-36 0 -50 -13.5t-21 -52.5l-46 -260q-9 -50 -21.5 -69.5t-34.5 -25.5q36 -18 24 -89l-45 -254q-6 -36 5 -53t44 -17h35l-9 -48h-28q-63 0 -87 32
t-14 86z" />
    <glyph glyph-name="bar" unicode="|" horiz-adv-x="219" 
d="M152 731v-906h-55v906h55z" />
    <glyph glyph-name="braceright" unicode="}" horiz-adv-x="234" 
d="M230 637l-45 -254q-7 -37 1 -52t30 -15h17l-8 -50h-9q-33 0 -44.5 -13.5t-18.5 -53.5l-46 -261q-11 -64 -38.5 -88.5t-86.5 -24.5h-45l8 48h37q36 0 50 13.5t21 52.5l46 260q9 50 21.5 69.5t34.5 25.5q-36 18 -24 89l45 254q6 36 -5 53t-44 17h-35l8 48h29q63 0 87 -32
t14 -86z" />
    <glyph glyph-name="asciitilde" unicode="~" horiz-adv-x="471" 
d="M336 241q-51 0 -113 44q-47 34 -79 34q-57 0 -76 -76h-50q5 50 38.5 88.5t89.5 38.5q51 0 113 -44q47 -34 79 -34q57 0 76 76h50q-5 -50 -38.5 -88.5t-89.5 -38.5z" />
    <glyph glyph-name="uni00A0" unicode="&#xa0;" horiz-adv-x="153" 
 />
    <glyph glyph-name="exclamdown" unicode="&#xa1;" horiz-adv-x="187" 
d="M0 -101l95 537h58l-95 -537h-58zM144 598q20 0 34 -14t14 -35t-14 -35t-34 -14t-34 14t-14 35t14 35t34 14z" />
    <glyph glyph-name="cent" unicode="&#xa2;" horiz-adv-x="518" 
d="M253 -68h-48l11 66q-87 18 -138 84.5t-51 162.5q0 128 80.5 213.5t199.5 85.5h6l11 60h48l-12 -64q110 -15 157 -88l-40 -34q-51 58 -126 70l-79 -445h6q92 0 168 68l33 -33q-75 -87 -201 -87h-15zM87 245q0 -74 38 -126.5t101 -68.5l78 442q-95 -1 -156 -71.5
t-61 -175.5z" />
    <glyph glyph-name="sterling" unicode="&#xa3;" horiz-adv-x="501" 
d="M36 312l9 53h74l26 145q34 193 199 193q94 0 136 -56t36 -133h-56q1 24 -3 45t-15 43t-36 35t-62 13q-63 0 -96 -36t-46 -110l-25 -139h151l-10 -53h-150l-45 -258h311l-10 -54h-443l10 54h74l45 258h-74z" />
    <glyph glyph-name="yen" unicode="&#xa5;" horiz-adv-x="463" 
d="M67 413h151l-135 279h62l116 -242l198 242h66l-229 -279h153l-9 -48h-162l-19 -107h163l-9 -48h-162l-37 -210h-58l37 210h-162l9 48h161l19 107h-162z" />
    <glyph glyph-name="brokenbar" unicode="&#xa6;" horiz-adv-x="219" 
d="M152 254v-429h-55v429h55zM152 731v-418h-55v418h55z" />
    <glyph glyph-name="section" unicode="&#xa7;" horiz-adv-x="569" 
d="M529 253q0 -67 -40.5 -105t-101.5 -44q30 -43 30 -107q0 -77 -54 -128t-140 -51q-92 0 -137 54.5t-41 139.5h58q-3 -60 26 -101t93 -41q63 0 100 33t37 92q0 46 -23 76t-76 50l-91 34q-59 22 -89 57.5t-30 93.5q0 66 41 106.5t106 45.5q-32 45 -32 110q0 70 49.5 119.5
t128.5 49.5q87 0 131 -51t41 -138h-56q-2 137 -115 137q-58 0 -89.5 -32.5t-31.5 -84.5q0 -89 94 -126l93 -36q63 -25 91 -59.5t28 -93.5zM191 209l117 -45q62 -24 112.5 1t50.5 88q0 40 -20 61t-62 38l-118 45q-38 12 -74.5 10.5t-62.5 -28.5t-26 -73q0 -65 83 -97z" />
    <glyph glyph-name="dieresis" unicode="&#xa8;" horiz-adv-x="466" 
d="M227 606q-19 0 -32.5 13t-13.5 33q0 19 13.5 32.5t32.5 13.5q18 0 32 -13.5t14 -32.5t-14 -32.5t-32 -13.5zM383 606q-19 0 -32.5 13t-13.5 33q0 19 13.5 32.5t32.5 13.5q18 0 32 -13.5t14 -32.5t-14 -32.5t-32 -13.5z" />
    <glyph glyph-name="copyright" unicode="&#xa9;" horiz-adv-x="781" 
d="M45 346q0 153 100.5 256.5t257.5 103.5q165 0 265.5 -101.5t100.5 -255.5q0 -156 -99 -259t-262 -103t-263 102t-100 257zM100 346q0 -135 84.5 -223.5t223.5 -88.5q140 0 223 88t83 226q0 137 -84.5 224t-226.5 87q-135 0 -219 -88.5t-84 -224.5zM552 496l-31 -40
q-42 38 -102 38q-63 0 -100 -42.5t-37 -105.5t38 -104.5t102 -41.5q61 0 102 38l29 -34q-48 -52 -131 -52q-90 0 -143.5 55t-53.5 139t54.5 140t140.5 56q83 0 132 -46z" />
    <glyph glyph-name="ordfeminine" unicode="&#xaa;" horiz-adv-x="339" 
d="M55 402q0 59 38.5 100.5t102.5 41.5q65 0 93 -42l9 52q8 44 -9.5 71.5t-58.5 27.5q-38 0 -56 -19t-26 -53h-49q7 51 39.5 84t90.5 33q72 0 101 -42t18 -105l-46 -262h-40l6 32q-12 -16 -35.5 -27.5t-49.5 -11.5q-57 0 -92.5 33.5t-35.5 86.5zM196 499q-42 0 -66.5 -28.5
t-24.5 -68.5q0 -31 21 -53t58 -22t64 27.5t27 67.5q0 33 -21 55t-58 22z" />
    <glyph glyph-name="guillemotleft" unicode="&#xab;" horiz-adv-x="318" 
d="M137 112h-51l-68 161l106 153h57l-109 -157zM258 112h-51l-63 154l111 160h57l-114 -164z" />
    <glyph glyph-name="registered" unicode="&#xae;" horiz-adv-x="450" 
d="M277 523h-27v-93h-41v220h67q74 0 74 -63q0 -39 -33 -54l42 -103h-43zM280 613h-30v-53h30q26 0 26 27q0 26 -26 26zM68 536q0 86 56 144t146 58q94 0 150.5 -57.5t56.5 -143.5q0 -85 -56 -143.5t-148 -58.5t-148.5 57.5t-56.5 143.5zM110 536q0 -71 43.5 -117t118.5 -46
q76 0 119.5 45.5t43.5 118.5t-44 118t-121 45q-74 0 -117 -45.5t-43 -118.5z" />
    <glyph glyph-name="macron" unicode="&#xaf;" horiz-adv-x="392" 
d="M147 609l9 48h215l-9 -48h-215z" />
    <glyph glyph-name="degree" unicode="&#xb0;" horiz-adv-x="335" 
d="M75 559q0 60 40.5 102t102.5 42q65 0 105 -40.5t40 -101.5q0 -62 -40 -103t-104 -41q-65 0 -104.5 40.5t-39.5 101.5zM127 559q0 -42 25 -69.5t68 -27.5t67 27.5t24 71.5q0 43 -25 70t-68 27q-41 0 -66 -28t-25 -71z" />
    <glyph glyph-name="twosuperior" unicode="&#xb2;" horiz-adv-x="284" 
d="M276 335h-224l8 45l143 136q28 27 40 45t12 42q0 21 -13 34t-35 13q-29 0 -42.5 -17.5t-15.5 -40.5h-51q2 41 29.5 73.5t79.5 32.5q46 0 73.5 -25.5t27.5 -69.5q0 -30 -16 -55t-54 -61l-111 -104h158z" />
    <glyph glyph-name="threesuperior" unicode="&#xb3;" horiz-adv-x="296" 
d="M139 503l7 43l98 98h-130l9 48h195l-9 -48l-103 -100q36 -5 60 -30t24 -71q0 -49 -33 -81t-82 -32q-56 0 -86 30.5t-28 80.5h50q0 -64 65 -64q29 0 45 19.5t16 46.5q0 28 -17.5 44t-49.5 16h-31z" />
    <glyph glyph-name="acute" unicode="&#xb4;" horiz-adv-x="466" 
d="M363 717h58l-96 -132h-58z" />
    <glyph glyph-name="paragraph" unicode="&#xb6;" horiz-adv-x="431" 
d="M446 692l-120 -692h-55l120 692h55zM144 0l69 396q-65 4 -104.5 41.5t-39.5 100.5q0 67 46.5 110.5t124.5 43.5h79l-120 -692h-55z" />
    <glyph glyph-name="periodcentered" unicode="&#xb7;" horiz-adv-x="155" 
d="M89 280q-20 0 -34 14t-14 35t14 35t34 14t34 -14t14 -35t-14 -35t-34 -14z" />
    <glyph glyph-name="cedilla" unicode="&#xb8;" horiz-adv-x="392" 
d="M68 -86l18 104h44l-11 -62q75 -17 75 -92q0 -53 -38 -81t-98 -28h-19l8 46h11q86 0 86 63q0 24 -17 37t-45 13h-14z" />
    <glyph glyph-name="onesuperior" unicode="&#xb9;" horiz-adv-x="168" 
d="M187 692l-63 -357h-52l53 305l-44 -17l9 49l48 20h49z" />
    <glyph glyph-name="ordmasculine" unicode="&#xba;" horiz-adv-x="440" 
d="M271 651q-72 0 -115.5 -50.5t-43.5 -126.5q0 -62 38.5 -102t98.5 -40q71 0 115.5 48.5t44.5 121.5q0 66 -38 107.5t-100 41.5zM59 474q0 94 59 159t153 65q85 0 138 -54t53 -142q0 -91 -60 -154t-153 -63q-83 0 -136.5 52t-53.5 137z" />
    <glyph glyph-name="guillemotright" unicode="&#xbb;" horiz-adv-x="323" 
d="M183 426h51l68 -161l-106 -153h-57l109 157zM62 426h51l63 -154l-111 -160h-57l114 164z" />
    <glyph glyph-name="onequarter" unicode="&#xbc;" horiz-adv-x="648" 
d="M574 115h-41l-20 -115h-51l20 115h-167l8 44l202 198h51l-35 -196h40zM512 287l-128 -126h106zM231 692l-63 -357h-52l53 305l-44 -17l9 49l48 20h49zM638 692l-593 -692h-60l596 692h57z" />
    <glyph glyph-name="onehalf" unicode="&#xbd;" horiz-adv-x="670" 
d="M638 692l-593 -692h-60l596 692h57zM231 692l-63 -357h-52l53 305l-44 -17l9 49l48 20h49zM579 0h-224l8 45l143 136q28 27 40 45t12 42q0 21 -13 34t-35 13q-29 0 -42.5 -17.5t-15.5 -40.5h-51q2 41 29.5 73.5t79.5 32.5q46 0 73.5 -25.5t27.5 -69.5q0 -30 -16 -55
t-54 -61l-111 -104h158z" />
    <glyph glyph-name="threequarters" unicode="&#xbe;" horiz-adv-x="718" 
d="M644 115h-41l-20 -115h-51l20 115h-167l8 44l202 198h51l-35 -196h40zM582 287l-128 -126h106zM708 692l-593 -692h-60l596 692h57zM143 503l7 43l98 98h-130l9 48h195l-9 -48l-103 -100q36 -5 60 -30t24 -71q0 -49 -33 -81t-82 -32q-56 0 -86 30.5t-28 80.5h50
q0 -64 65 -64q29 0 45 19.5t16 46.5q0 28 -17.5 44t-49.5 16h-31z" />
    <glyph glyph-name="questiondown" unicode="&#xbf;" horiz-adv-x="451" 
d="M203 269l29 165h58l-37 -213h-33q-74 0 -117 -38.5t-43 -114.5q0 -57 35 -92.5t92 -35.5q41 0 71.5 16t46 41.5t23 50t9.5 49.5h55q0 -23 -6 -49t-21 -55t-37 -52t-59 -38t-82 -15q-87 0 -137.5 51t-50.5 129q0 86 55.5 143t148.5 58zM282 598q20 0 34 -14t14 -35
t-14 -35t-34 -14t-34 14t-14 35t14 35t34 14z" />
    <glyph glyph-name="Agrave" unicode="&#xc0;" horiz-adv-x="609" 
d="M507 0l-63 264h-276l-143 -264h-61l377 692h59l164 -692h-57zM360 617l-164 -301h235zM288 856h53l50 -123h-52z" />
    <glyph glyph-name="Aacute" unicode="&#xc1;" horiz-adv-x="609" 
d="M507 0l-63 264h-276l-143 -264h-61l377 692h59l164 -692h-57zM360 617l-164 -301h235zM439 856h60l-90 -123h-59z" />
    <glyph glyph-name="Acircumflex" unicode="&#xc2;" horiz-adv-x="609" 
d="M507 0l-63 264h-276l-143 -264h-61l377 692h59l164 -692h-57zM360 617l-164 -301h235zM354 856h50l96 -123h-56l-66 83l-88 -83h-64z" />
    <glyph glyph-name="Atilde" unicode="&#xc3;" horiz-adv-x="609" 
d="M507 0l-63 264h-276l-143 -264h-61l377 692h59l164 -692h-57zM360 617l-164 -301h235zM434 743q-33 0 -70 27t-56 27q-38 0 -43 -52h-45q2 42 25.5 71t62.5 29q32 0 69 -27t57 -27q40 0 43 53h45q-3 -45 -26.5 -73t-61.5 -28z" />
    <glyph glyph-name="Adieresis" unicode="&#xc4;" horiz-adv-x="609" 
d="M507 0l-63 264h-276l-143 -264h-61l377 692h59l164 -692h-57zM360 617l-164 -301h235zM286 749q-20 0 -33 13.5t-13 32.5t13.5 32.5t32.5 13.5q18 0 32 -13.5t14 -32.5t-14 -32.5t-32 -13.5zM460 749q-20 0 -33 13.5t-13 32.5t13.5 32.5t32.5 13.5q18 0 32 -13.5
t14 -32.5t-14 -32.5t-32 -13.5z" />
    <glyph glyph-name="Aring" unicode="&#xc5;" horiz-adv-x="609" 
d="M507 0l-63 264h-276l-143 -264h-61l377 692h59l164 -692h-57zM360 617l-164 -301h235zM284 811q0 40 27.5 69.5t71.5 29.5q42 0 67 -24t25 -63q0 -42 -27 -70.5t-73 -28.5q-40 0 -65.5 24t-25.5 63zM326 811q0 -21 13.5 -35t35.5 -14q25 0 41.5 16t16.5 45q0 21 -13.5 35
t-36.5 14q-26 0 -41.5 -17.5t-15.5 -43.5z" />
    <glyph glyph-name="AE" unicode="&#xc6;" horiz-adv-x="760" 
d="M679 0h-282l40 230h-235l-176 -230h-64l528 692h307l-10 -53h-219l-45 -254h214l-10 -53h-214l-49 -279h225zM242 283h205l61 346z" />
    <glyph glyph-name="Ccedilla" unicode="&#xc7;" 
d="M222 -86l17 93q-92 34 -143.5 115t-51.5 193q0 173 104.5 282t261.5 109q149 0 232 -88l-36 -41q-75 77 -194 77q-138 0 -223.5 -94t-85.5 -245q0 -122 70.5 -199t185.5 -77q108 0 187 57l28 -40q-83 -69 -215 -69q-39 0 -79 8l-7 -39q75 -17 75 -92q0 -53 -38 -81
t-98 -28h-19l8 46h11q86 0 86 63q0 24 -17 37t-45 13h-14z" />
    <glyph glyph-name="Egrave" unicode="&#xc8;" horiz-adv-x="377" 
d="M296 0h-282l122 692h278l-10 -53h-219l-45 -254h214l-10 -53h-214l-49 -279h225zM205 856h53l50 -123h-52z" />
    <glyph glyph-name="Eacute" unicode="&#xc9;" horiz-adv-x="377" 
d="M296 0h-282l122 692h278l-10 -53h-219l-45 -254h214l-10 -53h-214l-49 -279h225zM333 856h60l-90 -123h-59z" />
    <glyph glyph-name="Ecircumflex" unicode="&#xca;" horiz-adv-x="377" 
d="M296 0h-282l122 692h278l-10 -53h-219l-45 -254h214l-10 -53h-214l-49 -279h225zM267 856h50l96 -123h-56l-66 83l-88 -83h-64z" />
    <glyph glyph-name="Edieresis" unicode="&#xcb;" horiz-adv-x="377" 
d="M296 0h-282l122 692h278l-10 -53h-219l-45 -254h214l-10 -53h-214l-49 -279h225zM200 749q-20 0 -33 13.5t-13 32.5t13.5 32.5t32.5 13.5q18 0 32 -13.5t14 -32.5t-14 -32.5t-32 -13.5zM374 749q-20 0 -33 13.5t-13 32.5t13.5 32.5t32.5 13.5q18 0 32 -13.5t14 -32.5
t-14 -32.5t-32 -13.5z" />
    <glyph glyph-name="Igrave" unicode="&#xcc;" horiz-adv-x="179" 
d="M194 692l-122 -692h-58l122 692h58zM87 856h53l50 -123h-52z" />
    <glyph glyph-name="Iacute" unicode="&#xcd;" horiz-adv-x="179" 
d="M194 692l-122 -692h-58l122 692h58zM232 856h60l-90 -123h-59z" />
    <glyph glyph-name="Icircumflex" unicode="&#xce;" horiz-adv-x="179" 
d="M160 856h51l81 -123h-52l-56 85l-80 -85h-61zM195 692l-122 -692h-58l122 692h58z" />
    <glyph glyph-name="Idieresis" unicode="&#xcf;" horiz-adv-x="179" 
d="M106 749q-20 0 -33 13.5t-13 32.5t13.5 32.5t32.5 13.5q18 0 32 -13.5t14 -32.5t-14 -32.5t-32 -13.5zM251 749q-19 0 -32.5 13.5t-13.5 32.5t13.5 32.5t32.5 13.5q18 0 32 -13.5t14 -32.5t-14 -32.5t-32 -13.5zM195 692l-122 -692h-58l122 692h58z" />
    <glyph glyph-name="Eth" unicode="&#xd0;" horiz-adv-x="530" 
d="M18 0l58 328h-61l9 52h61l55 312h81q139 0 216.5 -85.5t77.5 -218.5q0 -184 -107 -286t-283 -102h-107zM188 640l-46 -260h128l-10 -52h-127l-48 -276h38q153 0 242.5 88t89.5 247q0 111 -61 182t-174 71h-32z" />
    <glyph glyph-name="Ntilde" unicode="&#xd1;" horiz-adv-x="628" 
d="M467 0l-293 594l-105 -594h-55l122 692h54l292 -600l106 600h55l-122 -692h-54zM475 744q-33 0 -70 27t-56 27q-38 0 -43 -52h-45q2 42 25.5 71t62.5 29q32 0 69 -27t57 -27q40 0 43 53h45q-3 -45 -26.5 -73t-61.5 -28z" />
    <glyph glyph-name="Ograve" unicode="&#xd2;" horiz-adv-x="745" 
d="M44 316q0 159 102.5 274.5t264.5 115.5q143 0 232 -92.5t89 -238.5q0 -168 -105 -278t-264 -110q-141 0 -230 91.5t-89 237.5zM411 654q-136 0 -222 -98t-86 -240q0 -121 72.5 -199t187.5 -78q133 0 221.5 93.5t88.5 242.5q0 124 -72 201.5t-190 77.5zM333 856h53
l50 -123h-52z" />
    <glyph glyph-name="Oacute" unicode="&#xd3;" horiz-adv-x="745" 
d="M44 316q0 159 102.5 274.5t264.5 115.5q143 0 232 -92.5t89 -238.5q0 -168 -105 -278t-264 -110q-141 0 -230 91.5t-89 237.5zM411 654q-136 0 -222 -98t-86 -240q0 -121 72.5 -199t187.5 -78q133 0 221.5 93.5t88.5 242.5q0 124 -72 201.5t-190 77.5zM464 856h60
l-90 -123h-59z" />
    <glyph glyph-name="Ocircumflex" unicode="&#xd4;" horiz-adv-x="745" 
d="M44 316q0 159 102.5 274.5t264.5 115.5q143 0 232 -92.5t89 -238.5q0 -168 -105 -278t-264 -110q-141 0 -230 91.5t-89 237.5zM411 654q-136 0 -222 -98t-86 -240q0 -121 72.5 -199t187.5 -78q133 0 221.5 93.5t88.5 242.5q0 124 -72 201.5t-190 77.5zM412 856h50
l96 -123h-56l-66 83l-88 -83h-64z" />
    <glyph glyph-name="Otilde" unicode="&#xd5;" horiz-adv-x="745" 
d="M44 316q0 159 102.5 274.5t264.5 115.5q143 0 232 -92.5t89 -238.5q0 -168 -105 -278t-264 -110q-141 0 -230 91.5t-89 237.5zM411 654q-136 0 -222 -98t-86 -240q0 -121 72.5 -199t187.5 -78q133 0 221.5 93.5t88.5 242.5q0 124 -72 201.5t-190 77.5zM508 744
q-33 0 -70 27t-56 27q-38 0 -43 -52h-45q2 42 25.5 71t62.5 29q32 0 69 -27t57 -27q40 0 43 53h45q-3 -45 -26.5 -73t-61.5 -28z" />
    <glyph glyph-name="Odieresis" unicode="&#xd6;" horiz-adv-x="745" 
d="M44 316q0 159 102.5 274.5t264.5 115.5q143 0 232 -92.5t89 -238.5q0 -168 -105 -278t-264 -110q-141 0 -230 91.5t-89 237.5zM411 654q-136 0 -222 -98t-86 -240q0 -121 72.5 -199t187.5 -78q133 0 221.5 93.5t88.5 242.5q0 124 -72 201.5t-190 77.5zM351 749
q-19 0 -32.5 13.5t-13.5 32.5t13.5 32.5t32.5 13.5q18 0 32 -13.5t14 -32.5t-14 -32.5t-32 -13.5zM525 749q-19 0 -32.5 13.5t-13.5 32.5t13.5 32.5t32.5 13.5q18 0 32 -13.5t14 -32.5t-14 -32.5t-32 -13.5z" />
    <glyph glyph-name="multiply" unicode="&#xd7;" horiz-adv-x="429" 
d="M83 477l39 32l109 -138l159 138l31 -37l-160 -139l111 -140l-37 -29l-111 137l-160 -138l-31 36l161 140z" />
    <glyph glyph-name="Oslash" unicode="&#xd8;" horiz-adv-x="745" 
d="M691 680l37 -39l-66 -62q60 -85 60 -204q0 -168 -105 -278t-264 -110q-139 0 -228 89l-67 -63l-35 37l69 65q-58 85 -58 201q0 159 101.5 274.5t265.5 115.5q138 0 226 -86zM663 375q0 93 -44 164l-452 -424q73 -76 186 -76q133 0 221.5 93.5t88.5 242.5zM401 654
q-136 0 -222 -98.5t-86 -239.5q0 -92 42 -160l451 425q-71 73 -185 73z" />
    <glyph glyph-name="Ugrave" unicode="&#xd9;" horiz-adv-x="601" 
d="M189 692l-77 -435q-18 -102 26.5 -159.5t138.5 -57.5q172 0 210 215l77 437h57l-77 -440q-46 -265 -267 -265q-125 0 -184.5 75.5t-38.5 191.5l77 438h58zM307 856h53l50 -123h-52z" />
    <glyph glyph-name="Uacute" unicode="&#xda;" horiz-adv-x="601" 
d="M189 692l-77 -435q-18 -102 26.5 -159.5t138.5 -57.5q172 0 210 215l77 437h57l-77 -440q-46 -265 -267 -265q-125 0 -184.5 75.5t-38.5 191.5l77 438h58zM422 856h60l-90 -123h-59z" />
    <glyph glyph-name="Ucircumflex" unicode="&#xdb;" horiz-adv-x="601" 
d="M189 692l-77 -435q-18 -102 26.5 -159.5t138.5 -57.5q172 0 210 215l77 437h57l-77 -440q-46 -265 -267 -265q-125 0 -184.5 75.5t-38.5 191.5l77 438h58zM367 856h50l96 -123h-56l-66 83l-88 -83h-64z" />
    <glyph glyph-name="Udieresis" unicode="&#xdc;" horiz-adv-x="601" 
d="M189 692l-77 -435q-18 -102 26.5 -159.5t138.5 -57.5q172 0 210 215l77 437h57l-77 -440q-46 -265 -267 -265q-125 0 -184.5 75.5t-38.5 191.5l77 438h58zM299 749q-19 0 -32.5 13.5t-13.5 32.5t13.5 32.5t32.5 13.5q18 0 32 -13.5t14 -32.5t-14 -32.5t-32 -13.5z
M473 749q-19 0 -32.5 13.5t-13.5 32.5t13.5 32.5t32.5 13.5q18 0 32 -13.5t14 -32.5t-14 -32.5t-32 -13.5z" />
    <glyph glyph-name="Yacute" unicode="&#xdd;" horiz-adv-x="424" 
d="M198 363l-134 329h61l110 -270l202 270h68l-249 -329l-65 -363h-58zM334 856h60l-90 -123h-59z" />
    <glyph glyph-name="Thorn" unicode="&#xde;" horiz-adv-x="423" 
d="M414 377q0 -95 -61 -149t-159 -54h-91l-31 -174h-58l122 692h58l-28 -157h75q83 0 128 -42.5t45 -115.5zM242 483h-85l-45 -257h83q73 0 115.5 38.5t42.5 112.5q0 46 -29 76t-82 30z" />
    <glyph glyph-name="germandbls" unicode="&#xdf;" horiz-adv-x="481" 
d="M449 256q0 -116 -71 -186t-193 -70h-40l9 51h31q91 0 148 53t57 151q0 81 -50 121.5t-121 41.5l9 51h21q51 1 87.5 31.5t36.5 91.5q0 44 -25 69.5t-70 25.5q-53 0 -78 -34t-35 -93l-99 -560h-57l99 561q31 176 170 176q75 0 114.5 -41.5t39.5 -103.5q0 -54 -28.5 -93.5
t-71.5 -54.5q52 -22 84.5 -71t32.5 -117z" />
    <glyph glyph-name="agrave" unicode="&#xe0;" horiz-adv-x="446" 
d="M17 150q0 80 51.5 134t135.5 54q46 0 81 -19t50 -48l14 79q11 66 -15.5 104.5t-85.5 38.5q-55 0 -82 -28.5t-37 -78.5h-54q9 68 52 111.5t120 43.5q96 0 134 -56t24 -138l-61 -347h-52l7 44q-16 -23 -48 -38t-67 -15q-72 0 -119.5 44t-47.5 115zM204 290q-59 0 -95 -39
t-36 -101q0 -48 31 -79.5t83 -31.5q54 0 93 38.5t39 98.5q0 51 -31.5 82.5t-83.5 31.5zM194 717h52l53 -132h-51z" />
    <glyph glyph-name="aacute" unicode="&#xe1;" horiz-adv-x="446" 
d="M17 150q0 80 51.5 134t135.5 54q46 0 81 -19t50 -48l14 79q11 66 -15.5 104.5t-85.5 38.5q-55 0 -82 -28.5t-37 -78.5h-54q9 68 52 111.5t120 43.5q96 0 134 -56t24 -138l-61 -347h-52l7 44q-16 -23 -48 -38t-67 -15q-72 0 -119.5 44t-47.5 115zM204 290q-59 0 -95 -39
t-36 -101q0 -48 31 -79.5t83 -31.5q54 0 93 38.5t39 98.5q0 51 -31.5 82.5t-83.5 31.5zM327 717h58l-96 -132h-58z" />
    <glyph glyph-name="acircumflex" unicode="&#xe2;" horiz-adv-x="446" 
d="M17 150q0 80 51.5 134t135.5 54q46 0 81 -19t50 -48l14 79q11 66 -15.5 104.5t-85.5 38.5q-55 0 -82 -28.5t-37 -78.5h-54q9 68 52 111.5t120 43.5q96 0 134 -56t24 -138l-61 -347h-52l7 44q-16 -23 -48 -38t-67 -15q-72 0 -119.5 44t-47.5 115zM204 290q-59 0 -95 -39
t-36 -101q0 -48 31 -79.5t83 -31.5q54 0 93 38.5t39 98.5q0 51 -31.5 82.5t-83.5 31.5zM267 718h52l87 -139h-52l-63 97l-90 -97h-60z" />
    <glyph glyph-name="atilde" unicode="&#xe3;" horiz-adv-x="446" 
d="M17 150q0 80 51.5 134t135.5 54q46 0 81 -19t50 -48l14 79q11 66 -15.5 104.5t-85.5 38.5q-55 0 -82 -28.5t-37 -78.5h-54q9 68 52 111.5t120 43.5q96 0 134 -56t24 -138l-61 -347h-52l7 44q-16 -23 -48 -38t-67 -15q-72 0 -119.5 44t-47.5 115zM204 290q-59 0 -95 -39
t-36 -101q0 -48 31 -79.5t83 -31.5q54 0 93 38.5t39 98.5q0 51 -31.5 82.5t-83.5 31.5zM347 591q-33 0 -70 27t-56 27q-38 0 -43 -52h-45q2 42 25.5 71t62.5 29q32 0 69 -27t57 -27q40 0 43 53h45q-3 -45 -26.5 -73t-61.5 -28z" />
    <glyph glyph-name="adieresis" unicode="&#xe4;" horiz-adv-x="446" 
d="M17 150q0 80 51.5 134t135.5 54q46 0 81 -19t50 -48l14 79q11 66 -15.5 104.5t-85.5 38.5q-55 0 -82 -28.5t-37 -78.5h-54q9 68 52 111.5t120 43.5q96 0 134 -56t24 -138l-61 -347h-52l7 44q-16 -23 -48 -38t-67 -15q-72 0 -119.5 44t-47.5 115zM204 290q-59 0 -95 -39
t-36 -101q0 -48 31 -79.5t83 -31.5q54 0 93 38.5t39 98.5q0 51 -31.5 82.5t-83.5 31.5zM202 606q-20 0 -33 13t-13 33q0 19 13.5 32.5t32.5 13.5q18 0 32 -13.5t14 -32.5t-14 -32.5t-32 -13.5zM358 606q-20 0 -33 13t-13 33q0 19 13.5 32.5t32.5 13.5q18 0 32 -13.5
t14 -32.5t-14 -32.5t-32 -13.5z" />
    <glyph glyph-name="aring" unicode="&#xe5;" horiz-adv-x="446" 
d="M17 150q0 80 51.5 134t135.5 54q46 0 81 -19t50 -48l14 79q11 66 -15.5 104.5t-85.5 38.5q-55 0 -82 -28.5t-37 -78.5h-54q9 68 52 111.5t120 43.5q96 0 134 -56t24 -138l-61 -347h-52l7 44q-16 -23 -48 -38t-67 -15q-72 0 -119.5 44t-47.5 115zM204 290q-59 0 -95 -39
t-36 -101q0 -48 31 -79.5t83 -31.5q54 0 93 38.5t39 98.5q0 51 -31.5 82.5t-83.5 31.5zM188 654q0 40 27.5 69.5t71.5 29.5q42 0 67 -24t25 -63q0 -42 -27 -70.5t-73 -28.5q-40 0 -65.5 24t-25.5 63zM230 654q0 -21 13.5 -35t35.5 -14q25 0 41.5 16.5t16.5 44.5
q0 21 -13.5 35t-36.5 14q-26 0 -41.5 -17.5t-15.5 -43.5z" />
    <glyph glyph-name="ae" unicode="&#xe6;" horiz-adv-x="846" 
d="M187 -9q-73 0 -121.5 44t-48.5 115q0 80 51.5 134t135.5 54q78 0 119 -48l10 61q11 66 -13 104t-80 38q-92 0 -113 -107h-54q9 68 50 111.5t116 43.5q63 0 98.5 -28t44.5 -70q35 47 87.5 74t112.5 27q115 0 181.5 -66t65.5 -179q0 -24 -3 -48h-455v-9q0 -92 51 -146
t139 -54q137 0 208 126l42 -22q-36 -73 -99.5 -114t-150.5 -41q-71 0 -125 29t-84 80q-20 -48 -61.5 -78.5t-103.5 -30.5zM583 493q-79 0 -135.5 -51.5t-72.5 -140.5h396q2 88 -47 140t-141 52zM205 290q-59 0 -95 -39t-36 -101q0 -48 31.5 -79.5t82.5 -31.5q56 0 94 38
t38 99q0 51 -31.5 82.5t-83.5 31.5z" />
    <glyph glyph-name="ccedilla" unicode="&#xe7;" horiz-adv-x="518" 
d="M180 -86l16 88q-78 23 -123.5 88.5t-45.5 154.5q0 127 81 213t203 86q77 0 129.5 -29t77.5 -68l-40 -33q-64 78 -167 78q-98 0 -161 -70t-63 -177q0 -89 54 -145.5t137 -56.5q92 0 168 68l33 -33q-75 -87 -201 -87q-20 0 -40 3l-7 -38q75 -17 75 -92q0 -53 -38 -81
t-98 -28h-19l8 46h11q86 0 86 63q0 24 -17 37t-45 13h-14z" />
    <glyph glyph-name="egrave" unicode="&#xe8;" horiz-adv-x="560" 
d="M540 251h-454v-9q0 -92 51 -146t138 -54q137 0 208 126l42 -22q-36 -73 -99.5 -114t-150.5 -41q-112 0 -180 68.5t-68 182.5q0 129 77.5 215.5t191.5 86.5q115 0 181.5 -66t65.5 -179q0 -24 -3 -48zM297 493q-78 0 -134.5 -51.5t-72.5 -140.5h395q2 88 -47 140t-141 52z
M238 717h52l53 -132h-51z" />
    <glyph glyph-name="eacute" unicode="&#xe9;" horiz-adv-x="560" 
d="M540 251h-454v-9q0 -92 51 -146t138 -54q137 0 208 126l42 -22q-36 -73 -99.5 -114t-150.5 -41q-112 0 -180 68.5t-68 182.5q0 129 77.5 215.5t191.5 86.5q115 0 181.5 -66t65.5 -179q0 -24 -3 -48zM297 493q-78 0 -134.5 -51.5t-72.5 -140.5h395q2 88 -47 140t-141 52z
M365 717h58l-96 -132h-58z" />
    <glyph glyph-name="ecircumflex" unicode="&#xea;" horiz-adv-x="560" 
d="M540 251h-454v-9q0 -92 51 -146t138 -54q137 0 208 126l42 -22q-36 -73 -99.5 -114t-150.5 -41q-112 0 -180 68.5t-68 182.5q0 129 77.5 215.5t191.5 86.5q115 0 181.5 -66t65.5 -179q0 -24 -3 -48zM297 493q-78 0 -134.5 -51.5t-72.5 -140.5h395q2 88 -47 140t-141 52z
M309 718h52l87 -139h-52l-63 97l-90 -97h-60z" />
    <glyph glyph-name="edieresis" unicode="&#xeb;" horiz-adv-x="560" 
d="M540 251h-454v-9q0 -92 51 -146t138 -54q137 0 208 126l42 -22q-36 -73 -99.5 -114t-150.5 -41q-112 0 -180 68.5t-68 182.5q0 129 77.5 215.5t191.5 86.5q115 0 181.5 -66t65.5 -179q0 -24 -3 -48zM297 493q-78 0 -134.5 -51.5t-72.5 -140.5h395q2 88 -47 140t-141 52z
M246 606q-20 0 -33 13t-13 33q0 19 13.5 32.5t32.5 13.5q18 0 32 -13.5t14 -32.5t-14 -32.5t-32 -13.5zM402 606q-20 0 -33 13t-13 33q0 19 13.5 32.5t32.5 13.5q18 0 32 -13.5t14 -32.5t-14 -32.5t-32 -13.5z" />
    <glyph glyph-name="igrave" unicode="&#xec;" horiz-adv-x="172" 
d="M162 535l-94 -535h-57l94 535h57zM59 717h52l53 -132h-51z" />
    <glyph glyph-name="iacute" unicode="&#xed;" horiz-adv-x="172" 
d="M162 535l-94 -535h-57l94 535h57zM213 717h58l-96 -132h-58z" />
    <glyph glyph-name="icircumflex" unicode="&#xee;" horiz-adv-x="172" 
d="M129 718h52l75 -139h-49l-54 98l-81 -98h-55zM162 535l-94 -535h-57l94 535h57z" />
    <glyph glyph-name="idieresis" unicode="&#xef;" horiz-adv-x="172" 
d="M83 606q-19 0 -32.5 13t-13.5 33q0 19 13.5 32.5t32.5 13.5q18 0 32 -13.5t14 -32.5t-14 -32.5t-32 -13.5zM218 606q-20 0 -33 13t-13 33q0 19 13.5 32.5t32.5 13.5q18 0 32 -13.5t14 -32.5t-14 -32.5t-32 -13.5zM162 535l-94 -535h-57l94 535h57z" />
    <glyph glyph-name="eth" unicode="&#xf0;" horiz-adv-x="593" 
d="M473 650l-91 -27l83 -101q55 -68 78 -121.5t23 -118.5q0 -121 -80.5 -206t-204.5 -85q-112 0 -183 70t-71 184q0 126 80 212.5t203 86.5q62 0 89 -23l-70 86l-139 -41l-14 44l122 36l-68 85h65l56 -69l108 32zM310 493q-99 0 -161.5 -70t-62.5 -178q0 -89 54.5 -146
t140.5 -57q99 0 162.5 68.5t63.5 171.5q0 93 -54.5 152t-142.5 59z" />
    <glyph glyph-name="ntilde" unicode="&#xf1;" horiz-adv-x="459" 
d="M300 0l60 337q12 71 -11.5 112.5t-82.5 41.5q-111 0 -136 -141l-62 -350h-57l94 535h57l-10 -55q15 25 48.5 43t72.5 18q91 0 125 -60t19 -144l-60 -337h-57zM347 591q-33 0 -70 27t-56 27q-38 0 -43 -52h-45q2 42 25.5 71t62.5 29q32 0 69 -27t57 -27q40 0 43 53h45
q-3 -45 -26.5 -73t-61.5 -28z" />
    <glyph glyph-name="ograve" unicode="&#xf2;" horiz-adv-x="593" 
d="M310 493q-99 0 -161.5 -70t-62.5 -178q0 -89 54.5 -146t140.5 -57q99 0 162.5 68.5t63.5 171.5q0 93 -54.5 152t-142.5 59zM27 245q0 126 80 212.5t203 86.5q114 0 185 -72.5t71 -189.5q0 -121 -80.5 -206t-204.5 -85q-112 0 -183 70t-71 184zM245 717h52l53 -132h-51z
" />
    <glyph glyph-name="oacute" unicode="&#xf3;" horiz-adv-x="593" 
d="M310 493q-99 0 -161.5 -70t-62.5 -178q0 -89 54.5 -146t140.5 -57q99 0 162.5 68.5t63.5 171.5q0 93 -54.5 152t-142.5 59zM27 245q0 126 80 212.5t203 86.5q114 0 185 -72.5t71 -189.5q0 -121 -80.5 -206t-204.5 -85q-112 0 -183 70t-71 184zM394 717h58l-96 -132h-58z
" />
    <glyph glyph-name="ocircumflex" unicode="&#xf4;" horiz-adv-x="593" 
d="M310 493q-99 0 -161.5 -70t-62.5 -178q0 -89 54.5 -146t140.5 -57q99 0 162.5 68.5t63.5 171.5q0 93 -54.5 152t-142.5 59zM27 245q0 126 80 212.5t203 86.5q114 0 185 -72.5t71 -189.5q0 -121 -80.5 -206t-204.5 -85q-112 0 -183 70t-71 184zM323 718h52l87 -139h-52
l-63 97l-90 -97h-60z" />
    <glyph glyph-name="otilde" unicode="&#xf5;" horiz-adv-x="593" 
d="M310 493q-99 0 -161.5 -70t-62.5 -178q0 -89 54.5 -146t140.5 -57q99 0 162.5 68.5t63.5 171.5q0 93 -54.5 152t-142.5 59zM27 245q0 126 80 212.5t203 86.5q114 0 185 -72.5t71 -189.5q0 -121 -80.5 -206t-204.5 -85q-112 0 -183 70t-71 184zM408 591q-33 0 -70 27
t-56 27q-38 0 -43 -52h-45q2 42 25.5 71t62.5 29q32 0 69 -27t57 -27q40 0 43 53h45q-3 -45 -26.5 -73t-61.5 -28z" />
    <glyph glyph-name="odieresis" unicode="&#xf6;" horiz-adv-x="593" 
d="M310 493q-99 0 -161.5 -70t-62.5 -178q0 -89 54.5 -146t140.5 -57q99 0 162.5 68.5t63.5 171.5q0 93 -54.5 152t-142.5 59zM27 245q0 126 80 212.5t203 86.5q114 0 185 -72.5t71 -189.5q0 -121 -80.5 -206t-204.5 -85q-112 0 -183 70t-71 184zM257 606q-19 0 -32.5 13
t-13.5 33q0 19 13.5 32.5t32.5 13.5q18 0 32 -13.5t14 -32.5t-14 -32.5t-32 -13.5zM413 606q-19 0 -32.5 13t-13.5 33q0 19 13.5 32.5t32.5 13.5q18 0 32 -13.5t14 -32.5t-14 -32.5t-32 -13.5z" />
    <glyph glyph-name="divide" unicode="&#xf7;" horiz-adv-x="486" 
d="M227 124q-21 0 -35 14t-14 35t14 35t35 14t35 -14t14 -35t-14 -35t-35 -14zM283 446q-21 0 -35 14t-14 35t14 35t35 14t35 -14t14 -35t-14 -35t-35 -14zM48 312l9 49h407l-9 -49h-407z" />
    <glyph glyph-name="oslash" unicode="&#xf8;" horiz-adv-x="593" 
d="M27 245q0 126 80 212.5t203 86.5q107 0 177 -65l50 47l35 -36l-52 -49q46 -67 46 -159q0 -121 -80.5 -206t-204.5 -85q-106 0 -174 62l-55 -51l-34 35l56 52q-47 64 -47 156zM310 493q-99 0 -161.5 -70t-62.5 -178q0 -65 31 -115l329 310q-53 53 -136 53zM507 282
q0 67 -30 119l-329 -309q53 -50 133 -50q99 0 162.5 68.5t63.5 171.5z" />
    <glyph glyph-name="ugrave" unicode="&#xf9;" horiz-adv-x="455" 
d="M159 535l-59 -337q-12 -71 10 -112.5t80 -41.5q111 0 137 143l61 348h57l-94 -535h-57l10 55q-15 -26 -48 -43.5t-73 -17.5q-47 0 -79.5 18t-46 47t-18 65.5t3.5 73.5l59 337h57zM205 717h52l53 -132h-51z" />
    <glyph glyph-name="uacute" unicode="&#xfa;" horiz-adv-x="455" 
d="M159 535l-59 -337q-12 -71 10 -112.5t80 -41.5q111 0 137 143l61 348h57l-94 -535h-57l10 55q-15 -26 -48 -43.5t-73 -17.5q-47 0 -79.5 18t-46 47t-18 65.5t3.5 73.5l59 337h57zM329 717h58l-96 -132h-58z" />
    <glyph glyph-name="ucircumflex" unicode="&#xfb;" horiz-adv-x="455" 
d="M159 535l-59 -337q-12 -71 10 -112.5t80 -41.5q111 0 137 143l61 348h57l-94 -535h-57l10 55q-15 -26 -48 -43.5t-73 -17.5q-47 0 -79.5 18t-46 47t-18 65.5t3.5 73.5l59 337h57zM269 718h52l87 -139h-52l-63 97l-90 -97h-60z" />
    <glyph glyph-name="udieresis" unicode="&#xfc;" horiz-adv-x="455" 
d="M159 535l-59 -337q-12 -71 10 -112.5t80 -41.5q111 0 137 143l61 348h57l-94 -535h-57l10 55q-15 -26 -48 -43.5t-73 -17.5q-47 0 -79.5 18t-46 47t-18 65.5t3.5 73.5l59 337h57zM208 606q-20 0 -33 13t-13 33q0 19 13.5 32.5t32.5 13.5q18 0 32 -13.5t14 -32.5
t-14 -32.5t-32 -13.5zM364 606q-20 0 -33 13t-13 33q0 19 13.5 32.5t32.5 13.5q18 0 32 -13.5t14 -32.5t-14 -32.5t-32 -13.5z" />
    <glyph glyph-name="yacute" unicode="&#xfd;" horiz-adv-x="487" 
d="M45 535h59l111 -462l255 462h62l-396 -710h-58l98 178zM347 717h58l-96 -132h-58z" />
    <glyph glyph-name="thorn" unicode="&#xfe;" horiz-adv-x="614" 
d="M303 -9q-80 0 -136 38t-77 94l-53 -298h-57l160 906h57l-48 -270q29 35 80 59t110 24q114 0 181 -70.5t67 -189.5q0 -121 -81 -207t-203 -86zM339 493q-100 0 -163 -70t-63 -178q0 -89 53.5 -146t137.5 -57q97 0 160.5 69.5t63.5 172.5q0 94 -51 151.5t-138 57.5z" />
    <glyph glyph-name="ydieresis" unicode="&#xff;" horiz-adv-x="487" 
d="M45 535h59l111 -462l255 462h62l-396 -710h-58l98 178zM378 606q-20 0 -33 13t-13 33q0 19 13.5 32.5t32.5 13.5q18 0 32 -13.5t14 -32.5t-14 -32.5t-32 -13.5zM222 606q-20 0 -33 13t-13 33q0 19 13.5 32.5t32.5 13.5q18 0 32 -13.5t14 -32.5t-14 -32.5t-32 -13.5z" />
    <glyph glyph-name="Amacron" unicode="&#x100;" horiz-adv-x="609" 
d="M507 0l-63 264h-276l-143 -264h-61l377 692h59l164 -692h-57zM360 617l-164 -301h235zM264 758l9 48h221l-9 -48h-221z" />
    <glyph glyph-name="amacron" unicode="&#x101;" horiz-adv-x="446" 
d="M17 150q0 80 51.5 134t135.5 54q46 0 81 -19t50 -48l14 79q11 66 -15.5 104.5t-85.5 38.5q-55 0 -82 -28.5t-37 -78.5h-54q9 68 52 111.5t120 43.5q96 0 134 -56t24 -138l-61 -347h-52l7 44q-16 -23 -48 -38t-67 -15q-72 0 -119.5 44t-47.5 115zM204 290q-59 0 -95 -39
t-36 -101q0 -48 31 -79.5t83 -31.5q54 0 93 38.5t39 98.5q0 51 -31.5 82.5t-83.5 31.5zM163 609l9 48h215l-9 -48h-215z" />
    <glyph glyph-name="Abreve" unicode="&#x102;" horiz-adv-x="609" 
d="M507 0l-63 264h-276l-143 -264h-61l377 692h59l164 -692h-57zM360 617l-164 -301h235zM380 737q-46 0 -75 22t-37 47t-6 50h47q0 -16 4 -30t21.5 -27.5t45.5 -13.5q38 0 59.5 22t26.5 49h47q-4 -42 -37.5 -80.5t-95.5 -38.5z" />
    <glyph glyph-name="abreve" unicode="&#x103;" horiz-adv-x="446" 
d="M17 150q0 80 51.5 134t135.5 54q46 0 81 -19t50 -48l14 79q11 66 -15.5 104.5t-85.5 38.5q-55 0 -82 -28.5t-37 -78.5h-54q9 68 52 111.5t120 43.5q96 0 134 -56t24 -138l-61 -347h-52l7 44q-16 -23 -48 -38t-67 -15q-72 0 -119.5 44t-47.5 115zM204 290q-59 0 -95 -39
t-36 -101q0 -48 31 -79.5t83 -31.5q54 0 93 38.5t39 98.5q0 51 -31.5 82.5t-83.5 31.5zM282 577q-68 0 -94.5 39t-23.5 84h46q0 -76 72 -76q39 0 60.5 23.5t26.5 52.5h46q-4 -44 -37 -83.5t-96 -39.5z" />
    <glyph glyph-name="Aogonek" unicode="&#x104;" horiz-adv-x="609" 
d="M432 -85q0 59 73 92l-61 257h-276l-143 -264h-61l377 692h59l165 -697q-78 -25 -78 -78q0 -21 15.5 -33t40.5 -13l-8 -46q-46 1 -74.5 25.5t-28.5 64.5zM360 617l-164 -301h235z" />
    <glyph glyph-name="aogonek" unicode="&#x105;" horiz-adv-x="446" 
d="M17 150q0 80 51.5 134t135.5 54q46 0 81 -19t50 -48l14 79q11 66 -15.5 104.5t-85.5 38.5q-55 0 -82 -28.5t-37 -78.5h-54q9 68 52 111.5t120 43.5q96 0 134 -56t24 -138l-62 -352q-77 -26 -77 -78q0 -21 15.5 -33t40.5 -13l-8 -46q-46 1 -74.5 25.5t-28.5 63.5
q0 59 82 93l6 37q-16 -23 -48 -38t-67 -15q-72 0 -119.5 44t-47.5 115zM204 290q-59 0 -95 -39t-36 -101q0 -48 31 -79.5t83 -31.5q54 0 93 38.5t39 98.5q0 51 -31.5 82.5t-83.5 31.5z" />
    <glyph glyph-name="Cacute" unicode="&#x106;" 
d="M546 96l28 -40q-83 -69 -215 -69q-142 0 -228.5 91t-86.5 237q0 173 104.5 282t261.5 109q149 0 232 -88l-36 -41q-75 77 -194 77q-138 0 -223.5 -94t-85.5 -245q0 -122 70.5 -199t185.5 -77q108 0 187 57zM450 856h60l-90 -123h-59z" />
    <glyph glyph-name="cacute" unicode="&#x107;" horiz-adv-x="518" 
d="M278 43q92 0 168 68l33 -33q-75 -87 -201 -87q-113 0 -182 71t-69 183q0 127 81 213t203 86q77 0 129.5 -29t77.5 -68l-40 -33q-64 78 -167 78q-98 0 -161 -70t-63 -177q0 -89 54 -145.5t137 -56.5zM371 717h58l-96 -132h-58z" />
    <glyph glyph-name="Ccircumflex" unicode="&#x108;" 
d="M546 96l28 -40q-83 -69 -215 -69q-142 0 -228.5 91t-86.5 237q0 173 104.5 282t261.5 109q149 0 232 -88l-36 -41q-75 77 -194 77q-138 0 -223.5 -94t-85.5 -245q0 -122 70.5 -199t185.5 -77q108 0 187 57zM396 856h50l96 -123h-56l-66 83l-88 -83h-64z" />
    <glyph glyph-name="ccircumflex" unicode="&#x109;" horiz-adv-x="518" 
d="M278 43q92 0 168 68l33 -33q-75 -87 -201 -87q-113 0 -182 71t-69 183q0 127 81 213t203 86q77 0 129.5 -29t77.5 -68l-40 -33q-64 78 -167 78q-98 0 -161 -70t-63 -177q0 -89 54 -145.5t137 -56.5zM311 718h52l87 -139h-52l-63 97l-90 -97h-60z" />
    <glyph glyph-name="Cdotaccent" unicode="&#x10a;" 
d="M546 96l28 -40q-83 -69 -215 -69q-142 0 -228.5 91t-86.5 237q0 173 104.5 282t261.5 109q149 0 232 -88l-36 -41q-75 77 -194 77q-138 0 -223.5 -94t-85.5 -245q0 -122 70.5 -199t185.5 -77q108 0 187 57zM410 752q-20 0 -33.5 14t-13.5 33t13.5 33t33.5 14t33.5 -14
t13.5 -33t-13.5 -33t-33.5 -14z" />
    <glyph glyph-name="cdotaccent" unicode="&#x10b;" horiz-adv-x="518" 
d="M278 43q92 0 168 68l33 -33q-75 -87 -201 -87q-113 0 -182 71t-69 183q0 127 81 213t203 86q77 0 129.5 -29t77.5 -68l-40 -33q-64 78 -167 78q-98 0 -161 -70t-63 -177q0 -89 54 -145.5t137 -56.5zM321 605q-19 0 -33 13.5t-14 33.5t14 33.5t33 13.5t33 -13.5t14 -33.5
t-14 -33.5t-33 -13.5z" />
    <glyph glyph-name="Ccaron" unicode="&#x10c;" 
d="M546 96l28 -40q-83 -69 -215 -69q-142 0 -228.5 91t-86.5 237q0 173 104.5 282t261.5 109q149 0 232 -88l-36 -41q-75 77 -194 77q-138 0 -223.5 -94t-85.5 -245q0 -122 70.5 -199t185.5 -77q108 0 187 57zM432 733h-49l-92 123h56l63 -86l93 86h60z" />
    <glyph glyph-name="ccaron" unicode="&#x10d;" horiz-adv-x="518" 
d="M278 43q92 0 168 68l33 -33q-75 -87 -201 -87q-113 0 -182 71t-69 183q0 127 81 213t203 86q77 0 129.5 -29t77.5 -68l-40 -33q-64 78 -167 78q-98 0 -161 -70t-63 -177q0 -89 54 -145.5t137 -56.5zM338 584h-51l-86 139h53l62 -99l94 99h58z" />
    <glyph glyph-name="Dcaron" unicode="&#x10e;" horiz-adv-x="527" 
d="M15 0l122 692h81q139 0 216.5 -85.5t77.5 -218.5q0 -184 -107 -286t-283 -102h-107zM185 640l-103 -588h38q153 0 242.5 88t89.5 247q0 111 -61 182t-174 71h-32zM330 733h-49l-92 123h56l63 -86l93 86h60z" />
    <glyph glyph-name="dcaron" unicode="&#x10f;" horiz-adv-x="612" 
d="M305 544q85 0 140.5 -38t78.5 -94l56 319h57l-129 -731h-54l13 79q-23 -33 -71.5 -60.5t-117.5 -27.5q-114 0 -182.5 72.5t-68.5 186.5q0 123 77 208.5t201 85.5zM278 42q97 0 160 70.5t63 177.5q0 90 -53 146.5t-143 56.5q-95 0 -157 -67.5t-62 -168.5q0 -96 52 -155.5
t140 -59.5zM697 731h51l-42 -149h-51z" />
    <glyph glyph-name="Dcroat" unicode="&#x110;" horiz-adv-x="530" 
d="M18 0l58 328h-61l9 52h61l55 312h81q139 0 216.5 -85.5t77.5 -218.5q0 -184 -107 -286t-283 -102h-107zM188 640l-46 -260h128l-10 -52h-127l-48 -276h38q153 0 242.5 88t89.5 247q0 111 -61 182t-174 71h-32z" />
    <glyph glyph-name="dcroat" unicode="&#x111;" horiz-adv-x="617" 
d="M434 603l7 48h125l14 80h57l-14 -80h55l-8 -48h-56l-106 -603h-54l13 79q-23 -33 -71.5 -60.5t-117.5 -27.5q-114 0 -182.5 72.5t-68.5 186.5q0 123 77 208.5t201 85.5q85 0 140.5 -38t78.5 -94l33 191h-123zM278 42q97 0 160 70.5t63 177.5q0 90 -53 146.5t-143 56.5
q-95 0 -157 -67.5t-62 -168.5q0 -96 52 -155.5t140 -59.5z" />
    <glyph glyph-name="Emacron" unicode="&#x112;" horiz-adv-x="377" 
d="M296 0h-282l122 692h278l-10 -53h-219l-45 -254h214l-10 -53h-214l-49 -279h225zM170 758l9 48h221l-9 -48h-221z" />
    <glyph glyph-name="emacron" unicode="&#x113;" horiz-adv-x="560" 
d="M540 251h-454v-9q0 -92 51 -146t138 -54q137 0 208 126l42 -22q-36 -73 -99.5 -114t-150.5 -41q-112 0 -180 68.5t-68 182.5q0 129 77.5 215.5t191.5 86.5q115 0 181.5 -66t65.5 -179q0 -24 -3 -48zM297 493q-78 0 -134.5 -51.5t-72.5 -140.5h395q2 88 -47 140t-141 52z
M210 609l9 48h215l-9 -48h-215z" />
    <glyph glyph-name="Ebreve" unicode="&#x114;" horiz-adv-x="377" 
d="M296 0h-282l122 692h278l-10 -53h-219l-45 -254h214l-10 -53h-214l-49 -279h225zM288 737q-46 0 -75 22t-37 47t-6 50h47q0 -16 4 -30t21.5 -27.5t45.5 -13.5q38 0 59.5 22t26.5 49h47q-4 -42 -37.5 -80.5t-95.5 -38.5z" />
    <glyph glyph-name="ebreve" unicode="&#x115;" horiz-adv-x="560" 
d="M540 251h-454v-9q0 -92 51 -146t138 -54q137 0 208 126l42 -22q-36 -73 -99.5 -114t-150.5 -41q-112 0 -180 68.5t-68 182.5q0 129 77.5 215.5t191.5 86.5q115 0 181.5 -66t65.5 -179q0 -24 -3 -48zM297 493q-78 0 -134.5 -51.5t-72.5 -140.5h395q2 88 -47 140t-141 52z
M331 577q-68 0 -94.5 39t-23.5 84h46q0 -76 72 -76q39 0 60.5 23.5t26.5 52.5h46q-4 -44 -37 -83.5t-96 -39.5z" />
    <glyph glyph-name="Edotaccent" unicode="&#x116;" horiz-adv-x="377" 
d="M296 0h-282l122 692h278l-10 -53h-219l-45 -254h214l-10 -53h-214l-49 -279h225zM282 752q-20 0 -33.5 14t-13.5 33t13.5 33t33.5 14t33.5 -14t13.5 -33t-13.5 -33t-33.5 -14z" />
    <glyph glyph-name="edotaccent" unicode="&#x117;" horiz-adv-x="560" 
d="M540 251h-454v-9q0 -92 51 -146t138 -54q137 0 208 126l42 -22q-36 -73 -99.5 -114t-150.5 -41q-112 0 -180 68.5t-68 182.5q0 129 77.5 215.5t191.5 86.5q115 0 181.5 -66t65.5 -179q0 -24 -3 -48zM297 493q-78 0 -134.5 -51.5t-72.5 -140.5h395q2 88 -47 140t-141 52z
M317 605q-19 0 -33 13.5t-14 33.5t14 33.5t33 13.5t33 -13.5t14 -33.5t-14 -33.5t-33 -13.5z" />
    <glyph glyph-name="Eogonek" unicode="&#x118;" horiz-adv-x="377" 
d="M296 0h-38q-38 -12 -59.5 -34.5t-21.5 -46.5q0 -22 15.5 -34.5t40.5 -13.5l-8 -46q-47 1 -75 25.5t-28 64.5q0 55 60 85h-168l122 692h278l-10 -53h-219l-45 -254h214l-10 -53h-214l-49 -279h225z" />
    <glyph glyph-name="eogonek" unicode="&#x119;" horiz-adv-x="560" 
d="M263 -85q0 45 41 77q-9 -1 -29 -1q-112 0 -180 68.5t-68 182.5q0 129 77.5 215.5t191.5 86.5q115 0 181.5 -66t65.5 -179q0 -24 -3 -48h-454v-9q0 -92 51 -146t138 -54q137 0 208 126l42 -22q-42 -88 -126 -129q-81 -40 -81 -99q0 -21 15.5 -33.5t40.5 -13.5l-8 -46
q-46 1 -74.5 25.5t-28.5 64.5zM297 493q-78 0 -134.5 -51.5t-72.5 -140.5h395q2 88 -47 140t-141 52z" />
    <glyph glyph-name="Ecaron" unicode="&#x11a;" horiz-adv-x="377" 
d="M296 0h-282l122 692h278l-10 -53h-219l-45 -254h214l-10 -53h-214l-49 -279h225zM300 733h-49l-92 123h56l63 -86l93 86h60z" />
    <glyph glyph-name="ecaron" unicode="&#x11b;" horiz-adv-x="560" 
d="M540 251h-454v-9q0 -92 51 -146t138 -54q137 0 208 126l42 -22q-36 -73 -99.5 -114t-150.5 -41q-112 0 -180 68.5t-68 182.5q0 129 77.5 215.5t191.5 86.5q115 0 181.5 -66t65.5 -179q0 -24 -3 -48zM297 493q-78 0 -134.5 -51.5t-72.5 -140.5h395q2 88 -47 140t-141 52z
M334 584h-51l-86 139h53l62 -99l94 99h58z" />
    <glyph glyph-name="Gcircumflex" unicode="&#x11c;" horiz-adv-x="690" 
d="M653 342l-60 -342h-56l7 42q-23 -19 -71.5 -37t-109.5 -18q-143 0 -231 89.5t-88 235.5q0 166 103 280t265 114q94 0 158 -35.5t96 -84.5l-41 -36q-74 104 -213 104q-136 0 -222.5 -96t-86.5 -246q0 -121 72 -197t189 -76q116 0 190 67l32 183h-137l10 53h194zM411 856
h50l96 -123h-56l-66 83l-88 -83h-64z" />
    <glyph glyph-name="gcircumflex" unicode="&#x11d;" horiz-adv-x="612" 
d="M460 51l4 23q-26 -32 -73.5 -57.5t-112.5 -25.5q-114 0 -182.5 72.5t-68.5 186.5q0 123 77 208.5t201 85.5q84 0 139.5 -38t78.5 -93l22 122h57l-85 -484q-41 -233 -257 -233q-139 0 -236 78l32 45q84 -72 204 -72q84 0 133.5 43.5t66.5 138.5zM278 42q97 0 160 70.5
t63 177.5q0 90 -53 146.5t-143 56.5q-95 0 -157 -67.5t-62 -168.5q0 -96 52 -155.5t140 -59.5zM320 718h52l87 -139h-52l-63 97l-90 -97h-60z" />
    <glyph glyph-name="Gbreve" unicode="&#x11e;" horiz-adv-x="690" 
d="M653 342l-60 -342h-56l7 42q-23 -19 -71.5 -37t-109.5 -18q-143 0 -231 89.5t-88 235.5q0 166 103 280t265 114q94 0 158 -35.5t96 -84.5l-41 -36q-74 104 -213 104q-136 0 -222.5 -96t-86.5 -246q0 -121 72 -197t189 -76q116 0 190 67l32 183h-137l10 53h194zM440 737
q-46 0 -75 22t-37 47t-6 50h47q0 -16 4 -30t21.5 -27.5t45.5 -13.5q38 0 59.5 22t26.5 49h47q-4 -42 -37.5 -80.5t-95.5 -38.5z" />
    <glyph glyph-name="gbreve" unicode="&#x11f;" horiz-adv-x="612" 
d="M460 51l4 23q-26 -32 -73.5 -57.5t-112.5 -25.5q-114 0 -182.5 72.5t-68.5 186.5q0 123 77 208.5t201 85.5q84 0 139.5 -38t78.5 -93l22 122h57l-85 -484q-41 -233 -257 -233q-139 0 -236 78l32 45q84 -72 204 -72q84 0 133.5 43.5t66.5 138.5zM278 42q97 0 160 70.5
t63 177.5q0 90 -53 146.5t-143 56.5q-95 0 -157 -67.5t-62 -168.5q0 -96 52 -155.5t140 -59.5zM328 577q-68 0 -94.5 39t-23.5 84h46q0 -76 72 -76q39 0 60.5 23.5t26.5 52.5h46q-4 -44 -37 -83.5t-96 -39.5z" />
    <glyph glyph-name="Gdotaccent" unicode="&#x120;" horiz-adv-x="690" 
d="M653 342l-60 -342h-56l7 42q-23 -19 -71.5 -37t-109.5 -18q-143 0 -231 89.5t-88 235.5q0 166 103 280t265 114q94 0 158 -35.5t96 -84.5l-41 -36q-74 104 -213 104q-136 0 -222.5 -96t-86.5 -246q0 -121 72 -197t189 -76q116 0 190 67l32 183h-137l10 53h194zM430 752
q-20 0 -33.5 14t-13.5 33t13.5 33t33.5 14t33.5 -14t13.5 -33t-13.5 -33t-33.5 -14z" />
    <glyph glyph-name="gdotaccent" unicode="&#x121;" horiz-adv-x="612" 
d="M460 51l4 23q-26 -32 -73.5 -57.5t-112.5 -25.5q-114 0 -182.5 72.5t-68.5 186.5q0 123 77 208.5t201 85.5q84 0 139.5 -38t78.5 -93l22 122h57l-85 -484q-41 -233 -257 -233q-139 0 -236 78l32 45q84 -72 204 -72q84 0 133.5 43.5t66.5 138.5zM278 42q97 0 160 70.5
t63 177.5q0 90 -53 146.5t-143 56.5q-95 0 -157 -67.5t-62 -168.5q0 -96 52 -155.5t140 -59.5zM340 605q-20 0 -33.5 13.5t-13.5 33.5t13.5 33.5t33.5 13.5t33.5 -13.5t13.5 -33.5t-13.5 -33.5t-33.5 -13.5z" />
    <glyph glyph-name="Gcommaaccent" unicode="&#x122;" horiz-adv-x="690" 
d="M653 342l-60 -342h-56l7 42q-23 -19 -71.5 -37t-109.5 -18q-143 0 -231 89.5t-88 235.5q0 166 103 280t265 114q94 0 158 -35.5t96 -84.5l-41 -36q-74 104 -213 104q-136 0 -222.5 -96t-86.5 -246q0 -121 72 -197t189 -76q116 0 190 67l32 183h-137l10 53h194zM244 -234
l56 96q-38 9 -38 46q0 22 14 35.5t35 13.5q20 0 33.5 -13t13.5 -34q0 -22 -22 -60l-48 -84h-44z" />
    <glyph glyph-name="gcommaaccent" unicode="&#x123;" horiz-adv-x="612" 
d="M460 51l4 23q-26 -32 -73.5 -57.5t-112.5 -25.5q-114 0 -182.5 72.5t-68.5 186.5q0 123 77 208.5t201 85.5q84 0 139.5 -38t78.5 -93l22 122h57l-85 -484q-41 -233 -257 -233q-139 0 -236 78l32 45q84 -72 204 -72q84 0 133.5 43.5t66.5 138.5zM278 42q97 0 160 70.5
t63 177.5q0 90 -53 146.5t-143 56.5q-95 0 -157 -67.5t-62 -168.5q0 -96 52 -155.5t140 -59.5zM396 772l-56 -96q38 -9 38 -46q0 -22 -14 -35.5t-35 -13.5q-20 0 -33.5 13t-13.5 34q0 22 22 60l48 84h44z" />
    <glyph glyph-name="Hcircumflex" unicode="&#x124;" horiz-adv-x="612" 
d="M447 0l59 335h-375l-59 -335h-58l122 692h58l-53 -303h374l54 303h58l-122 -692h-58zM371 856h50l96 -123h-56l-66 83l-88 -83h-64z" />
    <glyph glyph-name="hcircumflex" unicode="&#x125;" horiz-adv-x="459" 
d="M300 0l60 337q12 71 -11.5 112.5t-82.5 41.5q-111 0 -136 -141l-62 -350h-57l129 731h57l-45 -251q15 25 48.5 43t72.5 18q91 0 125 -60t19 -144l-60 -337h-57zM291 890h50l96 -123h-56l-66 83l-88 -83h-64z" />
    <glyph glyph-name="Hbar" unicode="&#x126;" horiz-adv-x="620" 
d="M50 520l9 51h59l22 121h58l-21 -121h374l22 121h58l-22 -121h61l-9 -51h-61l-91 -520h-58l59 335h-375l-59 -335h-58l91 520h-59zM145 389h374l23 131h-374z" />
    <glyph glyph-name="hbar" unicode="&#x127;" horiz-adv-x="463" 
d="M65 603l9 48h56l14 80h57l-15 -80h122l-9 -48h-121l-22 -123q15 25 48.5 43t72.5 18q91 0 125 -60t19 -144l-60 -337h-57l60 337q12 71 -11.5 112.5t-82.5 41.5q-111 0 -136 -141l-62 -350h-57l106 603h-56z" />
    <glyph glyph-name="Itilde" unicode="&#x128;" horiz-adv-x="179" 
d="M194 692l-122 -692h-58l122 692h58zM243 744q-33 0 -70 27t-56 27q-38 0 -43 -52h-45q2 42 25.5 71t62.5 29q32 0 69 -27t57 -27q40 0 43 53h45q-3 -45 -26.5 -73t-61.5 -28z" />
    <glyph glyph-name="itilde" unicode="&#x129;" horiz-adv-x="172" 
d="M162 535l-94 -535h-57l94 535h57zM211 591q-33 0 -70 27t-56 27q-38 0 -43 -52h-45q2 42 25.5 71t62.5 29q32 0 69 -27t57 -27q40 0 43 53h45q-3 -45 -26.5 -73t-61.5 -28z" />
    <glyph glyph-name="Imacron" unicode="&#x12a;" horiz-adv-x="179" 
d="M194 692l-122 -692h-58l122 692h58zM65 758l9 48h221l-9 -48h-221z" />
    <glyph glyph-name="imacron" unicode="&#x12b;" horiz-adv-x="172" 
d="M56 609l9 48h182l-9 -48h-182zM163 535l-94 -535h-57l94 535h57z" />
    <glyph glyph-name="Ibreve" unicode="&#x12c;" horiz-adv-x="179" 
d="M194 692l-122 -692h-58l122 692h58zM181 737q-46 0 -75 22t-37 47t-6 50h47q0 -16 4 -30t21.5 -27.5t45.5 -13.5q38 0 59.5 22t26.5 49h47q-4 -42 -37.5 -80.5t-95.5 -38.5z" />
    <glyph glyph-name="ibreve" unicode="&#x12d;" horiz-adv-x="172" 
d="M162 535l-94 -535h-57l94 535h57zM143 577q-68 0 -94.5 39t-23.5 84h46q0 -76 72 -76q39 0 60.5 23.5t26.5 52.5h46q-4 -44 -37 -83.5t-96 -39.5z" />
    <glyph glyph-name="Iogonek" unicode="&#x12e;" horiz-adv-x="179" 
d="M195 692l-123 -697q-78 -25 -78 -78q0 -21 15.5 -33t40.5 -13l-8 -46q-46 1 -74.5 25.5t-28.5 64.5q0 32 22.5 57t55.5 37l120 683h58z" />
    <glyph glyph-name="iogonek" unicode="&#x12f;" horiz-adv-x="172" 
d="M162 535l-95 -540q-78 -25 -78 -78q0 -21 15.5 -33t40.5 -13l-8 -46q-46 1 -74.5 25.5t-28.5 64.5q0 32 22.5 56t55.5 37l93 527h57zM153 605q-19 0 -32.5 13.5t-13.5 33.5t13.5 33.5t32.5 13.5t32.5 -13.5t13.5 -33.5t-13.5 -33.5t-32.5 -13.5z" />
    <glyph glyph-name="Idotaccent" unicode="&#x130;" horiz-adv-x="179" 
d="M194 692l-122 -692h-58l122 692h58zM183 752q-19 0 -33 14t-14 33t14 33t33 14t33 -14t14 -33t-14 -33t-33 -14z" />
    <glyph glyph-name="dotlessi" unicode="&#x131;" horiz-adv-x="172" 
d="M162 535l-94 -535h-57l94 535h57z" />
    <glyph glyph-name="IJ" unicode="&#x132;" horiz-adv-x="413" 
d="M194 692l-122 -692h-58l122 692h58zM428 692l-101 -572q-12 -67 -38.5 -94t-87.5 -27l-45 1l9 52h36q36 0 48.5 15t19.5 53l101 572h58z" />
    <glyph glyph-name="ij" unicode="&#x133;" horiz-adv-x="344" 
d="M162 535l-94 -535h-57l94 535h57zM153 605q-19 0 -32.5 13.5t-13.5 33.5t13.5 33.5t32.5 13.5t32.5 -13.5t13.5 -33.5t-13.5 -33.5t-32.5 -13.5zM334 535l-98 -559q-14 -80 -49 -115.5t-102 -35.5h-24l9 51h15q47 0 65.5 22.5t28.5 77.5l98 559h57zM325 605
q-19 0 -32.5 13.5t-13.5 33.5t13.5 33.5t32.5 13.5t32.5 -13.5t13.5 -33.5t-13.5 -33.5t-32.5 -13.5z" />
    <glyph glyph-name="Jcircumflex" unicode="&#x134;" horiz-adv-x="234" 
d="M249 692l-101 -572q-12 -67 -38.5 -94t-87.5 -27l-45 1l9 52h36q36 0 48.5 15t19.5 53l101 572h58zM208 856h50l96 -123h-56l-66 83l-88 -83h-64z" />
    <glyph glyph-name="jcircumflex" unicode="&#x135;" horiz-adv-x="172" 
d="M127 718h52l75 -139h-49l-54 98l-81 -98h-55zM162 535l-98 -559q-14 -80 -49 -115.5t-102 -35.5h-24l9 51h15q47 0 65.5 22.5t28.5 77.5l98 559h57z" />
    <glyph glyph-name="Kcommaaccent" unicode="&#x136;" horiz-adv-x="480" 
d="M194 692l-55 -309l335 309h72l-356 -330l249 -362h-65l-241 345l-61 -345h-58l122 692h58zM135 -234l56 96q-38 9 -38 46q0 22 14 35.5t35 13.5q20 0 33.5 -13t13.5 -34q0 -22 -22 -60l-48 -84h-44z" />
    <glyph glyph-name="kcommaaccent" unicode="&#x137;" horiz-adv-x="423" 
d="M197 731l-75 -422l261 226h74l-283 -246l199 -289h-64l-193 275l-48 -275h-57l129 731h57zM103 -234l56 96q-38 9 -38 46q0 22 14 35.5t35 13.5q20 0 33.5 -13t13.5 -34q0 -22 -22 -60l-48 -84h-44z" />
    <glyph glyph-name="Lacute" unicode="&#x139;" horiz-adv-x="363" 
d="M294 0h-280l122 692h58l-113 -639h222zM233 856h60l-90 -123h-59z" />
    <glyph glyph-name="lacute" unicode="&#x13a;" horiz-adv-x="172" 
d="M197 731l-129 -731h-57l129 731h57zM236 891h60l-90 -123h-59z" />
    <glyph glyph-name="Lcommaaccent" unicode="&#x13b;" horiz-adv-x="363" 
d="M294 0h-280l122 692h58l-113 -639h222zM78 -234l56 96q-38 9 -38 46q0 22 14 35.5t35 13.5q20 0 33.5 -13t13.5 -34q0 -22 -22 -60l-48 -84h-44z" />
    <glyph glyph-name="lcommaaccent" unicode="&#x13c;" horiz-adv-x="172" 
d="M197 731l-129 -731h-57l129 731h57zM-41 -234l56 96q-38 9 -38 46q0 22 14 35.5t35 13.5q20 0 33.5 -13t13.5 -34q0 -22 -22 -60l-48 -84h-44z" />
    <glyph glyph-name="Lcaron" unicode="&#x13d;" horiz-adv-x="363" 
d="M294 0h-280l122 692h58l-113 -639h222zM254 692h51l-42 -149h-51z" />
    <glyph glyph-name="lcaron" unicode="&#x13e;" horiz-adv-x="172" 
d="M197 731l-129 -731h-57l129 731h57zM257 731h51l-42 -149h-51z" />
    <glyph glyph-name="Ldot" unicode="&#x13f;" horiz-adv-x="363" 
d="M286 305q-20 0 -34.5 14t-14.5 35t14.5 35t34.5 14t34.5 -14t14.5 -35t-14.5 -35t-34.5 -14zM294 0h-280l122 692h58l-113 -639h222z" />
    <glyph glyph-name="ldot" unicode="&#x140;" horiz-adv-x="236" 
d="M173 354q0 19 13 32t32 13t32 -13t13 -32t-13 -32t-32 -13t-32 13t-13 32zM197 731l-129 -731h-57l129 731h57z" />
    <glyph glyph-name="Lslash" unicode="&#x141;" horiz-adv-x="382" 
d="M313 0h-280l40 226l-69 -41l11 60l68 41l72 406h58l-65 -367l152 92l-10 -62l-153 -91l-37 -211h222z" />
    <glyph glyph-name="lslash" unicode="&#x142;" horiz-adv-x="182" 
d="M202 731l-42 -239l61 43l-11 -65l-62 -42l-75 -428h-57l67 383l-60 -41l11 62l60 42l51 285h57z" />
    <glyph glyph-name="Nacute" unicode="&#x143;" horiz-adv-x="628" 
d="M467 0l-293 594l-105 -594h-55l122 692h54l292 -600l106 600h55l-122 -692h-54zM441 856h60l-90 -123h-59z" />
    <glyph glyph-name="nacute" unicode="&#x144;" horiz-adv-x="459" 
d="M300 0l60 337q12 71 -11.5 112.5t-82.5 41.5q-111 0 -136 -141l-62 -350h-57l94 535h57l-10 -55q15 25 48.5 43t72.5 18q91 0 125 -60t19 -144l-60 -337h-57zM338 717h58l-96 -132h-58z" />
    <glyph glyph-name="Ncommaaccent" unicode="&#x145;" horiz-adv-x="628" 
d="M467 0l-293 594l-105 -594h-55l122 692h54l292 -600l106 600h55l-122 -692h-54zM188 -234l56 96q-38 9 -38 46q0 22 14 35.5t35 13.5q20 0 33.5 -13t13.5 -34q0 -22 -22 -60l-48 -84h-44z" />
    <glyph glyph-name="ncommaaccent" unicode="&#x146;" horiz-adv-x="459" 
d="M300 0l60 337q12 71 -11.5 112.5t-82.5 41.5q-111 0 -136 -141l-62 -350h-57l94 535h57l-10 -55q15 25 48.5 43t72.5 18q91 0 125 -60t19 -144l-60 -337h-57zM106 -234l56 96q-38 9 -38 46q0 22 14 35.5t35 13.5q20 0 33.5 -13t13.5 -34q0 -22 -22 -60l-48 -84h-44z" />
    <glyph glyph-name="Ncaron" unicode="&#x147;" horiz-adv-x="628" 
d="M467 0l-293 594l-105 -594h-55l122 692h54l292 -600l106 600h55l-122 -692h-54zM420 733h-49l-92 123h56l63 -86l93 86h60z" />
    <glyph glyph-name="ncaron" unicode="&#x148;" horiz-adv-x="459" 
d="M300 0l60 337q12 71 -11.5 112.5t-82.5 41.5q-111 0 -136 -141l-62 -350h-57l94 535h57l-10 -55q15 25 48.5 43t72.5 18q91 0 125 -60t19 -144l-60 -337h-57zM305 584h-51l-86 139h53l62 -99l94 99h58z" />
    <glyph glyph-name="napostrophe" unicode="&#x149;" horiz-adv-x="512" 
d="M353 0l60 337q12 71 -11.5 112.5t-82.5 41.5q-111 0 -136 -141l-62 -350h-57l94 535h57l-10 -55q15 25 48.5 43t72.5 18q91 0 125 -60t19 -144l-60 -337h-57zM34 503l60 101q-38 9 -38 45q0 21 13.5 35t34.5 14q20 0 33.5 -13t13.5 -34q0 -23 -22 -60l-51 -88h-44z" />
    <glyph glyph-name="Eng" unicode="&#x14a;" horiz-adv-x="628" 
d="M456 -55l10 57l-292 592l-105 -594h-55l122 692h54l292 -600l106 600h55l-122 -692l-10 -55q-12 -68 -38.5 -94.5t-84.5 -26.5l-48 1l9 52h39q34 0 48 15.5t20 52.5z" />
    <glyph glyph-name="eng" unicode="&#x14b;" horiz-adv-x="459" 
d="M417 337l-65 -363q-14 -79 -49 -114t-102 -35h-24l9 51h15q47 0 65.5 22t28.5 76l65 363q12 71 -11.5 112.5t-82.5 41.5q-111 0 -136 -141l-62 -350h-57l94 535h57l-10 -55q15 25 48.5 43t72.5 18q62 0 99 -31.5t46 -75.5t-1 -97z" />
    <glyph glyph-name="Omacron" unicode="&#x14c;" horiz-adv-x="745" 
d="M44 316q0 159 102.5 274.5t264.5 115.5q143 0 232 -92.5t89 -238.5q0 -168 -105 -278t-264 -110q-141 0 -230 91.5t-89 237.5zM411 654q-136 0 -222 -98t-86 -240q0 -121 72.5 -199t187.5 -78q133 0 221.5 93.5t88.5 242.5q0 124 -72 201.5t-190 77.5zM324 758l9 48h221
l-9 -48h-221z" />
    <glyph glyph-name="omacron" unicode="&#x14d;" horiz-adv-x="593" 
d="M310 493q-99 0 -161.5 -70t-62.5 -178q0 -89 54.5 -146t140.5 -57q99 0 162.5 68.5t63.5 171.5q0 93 -54.5 152t-142.5 59zM27 245q0 126 80 212.5t203 86.5q114 0 185 -72.5t71 -189.5q0 -121 -80.5 -206t-204.5 -85q-112 0 -183 70t-71 184zM221 609l9 48h215l-9 -48
h-215z" />
    <glyph glyph-name="Obreve" unicode="&#x14e;" horiz-adv-x="745" 
d="M44 316q0 159 102.5 274.5t264.5 115.5q143 0 232 -92.5t89 -238.5q0 -168 -105 -278t-264 -110q-141 0 -230 91.5t-89 237.5zM411 654q-136 0 -222 -98t-86 -240q0 -121 72.5 -199t187.5 -78q133 0 221.5 93.5t88.5 242.5q0 124 -72 201.5t-190 77.5zM432 737
q-46 0 -75 22t-37 47t-6 50h47q0 -16 4 -30t21.5 -27.5t45.5 -13.5q38 0 59.5 22t26.5 49h47q-4 -42 -37.5 -80.5t-95.5 -38.5z" />
    <glyph glyph-name="obreve" unicode="&#x14f;" horiz-adv-x="593" 
d="M310 493q-99 0 -161.5 -70t-62.5 -178q0 -89 54.5 -146t140.5 -57q99 0 162.5 68.5t63.5 171.5q0 93 -54.5 152t-142.5 59zM27 245q0 126 80 212.5t203 86.5q114 0 185 -72.5t71 -189.5q0 -121 -80.5 -206t-204.5 -85q-112 0 -183 70t-71 184zM327 577q-68 0 -94.5 39
t-23.5 84h46q0 -76 72 -76q39 0 60.5 23.5t26.5 52.5h46q-4 -44 -37 -83.5t-96 -39.5z" />
    <glyph glyph-name="Ohungarumlaut" unicode="&#x150;" horiz-adv-x="745" 
d="M44 316q0 159 102.5 274.5t264.5 115.5q143 0 232 -92.5t89 -238.5q0 -168 -105 -278t-264 -110q-141 0 -230 91.5t-89 237.5zM411 654q-136 0 -222 -98t-86 -240q0 -121 72.5 -199t187.5 -78q133 0 221.5 93.5t88.5 242.5q0 124 -72 201.5t-190 77.5zM400 856h54
l-75 -123h-56zM529 856h54l-75 -123h-56z" />
    <glyph glyph-name="ohungarumlaut" unicode="&#x151;" horiz-adv-x="593" 
d="M310 493q-99 0 -161.5 -70t-62.5 -178q0 -89 54.5 -146t140.5 -57q99 0 162.5 68.5t63.5 171.5q0 93 -54.5 152t-142.5 59zM27 245q0 126 80 212.5t203 86.5q114 0 185 -72.5t71 -189.5q0 -121 -80.5 -206t-204.5 -85q-112 0 -183 70t-71 184zM313 717h53l-80 -132h-55z
M442 717h53l-80 -132h-55z" />
    <glyph glyph-name="OE" unicode="&#x152;" horiz-adv-x="692" 
d="M611 0h-273q-138 0 -216 86.5t-78 217.5q0 175 108 281.5t282 106.5h295l-10 -53h-219l-45 -254h214l-10 -53h-214l-49 -279h225zM338 52l104 588h-6q-151 0 -241 -89.5t-90 -245.5q0 -111 60.5 -181.5t172.5 -71.5z" />
    <glyph glyph-name="oe" unicode="&#x153;" horiz-adv-x="1039" 
d="M27 245q0 126 80 212.5t203 86.5q81 0 142.5 -39.5t90.5 -108.5q35 68 96.5 108t135.5 40q116 0 182.5 -67t64.5 -181q0 -21 -3 -45h-454v-9q0 -92 51 -146t138 -54q137 0 208 126l42 -22q-36 -73 -99.5 -114t-150.5 -41q-81 0 -140.5 38t-86.5 106q-36 -66 -100 -105
t-146 -39q-112 0 -183 70t-71 184zM310 493q-99 0 -161.5 -70t-62.5 -178q0 -89 54.5 -146t140.5 -57q99 0 162.5 68.5t63.5 171.5q0 93 -54.5 152t-142.5 59zM776 493q-79 0 -135.5 -51.5t-71.5 -140.5h395q2 88 -47 140t-141 52z" />
    <glyph glyph-name="Racute" unicode="&#x154;" horiz-adv-x="449" 
d="M439 534q0 -78 -41 -128.5t-112 -67.5l120 -338h-58l-118 332h-100l-58 -332h-58l122 692h130q83 0 128 -42.5t45 -115.5zM268 640h-83l-45 -257h81q73 0 115.5 38.5t42.5 112.5q0 47 -29 76.5t-82 29.5zM332 856h60l-90 -123h-59z" />
    <glyph glyph-name="racute" unicode="&#x155;" horiz-adv-x="262" 
d="M290 535l-10 -57h-14q-65 0 -95.5 -33.5t-42.5 -102.5l-60 -342h-57l94 535h57l-11 -64q41 69 139 64zM256 717h58l-96 -132h-58z" />
    <glyph glyph-name="Rcommaaccent" unicode="&#x156;" horiz-adv-x="449" 
d="M439 534q0 -78 -41 -128.5t-112 -67.5l120 -338h-58l-118 332h-100l-58 -332h-58l122 692h130q83 0 128 -42.5t45 -115.5zM268 640h-83l-45 -257h81q73 0 115.5 38.5t42.5 112.5q0 47 -29 76.5t-82 29.5zM118 -234l56 96q-38 9 -38 46q0 22 14 35.5t35 13.5
q20 0 33.5 -13t13.5 -34q0 -22 -22 -60l-48 -84h-44z" />
    <glyph glyph-name="rcommaaccent" unicode="&#x157;" horiz-adv-x="262" 
d="M290 535l-10 -57h-14q-65 0 -95.5 -33.5t-42.5 -102.5l-60 -342h-57l94 535h57l-11 -64q41 69 139 64zM-39 -234l56 96q-38 9 -38 46q0 22 14 35.5t35 13.5q20 0 33.5 -13t13.5 -34q0 -22 -22 -60l-48 -84h-44z" />
    <glyph glyph-name="Rcaron" unicode="&#x158;" horiz-adv-x="449" 
d="M439 534q0 -78 -41 -128.5t-112 -67.5l120 -338h-58l-118 332h-100l-58 -332h-58l122 692h130q83 0 128 -42.5t45 -115.5zM268 640h-83l-45 -257h81q73 0 115.5 38.5t42.5 112.5q0 47 -29 76.5t-82 29.5zM302 733h-49l-92 123h56l63 -86l93 86h60z" />
    <glyph glyph-name="rcaron" unicode="&#x159;" horiz-adv-x="262" 
d="M290 535l-10 -57h-14q-65 0 -95.5 -33.5t-42.5 -102.5l-60 -342h-57l94 535h57l-11 -64q41 69 139 64zM229 584h-51l-86 139h53l62 -99l94 99h58z" />
    <glyph glyph-name="Sacute" unicode="&#x15a;" horiz-adv-x="460" 
d="M282 655q-64 0 -98 -34t-34 -92q0 -47 27.5 -77t84.5 -63q80 -46 115 -89t35 -116q0 -83 -55 -139.5t-150 -56.5q-99 0 -150 57.5t-44 155.5h57q-4 -73 29.5 -117t107.5 -44q62 0 103.5 36t41.5 108q0 50 -26 83t-92 70q-73 41 -107.5 82.5t-34.5 108.5q0 75 50.5 126
t139.5 51q85 0 130 -51.5t40 -131.5h-53q1 57 -29.5 95t-87.5 38zM329 856h60l-90 -123h-59z" />
    <glyph glyph-name="sacute" unicode="&#x15b;" horiz-adv-x="379" 
d="M212 493q-43 0 -69 -21.5t-26 -62.5q0 -32 18.5 -53.5t68.5 -48.5q68 -37 96.5 -71.5t28.5 -93.5q0 -70 -50 -109t-116 -39q-85 0 -126 45.5t-36 123.5h55q-4 -54 23 -87.5t84 -33.5q45 0 76.5 25.5t31.5 74.5q0 39 -23.5 63.5t-76.5 52.5q-61 33 -86 66.5t-25 84.5
q0 58 43 95t111 37q71 0 110 -43t32 -112h-54q2 47 -19.5 77t-70.5 30zM284 717h58l-96 -132h-58z" />
    <glyph glyph-name="Scircumflex" unicode="&#x15c;" horiz-adv-x="460" 
d="M282 655q-64 0 -98 -34t-34 -92q0 -47 27.5 -77t84.5 -63q80 -46 115 -89t35 -116q0 -83 -55 -139.5t-150 -56.5q-99 0 -150 57.5t-44 155.5h57q-4 -73 29.5 -117t107.5 -44q62 0 103.5 36t41.5 108q0 50 -26 83t-92 70q-73 41 -107.5 82.5t-34.5 108.5q0 75 50.5 126
t139.5 51q85 0 130 -51.5t40 -131.5h-53q1 57 -29.5 95t-87.5 38zM270 856h50l96 -123h-56l-66 83l-88 -83h-64z" />
    <glyph glyph-name="scircumflex" unicode="&#x15d;" horiz-adv-x="379" 
d="M212 493q-43 0 -69 -21.5t-26 -62.5q0 -32 18.5 -53.5t68.5 -48.5q68 -37 96.5 -71.5t28.5 -93.5q0 -70 -50 -109t-116 -39q-85 0 -126 45.5t-36 123.5h55q-4 -54 23 -87.5t84 -33.5q45 0 76.5 25.5t31.5 74.5q0 39 -23.5 63.5t-76.5 52.5q-61 33 -86 66.5t-25 84.5
q0 58 43 95t111 37q71 0 110 -43t32 -112h-54q2 47 -19.5 77t-70.5 30zM221 718h52l87 -139h-52l-63 97l-90 -97h-60z" />
    <glyph glyph-name="Scedilla" unicode="&#x15e;" horiz-adv-x="460" 
d="M99 -86l16 91q-54 23 -80.5 74t-21.5 122h57q-4 -73 29.5 -117t107.5 -44q62 0 103.5 36t41.5 108q0 50 -26 83t-92 70q-73 41 -107.5 82.5t-34.5 108.5q0 75 50.5 126t139.5 51q85 0 130 -51.5t40 -131.5h-53q1 57 -29.5 95t-87.5 38q-64 0 -98 -34t-34 -92
q0 -47 27.5 -77t84.5 -63q80 -46 115 -89t35 -116q0 -83 -55 -139.5t-150 -56.5q-26 0 -51 5l-6 -37q75 -17 75 -92q0 -53 -38 -81t-98 -28h-19l8 46h11q86 0 86 63q0 24 -17 37t-45 13h-14z" />
    <glyph glyph-name="scedilla" unicode="&#x15f;" horiz-adv-x="379" 
d="M65 -86l17 94q-87 37 -81 155h55q-4 -54 23 -87.5t84 -33.5q45 0 76.5 25.5t31.5 74.5q0 39 -23.5 63.5t-76.5 52.5q-61 33 -86 66.5t-25 84.5q0 58 43 95t111 37q71 0 110 -43t32 -112h-54q2 47 -19.5 77t-70.5 30q-43 0 -69 -21.5t-26 -62.5q0 -32 18.5 -53.5
t68.5 -48.5q68 -37 96.5 -71.5t28.5 -93.5q0 -70 -50 -109t-116 -39q-22 0 -40 3l-7 -41q75 -17 75 -92q0 -53 -38 -81t-98 -28h-19l8 46h11q86 0 86 63q0 24 -17 37t-45 13h-14z" />
    <glyph glyph-name="Scaron" unicode="&#x160;" horiz-adv-x="460" 
d="M282 655q-64 0 -98 -34t-34 -92q0 -47 27.5 -77t84.5 -63q80 -46 115 -89t35 -116q0 -83 -55 -139.5t-150 -56.5q-99 0 -150 57.5t-44 155.5h57q-4 -73 29.5 -117t107.5 -44q62 0 103.5 36t41.5 108q0 50 -26 83t-92 70q-73 41 -107.5 82.5t-34.5 108.5q0 75 50.5 126
t139.5 51q85 0 130 -51.5t40 -131.5h-53q1 57 -29.5 95t-87.5 38zM316 733h-49l-92 123h56l63 -86l93 86h60z" />
    <glyph glyph-name="scaron" unicode="&#x161;" horiz-adv-x="379" 
d="M212 493q-43 0 -69 -21.5t-26 -62.5q0 -32 18.5 -53.5t68.5 -48.5q68 -37 96.5 -71.5t28.5 -93.5q0 -70 -50 -109t-116 -39q-85 0 -126 45.5t-36 123.5h55q-4 -54 23 -87.5t84 -33.5q45 0 76.5 25.5t31.5 74.5q0 39 -23.5 63.5t-76.5 52.5q-61 33 -86 66.5t-25 84.5
q0 58 43 95t111 37q71 0 110 -43t32 -112h-54q2 47 -19.5 77t-70.5 30zM258 584h-51l-86 139h53l62 -99l94 99h58z" />
    <glyph glyph-name="Tcommaaccent" unicode="&#x162;" horiz-adv-x="408" 
d="M452 638h-153l-113 -638h-58l113 638h-154l10 54h365zM77 -234l56 96q-38 9 -38 46q0 22 14 35.5t35 13.5q20 0 33.5 -13t13.5 -34q0 -22 -22 -60l-48 -84h-44z" />
    <glyph glyph-name="tcommaaccent" unicode="&#x163;" horiz-adv-x="251" 
d="M185 616l-14 -81h111l-9 -51h-111l-61 -348q-8 -43 1.5 -65t50.5 -22h44l-9 -51q-14 -2 -37 -2q-132 0 -107 139l61 349h-57l9 51h57l14 81h57zM30 -234l56 96q-38 9 -38 46q0 22 14 35.5t35 13.5q20 0 33.5 -13t13.5 -34q0 -22 -22 -60l-48 -84h-44z" />
    <glyph glyph-name="Tcaron" unicode="&#x164;" horiz-adv-x="408" 
d="M452 638h-153l-113 -638h-58l113 638h-154l10 54h365zM308 733h-49l-92 123h56l63 -86l93 86h60z" />
    <glyph glyph-name="tcaron" unicode="&#x165;" horiz-adv-x="251" 
d="M185 616l-14 -81h111l-9 -51h-111l-61 -348q-8 -43 1.5 -65t50.5 -22h44l-9 -51q-14 -2 -37 -2q-132 0 -107 139l61 349h-57l9 51h57l14 81h57zM268 731h51l-42 -149h-51z" />
    <glyph glyph-name="Tbar" unicode="&#x166;" horiz-adv-x="408" 
d="M452 638h-153l-38 -214h108l-9 -51h-108l-66 -373h-58l66 373h-107l9 51h107l38 214h-154l10 54h365z" />
    <glyph glyph-name="tbar" unicode="&#x167;" horiz-adv-x="251" 
d="M185 616l-14 -81h111l-9 -51h-111l-31 -178h111l-8 -48h-112l-21 -122q-8 -43 1.5 -65t50.5 -22h44l-9 -51q-14 -2 -37 -2q-132 0 -107 139l21 123h-56l8 48h57l31 178h-57l9 51h57l14 81h57z" />
    <glyph glyph-name="Utilde" unicode="&#x168;" horiz-adv-x="601" 
d="M189 692l-77 -435q-18 -102 26.5 -159.5t138.5 -57.5q172 0 210 215l77 437h57l-77 -440q-46 -265 -267 -265q-125 0 -184.5 75.5t-38.5 191.5l77 438h58zM452 748q-33 0 -70 27t-56 27q-38 0 -43 -52h-45q2 42 25.5 71t62.5 29q32 0 69 -27t57 -27q40 0 43 53h45
q-3 -45 -26.5 -73t-61.5 -28z" />
    <glyph glyph-name="utilde" unicode="&#x169;" horiz-adv-x="455" 
d="M159 535l-59 -337q-12 -71 10 -112.5t80 -41.5q111 0 137 143l61 348h57l-94 -535h-57l10 55q-15 -26 -48 -43.5t-73 -17.5q-47 0 -79.5 18t-46 47t-18 65.5t3.5 73.5l59 337h57zM351 591q-33 0 -70 27t-56 27q-38 0 -43 -52h-45q2 42 25.5 71t62.5 29q32 0 69 -27
t57 -27q40 0 43 53h45q-3 -45 -26.5 -73t-61.5 -28z" />
    <glyph glyph-name="Umacron" unicode="&#x16a;" horiz-adv-x="601" 
d="M189 692l-77 -435q-18 -102 26.5 -159.5t138.5 -57.5q172 0 210 215l77 437h57l-77 -440q-46 -265 -267 -265q-125 0 -184.5 75.5t-38.5 191.5l77 438h58zM273 766l9 48h215l-9 -48h-215z" />
    <glyph glyph-name="umacron" unicode="&#x16b;" horiz-adv-x="455" 
d="M159 535l-59 -337q-12 -71 10 -112.5t80 -41.5q111 0 137 143l61 348h57l-94 -535h-57l10 55q-15 -26 -48 -43.5t-73 -17.5q-47 0 -79.5 18t-46 47t-18 65.5t3.5 73.5l59 337h57zM176 609l9 48h215l-9 -48h-215z" />
    <glyph glyph-name="Ubreve" unicode="&#x16c;" horiz-adv-x="601" 
d="M189 692l-77 -435q-18 -102 26.5 -159.5t138.5 -57.5q172 0 210 215l77 437h57l-77 -440q-46 -265 -267 -265q-125 0 -184.5 75.5t-38.5 191.5l77 438h58zM382 737q-46 0 -75 22t-37 47t-6 50h47q0 -16 4 -30t21.5 -27.5t45.5 -13.5q38 0 59.5 22t26.5 49h47
q-4 -42 -37.5 -80.5t-95.5 -38.5z" />
    <glyph glyph-name="ubreve" unicode="&#x16d;" horiz-adv-x="455" 
d="M159 535l-59 -337q-12 -71 10 -112.5t80 -41.5q111 0 137 143l61 348h57l-94 -535h-57l10 55q-15 -26 -48 -43.5t-73 -17.5q-47 0 -79.5 18t-46 47t-18 65.5t3.5 73.5l59 337h57zM280 577q-68 0 -94.5 39t-23.5 84h46q0 -76 72 -76q39 0 60.5 23.5t26.5 52.5h46
q-4 -44 -37 -83.5t-96 -39.5z" />
    <glyph glyph-name="Uring" unicode="&#x16e;" horiz-adv-x="601" 
d="M189 692l-77 -435q-18 -102 26.5 -159.5t138.5 -57.5q172 0 210 215l77 437h57l-77 -440q-46 -265 -267 -265q-125 0 -184.5 75.5t-38.5 191.5l77 438h58zM289 811q0 40 27.5 69.5t71.5 29.5q42 0 67 -24t25 -63q0 -42 -27 -70.5t-73 -28.5q-40 0 -65.5 24t-25.5 63z
M331 811q0 -21 13.5 -35t35.5 -14q26 0 42 16t16 45q0 21 -13.5 35t-36.5 14q-26 0 -41.5 -17.5t-15.5 -43.5z" />
    <glyph glyph-name="uring" unicode="&#x16f;" horiz-adv-x="455" 
d="M159 535l-59 -337q-12 -71 10 -112.5t80 -41.5q111 0 137 143l61 348h57l-94 -535h-57l10 55q-15 -26 -48 -43.5t-73 -17.5q-47 0 -79.5 18t-46 47t-18 65.5t3.5 73.5l59 337h57zM193 654q0 40 27.5 69.5t71.5 29.5q42 0 67 -24t25 -63q0 -42 -27 -70.5t-73 -28.5
q-40 0 -65.5 24t-25.5 63zM235 654q0 -21 13.5 -35t35.5 -14q26 0 42 16.5t16 44.5q0 21 -13.5 35t-36.5 14q-26 0 -41.5 -17.5t-15.5 -43.5z" />
    <glyph glyph-name="Uhungarumlaut" unicode="&#x170;" horiz-adv-x="601" 
d="M189 692l-77 -435q-18 -102 26.5 -159.5t138.5 -57.5q172 0 210 215l77 437h57l-77 -440q-46 -265 -267 -265q-125 0 -184.5 75.5t-38.5 191.5l77 438h58zM351 855h54l-75 -123h-56zM480 855h54l-75 -123h-56z" />
    <glyph glyph-name="uhungarumlaut" unicode="&#x171;" horiz-adv-x="455" 
d="M159 535l-59 -337q-12 -71 10 -112.5t80 -41.5q111 0 137 143l61 348h57l-94 -535h-57l10 55q-15 -26 -48 -43.5t-73 -17.5q-47 0 -79.5 18t-46 47t-18 65.5t3.5 73.5l59 337h57zM259 717h53l-80 -132h-55zM388 717h53l-80 -132h-55z" />
    <glyph glyph-name="Uogonek" unicode="&#x172;" horiz-adv-x="601" 
d="M190 692l-77 -435q-18 -102 26.5 -159.5t138.5 -57.5q172 0 210 215l77 437h57l-77 -440q-38 -224 -212 -263q-80 -18 -80 -72q0 -21 15.5 -33t40.5 -13l-8 -46q-46 1 -74.5 25.5t-28.5 64.5q0 46 46 74q-108 11 -158 84.5t-31 180.5l77 438h58z" />
    <glyph glyph-name="uogonek" unicode="&#x173;" horiz-adv-x="455" 
d="M159 535l-59 -337q-12 -71 10 -112.5t80 -41.5q111 0 137 143l61 348h57l-95 -540q-77 -25 -77 -78q0 -21 15.5 -33t40.5 -13l-8 -46q-46 1 -74.5 25.5t-28.5 64.5q0 59 77 89l9 51q-15 -26 -48 -43.5t-73 -17.5q-47 0 -79.5 18t-46 47t-18 65.5t3.5 73.5l59 337h57z" />
    <glyph glyph-name="Wcircumflex" unicode="&#x174;" horiz-adv-x="938" 
d="M624 0l-98 614l-281 -614h-60l-111 692h57l97 -611l276 611h65l96 -612l284 612h57l-323 -692h-59zM520 856h50l96 -123h-56l-66 83l-88 -83h-64z" />
    <glyph glyph-name="wcircumflex" unicode="&#x175;" horiz-adv-x="826" 
d="M487 535l85 -464l236 464h58l-275 -535h-60l-87 459l-235 -459h-61l-101 535h59l84 -464l234 464h63zM443 717h52l87 -139h-52l-63 97l-90 -97h-60z" />
    <glyph glyph-name="Ycircumflex" unicode="&#x176;" horiz-adv-x="424" 
d="M198 363l-134 329h61l110 -270l202 270h68l-249 -329l-65 -363h-58zM273 856h50l96 -123h-56l-66 83l-88 -83h-64z" />
    <glyph glyph-name="ycircumflex" unicode="&#x177;" horiz-adv-x="487" 
d="M45 535h59l111 -462l255 462h62l-396 -710h-58l98 178zM281 718h52l87 -139h-52l-63 97l-90 -97h-60z" />
    <glyph glyph-name="Ydieresis" unicode="&#x178;" horiz-adv-x="424" 
d="M198 363l-134 329h61l110 -270l202 270h68l-249 -329l-65 -363h-58zM207 749q-19 0 -32.5 13.5t-13.5 32.5t13.5 32.5t32.5 13.5q18 0 32 -13.5t14 -32.5t-14 -32.5t-32 -13.5zM381 749q-19 0 -32.5 13.5t-13.5 32.5t13.5 32.5t32.5 13.5q18 0 32 -13.5t14 -32.5
t-14 -32.5t-32 -13.5z" />
    <glyph glyph-name="Zacute" unicode="&#x179;" horiz-adv-x="576" 
d="M507 0h-524l9 53l544 585h-435l10 54h515l-10 -53l-551 -585h450zM414 856h60l-90 -123h-59z" />
    <glyph glyph-name="zacute" unicode="&#x17a;" horiz-adv-x="445" 
d="M461 485l-401 -435h325l-9 -50h-391l9 50l393 435h-314l9 50h388zM326 717h58l-96 -132h-58z" />
    <glyph glyph-name="Zdotaccent" unicode="&#x17b;" horiz-adv-x="576" 
d="M507 0h-524l9 53l544 585h-435l10 54h515l-10 -53l-551 -585h450zM363 752q-19 0 -33 14t-14 33t14 33t33 14t33 -14t14 -33t-14 -33t-33 -14z" />
    <glyph glyph-name="zdotaccent" unicode="&#x17c;" horiz-adv-x="445" 
d="M461 485l-401 -435h325l-9 -50h-391l9 50l393 435h-314l9 50h388zM277 605q-19 0 -33 13.5t-14 33.5t14 33.5t33 13.5t33 -13.5t14 -33.5t-14 -33.5t-33 -13.5z" />
    <glyph glyph-name="Zcaron" unicode="&#x17d;" horiz-adv-x="576" 
d="M507 0h-524l9 53l544 585h-435l10 54h515l-10 -53l-551 -585h450zM397 733h-49l-92 123h56l63 -86l93 86h60z" />
    <glyph glyph-name="zcaron" unicode="&#x17e;" horiz-adv-x="445" 
d="M461 485l-401 -435h325l-9 -50h-391l9 50l393 435h-314l9 50h388zM304 584h-51l-86 139h53l62 -99l94 99h58z" />
    <glyph glyph-name="florin" unicode="&#x192;" horiz-adv-x="278" 
d="M256 353h-100l-130 -528h-55l128 528h-60l13 51h59l36 149q18 75 53.5 107t101.5 32h38l-13 -51h-30q-43 0 -62.5 -21.5t-30.5 -67.5l-36 -148h101z" />
    <glyph glyph-name="Aringacute" unicode="&#x1fa;" horiz-adv-x="609" 
d="M507 0l-63 264h-276l-143 -264h-61l377 692h59l164 -692h-57zM360 617l-164 -301h235zM280 811q0 40 27.5 69.5t71.5 29.5q42 0 67 -24t25 -63q0 -42 -27 -70.5t-73 -28.5q-40 0 -65.5 24t-25.5 63zM322 811q0 -21 13.5 -35t35.5 -14q25 0 41.5 16t16.5 45q0 21 -13.5 35
t-36.5 14q-26 0 -41.5 -17.5t-15.5 -43.5zM450 1061h60l-90 -123h-59z" />
    <glyph glyph-name="aringacute" unicode="&#x1fb;" horiz-adv-x="446" 
d="M360 909h59l-90 -123h-58zM17 150q0 80 51.5 134t135.5 54q46 0 81 -19t50 -48l14 79q11 66 -15.5 104.5t-85.5 38.5q-55 0 -82 -28.5t-37 -78.5h-54q9 68 52 111.5t120 43.5q96 0 134 -56t24 -138l-61 -347h-52l7 44q-16 -23 -48 -38t-67 -15q-72 0 -119.5 44t-47.5 115
zM204 290q-59 0 -95 -39t-36 -101q0 -48 31 -79.5t83 -31.5q54 0 93 38.5t39 98.5q0 51 -31.5 82.5t-83.5 31.5zM192 654q0 40 27.5 69.5t71.5 29.5q42 0 67 -24t25 -63q0 -42 -27 -70.5t-73 -28.5q-40 0 -65.5 24t-25.5 63zM234 654q0 -21 13.5 -35t35.5 -14
q25 0 41.5 16.5t16.5 44.5q0 21 -13.5 35t-36.5 14q-26 0 -41.5 -17.5t-15.5 -43.5z" />
    <glyph glyph-name="AEacute" unicode="&#x1fc;" horiz-adv-x="760" 
d="M679 0h-282l40 230h-235l-176 -230h-64l528 692h307l-10 -53h-219l-45 -254h214l-10 -53h-214l-49 -279h225zM242 283h205l61 346zM690 856h60l-90 -123h-59z" />
    <glyph glyph-name="aeacute" unicode="&#x1fd;" horiz-adv-x="846" 
d="M187 -9q-73 0 -121.5 44t-48.5 115q0 80 51.5 134t135.5 54q78 0 119 -48l10 61q11 66 -13 104t-80 38q-92 0 -113 -107h-54q9 68 50 111.5t116 43.5q63 0 98.5 -28t44.5 -70q35 47 87.5 74t112.5 27q115 0 181.5 -66t65.5 -179q0 -24 -3 -48h-455v-9q0 -92 51 -146
t139 -54q137 0 208 126l42 -22q-36 -73 -99.5 -114t-150.5 -41q-71 0 -125 29t-84 80q-20 -48 -61.5 -78.5t-103.5 -30.5zM583 493q-79 0 -135.5 -51.5t-72.5 -140.5h396q2 88 -47 140t-141 52zM205 290q-59 0 -95 -39t-36 -101q0 -48 31.5 -79.5t82.5 -31.5q56 0 94 38
t38 99q0 51 -31.5 82.5t-83.5 31.5zM473 717h58l-96 -132h-58z" />
    <glyph glyph-name="Oslashacute" unicode="&#x1fe;" horiz-adv-x="745" 
d="M691 680l37 -39l-66 -62q60 -85 60 -204q0 -168 -105 -278t-264 -110q-139 0 -228 89l-67 -63l-35 37l69 65q-58 85 -58 201q0 159 101.5 274.5t265.5 115.5q138 0 226 -86zM663 375q0 93 -44 164l-452 -424q73 -76 186 -76q133 0 221.5 93.5t88.5 242.5zM401 654
q-136 0 -222 -98.5t-86 -239.5q0 -92 42 -160l451 425q-71 73 -185 73zM459 856h60l-90 -123h-59z" />
    <glyph glyph-name="oslashacute" unicode="&#x1ff;" horiz-adv-x="593" 
d="M27 245q0 126 80 212.5t203 86.5q107 0 177 -65l50 47l35 -36l-52 -49q46 -67 46 -159q0 -121 -80.5 -206t-204.5 -85q-106 0 -174 62l-55 -51l-34 35l56 52q-47 64 -47 156zM310 493q-99 0 -161.5 -70t-62.5 -178q0 -65 31 -115l329 310q-53 53 -136 53zM507 282
q0 67 -30 119l-329 -309q53 -50 133 -50q99 0 162.5 68.5t63.5 171.5zM371 717h58l-96 -132h-58z" />
    <glyph glyph-name="Scommaaccent" unicode="&#x218;" horiz-adv-x="460" 
d="M282 655q-64 0 -98 -34t-34 -92q0 -47 27.5 -77t84.5 -63q80 -46 115 -89t35 -116q0 -83 -55 -139.5t-150 -56.5q-99 0 -150 57.5t-44 155.5h57q-4 -73 29.5 -117t107.5 -44q62 0 103.5 36t41.5 108q0 50 -26 83t-92 70q-73 41 -107.5 82.5t-34.5 108.5q0 75 50.5 126
t139.5 51q85 0 130 -51.5t40 -131.5h-53q1 57 -29.5 95t-87.5 38zM84 -234l56 96q-38 9 -38 46q0 22 14 35.5t35 13.5q20 0 33.5 -13t13.5 -34q0 -22 -22 -60l-48 -84h-44z" />
    <glyph glyph-name="scommaaccent" unicode="&#x219;" horiz-adv-x="379" 
d="M212 493q-43 0 -69 -21.5t-26 -62.5q0 -32 18.5 -53.5t68.5 -48.5q68 -37 96.5 -71.5t28.5 -93.5q0 -70 -50 -109t-116 -39q-85 0 -126 45.5t-36 123.5h55q-4 -54 23 -87.5t84 -33.5q45 0 76.5 25.5t31.5 74.5q0 39 -23.5 63.5t-76.5 52.5q-61 33 -86 66.5t-25 84.5
q0 58 43 95t111 37q71 0 110 -43t32 -112h-54q2 47 -19.5 77t-70.5 30zM48 -234l56 96q-38 9 -38 46q0 22 14 35.5t35 13.5q20 0 33.5 -13t13.5 -34q0 -22 -22 -60l-48 -84h-44z" />
    <glyph glyph-name="uni021A" unicode="&#x21a;" horiz-adv-x="408" 
d="M452 638h-153l-113 -638h-58l113 638h-154l10 54h365zM77 -234l56 96q-38 9 -38 46q0 22 14 35.5t35 13.5q20 0 33.5 -13t13.5 -34q0 -22 -22 -60l-48 -84h-44z" />
    <glyph glyph-name="uni021B" unicode="&#x21b;" horiz-adv-x="251" 
d="M185 616l-14 -81h111l-9 -51h-111l-61 -348q-8 -43 1.5 -65t50.5 -22h44l-9 -51q-14 -2 -37 -2q-132 0 -107 139l61 349h-57l9 51h57l14 81h57zM30 -234l56 96q-38 9 -38 46q0 22 14 35.5t35 13.5q20 0 33.5 -13t13.5 -34q0 -22 -22 -60l-48 -84h-44z" />
    <glyph glyph-name="uni0237" unicode="&#x237;" horiz-adv-x="172" 
d="M162 535l-98 -559q-14 -80 -49 -115.5t-102 -35.5h-24l9 51h15q47 0 65.5 22.5t28.5 77.5l98 559h57z" />
    <glyph glyph-name="circumflex" unicode="&#x2c6;" horiz-adv-x="392" 
d="M243 718h52l87 -139h-52l-63 97l-90 -97h-60z" />
    <glyph glyph-name="caron" unicode="&#x2c7;" horiz-adv-x="392" 
d="M282 584h-51l-86 139h53l62 -99l94 99h58z" />
    <glyph glyph-name="breve" unicode="&#x2d8;" horiz-adv-x="392" 
d="M266 577q-68 0 -94.5 39t-23.5 84h46q0 -76 72 -76q39 0 60.5 23.5t26.5 52.5h46q-4 -44 -37 -83.5t-96 -39.5z" />
    <glyph glyph-name="dotaccent" unicode="&#x2d9;" horiz-adv-x="392" 
d="M265 605q-19 0 -33 13.5t-14 33.5t14 33.5t33 13.5t33 -13.5t14 -33.5t-14 -33.5t-33 -13.5z" />
    <glyph glyph-name="ring" unicode="&#x2da;" horiz-adv-x="392" 
d="M168 654q0 40 27.5 69.5t71.5 29.5q42 0 67 -24t25 -63q0 -42 -27 -70.5t-73 -28.5q-40 0 -65.5 24t-25.5 63zM210 654q0 -21 13.5 -35t35.5 -14q25 0 41.5 16.5t16.5 44.5q0 21 -13.5 35t-36.5 14q-26 0 -41.5 -17.5t-15.5 -43.5z" />
    <glyph glyph-name="ogonek" unicode="&#x2db;" horiz-adv-x="392" 
d="M128 0h57q-74 -36 -74 -83q0 -21 15.5 -33t40.5 -13l-8 -46q-46 1 -74.5 25.5t-28.5 63.5q0 29 19.5 51.5t52.5 34.5z" />
    <glyph glyph-name="tilde" unicode="&#x2dc;" horiz-adv-x="392" 
d="M323 591q-33 0 -70 27t-56 27q-38 0 -43 -52h-45q2 42 25.5 71t62.5 29q32 0 69 -27t57 -27q40 0 43 53h45q-3 -45 -26.5 -73t-61.5 -28z" />
    <glyph glyph-name="hungarumlaut" unicode="&#x2dd;" horiz-adv-x="392" 
d="M222 717h53l-80 -132h-55zM351 717h53l-80 -132h-55z" />
    <glyph glyph-name="Wgrave" unicode="&#x1e80;" horiz-adv-x="938" 
d="M624 0l-98 614l-281 -614h-60l-111 692h57l97 -611l276 611h65l96 -612l284 612h57l-323 -692h-59zM454 855h53l50 -123h-52z" />
    <glyph glyph-name="wgrave" unicode="&#x1e81;" horiz-adv-x="826" 
d="M487 535l85 -464l236 464h58l-275 -535h-60l-87 459l-235 -459h-61l-101 535h59l84 -464l234 464h63zM369 717h52l53 -132h-51z" />
    <glyph glyph-name="Wacute" unicode="&#x1e82;" horiz-adv-x="938" 
d="M624 0l-98 614l-281 -614h-60l-111 692h57l97 -611l276 611h65l96 -612l284 612h57l-323 -692h-59zM602 856h60l-90 -123h-59z" />
    <glyph glyph-name="wacute" unicode="&#x1e83;" horiz-adv-x="826" 
d="M487 535l85 -464l236 464h58l-275 -535h-60l-87 459l-235 -459h-61l-101 535h59l84 -464l234 464h63zM535 717h58l-96 -132h-58z" />
    <glyph glyph-name="Wdieresis" unicode="&#x1e84;" horiz-adv-x="938" 
d="M624 0l-98 614l-281 -614h-60l-111 692h57l97 -611l276 611h65l96 -612l284 612h57l-323 -692h-59zM452 749q-20 0 -33 13.5t-13 32.5t13.5 32.5t32.5 13.5q18 0 32 -13.5t14 -32.5t-14 -32.5t-32 -13.5zM626 749q-20 0 -33 13.5t-13 32.5t13.5 32.5t32.5 13.5
q18 0 32 -13.5t14 -32.5t-14 -32.5t-32 -13.5z" />
    <glyph glyph-name="wdieresis" unicode="&#x1e85;" horiz-adv-x="826" 
d="M487 535l85 -464l236 464h58l-275 -535h-60l-87 459l-235 -459h-61l-101 535h59l84 -464l234 464h63zM382 606q-20 0 -33 13t-13 33q0 19 13.5 32.5t32.5 13.5q18 0 32 -13.5t14 -32.5t-14 -32.5t-32 -13.5zM538 606q-20 0 -33 13t-13 33q0 19 13.5 32.5t32.5 13.5
q18 0 32 -13.5t14 -32.5t-14 -32.5t-32 -13.5z" />
    <glyph glyph-name="Ygrave" unicode="&#x1ef2;" horiz-adv-x="424" 
d="M198 363l-134 329h61l110 -270l202 270h68l-249 -329l-65 -363h-58zM208 856h53l50 -123h-52z" />
    <glyph glyph-name="ygrave" unicode="&#x1ef3;" horiz-adv-x="487" 
d="M45 535h59l111 -462l255 462h62l-396 -710h-58l98 178zM217 717h52l53 -132h-51z" />
    <glyph glyph-name="uni2009" unicode="&#x2009;" horiz-adv-x="0" 
 />
    <glyph glyph-name="endash" unicode="&#x2013;" horiz-adv-x="586" 
d="M547 259h-509l9 50h509z" />
    <glyph glyph-name="emdash" unicode="&#x2014;" horiz-adv-x="904" 
d="M865 259h-827l9 50h827z" />
    <glyph glyph-name="quoteleft" unicode="&#x2018;" horiz-adv-x="153" 
d="M194 692l-60 -101q38 -9 38 -45q0 -21 -13.5 -35t-34.5 -14q-20 0 -33.5 13t-13.5 34q0 22 22 60l51 88h44z" />
    <glyph glyph-name="quoteright" unicode="&#x2019;" horiz-adv-x="153" 
d="M74 503l60 101q-38 9 -38 45q0 21 13.5 35t34.5 14q20 0 33.5 -13t13.5 -34q0 -23 -22 -60l-51 -88h-44z" />
    <glyph glyph-name="quotesinglbase" unicode="&#x201a;" horiz-adv-x="153" 
d="M-31 -98l60 101q-38 9 -38 45q0 21 13.5 35t34.5 14q20 0 33.5 -13t13.5 -34q0 -23 -22 -60l-51 -88h-44z" />
    <glyph glyph-name="quotedblleft" unicode="&#x201c;" horiz-adv-x="283" 
d="M194 692l-60 -101q38 -9 38 -45q0 -21 -13.5 -35t-34.5 -14q-20 0 -33.5 13t-13.5 34q0 22 22 60l51 88h44zM324 692l-60 -101q38 -9 38 -45q0 -21 -13.5 -35t-34.5 -14q-20 0 -33.5 13t-13.5 34q0 22 22 60l51 88h44z" />
    <glyph glyph-name="quotedblright" unicode="&#x201d;" horiz-adv-x="283" 
d="M74 503l60 101q-38 9 -38 45q0 21 13.5 35t34.5 14q20 0 33.5 -13t13.5 -34q0 -23 -22 -60l-51 -88h-44zM204 503l60 101q-38 9 -38 45q0 21 13.5 35t34.5 14q20 0 33.5 -13t13.5 -34q0 -23 -22 -60l-51 -88h-44z" />
    <glyph glyph-name="quotedblbase" unicode="&#x201e;" horiz-adv-x="283" 
d="M99 -98l60 101q-38 9 -38 45q0 21 13.5 35t34.5 14q20 0 33.5 -13t13.5 -34q0 -23 -22 -60l-51 -88h-44zM-31 -98l60 101q-38 9 -38 45q0 21 13.5 35t34.5 14q20 0 33.5 -13t13.5 -34q0 -23 -22 -60l-51 -88h-44z" />
    <glyph glyph-name="dagger" unicode="&#x2020;" horiz-adv-x="332" 
d="M346 485h-113l-85 -485h-57l85 485h-113l9 50h113l28 157h57l-28 -157h113z" />
    <glyph glyph-name="daggerdbl" unicode="&#x2021;" horiz-adv-x="336" 
d="M18 215h113l47 270h-113l9 50h113l28 157h57l-28 -157h113l-9 -50h-113l-47 -270h113l-9 -50h-113l-29 -165h-57l29 165h-113z" />
    <glyph glyph-name="bullet" unicode="&#x2022;" horiz-adv-x="246" 
d="M32 297q0 41 27 68.5t68 27.5t68.5 -27.5t27.5 -68.5t-27.5 -68t-68.5 -27t-68 27t-27 68z" />
    <glyph glyph-name="ellipsis" unicode="&#x2026;" horiz-adv-x="484" 
d="M205 -7q-20 0 -34 14t-14 35t14 35t34 14t34 -14t14 -35t-14 -35t-34 -14zM40 -7q-20 0 -34 14t-14 35t14 35t34 14t34 -14t14 -35t-14 -35t-34 -14zM369 -7q-20 0 -34 14t-14 35t14 35t34 14t34 -14t14 -35t-14 -35t-34 -14z" />
    <glyph glyph-name="perthousand" unicode="&#x2030;" horiz-adv-x="1118" 
d="M948 273q-50 0 -84.5 -37t-34.5 -92q0 -45 28 -74.5t74 -29.5q53 0 86.5 36.5t33.5 91.5q0 46 -28 75.5t-75 29.5zM776 144q0 71 50 123t122 52q71 0 113.5 -43.5t42.5 -107.5q0 -73 -50 -123.5t-123 -50.5q-70 0 -112.5 42.5t-42.5 107.5zM745 692l-635 -692h-61
l637 692h59zM231 653q-50 0 -84.5 -37t-34.5 -92q0 -45 28 -74.5t74 -29.5q53 0 86.5 36.5t33.5 91.5q0 46 -28 75.5t-75 29.5zM59 524q0 71 50 123t122 52q71 0 113.5 -43.5t42.5 -107.5q0 -73 -50 -123.5t-123 -50.5q-70 0 -112.5 42.5t-42.5 107.5zM574 273
q-50 0 -84.5 -37t-34.5 -92q0 -45 28 -74.5t74 -29.5q53 0 86.5 36.5t33.5 91.5q0 46 -28 75.5t-75 29.5zM402 144q0 71 50 123t122 52q71 0 113.5 -43.5t42.5 -107.5q0 -73 -50 -123.5t-123 -50.5q-70 0 -112.5 42.5t-42.5 107.5z" />
    <glyph glyph-name="guilsinglleft" unicode="&#x2039;" horiz-adv-x="193" 
d="M134 112h-50l-66 158l113 156h56l-115 -161z" />
    <glyph glyph-name="guilsinglright" unicode="&#x203a;" horiz-adv-x="198" 
d="M60 426h50l67 -158l-113 -156h-56l116 161z" />
    <glyph glyph-name="fraction" unicode="&#x2044;" horiz-adv-x="640" 
d="M661 692l-593 -692h-60l596 692h57z" />
    <glyph glyph-name="Euro" unicode="&#x20ac;" horiz-adv-x="651" 
d="M41 453h59q38 116 131.5 184.5t214.5 68.5q148 0 231 -88l-36 -41q-75 77 -193 77q-103 0 -179 -54t-109 -147h288l-9 -51h-293q-8 -45 -8 -87v-20h282l-9 -51h-266q19 -94 85.5 -149.5t163.5 -55.5q108 0 187 57l28 -40q-83 -69 -215 -69q-124 0 -207 70t-103 187h-80
l9 51h66v20q0 42 8 87h-55z" />
    <glyph glyph-name="trademark" unicode="&#x2122;" horiz-adv-x="578" 
d="M254 692l-8 -43h-60l-42 -239h-47l42 239h-59l8 43h166zM513 410l38 214l-132 -214h-45l-51 213l-37 -213h-43l50 282h58l54 -229l140 229h62l-50 -282h-44z" />
    <glyph glyph-name="onethird" unicode="&#x2153;" horiz-adv-x="676" 
d="M454 168l7 43l98 98h-130l9 48h195l-9 -48l-103 -100q36 -5 60 -30t24 -71q0 -49 -33 -81t-82 -32q-56 0 -86 30.5t-28 80.5h50q0 -64 65 -64q29 0 45 19.5t16 46.5q0 28 -17.5 44t-49.5 16h-31zM231 692l-63 -357h-52l53 305l-44 -17l9 49l48 20h49zM638 692l-593 -692
h-60l596 692h57z" />
    <glyph glyph-name="twothirds" unicode="&#x2154;" horiz-adv-x="758" 
d="M286 335h-224l8 45l143 136q28 27 40 45t12 42q0 21 -13 34t-35 13q-29 0 -42.5 -17.5t-15.5 -40.5h-51q2 41 29.5 73.5t79.5 32.5q46 0 73.5 -25.5t27.5 -69.5q0 -30 -16 -55t-54 -61l-111 -104h158zM720 692l-593 -692h-60l596 692h57zM530 168l7 43l98 98h-130l9 48
h195l-9 -48l-103 -100q36 -5 60 -30t24 -71q0 -49 -33 -81t-82 -32q-56 0 -86 30.5t-28 80.5h50q0 -64 65 -64q29 0 45 19.5t16 46.5q0 28 -17.5 44t-49.5 16h-31z" />
    <glyph glyph-name="oneeighth" unicode="&#x215b;" horiz-adv-x="678" 
d="M451 257q0 -22 14.5 -36.5t38.5 -14.5q23 0 39 17t16 42q0 23 -14.5 37.5t-38.5 14.5q-23 0 -39 -16.5t-16 -43.5zM425 97q0 -24 16 -40t42 -16t42.5 17.5t16.5 47.5q0 25 -16 40.5t-41 15.5t-42.5 -18t-17.5 -47zM400 257q0 43 30 74.5t75 31.5q46 0 75 -27.5t29 -68.5
q0 -36 -16 -57.5t-35 -29.5q37 -25 37 -73q0 -46 -30.5 -79t-80.5 -33t-81 28.5t-31 71.5q0 68 58 98q-30 25 -30 64zM231 692l-63 -357h-52l53 305l-44 -17l9 49l48 20h49zM638 692l-593 -692h-60l596 692h57z" />
    <glyph glyph-name="threeeighths" unicode="&#x215c;" horiz-adv-x="751" 
d="M524 257q0 -22 14.5 -36.5t38.5 -14.5q23 0 39 17t16 42q0 23 -14.5 37.5t-38.5 14.5q-23 0 -39 -16.5t-16 -43.5zM498 97q0 -24 16 -40t42 -16t42.5 17.5t16.5 47.5q0 25 -16 40.5t-41 15.5t-42.5 -18t-17.5 -47zM473 257q0 43 30 74.5t75 31.5q46 0 75 -27.5t29 -68.5
q0 -36 -16 -57.5t-35 -29.5q37 -25 37 -73q0 -46 -30.5 -79t-80.5 -33t-81 28.5t-31 71.5q0 68 58 98q-30 25 -30 64zM713 692l-593 -692h-60l596 692h57zM156 503l7 43l98 98h-130l9 48h195l-9 -48l-103 -100q36 -5 60 -30t24 -71q0 -49 -33 -81t-82 -32q-56 0 -86 30.5
t-28 80.5h50q0 -64 65 -64q29 0 45 19.5t16 46.5q0 28 -17.5 44t-49.5 16h-31z" />
    <glyph glyph-name="fiveeighths" unicode="&#x215d;" horiz-adv-x="761" 
d="M207 524q-39 0 -56 -30h-49l34 198h189l-8 -48h-139l-16 -90q18 18 56 18q45 0 71 -30.5t21 -79.5l-2 -20q-5 -50 -37.5 -81t-79.5 -31q-53 0 -80 32t-22 82h51q-7 -65 53 -65q27 0 43.5 17.5t19.5 46.5l2 18q3 30 -11 46.5t-40 16.5zM539 257q0 -22 14.5 -36.5
t38.5 -14.5q23 0 39 17t16 42q0 23 -14.5 37.5t-38.5 14.5q-23 0 -39 -16.5t-16 -43.5zM513 97q0 -24 16 -40t42 -16t42.5 17.5t16.5 47.5q0 25 -16 40.5t-41 15.5t-42.5 -18t-17.5 -47zM488 257q0 43 30 74.5t75 31.5q46 0 75 -27.5t29 -68.5q0 -36 -16 -57.5t-35 -29.5
q37 -25 37 -73q0 -46 -30.5 -79t-80.5 -33t-81 28.5t-31 71.5q0 68 58 98q-30 25 -30 64zM723 692l-593 -692h-60l596 692h57z" />
    <glyph glyph-name="seveneighths" unicode="&#x215e;" horiz-adv-x="691" 
d="M469 257q0 -22 14.5 -36.5t38.5 -14.5q23 0 39 17t16 42q0 23 -14.5 37.5t-38.5 14.5q-23 0 -39 -16.5t-16 -43.5zM443 97q0 -24 16 -40t42 -16t42.5 17.5t16.5 47.5q0 25 -16 40.5t-41 15.5t-42.5 -18t-17.5 -47zM418 257q0 43 30 74.5t75 31.5q46 0 75 -27.5t29 -68.5
q0 -36 -16 -57.5t-35 -29.5q37 -25 37 -73q0 -46 -30.5 -79t-80.5 -33t-81 28.5t-31 71.5q0 68 58 98q-30 25 -30 64zM340 654l-175 -319h-57l168 309h-157l8 48h220zM653 692l-593 -692h-60l596 692h57z" />
    <glyph glyph-name="minus" unicode="&#x2212;" horiz-adv-x="486" 
d="M48 312l9 49h407l-9 -49h-407z" />
    <glyph glyph-name="uni24C5" unicode="&#x24c5;" horiz-adv-x="781" 
d="M45 346q0 153 100.5 256.5t257.5 103.5q165 0 265.5 -101.5t100.5 -255.5q0 -156 -99 -259t-262 -103t-263 102t-100 257zM100 346q0 -135 84.5 -224t223.5 -89t222.5 88.5t83.5 226.5q0 137 -84.5 224.5t-226.5 87.5q-134 0 -218.5 -89t-84.5 -225zM535 430
q0 -49 -31.5 -80.5t-84.5 -31.5h-43v-160h-54v380h97q56 0 86 -29t30 -79zM406 490h-30v-124h30q72 0 72 63q0 61 -72 61z" />
    <glyph glyph-name="f_i" unicode="&#xfb01;" horiz-adv-x="415" 
d="M181 592l-10 -57h101l-9 -51h-101l-85 -484h-57l85 484h-57l9 51h57l10 57q13 75 47 107t100 32h36l-9 -51h-31q-42 0 -60 -22t-26 -66zM405 535l-94 -535h-57l94 535h57zM396 605q-19 0 -32.5 13.5t-13.5 33.5t13.5 33.5t32.5 13.5t32.5 -13.5t13.5 -33.5t-13.5 -33.5
t-32.5 -13.5z" />
    <glyph glyph-name="f_l" unicode="&#xfb02;" horiz-adv-x="415" 
d="M181 592l-10 -57h101l-9 -51h-101l-85 -484h-57l85 484h-57l9 51h57l10 57q13 75 47 107t100 32h36l-9 -51h-31q-42 0 -60 -22t-26 -66zM440 731l-129 -731h-57l129 731h57z" />
    <glyph glyph-name="space_uni0326" horiz-adv-x="392" 
d="M79 -234l56 96q-38 9 -38 46q0 22 14 35.5t35 13.5q20 0 33.5 -13t13.5 -34q0 -22 -22 -60l-48 -84h-44z" />
    <glyph glyph-name="caron.alt" horiz-adv-x="466" 
d="M303 731h51l-42 -149h-51z" />
    <glyph glyph-name="space_uni0326.alt" horiz-adv-x="392" 
d="M319 772l-56 -96q38 -9 38 -46q0 -22 -14 -35.5t-35 -13.5q-20 0 -33.5 13t-13.5 34q0 22 22 60l48 84h44z" />
    <glyph glyph-name="acute.pl" horiz-adv-x="466" 
d="M300 717h51l-62 -132h-53z" />
    <glyph glyph-name="grave.uc" horiz-adv-x="466" 
d="M240 856h53l50 -123h-52z" />
    <glyph glyph-name="dieresis.uc" horiz-adv-x="466" 
d="M235 749q-19 0 -32.5 13.5t-13.5 32.5t13.5 32.5t32.5 13.5q18 0 32 -13.5t14 -32.5t-14 -32.5t-32 -13.5zM409 749q-19 0 -32.5 13.5t-13.5 32.5t13.5 32.5t32.5 13.5q18 0 32 -13.5t14 -32.5t-14 -32.5t-32 -13.5z" />
    <glyph glyph-name="macron.uc" horiz-adv-x="466" 
d="M216 758l9 48h221l-9 -48h-221z" />
    <glyph glyph-name="acute.uc" horiz-adv-x="466" 
d="M360 856h60l-90 -123h-59z" />
    <glyph glyph-name="circumflex.uc" horiz-adv-x="392" 
d="M268 856h50l96 -123h-56l-66 83l-88 -83h-64z" />
    <glyph glyph-name="caron.uc" horiz-adv-x="392" 
d="M298 733h-49l-92 123h56l63 -86l93 86h60z" />
    <glyph glyph-name="breve.uc" horiz-adv-x="392" 
d="M287 737q-46 0 -75 22t-37 47t-6 50h47q0 -16 4 -30t21.5 -27.5t45.5 -13.5q38 0 59.5 22t26.5 49h47q-4 -42 -37.5 -80.5t-95.5 -38.5z" />
    <glyph glyph-name="dotaccent.uc" horiz-adv-x="392" 
d="M280 752q-20 0 -33.5 14t-13.5 33t13.5 33t33.5 14t33.5 -14t13.5 -33t-13.5 -33t-33.5 -14z" />
    <glyph glyph-name="ring.uc" horiz-adv-x="464" 
d="M224 811q0 40 27.5 69.5t71.5 29.5q42 0 67 -24t25 -63q0 -42 -27 -70.5t-73 -28.5q-40 0 -65.5 24t-25.5 63zM266 811q0 -21 13.5 -35t35.5 -14q25 0 41.5 16t16.5 45q0 21 -13.5 35t-36.5 14q-26 0 -41.5 -17.5t-15.5 -43.5z" />
    <glyph glyph-name="tilde.uc" horiz-adv-x="466" 
d="M391 744q-33 0 -70 27t-56 27q-38 0 -43 -52h-45q2 42 25.5 71t62.5 29q32 0 69 -27t57 -27q40 0 43 53h45q-3 -45 -26.5 -73t-61.5 -28z" />
    <glyph glyph-name="hungarumlaut.uc" horiz-adv-x="392" 
d="M227 856h54l-75 -123h-56zM356 856h54l-75 -123h-56z" />
    <glyph glyph-name="acute.ucpl" horiz-adv-x="466" 
d="M344 856h52l-59 -123h-53z" />
    <glyph glyph-name="Cacute.pl" 
d="M546 96l28 -40q-83 -69 -215 -69q-142 0 -228.5 91t-86.5 237q0 173 104.5 282t261.5 109q149 0 232 -88l-36 -41q-75 77 -194 77q-138 0 -223.5 -94t-85.5 -245q0 -122 70.5 -199t185.5 -77q108 0 187 57zM429 856h52l-59 -123h-53z" />
    <glyph glyph-name="Nacute.pl" horiz-adv-x="628" 
d="M467 0l-293 594l-105 -594h-55l122 692h54l292 -600l106 600h55l-122 -692h-54zM423 856h52l-59 -123h-53z" />
    <glyph glyph-name="Oacute.pl" horiz-adv-x="745" 
d="M44 316q0 159 102.5 274.5t264.5 115.5q143 0 232 -92.5t89 -238.5q0 -168 -105 -278t-264 -110q-141 0 -230 91.5t-89 237.5zM411 654q-136 0 -222 -98t-86 -240q0 -121 72.5 -199t187.5 -78q133 0 221.5 93.5t88.5 242.5q0 124 -72 201.5t-190 77.5zM444 856h52
l-59 -123h-53z" />
    <glyph glyph-name="Sacute.pl" horiz-adv-x="460" 
d="M282 655q-64 0 -98 -34t-34 -92q0 -47 27.5 -77t84.5 -63q80 -46 115 -89t35 -116q0 -83 -55 -139.5t-150 -56.5q-99 0 -150 57.5t-44 155.5h57q-4 -73 29.5 -117t107.5 -44q62 0 103.5 36t41.5 108q0 50 -26 83t-92 70q-73 41 -107.5 82.5t-34.5 108.5q0 75 50.5 126
t139.5 51q85 0 130 -51.5t40 -131.5h-53q1 57 -29.5 95t-87.5 38zM304 856h52l-59 -123h-53z" />
    <glyph glyph-name="Zacute.pl" horiz-adv-x="576" 
d="M507 0h-524l9 53l544 585h-435l10 54h515l-10 -53l-551 -585h450zM389 856h52l-59 -123h-53z" />
    <glyph glyph-name="cacute.pl" horiz-adv-x="518" 
d="M278 43q92 0 168 68l33 -33q-75 -87 -201 -87q-113 0 -182 71t-69 183q0 127 81 213t203 86q77 0 129.5 -29t77.5 -68l-40 -33q-64 78 -167 78q-98 0 -161 -70t-63 -177q0 -89 54 -145.5t137 -56.5zM346 717h51l-62 -132h-53z" />
    <glyph glyph-name="idotaccent" horiz-adv-x="172" 
d="M162 535l-94 -535h-57l94 535h57zM153 605q-19 0 -32.5 13.5t-13.5 33.5t13.5 33.5t32.5 13.5t32.5 -13.5t13.5 -33.5t-13.5 -33.5t-32.5 -13.5z" />
    <glyph glyph-name="nacute.pl" horiz-adv-x="459" 
d="M300 0l60 337q12 71 -11.5 112.5t-82.5 41.5q-111 0 -136 -141l-62 -350h-57l94 535h57l-10 -55q15 25 48.5 43t72.5 18q91 0 125 -60t19 -144l-60 -337h-57zM316 717h51l-62 -132h-53z" />
    <glyph glyph-name="oacute.pl" horiz-adv-x="593" 
d="M310 493q-99 0 -161.5 -70t-62.5 -178q0 -89 54.5 -146t140.5 -57q99 0 162.5 68.5t63.5 171.5q0 93 -54.5 152t-142.5 59zM27 245q0 126 80 212.5t203 86.5q114 0 185 -72.5t71 -189.5q0 -121 -80.5 -206t-204.5 -85q-112 0 -183 70t-71 184zM352 717h51l-62 -132h-53z
" />
    <glyph glyph-name="sacute.pl" horiz-adv-x="379" 
d="M212 493q-43 0 -69 -21.5t-26 -62.5q0 -32 18.5 -53.5t68.5 -48.5q68 -37 96.5 -71.5t28.5 -93.5q0 -70 -50 -109t-116 -39q-85 0 -126 45.5t-36 123.5h55q-4 -54 23 -87.5t84 -33.5q45 0 76.5 25.5t31.5 74.5q0 39 -23.5 63.5t-76.5 52.5q-61 33 -86 66.5t-25 84.5
q0 58 43 95t111 37q71 0 110 -43t32 -112h-54q2 47 -19.5 77t-70.5 30zM266 717h51l-62 -132h-53z" />
    <glyph glyph-name="zacute.pl" horiz-adv-x="445" 
d="M461 485l-401 -435h325l-9 -50h-391l9 50l393 435h-314l9 50h388zM306 717h51l-62 -132h-53z" />
    <glyph glyph-name="zero.num" horiz-adv-x="279" 
d="M300 580l-25 -139q-21 -114 -112 -114q-56 0 -84 34.5t-18 86.5l26 141q21 111 111 111q54 0 82.5 -34t19.5 -86zM225 447l24 136q6 32 -8.5 50.5t-42.5 18.5q-48 0 -61 -69l-25 -136q-6 -31 8 -51.5t43 -20.5q50 0 62 72z" />
    <glyph glyph-name="one.num" horiz-adv-x="137" 
d="M168 692l-63 -357h-50l54 307l-44 -17l9 47l48 20h46z" />
    <glyph glyph-name="two.num" horiz-adv-x="249" 
d="M253 335h-224l8 43l144 139q29 28 41.5 46t12.5 42q0 21 -13.5 35t-36.5 14q-30 0 -44 -18.5t-16 -41.5h-49q2 41 29.5 73.5t79.5 32.5q46 0 73.5 -25.5t27.5 -69.5q0 -53 -69 -117l-114 -107h159z" />
    <glyph glyph-name="three.num" horiz-adv-x="253" 
d="M114 501l7 41l101 104h-132l8 46h195l-8 -46l-105 -105q36 -5 60.5 -30.5t24.5 -70.5q0 -49 -33 -81t-82 -32q-56 0 -86 30.5t-28 80.5h48q0 -31 17 -48.5t50 -17.5q29 0 46 20t17 48t-18 44.5t-51 16.5h-31z" />
    <glyph glyph-name="four.num" horiz-adv-x="277" 
d="M298 450h-41l-20 -115h-49l20 115h-168l8 44l202 198h50l-35 -198h40zM239 625l-134 -131h111z" />
    <glyph glyph-name="five.num" horiz-adv-x="268" 
d="M60 441h49q-7 -67 55 -67q28 0 45 18.5t20 47.5l2 18q4 30 -11 47.5t-42 17.5q-41 0 -58 -32h-47l34 201h189l-8 -46h-141l-17 -97q20 20 59 20q45 0 71 -30.5t21 -79.5l-2 -20q-5 -50 -37.5 -81t-79.5 -31q-53 0 -80 32t-22 82z" />
    <glyph glyph-name="six.num" horiz-adv-x="275" 
d="M301 646l-41 -27q-19 34 -59 34q-53 0 -65 -69l-5 -29q21 21 62 21q43 0 71.5 -31t22.5 -79l-3 -26q-6 -51 -36.5 -82t-79.5 -31q-57 0 -87 34.5t-21 82.5l25 140q20 116 116 116q72 0 100 -54zM116 469l-5 -28q-5 -30 10.5 -48.5t46.5 -18.5q27 0 44 18t21 50l3 23
q4 29 -12 47t-44 18q-53 0 -64 -61z" />
    <glyph glyph-name="seven.num" horiz-adv-x="227" 
d="M278 654l-170 -319h-55l166 311h-151l8 46h209z" />
    <glyph glyph-name="eight.num" horiz-adv-x="262" 
d="M185 655q-23 0 -40 -17t-17 -45q0 -22 15 -37.5t40 -15.5q24 0 40.5 17.5t16.5 43.5q0 24 -15 39t-40 15zM78 593q0 44 30 75.5t76 31.5q47 0 76 -27.5t29 -69.5q0 -36 -16.5 -57.5t-36.5 -29.5q39 -24 39 -75q0 -47 -31 -80.5t-81 -33.5t-81.5 29t-31.5 73q0 68 59 99
q-31 26 -31 65zM164 498q-26 0 -44 -18.5t-18 -48.5q0 -25 16.5 -42t43.5 -17t44 19t17 49q0 26 -16.5 42t-42.5 16z" />
    <glyph glyph-name="nine.num" horiz-adv-x="273" 
d="M54 381l39 29q23 -36 66 -36q48 0 60 69l5 29q-19 -21 -54 -21q-49 0 -78.5 30.5t-23.5 79.5l3 26q6 52 36 82.5t80 30.5q57 0 87 -34.5t21 -82.5l-25 -140q-10 -59 -36 -87.5t-75 -28.5q-70 0 -105 54zM239 558l5 28q5 29 -10.5 48t-46.5 19q-57 0 -65 -68l-3 -23
q-4 -29 12 -47t44 -18q53 0 64 61z" />
    <glyph glyph-name="zero.den" horiz-adv-x="279" 
d="M245 245l-25 -139q-21 -114 -112 -114q-56 0 -84 34.5t-18 86.5l26 141q21 111 111 111q54 0 82.5 -34t19.5 -86zM170 112l24 136q6 32 -8.5 50.5t-42.5 18.5q-48 0 -61 -69l-25 -136q-6 -31 8 -51.5t43 -20.5q50 0 62 72z" />
    <glyph glyph-name="one.den" horiz-adv-x="137" 
d="M113 357l-63 -357h-50l54 307l-44 -17l9 47l48 20h46z" />
    <glyph glyph-name="two.den" horiz-adv-x="252" 
d="M199 0h-224l8 43l144 139q29 28 41.5 46t12.5 42q0 21 -13.5 35t-36.5 14q-30 0 -44 -18.5t-16 -41.5h-49q2 41 29.5 73.5t79.5 32.5q46 0 73.5 -25.5t27.5 -69.5q0 -53 -69 -117l-114 -107h159z" />
    <glyph glyph-name="three.den" horiz-adv-x="253" 
d="M59 166l7 41l101 104h-132l8 46h195l-8 -46l-105 -105q36 -5 60.5 -30.5t24.5 -70.5q0 -49 -33 -81t-82 -32q-56 0 -86 30.5t-28 80.5h48q0 -31 17 -48.5t50 -17.5q29 0 46 20t17 48t-18 44.5t-51 16.5h-31z" />
    <glyph glyph-name="four.den" horiz-adv-x="277" 
d="M243 115h-41l-20 -115h-49l20 115h-168l8 44l202 198h50l-35 -198h40zM184 290l-134 -131h111z" />
    <glyph glyph-name="five.den" horiz-adv-x="268" 
d="M5 106h49q-7 -67 55 -67q28 0 45 18.5t20 47.5l2 18q4 30 -11 47.5t-42 17.5q-41 0 -58 -32h-47l34 201h189l-8 -46h-141l-17 -97q20 20 59 20q45 0 71 -30.5t21 -79.5l-2 -20q-5 -50 -37.5 -81t-79.5 -31q-53 0 -80 32t-22 82z" />
    <glyph glyph-name="six.den" horiz-adv-x="275" 
d="M246 311l-41 -27q-19 34 -59 34q-54 0 -65 -69l-5 -29q21 21 62 21q44 0 72 -31t22 -79l-3 -26q-6 -51 -36.5 -82t-79.5 -31q-57 0 -87 34.5t-21 82.5l25 140q20 116 116 116q72 0 100 -54zM61 134l-5 -28q-5 -30 10.5 -48.5t46.5 -18.5q27 0 44 18t21 50l3 23
q4 29 -12 47t-44 18q-53 0 -64 -61z" />
    <glyph glyph-name="seven.den" horiz-adv-x="227" 
d="M223 319l-170 -319h-55l166 311h-151l8 46h209z" />
    <glyph glyph-name="eight.den" horiz-adv-x="262" 
d="M130 320q-23 0 -40 -17t-17 -45q0 -22 15 -37.5t40 -15.5q24 0 40.5 17.5t16.5 43.5q0 24 -15 39t-40 15zM23 258q0 44 30 75.5t76 31.5q47 0 76 -27.5t29 -69.5q0 -36 -16.5 -57.5t-36.5 -29.5q39 -24 39 -75q0 -47 -31 -80.5t-81 -33.5t-81.5 29t-31.5 73q0 68 59 99
q-31 26 -31 65zM109 163q-26 0 -44 -18.5t-18 -48.5q0 -25 16.5 -42t43.5 -17t44 19t17 49q0 26 -16.5 42t-42.5 16z" />
    <glyph glyph-name="nine.den" horiz-adv-x="273" 
d="M-1 46l39 29q23 -36 66 -36q48 0 60 69l5 29q-19 -21 -54 -21q-49 0 -78.5 30.5t-23.5 79.5l3 26q6 52 36 82.5t80 30.5q57 0 87 -34.5t21 -82.5l-25 -140q-10 -59 -36 -87.5t-75 -28.5q-70 0 -105 54zM184 223l5 28q5 29 -10.5 48t-46.5 19q-57 0 -65 -68l-3 -23
q-4 -29 12 -47t44 -18q53 0 64 61z" />
    <glyph glyph-name="a.alt" 
d="M454 0l13 79q-23 -33 -71.5 -60.5t-117.5 -27.5q-114 0 -182.5 72.5t-68.5 186.5q0 123 77 208.5t201 85.5q85 0 140.5 -38t78.5 -94l22 123h57l-95 -535h-54zM86 257q0 -96 52 -155.5t140 -59.5q97 0 160 70.5t63 177.5q0 90 -53 146.5t-143 56.5q-95 0 -157 -67.5
t-62 -168.5z" />
    <glyph glyph-name="k.alt" horiz-adv-x="432" 
d="M430 378q0 -85 -54.5 -133.5t-131.5 -48.5q-15 0 -30 3l145 -199h-65l-184 252l-42 -252h-57l125 731h57l-40 -232q38 42 112 42q77 0 121 -46t44 -117zM258 492q-59 0 -95 -39t-36 -101q0 -48 31 -79.5t83 -31.5q54 0 93 38.5t39 98.5q0 51 -31.5 82.5t-83.5 31.5z" />
    <glyph glyph-name="u.alt" horiz-adv-x="449" 
d="M384 535h57l-62 -354q-15 -89 -61.5 -138t-122.5 -49q-88 0 -128.5 54t-26.5 133l62 354h57l-61 -350q-11 -66 14.5 -103t82.5 -37q104 0 128 140z" />
    <glyph glyph-name="w.alt" horiz-adv-x="731" 
d="M666 535h57l-62 -354q-15 -89 -62 -138t-123 -49q-55 0 -90 23.5t-49 58.5q-47 -82 -143 -82q-88 0 -128 54t-26 133l62 354h57l-61 -350q-11 -66 14 -103t82 -37q105 0 129 140l61 350h57l-61 -350q-11 -66 14 -103t82 -37q105 0 129 140z" />
    <glyph glyph-name="y.alt" horiz-adv-x="455" 
d="M445 535l-95 -543q-31 -174 -192 -174q-91 0 -155 58l31 41q53 -48 124 -48q59 0 91.5 30.5t43.5 93.5l11 62q-15 -25 -48.5 -43t-72.5 -18q-91 0 -123.5 60t-17.5 144l60 337h57l-60 -337q-12 -71 10.5 -112.5t80.5 -41.5q111 0 136 141l62 350h57z" />
    <glyph glyph-name="aacute.alt" 
d="M375 717h58l-96 -132h-58zM454 0l13 79q-23 -33 -71.5 -60.5t-117.5 -27.5q-114 0 -182.5 72.5t-68.5 186.5q0 123 77 208.5t201 85.5q85 0 140.5 -38t78.5 -94l22 123h57l-95 -535h-54zM86 257q0 -96 52 -155.5t140 -59.5q97 0 160 70.5t63 177.5q0 90 -53 146.5
t-143 56.5q-95 0 -157 -67.5t-62 -168.5z" />
    <glyph glyph-name="abreve.alt" 
d="M327 577q-68 0 -94.5 39t-23.5 84h46q0 -76 72 -76q39 0 60.5 23.5t26.5 52.5h46q-4 -44 -37 -83.5t-96 -39.5zM454 0l13 79q-23 -33 -71.5 -60.5t-117.5 -27.5q-114 0 -182.5 72.5t-68.5 186.5q0 123 77 208.5t201 85.5q85 0 140.5 -38t78.5 -94l22 123h57l-95 -535h-54
zM86 257q0 -96 52 -155.5t140 -59.5q97 0 160 70.5t63 177.5q0 90 -53 146.5t-143 56.5q-95 0 -157 -67.5t-62 -168.5z" />
    <glyph glyph-name="acircumflex.alt" 
d="M323 718h52l87 -139h-52l-63 97l-90 -97h-60zM454 0l13 79q-23 -33 -71.5 -60.5t-117.5 -27.5q-114 0 -182.5 72.5t-68.5 186.5q0 123 77 208.5t201 85.5q85 0 140.5 -38t78.5 -94l22 123h57l-95 -535h-54zM86 257q0 -96 52 -155.5t140 -59.5q97 0 160 70.5t63 177.5
q0 90 -53 146.5t-143 56.5q-95 0 -157 -67.5t-62 -168.5z" />
    <glyph glyph-name="adieresis.alt" 
d="M258 606q-20 0 -33 13t-13 33q0 19 13.5 32.5t32.5 13.5q18 0 32 -13.5t14 -32.5t-14 -32.5t-32 -13.5zM414 606q-20 0 -33 13t-13 33q0 19 13.5 32.5t32.5 13.5q18 0 32 -13.5t14 -32.5t-14 -32.5t-32 -13.5zM454 0l13 79q-23 -33 -71.5 -60.5t-117.5 -27.5
q-114 0 -182.5 72.5t-68.5 186.5q0 123 77 208.5t201 85.5q85 0 140.5 -38t78.5 -94l22 123h57l-95 -535h-54zM86 257q0 -96 52 -155.5t140 -59.5q97 0 160 70.5t63 177.5q0 90 -53 146.5t-143 56.5q-95 0 -157 -67.5t-62 -168.5z" />
    <glyph glyph-name="agrave.alt" 
d="M248 717h52l53 -132h-51zM454 0l13 79q-23 -33 -71.5 -60.5t-117.5 -27.5q-114 0 -182.5 72.5t-68.5 186.5q0 123 77 208.5t201 85.5q85 0 140.5 -38t78.5 -94l22 123h57l-95 -535h-54zM86 257q0 -96 52 -155.5t140 -59.5q97 0 160 70.5t63 177.5q0 90 -53 146.5
t-143 56.5q-95 0 -157 -67.5t-62 -168.5z" />
    <glyph glyph-name="amacron.alt" 
d="M220 609l9 48h215l-9 -48h-215zM454 0l13 79q-23 -33 -71.5 -60.5t-117.5 -27.5q-114 0 -182.5 72.5t-68.5 186.5q0 123 77 208.5t201 85.5q85 0 140.5 -38t78.5 -94l22 123h57l-95 -535h-54zM86 257q0 -96 52 -155.5t140 -59.5q97 0 160 70.5t63 177.5q0 90 -53 146.5
t-143 56.5q-95 0 -157 -67.5t-62 -168.5z" />
    <glyph glyph-name="aogonek.alt" 
d="M375 -86q0 62 80 91l12 74q-23 -33 -71.5 -60.5t-117.5 -27.5q-114 0 -182.5 72.5t-68.5 186.5q0 123 77 208.5t201 85.5q85 0 140.5 -38t78.5 -94l22 123h57l-96 -540q-77 -25 -77 -78q0 -21 15.5 -33t40.5 -13l-8 -46q-47 1 -75 25t-28 64zM86 257q0 -96 52 -155.5
t140 -59.5q97 0 160 70.5t63 177.5q0 90 -53 146.5t-143 56.5q-95 0 -157 -67.5t-62 -168.5z" />
    <glyph glyph-name="aring.alt" 
d="M248 654q0 40 27.5 69.5t71.5 29.5q42 0 67 -24t25 -63q0 -42 -27 -70.5t-73 -28.5q-40 0 -65.5 24t-25.5 63zM290 654q0 -21 13.5 -35t35.5 -14q25 0 41.5 16.5t16.5 44.5q0 21 -13.5 35t-36.5 14q-26 0 -41.5 -17.5t-15.5 -43.5zM454 0l13 79q-23 -33 -71.5 -60.5
t-117.5 -27.5q-114 0 -182.5 72.5t-68.5 186.5q0 123 77 208.5t201 85.5q85 0 140.5 -38t78.5 -94l22 123h57l-95 -535h-54zM86 257q0 -96 52 -155.5t140 -59.5q97 0 160 70.5t63 177.5q0 90 -53 146.5t-143 56.5q-95 0 -157 -67.5t-62 -168.5z" />
    <glyph glyph-name="aringacute.alt" 
d="M454 0l13 79q-23 -33 -71.5 -60.5t-117.5 -27.5q-114 0 -182.5 72.5t-68.5 186.5q0 123 77 208.5t201 85.5q85 0 140.5 -38t78.5 -94l22 123h57l-95 -535h-54zM86 257q0 -96 52 -155.5t140 -59.5q97 0 160 70.5t63 177.5q0 90 -53 146.5t-143 56.5q-95 0 -157 -67.5
t-62 -168.5zM248 654q0 40 27.5 69.5t71.5 29.5q42 0 67 -24t25 -63q0 -42 -27 -70.5t-73 -28.5q-40 0 -65.5 24t-25.5 63zM290 654q0 -21 13.5 -35t35.5 -14q25 0 41.5 16.5t16.5 44.5q0 21 -13.5 35t-36.5 14q-26 0 -41.5 -17.5t-15.5 -43.5zM416 909h60l-90 -123h-59z
" />
    <glyph glyph-name="atilde.alt" 
d="M403 591q-33 0 -70 27t-56 27q-38 0 -43 -52h-45q2 42 25.5 71t62.5 29q32 0 69 -27t57 -27q40 0 43 53h45q-3 -45 -26.5 -73t-61.5 -28zM454 0l13 79q-23 -33 -71.5 -60.5t-117.5 -27.5q-114 0 -182.5 72.5t-68.5 186.5q0 123 77 208.5t201 85.5q85 0 140.5 -38
t78.5 -94l22 123h57l-95 -535h-54zM86 257q0 -96 52 -155.5t140 -59.5q97 0 160 70.5t63 177.5q0 90 -53 146.5t-143 56.5q-95 0 -157 -67.5t-62 -168.5z" />
    <glyph glyph-name="kcommaaccent.alt" horiz-adv-x="432" 
d="M95 -234l56 96q-38 9 -38 46q0 22 14 35.5t35 13.5q20 0 33.5 -13t13.5 -34q0 -22 -22 -60l-48 -84h-44zM430 378q0 -85 -54.5 -133.5t-131.5 -48.5q-15 0 -30 3l145 -199h-65l-184 252l-42 -252h-57l125 731h57l-40 -232q38 42 112 42q77 0 121 -46t44 -117zM258 492
q-59 0 -95 -39t-36 -101q0 -48 31 -79.5t83 -31.5q54 0 93 38.5t39 98.5q0 51 -31.5 82.5t-83.5 31.5z" />
    <glyph glyph-name="uacute.alt" horiz-adv-x="449" 
d="M330 717h58l-96 -132h-58zM384 535h57l-62 -354q-15 -89 -61.5 -138t-122.5 -49q-88 0 -128.5 54t-26.5 133l62 354h57l-61 -350q-11 -66 14.5 -103t82.5 -37q104 0 128 140z" />
    <glyph glyph-name="ugrave.alt" horiz-adv-x="449" 
d="M204 717h52l53 -132h-51zM384 535h57l-62 -354q-15 -89 -61.5 -138t-122.5 -49q-88 0 -128.5 54t-26.5 133l62 354h57l-61 -350q-11 -66 14.5 -103t82.5 -37q104 0 128 140z" />
    <glyph glyph-name="ucircumflex.alt" horiz-adv-x="449" 
d="M266 718h52l87 -139h-52l-63 97l-90 -97h-60zM384 535h57l-62 -354q-15 -89 -61.5 -138t-122.5 -49q-88 0 -128.5 54t-26.5 133l62 354h57l-61 -350q-11 -66 14.5 -103t82.5 -37q104 0 128 140z" />
    <glyph glyph-name="udieresis.alt" horiz-adv-x="449" 
d="M206 606q-20 0 -33 13t-13 33q0 19 13.5 32.5t32.5 13.5q18 0 32 -13.5t14 -32.5t-14 -32.5t-32 -13.5zM362 606q-20 0 -33 13t-13 33q0 19 13.5 32.5t32.5 13.5q18 0 32 -13.5t14 -32.5t-14 -32.5t-32 -13.5zM384 535h57l-62 -354q-15 -89 -61.5 -138t-122.5 -49
q-88 0 -128.5 54t-26.5 133l62 354h57l-61 -350q-11 -66 14.5 -103t82.5 -37q104 0 128 140z" />
    <glyph glyph-name="ubreve.alt" horiz-adv-x="449" 
d="M280 577q-68 0 -94.5 39t-23.5 84h46q0 -76 72 -76q39 0 60.5 23.5t26.5 52.5h46q-4 -44 -37 -83.5t-96 -39.5zM384 535h57l-62 -354q-15 -89 -61.5 -138t-122.5 -49q-88 0 -128.5 54t-26.5 133l62 354h57l-61 -350q-11 -66 14.5 -103t82.5 -37q104 0 128 140z" />
    <glyph glyph-name="uhungarumlaut.alt" horiz-adv-x="449" 
d="M263 717h53l-80 -132h-55zM392 717h53l-80 -132h-55zM384 535h57l-62 -354q-15 -89 -61.5 -138t-122.5 -49q-88 0 -128.5 54t-26.5 133l62 354h57l-61 -350q-11 -66 14.5 -103t82.5 -37q104 0 128 140z" />
    <glyph glyph-name="umacron.alt" horiz-adv-x="449" 
d="M173 609l9 48h215l-9 -48h-215zM384 535h57l-62 -354q-15 -89 -61.5 -138t-122.5 -49q-88 0 -128.5 54t-26.5 133l62 354h57l-61 -350q-11 -66 14.5 -103t82.5 -37q104 0 128 140z" />
    <glyph glyph-name="uogonek.alt" horiz-adv-x="449" 
d="M384 535h57l-62 -354q-27 -151 -132 -180q-81 -27 -81 -84q0 -21 15.5 -33t40.5 -13l-8 -46q-46 1 -74.5 25.5t-28.5 64.5q0 49 52 81q-72 10 -104 62t-19 123l62 354h57l-61 -350q-11 -66 14.5 -103t82.5 -37q104 0 128 140z" />
    <glyph glyph-name="uring.alt" horiz-adv-x="449" 
d="M189 654q0 40 27.5 69.5t71.5 29.5q42 0 67 -24t25 -63q0 -42 -27 -70.5t-73 -28.5q-40 0 -65.5 24t-25.5 63zM231 654q0 -21 13.5 -35t35.5 -14q26 0 42 16.5t16 44.5q0 21 -13.5 35t-36.5 14q-26 0 -41.5 -17.5t-15.5 -43.5zM384 535h57l-62 -354q-15 -89 -61.5 -138
t-122.5 -49q-88 0 -128.5 54t-26.5 133l62 354h57l-61 -350q-11 -66 14.5 -103t82.5 -37q104 0 128 140z" />
    <glyph glyph-name="utilde.alt" horiz-adv-x="449" 
d="M348 591q-33 0 -70 27t-56 27q-38 0 -43 -52h-45q2 42 25.5 71t62.5 29q32 0 69 -27t57 -27q40 0 43 53h45q-3 -45 -26.5 -73t-61.5 -28zM384 535h57l-62 -354q-15 -89 -61.5 -138t-122.5 -49q-88 0 -128.5 54t-26.5 133l62 354h57l-61 -350q-11 -66 14.5 -103t82.5 -37
q104 0 128 140z" />
    <glyph glyph-name="wacute.alt" horiz-adv-x="731" 
d="M487 717h58l-96 -132h-58zM666 535h57l-62 -354q-15 -89 -62 -138t-123 -49q-55 0 -90 23.5t-49 58.5q-47 -82 -143 -82q-88 0 -128 54t-26 133l62 354h57l-61 -350q-11 -66 14 -103t82 -37q105 0 129 140l61 350h57l-61 -350q-11 -66 14 -103t82 -37q105 0 129 140z" />
    <glyph glyph-name="wcircumflex.alt" horiz-adv-x="731" 
d="M409 718h52l87 -139h-52l-63 97l-90 -97h-60zM666 535h57l-62 -354q-15 -89 -62 -138t-123 -49q-55 0 -90 23.5t-49 58.5q-47 -82 -143 -82q-88 0 -128 54t-26 133l62 354h57l-61 -350q-11 -66 14 -103t82 -37q105 0 129 140l61 350h57l-61 -350q-11 -66 14 -103t82 -37
q105 0 129 140z" />
    <glyph glyph-name="wdieresis.alt" horiz-adv-x="731" 
d="M347 606q-19 0 -32.5 13t-13.5 33q0 19 13.5 32.5t32.5 13.5q18 0 32 -13.5t14 -32.5t-14 -32.5t-32 -13.5zM503 606q-19 0 -32.5 13t-13.5 33q0 19 13.5 32.5t32.5 13.5q18 0 32 -13.5t14 -32.5t-14 -32.5t-32 -13.5zM666 535h57l-62 -354q-15 -89 -62 -138t-123 -49
q-55 0 -90 23.5t-49 58.5q-47 -82 -143 -82q-88 0 -128 54t-26 133l62 354h57l-61 -350q-11 -66 14 -103t82 -37q105 0 129 140l61 350h57l-61 -350q-11 -66 14 -103t82 -37q105 0 129 140z" />
    <glyph glyph-name="wgrave.alt" horiz-adv-x="731" 
d="M336 717h52l53 -132h-51zM666 535h57l-62 -354q-15 -89 -62 -138t-123 -49q-55 0 -90 23.5t-49 58.5q-47 -82 -143 -82q-88 0 -128 54t-26 133l62 354h57l-61 -350q-11 -66 14 -103t82 -37q105 0 129 140l61 350h57l-61 -350q-11 -66 14 -103t82 -37q105 0 129 140z" />
    <glyph glyph-name="yacute.alt" horiz-adv-x="455" 
d="M445 535l-95 -543q-31 -174 -192 -174q-91 0 -155 58l31 41q53 -48 124 -48q59 0 91.5 30.5t43.5 93.5l11 62q-15 -25 -48.5 -43t-72.5 -18q-91 0 -123.5 60t-17.5 144l60 337h57l-60 -337q-12 -71 10.5 -112.5t80.5 -41.5q111 0 136 141l62 350h57zM329 717h58l-96 -132
h-58z" />
    <glyph glyph-name="ydieresis.alt" horiz-adv-x="455" 
d="M445 535l-95 -543q-31 -174 -192 -174q-91 0 -155 58l31 41q53 -48 124 -48q59 0 91.5 30.5t43.5 93.5l11 62q-15 -25 -48.5 -43t-72.5 -18q-91 0 -123.5 60t-17.5 144l60 337h57l-60 -337q-12 -71 10.5 -112.5t80.5 -41.5q111 0 136 141l62 350h57zM208 606
q-20 0 -33 13t-13 33q0 19 13.5 32.5t32.5 13.5q18 0 32 -13.5t14 -32.5t-14 -32.5t-32 -13.5zM364 606q-20 0 -33 13t-13 33q0 19 13.5 32.5t32.5 13.5q18 0 32 -13.5t14 -32.5t-14 -32.5t-32 -13.5z" />
    <glyph glyph-name="ycircumflex.alt" horiz-adv-x="455" 
d="M445 535l-95 -543q-31 -174 -192 -174q-91 0 -155 58l31 41q53 -48 124 -48q59 0 91.5 30.5t43.5 93.5l11 62q-15 -25 -48.5 -43t-72.5 -18q-91 0 -123.5 60t-17.5 144l60 337h57l-60 -337q-12 -71 10.5 -112.5t80.5 -41.5q111 0 136 141l62 350h57zM269 718h52l87 -139
h-52l-63 97l-90 -97h-60z" />
    <glyph glyph-name="ygrave.alt" horiz-adv-x="455" 
d="M445 535l-95 -543q-31 -174 -192 -174q-91 0 -155 58l31 41q53 -48 124 -48q59 0 91.5 30.5t43.5 93.5l11 62q-15 -25 -48.5 -43t-72.5 -18q-91 0 -123.5 60t-17.5 144l60 337h57l-60 -337q-12 -71 10.5 -112.5t80.5 -41.5q111 0 136 141l62 350h57zM205 717h52l53 -132
h-51z" />
    <glyph glyph-name="f.short" horiz-adv-x="239" 
d="M181 592l-10 -57h97l-9 -51h-97l-85 -484h-57l85 484h-57l9 51h57l10 57q13 75 47 107t100 32h32l-9 -51h-27q-42 0 -60 -22t-26 -66z" />
    <glyph glyph-name="f_f.short" horiz-adv-x="455" 
d="M397 592l-10 -57h97l-9 -51h-97l-85 -484h-57l85 484h-159l-85 -484h-57l85 484h-57l9 51h57l10 57q13 75 47 107t100 32h36l-9 -51h-31q-42 0 -60 -22t-26 -66l-10 -57h159l10 57q13 75 47 107t100 32h32l-9 -51h-27q-42 0 -60 -22t-26 -66z" />
    <glyph glyph-name="questiondown.uc" horiz-adv-x="451" 
d="M220 368l30 169h58l-38 -217h-33q-74 0 -117 -38.5t-43 -114.5q0 -57 35 -92.5t92 -35.5q41 0 71.5 16t46 41.5t23 50t9.5 49.5h55q0 -23 -6 -49t-21 -55t-37 -52t-59 -38t-82 -15q-87 0 -137.5 51t-50.5 129q0 86 55.5 143t148.5 58zM299 699q20 0 34 -14t14 -35
t-14 -35t-34 -14t-34 14t-14 35t14 35t34 14z" />
    <glyph glyph-name="exclamdown.uc" horiz-adv-x="187" 
d="M18 0l95 537h58l-95 -537h-58zM162 699q20 0 34 -14t14 -35t-14 -35t-34 -14t-34 14t-14 35t14 35t34 14z" />
    <glyph glyph-name="hyphen.uc" horiz-adv-x="256" 
d="M45 296l10 56h180l-10 -56h-180z" />
    <glyph glyph-name="endash.uc" horiz-adv-x="584" 
d="M554 297h-509l9 50h509z" />
    <glyph glyph-name="emdash.uc" horiz-adv-x="902" 
d="M872 297h-827l9 50h827z" />
    <glyph glyph-name="guilsinglleft.uc" horiz-adv-x="193" 
d="M134 112h-50l-66 158l113 156h56l-115 -161z" />
    <glyph glyph-name="guilsinglright.uc" horiz-adv-x="198" 
d="M60 426h50l67 -158l-113 -156h-56l116 161z" />
    <glyph glyph-name="guillemotleft.uc" horiz-adv-x="318" 
d="M137 112h-51l-68 161l106 153h57l-109 -157zM258 112h-51l-63 154l111 160h57l-114 -164z" />
    <glyph glyph-name="guillemotright.uc" horiz-adv-x="323" 
d="M183 426h51l68 -161l-106 -153h-57l109 157zM62 426h51l63 -154l-111 -160h-57l114 164z" />
    <glyph glyph-name="parenleft.uc" horiz-adv-x="225" 
d="M1 -57l123 699q11 64 38.5 88.5t86.5 24.5h46l-8 -48h-38q-36 0 -50 -13.5t-21 -52.5l-123 -698q-6 -36 5 -53t44 -17h35l-9 -48h-28q-63 0 -87 32t-14 86z" />
    <glyph glyph-name="parenright.uc" horiz-adv-x="225" 
d="M230 637l-123 -699q-11 -64 -38.5 -88.5t-86.5 -24.5h-46l8 48h38q36 0 50 13.5t21 52.5l123 698q6 36 -5 53t-44 17h-35l8 48h29q63 0 87 -32t14 -86z" />
    <glyph glyph-name="bracketleft.uc" horiz-adv-x="225" 
d="M-21 -175l164 930h151l-8 -48h-97l-147 -834h97l-9 -48h-151z" />
    <glyph glyph-name="bracketright.uc" horiz-adv-x="225" 
d="M251 755l-164 -930h-151l8 48h97l147 834h-96l8 48h151z" />
    <glyph glyph-name="braceleft.uc" horiz-adv-x="234" 
d="M10 -57l45 254q7 37 -1 52t-30 15h-17l8 50h9q33 0 44.5 13.5t18.5 53.5l46 261q11 64 38.5 88.5t86.5 24.5h46l-8 -48h-38q-36 0 -50 -13.5t-21 -52.5l-46 -260q-9 -50 -21.5 -69.5t-34.5 -25.5q36 -18 24 -89l-45 -254q-6 -36 5 -53t44 -17h35l-9 -48h-28q-63 0 -87 32
t-14 86z" />
    <glyph glyph-name="braceright.uc" horiz-adv-x="234" 
d="M230 637l-45 -254q-7 -37 1 -52t30 -15h17l-8 -50h-9q-33 0 -44.5 -13.5t-18.5 -53.5l-46 -261q-11 -64 -38.5 -88.5t-86.5 -24.5h-45l8 48h37q36 0 50 13.5t21 52.5l46 260q9 50 21.5 69.5t34.5 25.5q-36 18 -24 89l45 254q6 36 -5 53t-44 17h-35l8 48h29q63 0 87 -32
t14 -86z" />
    <glyph glyph-name="slash.uc" horiz-adv-x="442" 
d="M484 731l-440 -786h-57l439 786h58z" />
    <glyph glyph-name="backslash.uc" horiz-adv-x="442" 
d="M304 -55l-191 786h52l190 -786h-51z" />
    <glyph glyph-name="bar.uc" horiz-adv-x="219" 
d="M152 731v-786h-55v786h55z" />
    <glyph glyph-name="at.uc" horiz-adv-x="942" 
d="M480 475q-72 0 -118 -55t-44 -130q0 -57 37 -97.5t98 -40.5q75 0 126.5 54t44.5 141q-5 59 -45 93.5t-99 34.5zM723 103q-51 0 -76 23.5t-29 53.5q-22 -32 -65 -55.5t-100 -23.5q-85 0 -139.5 50.5t-55.5 136.5q-1 100 63.5 169t158.5 69q59 0 101.5 -24t63.5 -64l14 81
h57l-48 -278q-15 -87 55 -87q65 0 108 64t43 159q0 156 -104.5 247t-277.5 91q-119 0 -210.5 -57.5t-137.5 -150.5t-46 -203q0 -176 115 -280t303 -104q160 0 278 104l32 -37q-48 -49 -130 -84t-182 -35q-221 0 -349 122.5t-128 314.5q0 195 128.5 328.5t329.5 133.5
t319.5 -110.5t118.5 -279.5q0 -123 -63 -198.5t-147 -75.5z" />
    </font>
</defs>
</svg>
