<?xml version="1.0" standalone="no"?>
<!DOCTYPE svg PUBLIC "-//W3C//DTD SVG 1.1//EN" "http://www.w3.org/Graphics/SVG/1.1/DTD/svg11.dtd" >
<svg>
<metadata>
Created by FontForge 20090622 at Thu Jan  7 09:57:08 2016
 By deploy user
Copyright &#194;&#169; 2010 Berton Hasebe, under exclusive license to Schwartzco Inc. d/b/a Commercial Type.
</metadata>
<defs>
<font id="Platform-BoldItalic" horiz-adv-x="394" >
  <font-face 
    font-family="Platform Bold"
    font-weight="700"
    font-style="italic"
    font-stretch="normal"
    units-per-em="1000"
    panose-1="2 11 8 4 3 2 2 9 2 4"
    ascent="825"
    descent="-175"
    x-height="535"
    cap-height="692"
    bbox="-109 -264 1164 1078"
    underline-thickness="50"
    underline-position="-50"
    slope="-10"
    unicode-range="U+0020-U+FB02"
  />
<missing-glyph horiz-adv-x="147" 
 />
    <glyph glyph-name="f_f" unicode="ff" horiz-adv-x="555" 
d="M528 551l-3 -16h62l-23 -135h-63l-70 -400h-158l70 400h-102l-70 -400h-158l70 400h-49l24 135h49l5 28q16 89 58 129t130 40q32 0 62 -1l-24 -133h-18q-27 0 -37 -11t-15 -36l-3 -16h102l5 28q16 89 58 129t130 40q32 0 62 -1l-24 -133h-18q-27 0 -37 -11t-15 -36z" />
    <glyph glyph-name=".notdef" horiz-adv-x="147" 
 />
    <glyph glyph-name=".null" horiz-adv-x="0" 
 />
    <glyph glyph-name="nonmarkingreturn" horiz-adv-x="333" 
 />
    <glyph glyph-name="space" unicode=" " horiz-adv-x="147" 
 />
    <glyph glyph-name="exclam" unicode="!" horiz-adv-x="247" 
d="M277 692l-86 -488h-158l86 488h158zM91 -12q-42 0 -70 28.5t-28 70.5t27.5 70t70.5 28t70.5 -28t27.5 -70t-28 -70.5t-70 -28.5z" />
    <glyph glyph-name="quotedbl" unicode="&#x22;" horiz-adv-x="392" 
d="M105 692h141l-48 -273h-141zM295 692h141l-48 -273h-141z" />
    <glyph glyph-name="numbersign" unicode="#" horiz-adv-x="622" 
d="M542 162h-99l-55 -162h-142l55 162h-84l-55 -162h-142l55 162h-77l23 129h98l43 128h-76l23 129h97l50 144h144l-50 -144h82l50 144h144l-50 -144h77l-23 -129h-98l-44 -128h77zM306 419l-44 -128h83l43 128h-82z" />
    <glyph glyph-name="dollar" unicode="$" horiz-adv-x="479" 
d="M361 759l-11 -64q68 -16 104.5 -67.5t33.5 -136.5h-132q0 53 -29 76l-27 -158l5 -3q38 -25 58 -40.5t43 -40.5t32.5 -55.5t9.5 -69.5q0 -92 -60.5 -149.5t-161.5 -60.5l-10 -59h-80l11 66q-77 17 -116.5 73.5t-35.5 144.5h139q-3 -67 36 -90l30 172l-11 7
q-66 42 -96 88.5t-30 109.5q0 84 56 140.5t152 60.5l10 56h80zM305 187q0 36 -33 62l-23 -132q56 15 56 70zM199 514q0 -33 29 -56l21 120q-50 -13 -50 -64z" />
    <glyph glyph-name="percent" unicode="%" horiz-adv-x="825" 
d="M816 692l-635 -692h-141l636 692h140zM236 584q-24 0 -41 -17t-17 -45q0 -23 13.5 -38t35.5 -15q28 0 43.5 17.5t15.5 44.5q0 23 -13.5 38t-36.5 15zM59 522q0 68 49.5 122.5t127.5 54.5t124.5 -46t46.5 -120t-51.5 -126.5t-128.5 -52.5q-78 0 -123 47t-45 121zM622 224
q-24 0 -41 -17t-17 -45q0 -23 13.5 -38t35.5 -15q28 0 43.5 17.5t15.5 44.5q0 23 -13.5 38t-36.5 15zM445 162q0 68 49.5 122.5t127.5 54.5t124.5 -46t46.5 -120t-51.5 -126.5t-128.5 -52.5q-78 0 -123 47t-45 121z" />
    <glyph glyph-name="ampersand" unicode="&#x26;" horiz-adv-x="666" 
d="M527 518q0 -74 -44 -119.5t-106 -56.5l74 -96q27 52 40 125h153q-4 -69 -31.5 -137.5t-63.5 -113.5l93 -120h-185l-23 29q-62 -42 -153 -42q-135 0 -204.5 61t-69.5 157q0 68 38.5 118t104.5 74q-35 55 -35 110q0 83 54.5 139.5t155.5 56.5q98 0 150 -52t52 -133z
M283 132q33 0 61 12l-121 155q-47 -24 -47 -81q0 -41 28.5 -63.5t78.5 -22.5zM326 572q-28 0 -45.5 -17t-17.5 -43q0 -25 16 -42t42 -17q29 0 46 17.5t17 44.5q0 24 -16 40.5t-42 16.5z" />
    <glyph glyph-name="quotesingle" unicode="'" horiz-adv-x="202" 
d="M105 692h141l-48 -273h-141z" />
    <glyph glyph-name="parenleft" unicode="(" horiz-adv-x="289" 
d="M2 62l92 522q24 137 85 185t185 41l-25 -143q-46 1 -65 -17.5t-28 -65.5l-92 -522q-9 -49 5 -70t56 -24l-25 -143q-110 4 -159 63.5t-29 173.5z" />
    <glyph glyph-name="parenright" unicode=")" horiz-adv-x="291" 
d="M304 573l-92 -522q-24 -137 -85 -185t-185 -41l25 143q46 -1 65 17.5t28 65.5l92 522q9 49 -5 70t-56 24l25 143q110 -4 159 -63.5t29 -173.5z" />
    <glyph glyph-name="asterisk" unicode="*" horiz-adv-x="406" 
d="M351 371l-69 47l-15 -86h-104l15 92l-77 -38l-42 90l82 40l-68 47l64 91l71 -49l14 87h107l-16 -92l76 38l44 -90l-85 -41l68 -47z" />
    <glyph glyph-name="plus" unicode="+" horiz-adv-x="467" 
d="M439 271h-134l-25 -144h-140l25 144h-133l23 133h133l25 142h140l-25 -142h134z" />
    <glyph glyph-name="comma" unicode="," horiz-adv-x="223" 
d="M144 2l-77 -114h-107l80 116q-57 23 -58 84q-1 42 27 69.5t72 27.5q42 0 69.5 -27.5t27.5 -66.5q0 -38 -34 -89z" />
    <glyph glyph-name="hyphen" unicode="-" horiz-adv-x="303" 
d="M12 211l27 150h261l-27 -150h-261z" />
    <glyph glyph-name="period" unicode="." horiz-adv-x="225" 
d="M83 -12q-42 0 -70 28.5t-28 70.5t27.5 70t70.5 28t70.5 -28t27.5 -70t-28 -70.5t-70 -28.5z" />
    <glyph glyph-name="slash" unicode="/" horiz-adv-x="483" 
d="M556 731l-470 -906h-151l469 906h152z" />
    <glyph glyph-name="zero" unicode="0" horiz-adv-x="521" 
d="M317 222l44 251q6 35 -10 55.5t-49 20.5t-48 -20.5t-21 -55.5l-45 -254q-6 -33 10.5 -54.5t48.5 -21.5q57 0 70 79zM523 473l-43 -252q-40 -234 -235 -234q-129 0 -183 66.5t-37 165.5l45 257q39 229 234 229q122 0 179 -65.5t40 -166.5z" />
    <glyph glyph-name="one" unicode="1" horiz-adv-x="272" 
d="M307 692l-122 -692h-163l93 524l-67 -22l28 158l81 32h150z" />
    <glyph glyph-name="two" unicode="2" horiz-adv-x="500" 
d="M436 0h-455l25 144l226 200q77 69 91 87q19 25 19 55q0 60 -60 60t-67 -67h-162q3 39 16 75.5t38 72t71 57t106 21.5q114 0 172.5 -56t58.5 -150q0 -72 -36 -123.5t-115 -115.5l-137 -111h235z" />
    <glyph glyph-name="three" unicode="3" horiz-adv-x="500" 
d="M136 283l23 131l147 129h-216l27 149h413l-26 -148l-163 -132q135 -34 135 -185q0 -112 -72 -176t-173 -64q-113 0 -173.5 59t-56.5 168h161q2 -71 69 -71q34 0 54.5 20.5t20.5 52.5q0 67 -76 67h-94z" />
    <glyph glyph-name="four" unicode="4" horiz-adv-x="561" 
d="M529 181h-69l-32 -181h-158l32 181h-300l24 137l366 374h158l-65 -368h69zM354 479l-155 -155h128z" />
    <glyph glyph-name="five" unicode="5" horiz-adv-x="500" 
d="M20 214h161q-10 -71 58 -71q55 0 69 81q5 27 5 42q0 25 -14.5 39.5t-40.5 14.5q-45 0 -61 -40h-159l73 412h392l-26 -149h-236l-18 -101q9 10 36.5 19.5t64.5 9.5q74 0 115.5 -43.5t41.5 -124.5q0 -42 -8 -92q-37 -224 -235 -224q-60 0 -103.5 15t-66 39t-36 54
t-13.5 60.5t1 58.5z" />
    <glyph glyph-name="six" unicode="6" horiz-adv-x="512" 
d="M489 264l-9 -59q-16 -101 -74 -159.5t-160 -58.5q-122 0 -180.5 68t-39.5 178l36 206q45 266 269 266q74 0 123 -22.5t73 -49.5l-105 -121q-38 35 -91 35q-49 0 -73 -26.5t-32 -74.5q33 29 97 29q87 0 134 -56t32 -155zM317 219l6 34q6 34 -10 55t-50 21q-58 0 -71 -75
l-6 -34q-6 -34 11 -55.5t49 -21.5q33 0 48.5 20t22.5 56z" />
    <glyph glyph-name="seven" unicode="7" horiz-adv-x="466" 
d="M506 587l-319 -587h-183l295 543h-240l27 149h439z" />
    <glyph glyph-name="eight" unicode="8" horiz-adv-x="523" 
d="M301 560q-30 0 -49 -21t-19 -52q0 -27 18 -44t46 -17q32 0 51 20.5t19 53.5q0 26 -17.5 43t-48.5 17zM72 496q0 84 60 146.5t166 62.5q113 0 171.5 -54.5t58.5 -137.5q0 -64 -29.5 -106.5t-75.5 -61.5q69 -47 69 -134q0 -89 -61.5 -156.5t-182.5 -67.5q-115 0 -176.5 57
t-61.5 144q0 63 32 111.5t84 69.5q-54 47 -54 127zM255 280q-35 0 -56.5 -22t-21.5 -56q0 -30 19.5 -49t51.5 -19q36 0 56.5 21.5t20.5 56.5q0 30 -18.5 49t-51.5 19z" />
    <glyph glyph-name="nine" unicode="9" horiz-adv-x="511" 
d="M208 -13q-124 0 -193 72l98 121q45 -35 95 -35q49 0 73 26.5t32 74.5q-10 -11 -34.5 -20t-49.5 -9q-90 0 -142 58t-36 160l8 52q15 98 76 158t160 60q120 0 179 -66.5t39 -178.5l-36 -207q-23 -129 -82.5 -197.5t-186.5 -68.5zM222 473l-6 -35q-6 -34 10 -55t50 -21
q58 0 71 75l6 35q6 34 -11 55.5t-49 21.5q-33 0 -48.5 -20t-22.5 -56z" />
    <glyph glyph-name="colon" unicode=":" horiz-adv-x="239" 
d="M89 -12q-42 0 -70 28.5t-28 70.5t27.5 70t70.5 28t70.5 -28t27.5 -70t-28 -70.5t-70 -28.5zM150 337q-42 0 -70 28.5t-28 70.5t27.5 70t70.5 28t70.5 -28t27.5 -70t-28 -70.5t-70 -28.5z" />
    <glyph glyph-name="semicolon" unicode=";" horiz-adv-x="239" 
d="M152 2l-77 -114h-107l80 116q-57 23 -58 84q-1 42 27 69.5t72 27.5q42 0 69.5 -27.5t27.5 -66.5q0 -38 -34 -89zM149 337q-42 0 -70 28.5t-28 70.5t27.5 70t70.5 28t70.5 -28t27.5 -70t-28 -70.5t-70 -28.5z" />
    <glyph glyph-name="less" unicode="&#x3c;" horiz-adv-x="411" 
d="M28 271l24 136l382 154l-26 -146l-220 -80l191 -86l-23 -133z" />
    <glyph glyph-name="equal" unicode="=" horiz-adv-x="468" 
d="M46 353l23 128h407l-23 -128h-407zM16 181l22 128h408l-23 -128h-407z" />
    <glyph glyph-name="greater" unicode="&#x3e;" horiz-adv-x="405" 
d="M407 406l-24 -136l-382 -154l27 150l221 80l-192 86l23 129z" />
    <glyph glyph-name="question" unicode="?" horiz-adv-x="474" 
d="M320 328l-22 -124h-157l42 239h88q29 0 47 17t18 48q0 25 -15 40t-41 15q-59 0 -65 -70h-159q2 32 13.5 65t35.5 67t70.5 55.5t108.5 21.5q102 0 156 -51t54 -136q0 -79 -48 -130.5t-126 -56.5zM201 -12q-42 0 -70 28.5t-28 70.5t27.5 70t70.5 28t70.5 -28t27.5 -70
t-28 -70.5t-70 -28.5z" />
    <glyph glyph-name="at" unicode="@" horiz-adv-x="960" 
d="M483 365q-37 0 -57 -26.5t-20 -62.5q0 -29 17.5 -48.5t46.5 -19.5q37 0 57.5 25.5t20.5 62.5q0 31 -17.5 50t-47.5 19zM721 74q-90 0 -126 52q-53 -53 -137 -53q-85 0 -140 54t-55 140q0 93 59 162t163 69q66 0 105 -34l5 27h130l-44 -247q-10 -53 44 -53q40 0 65.5 46
t25.5 117q0 124 -84.5 195.5t-235.5 71.5t-240 -96.5t-89 -236.5q0 -151 97.5 -241.5t255.5 -90.5q67 0 129.5 23t104.5 58l70 -87q-50 -51 -130.5 -81.5t-175.5 -30.5q-222 0 -354.5 125.5t-132.5 317.5q0 202 131.5 329t336.5 127q208 0 327.5 -107.5t119.5 -275.5
q0 -127 -64.5 -203.5t-160.5 -76.5z" />
    <glyph glyph-name="A" unicode="A" horiz-adv-x="639" 
d="M431 0l-26 166h-209l-84 -166h-167l357 692h170l126 -692h-167zM355 481l-89 -176h117z" />
    <glyph glyph-name="B" unicode="B" horiz-adv-x="516" 
d="M483 225q0 -107 -69.5 -166t-178.5 -59h-244l123 692h207q93 0 143 -48.5t50 -131.5q0 -107 -93 -156q62 -39 62 -131zM258 282h-56l-24 -137h63q31 0 51.5 20.5t20.5 55.5q0 29 -14.5 45t-40.5 16zM293 549h-44l-22 -126h55q29 0 47 17.5t18 51.5q0 57 -54 57z" />
    <glyph glyph-name="C" unicode="C" horiz-adv-x="594" 
d="M488 181l68 -131q-79 -62 -192 -62q-149 0 -240.5 92.5t-91.5 246.5q0 69 25 135t70.5 121t119 88.5t162.5 33.5q153 0 233 -85l-118 -118q-46 48 -120 48q-92 0 -146 -65.5t-54 -157.5q0 -79 41 -130.5t124 -53.5q63 0 119 38z" />
    <glyph glyph-name="D" unicode="D" horiz-adv-x="580" 
d="M-9 0l122 692h128q159 0 247.5 -79.5t88.5 -227.5q0 -179 -111.5 -282t-291.5 -103h-183zM252 545l-70 -398q96 0 159.5 58t63.5 180q0 74 -41 117t-112 43z" />
    <glyph glyph-name="E" unicode="E" horiz-adv-x="384" 
d="M310 0h-319l122 692h314l-27 -156h-151l-19 -107h146l-26 -154h-147l-21 -119h155z" />
    <glyph glyph-name="F" unicode="F" horiz-adv-x="384" 
d="M354 275h-150l-49 -275h-164l122 692h318l-27 -156h-154l-19 -107h149z" />
    <glyph glyph-name="G" unicode="G" horiz-adv-x="726" 
d="M708 382l-67 -382h-142l7 36q-48 -48 -162 -48q-137 0 -224 90.5t-87 241.5q0 165 108 275t270 110q120 0 189.5 -45.5t98.5 -114.5l-141 -85q-49 90 -148 90q-92 0 -148.5 -64t-56.5 -165q0 -81 44 -130.5t117 -49.5q93 0 148 50l10 54h-99l24 137h259z" />
    <glyph glyph-name="H" unicode="H" horiz-adv-x="637" 
d="M673 692l-122 -692h-164l48 273h-231l-49 -273h-164l122 692h164l-46 -260h232l46 260h164z" />
    <glyph glyph-name="I" unicode="I" horiz-adv-x="241" 
d="M277 692l-122 -692h-164l122 692h164z" />
    <glyph glyph-name="J" unicode="J" horiz-adv-x="298" 
d="M338 692l-91 -519q-16 -91 -61.5 -132.5t-142.5 -41.5q-46 0 -68 2l27 153h38q39 1 47 48l87 490h164z" />
    <glyph glyph-name="K" unicode="K" horiz-adv-x="565" 
d="M277 692l-47 -269l228 269h185l-287 -337l168 -355h-176l-140 299l-53 -299h-164l122 692h164z" />
    <glyph glyph-name="L" unicode="L" horiz-adv-x="374" 
d="M304 0h-313l122 692h164l-95 -538h149z" />
    <glyph glyph-name="M" unicode="M" horiz-adv-x="852" 
d="M690 464l-234 -464h-154l-75 464l-82 -464h-154l122 692h226l78 -461l235 461h236l-122 -692h-158z" />
    <glyph glyph-name="N" unicode="N" horiz-adv-x="656" 
d="M413 0l-190 425l-75 -425h-157l122 692h165l180 -431l77 431h157l-122 -692h-157z" />
    <glyph glyph-name="O" unicode="O" horiz-adv-x="751" 
d="M32 329q0 153 105.5 264.5t274.5 111.5q151 0 242 -90.5t91 -237.5q0 -168 -101.5 -279t-268.5 -111q-157 0 -250 92t-93 250zM406 550q-92 0 -147 -65.5t-55 -155.5q0 -79 42.5 -133t122.5 -54q93 0 148.5 64.5t55.5 170.5q0 76 -44 124.5t-123 48.5z" />
    <glyph glyph-name="P" unicode="P" horiz-adv-x="509" 
d="M530 502q0 -106 -66.5 -166t-173.5 -60h-86l-49 -276h-164l122 692h192q225 0 225 -190zM301 548h-49l-23 -128h60q32 0 50 20.5t18 54.5q0 53 -56 53z" />
    <glyph glyph-name="Q" unicode="Q" horiz-adv-x="752" 
d="M32 329q0 154 105.5 265t274.5 111q151 0 242 -90t91 -237q0 -133 -71 -237l45 -47l-107 -107l-49 49q-85 -49 -188 -49q-156 0 -249.5 92.5t-93.5 249.5zM406 550q-92 0 -147 -65.5t-55 -155.5q0 -79 42.5 -133t122.5 -54q44 0 77 13l-43 44l110 109l40 -42
q20 49 20 111q0 76 -44 124.5t-123 48.5z" />
    <glyph glyph-name="R" unicode="R" horiz-adv-x="541" 
d="M530 501q0 -58 -31.5 -110.5t-97.5 -78.5l103 -312h-168l-87 281h-44l-50 -281h-164l122 692h204q103 0 158 -49t55 -142zM301 548h-50l-22 -127h60q32 0 50 20t18 54q0 53 -56 53z" />
    <glyph glyph-name="S" unicode="S" horiz-adv-x="478" 
d="M279 560q-25 0 -38.5 -12.5t-13.5 -34.5q0 -7 1.5 -13.5t3 -11t7 -11l8.5 -10t12 -11l13.5 -11l17 -13t18.5 -14.5l37 -28.5t30.5 -26t30.5 -32.5l19.5 -33t16.5 -44t4 -50q0 -94 -63.5 -154t-167.5 -60q-111 0 -168.5 58.5t-51.5 166.5h161q-2 -82 59 -82q26 0 42 15
t16 41q0 11 -2.5 20t-6 15t-13 15t-15.5 14t-23 18l-27 21q-65 51 -94 96t-29 114q0 87 59 144t160 57q100 0 154.5 -53.5t50.5 -158.5h-153q1 30 -13 49.5t-42 19.5z" />
    <glyph glyph-name="T" unicode="T" horiz-adv-x="423" 
d="M451 536h-112l-94 -536h-164l94 536h-114l28 156h390z" />
    <glyph glyph-name="U" unicode="U" horiz-adv-x="627" 
d="M38 282l72 410h164l-71 -403q-11 -63 13 -103t84 -40t89 36.5t41 103.5l72 406h164l-73 -414q-25 -142 -97 -215t-200 -73q-141 0 -211 80t-47 212z" />
    <glyph glyph-name="V" unicode="V" horiz-adv-x="660" 
d="M205 0l-134 692h167l89 -481l232 481h176l-345 -692h-185z" />
    <glyph glyph-name="W" unicode="W" horiz-adv-x="976" 
d="M571 0l-54 437l-179 -437h-194l-70 692h169l41 -471l187 471h173l51 -471l184 471h169l-285 -692h-192z" />
    <glyph glyph-name="X" unicode="X" horiz-adv-x="611" 
d="M256 692l86 -190l151 190h194l-276 -343l159 -349h-173l-98 209l-168 -209h-186l283 358l-156 334h184z" />
    <glyph glyph-name="Y" unicode="Y" horiz-adv-x="525" 
d="M193 340l-127 352h170l61 -195l133 195h175l-249 -356l-59 -336h-164z" />
    <glyph glyph-name="Z" unicode="Z" horiz-adv-x="566" 
d="M496 0h-517l19 110l349 429h-275l27 153h519l-19 -109l-363 -431h287z" />
    <glyph glyph-name="bracketleft" unicode="[" horiz-adv-x="290" 
d="M-40 -175l174 985h231l-25 -144h-80l-123 -697h80l-26 -144h-231z" />
    <glyph glyph-name="backslash" unicode="\" horiz-adv-x="449" 
d="M232 -175l-144 906h133l144 -906h-133z" />
    <glyph glyph-name="bracketright" unicode="]" horiz-adv-x="292" 
d="M347 810l-174 -985h-231l25 144h80l123 697h-80l26 144h231z" />
    <glyph glyph-name="asciicircum" unicode="^" horiz-adv-x="521" 
d="M418 692l112 -307h-151l-59 157l-108 -157h-173l216 307h163z" />
    <glyph glyph-name="underscore" unicode="_" horiz-adv-x="605" 
d="M-42 -149l22 128h548l-22 -128h-548z" />
    <glyph glyph-name="grave" unicode="`" horiz-adv-x="468" 
d="M169 708h142l47 -140h-135z" />
    <glyph glyph-name="a" unicode="a" horiz-adv-x="467" 
d="M2 167q0 81 50.5 133.5t141.5 52.5q68 0 100 -22l4 25q9 58 -46 58q-45 0 -51 -46h-146q10 75 58 124t142 49q106 0 159.5 -52.5t34.5 -161.5l-57 -327h-117l5 31q-33 -37 -105 -37q-77 0 -125 48.5t-48 124.5zM215 240q-29 0 -47 -18.5t-18 -46.5q0 -24 15.5 -39
t40.5 -15q28 0 46.5 19.5t18.5 48.5q0 23 -15.5 37t-40.5 14z" />
    <glyph glyph-name="b" unicode="b" horiz-adv-x="599" 
d="M273 731l-38 -218q39 31 118 31q103 0 166 -67.5t63 -185.5q0 -44 -9.5 -85.5t-31.5 -80.5t-54.5 -68.5t-82 -47.5t-110.5 -18q-87 0 -143 45l-7 -36h-158l129 731h158zM315 402q-60 0 -94.5 -44.5t-34.5 -107.5q0 -50 29.5 -82.5t78.5 -32.5q62 0 96 45.5t32 109.5
q-2 50 -31 81t-76 31z" />
    <glyph glyph-name="c" unicode="c" horiz-adv-x="467" 
d="M284 134q45 0 81 24l65 -119q-63 -48 -157 -48q-110 0 -183 71t-73 186q0 122 78.5 209t213.5 87q116 0 175 -63l-103 -106q-31 26 -77 26q-58 0 -92.5 -43.5t-34.5 -104.5q0 -52 29 -85.5t78 -33.5z" />
    <glyph glyph-name="d" unicode="d" horiz-adv-x="601" 
d="M306 544q93 0 146 -44l41 231h158l-129 -731h-134l6 36q-18 -20 -56.5 -32.5t-80.5 -12.5q-106 0 -173 70t-67 182q0 78 31 145t98.5 111.5t159.5 44.5zM284 135q60 0 94.5 43.5t34.5 106.5q0 54 -29 85.5t-79 31.5q-60 0 -94 -45t-34 -108q0 -49 29 -81.5t78 -32.5z" />
    <glyph glyph-name="e" unicode="e" horiz-adv-x="548" 
d="M524 215h-349q8 -83 105 -83q65 0 121 61l102 -86q-32 -47 -88.5 -81.5t-134.5 -34.5q-123 0 -193 67.5t-70 192.5q0 71 29.5 136t94.5 111t152 46q112 0 177.5 -63t65.5 -168q0 -48 -12 -98zM289 410q-40 0 -64.5 -23.5t-31.5 -58.5h184q0 38 -23 60t-65 22z" />
    <glyph glyph-name="f" unicode="f" horiz-adv-x="295" 
d="M268 551l-3 -16h62l-23 -135h-63l-70 -400h-158l70 400h-49l24 135h49l5 28q16 89 58 129t130 40q32 0 62 -1l-24 -133h-18q-27 0 -37 -11t-15 -36z" />
    <glyph glyph-name="g" unicode="g" horiz-adv-x="600" 
d="M371 27q-36 -36 -109 -36q-112 0 -178.5 70t-66.5 182q0 126 77 213.5t214 87.5q94 0 148 -44l6 35h152l-87 -505q-20 -116 -90.5 -165.5t-187.5 -49.5q-128 0 -222 62l64 125q75 -49 161 -49q50 0 82.5 18.5t36.5 55.5zM284 134q60 0 94.5 43.5t34.5 106.5
q0 54 -29 85.5t-79 31.5q-60 0 -94 -45t-34 -108q0 -49 29 -81.5t78 -32.5z" />
    <glyph glyph-name="h" unicode="h" horiz-adv-x="490" 
d="M255 0l58 329q5 33 -8.5 51.5t-40.5 18.5q-52 0 -62 -64l-58 -335h-158l129 731h158l-41 -230q40 40 100 40q86 0 120.5 -58.5t18.5 -153.5l-58 -329h-158z" />
    <glyph glyph-name="i" unicode="i" horiz-adv-x="222" 
d="M237 535l-92 -535h-158l92 535h158zM175 556q-38 0 -64.5 26.5t-26.5 64.5t26.5 65t64.5 27t65 -27t27 -65t-27 -64.5t-65 -26.5z" />
    <glyph glyph-name="j" unicode="j" horiz-adv-x="224" 
d="M240 535l-94 -535q-17 -98 -61 -137t-135 -39q-38 0 -58 1l24 136h25q23 0 33.5 12t14.5 35l93 527h158zM178 556q-38 0 -64.5 26.5t-26.5 64.5t26.5 65t64.5 27t65 -27t27 -65t-27 -64.5t-65 -26.5z" />
    <glyph glyph-name="k" unicode="k" horiz-adv-x="504" 
d="M273 731l-69 -391l164 195h183l-221 -254l124 -281h-171l-98 232l-41 -232h-158l129 731h158z" />
    <glyph glyph-name="l" unicode="l" horiz-adv-x="223" 
d="M273 731l-129 -731h-158l129 731h158z" />
    <glyph glyph-name="m" unicode="m" horiz-adv-x="759" 
d="M472 335l-57 -335h-158l57 329q6 34 -7.5 52t-41.5 18q-50 0 -62 -64l-58 -335h-158l91 535h158l-6 -36q39 42 107 42q77 0 113 -52q50 52 134 52q93 0 132.5 -62t25.5 -147l-57 -332h-158l57 329q5 33 -8 51.5t-42 18.5q-52 0 -62 -64z" />
    <glyph glyph-name="n" unicode="n" horiz-adv-x="491" 
d="M256 0l58 329q6 34 -7.5 52t-41.5 18q-50 0 -62 -64l-58 -335h-158l92 535h157l-6 -36q36 42 103 42q86 0 120.5 -58.5t18.5 -153.5l-58 -329h-158z" />
    <glyph glyph-name="o" unicode="o" horiz-adv-x="594" 
d="M306 401q-59 0 -94 -44.5t-35 -105.5q0 -50 30 -83.5t79 -33.5q62 0 96.5 43t34.5 108q0 51 -30 83.5t-81 32.5zM17 248q0 121 79.5 208.5t211.5 87.5q123 0 196 -71t73 -182q0 -130 -82 -215t-213 -85q-117 0 -191 70.5t-74 186.5z" />
    <glyph glyph-name="p" unicode="p" horiz-adv-x="598" 
d="M234 535l-6 -34q50 43 129 43q95 0 159.5 -66.5t64.5 -180.5q0 -132 -76.5 -219t-212.5 -87q-85 0 -142 45l-38 -211h-158l126 710h154zM312 401q-59 0 -93 -44.5t-34 -105.5q0 -51 29 -84t77 -33q61 0 95.5 43t34.5 108q0 51 -29 83.5t-80 32.5z" />
    <glyph glyph-name="q" unicode="q" horiz-adv-x="598" 
d="M309 544q95 0 147 -43l6 34h154l-125 -710h-158l35 196q-39 -30 -111 -30q-111 0 -175.5 73.5t-64.5 178.5q0 126 78 213.5t214 87.5zM284 134q61 0 95 43t34 108q0 51 -29 83.5t-80 32.5q-59 0 -93 -44.5t-34 -105.5q0 -50 29.5 -83.5t77.5 -33.5z" />
    <glyph glyph-name="r" unicode="r" horiz-adv-x="298" 
d="M328 538l-29 -169h-39q-27 0 -41.5 -12t-19.5 -43l-54 -314h-158l92 535h158l-7 -40q33 48 98 43z" />
    <glyph glyph-name="s" unicode="s" horiz-adv-x="413" 
d="M224 420q-38 0 -38 -30q0 -11 7 -18.5t15 -11.5t31 -13q8 -3 12 -5q69 -28 102 -64t33 -107q0 -84 -58 -131t-145 -47q-95 0 -146.5 45.5t-46.5 137.5h148q-3 -56 46 -56q42 0 42 33q0 8 -2.5 13.5t-5 9.5t-11 8.5l-14 7.5t-20.5 9t-24 10q-113 50 -113 163
q0 72 51.5 120t137.5 48q85 0 135.5 -40.5t46.5 -133.5h-139q0 52 -44 52z" />
    <glyph glyph-name="t" unicode="t" horiz-adv-x="304" 
d="M278 620l-15 -85h69l-24 -135h-69l-38 -219q-8 -43 29 -43h32l-24 -136q-28 -8 -72 -8q-76 0 -108 46t-18 127l41 233h-47l24 135h47l15 85h158z" />
    <glyph glyph-name="u" unicode="u" horiz-adv-x="487" 
d="M236 535l-57 -329q-12 -69 46 -69q50 0 61 64l58 334h158l-92 -535h-152l6 32q-35 -38 -103 -38q-82 0 -119 58.5t-21 150.5l57 332h158z" />
    <glyph glyph-name="v" unicode="v" horiz-adv-x="531" 
d="M207 535l44 -339l157 339h169l-269 -535h-176l-86 535h161z" />
    <glyph glyph-name="w" unicode="w" horiz-adv-x="790" 
d="M520 535l26 -328l123 328h162l-220 -535h-177l-31 304l-127 -304h-177l-48 535h160l20 -328l129 328h160z" />
    <glyph glyph-name="x" unicode="x" horiz-adv-x="543" 
d="M232 535l63 -128l106 128h180l-219 -262l137 -273h-168l-75 146l-122 -146h-176l231 278l-131 257h174z" />
    <glyph glyph-name="y" unicode="y" horiz-adv-x="534" 
d="M46 535h164l57 -294l145 294h168l-367 -710h-159l104 205z" />
    <glyph glyph-name="z" unicode="z" horiz-adv-x="435" 
d="M439 417l-250 -287h197l-19 -130h-389l20 118l242 288h-192l24 129h387z" />
    <glyph glyph-name="braceleft" unicode="{" horiz-adv-x="329" 
d="M39 62l23 132q5 32 -6 46t-42 14l26 150q36 0 49.5 13t21.5 55l21 118q24 135 85.5 181t186.5 39l-26 -144q-49 2 -68 -16.5t-27 -64.5l-23 -132q-12 -68 -31 -99.5t-59 -40.5q61 -26 44 -122l-23 -129q-8 -49 5 -70t59 -23l-25 -144q-117 4 -164 62t-27 175z" />
    <glyph glyph-name="bar" unicode="|" horiz-adv-x="298" 
d="M230 731v-906h-133v906h133z" />
    <glyph glyph-name="braceright" unicode="}" horiz-adv-x="331" 
d="M307 573l-23 -132q-5 -32 6 -46t42 -14l-26 -150q-36 0 -49.5 -13t-21.5 -55l-21 -118q-24 -135 -85.5 -181t-186.5 -39l26 144q49 -2 68 16.5t27 64.5l23 132q12 68 31 99.5t59 40.5q-61 26 -44 122l23 129q8 49 -5 70t-59 23l25 144q117 -4 164 -62t27 -175z" />
    <glyph glyph-name="asciitilde" unicode="~" horiz-adv-x="481" 
d="M322 205q-37 0 -79 19q-44 18 -63 18q-35 0 -39 -37h-129q4 85 48 138t113 53q36 0 80 -19q42 -20 61 -20q34 0 37 41h130q-5 -89 -48.5 -141t-110.5 -52z" />
    <glyph glyph-name="uni00A0" unicode="&#xa0;" horiz-adv-x="147" 
 />
    <glyph glyph-name="exclamdown" unicode="&#xa1;" horiz-adv-x="247" 
d="M-21 -102l86 488h158l-86 -488h-158zM165 602q42 0 70 -28.5t28 -70.5t-27.5 -70t-70.5 -28t-70.5 28t-27.5 70t28 70.5t70 28.5z" />
    <glyph glyph-name="cent" unicode="&#xa2;" horiz-adv-x="479" 
d="M261 -69h-80l12 71q-80 24 -128 89t-48 157q0 117 73 203t199 92l11 61h80l-12 -65q82 -13 128 -59l-103 -106q-20 18 -49 26l-48 -271q36 2 81 30l65 -119q-64 -49 -167 -49h-4zM172 253q0 -70 47 -104l44 250q-42 -15 -66.5 -55.5t-24.5 -90.5z" />
    <glyph glyph-name="sterling" unicode="&#xa3;" horiz-adv-x="547" 
d="M17 263l25 141h53l15 84q38 215 227 215q56 0 99 -15t65.5 -39.5t37.5 -55t15.5 -61.5t-1.5 -59h-160q8 78 -56 78q-53 0 -67 -78l-12 -69h130l-25 -141h-130l-20 -114h291l-26 -149h-507l27 149h52l20 114h-53z" />
    <glyph glyph-name="yen" unicode="&#xa5;" horiz-adv-x="527" 
d="M85 411h124l-136 281h175l61 -141l112 141h183l-233 -281h124l-21 -117h-123l-8 -47h123l-20 -117h-123l-22 -130h-163l22 130h-124l21 117h123l8 47h-123z" />
    <glyph glyph-name="brokenbar" unicode="&#xa6;" horiz-adv-x="298" 
d="M230 256v-431h-133v431h133zM230 731v-420h-133v420h133z" />
    <glyph glyph-name="section" unicode="&#xa7;" horiz-adv-x="571" 
d="M553 273q-2 -65 -35.5 -103.5t-81.5 -53.5q20 -40 20 -90q0 -84 -57 -146t-162 -62q-107 0 -162.5 52t-50.5 159h157q-3 -65 56 -65q24 0 38 13t15 33q1 23 -12 36.5t-41 25.5l-104 47q-111 51 -111 161q0 66 36.5 108.5t89.5 58.5q-23 35 -23 86q0 81 55 142.5t162 61.5
q103 0 160.5 -53t49.5 -154h-157q0 25 -14 43t-40 18t-39.5 -13t-13.5 -33q0 -19 12 -31t40 -25l87 -40q69 -32 97.5 -72.5t28.5 -103.5zM213 272l114 -52q21 -11 41 -1t20 34t-24 35l-117 55q-22 11 -42 1t-20 -34q0 -25 28 -38z" />
    <glyph glyph-name="dieresis" unicode="&#xa8;" horiz-adv-x="468" 
d="M202 563q-35 0 -58.5 23.5t-23.5 57.5q0 35 23.5 58.5t58.5 23.5q36 0 59.5 -23.5t23.5 -58.5q0 -34 -24 -57.5t-59 -23.5zM396 563q-35 0 -58.5 23.5t-23.5 57.5q0 35 23.5 58.5t58.5 23.5q36 0 59.5 -23.5t23.5 -58.5q0 -34 -24 -57.5t-59 -23.5z" />
    <glyph glyph-name="copyright" unicode="&#xa9;" horiz-adv-x="770" 
d="M34 345q0 153 101 256.5t259 103.5q167 0 267.5 -101t100.5 -256q0 -154 -100.5 -257.5t-262.5 -103.5q-164 0 -264.5 101.5t-100.5 256.5zM133 345q0 -118 71.5 -193.5t194.5 -75.5t193.5 75.5t70.5 196.5q0 120 -71.5 194t-197.5 74q-118 0 -189.5 -76t-71.5 -195z
M539 499l-74 -97q-19 21 -55 21q-32 0 -50.5 -21.5t-18.5 -55.5q0 -33 20 -54.5t52 -21.5q31 0 52 18l74 -90q-50 -48 -125 -48q-92 0 -146 55.5t-54 139.5t54.5 140.5t143.5 56.5q75 0 127 -43z" />
    <glyph glyph-name="ordfeminine" unicode="&#xaa;" horiz-adv-x="361" 
d="M43 415q0 60 39 100.5t107 40.5q52 0 74 -17l3 19q7 43 -34 43q-34 0 -38 -34h-112q8 57 44.5 94t107.5 37q81 0 121.5 -40t26.5 -122l-43 -247h-89l4 22q-24 -27 -80 -27q-57 0 -94 37t-37 94zM204 468q-22 0 -35 -13.5t-13 -33.5q0 -17 11.5 -28t29.5 -11
q22 0 35.5 13.5t13.5 35.5q0 17 -12 27t-30 10z" />
    <glyph glyph-name="guillemotleft" unicode="&#xab;" horiz-adv-x="427" 
d="M201 94h-128l-59 190l100 159h135l-104 -171zM375 94h-128l-53 173l109 176h135l-113 -188z" />
    <glyph glyph-name="registered" unicode="&#xae;" horiz-adv-x="455" 
d="M273 506h-12v-80h-65v220h93q36 0 55 -18.5t19 -50.5q0 -37 -29 -57l37 -94h-67zM277 592h-16v-35h16q19 0 19 18q0 17 -19 17zM68 533q0 87 57.5 146t147.5 59q94 0 152 -58t58 -146q0 -87 -57.5 -146t-150.5 -59q-92 0 -149.5 58t-57.5 146zM124 533q0 -67 41 -110
t110 -43q70 0 110.5 43t40.5 111t-41 110t-112 42q-67 0 -108 -42.5t-41 -110.5z" />
    <glyph glyph-name="macron" unicode="&#xaf;" 
d="M120 576l21 116h245l-21 -116h-245z" />
    <glyph glyph-name="degree" unicode="&#xb0;" horiz-adv-x="357" 
d="M62 532q0 68 44.5 119.5t118.5 51.5t117.5 -43t43.5 -114q0 -69 -46 -118t-118 -49q-73 0 -116.5 42.5t-43.5 110.5zM167 536q0 -24 15 -39.5t40 -15.5q27 0 43 19.5t16 45.5q0 24 -15.5 39.5t-39.5 15.5q-27 0 -43 -19t-16 -46z" />
    <glyph glyph-name="twosuperior" unicode="&#xb2;" horiz-adv-x="330" 
d="M322 335h-293l14 84l140 87q32 19 44 31t12 27q0 28 -29 28q-15 0 -23.5 -10t-8.5 -26h-110q0 57 38 99.5t111 42.5q65 0 103.5 -33.5t38.5 -83.5q0 -44 -22.5 -70.5t-66.5 -51.5l-43 -24h112z" />
    <glyph glyph-name="threesuperior" unicode="&#xb3;" horiz-adv-x="321" 
d="M133 485l13 72l66 40h-117l17 95h245l-17 -91l-74 -44q73 -20 73 -95q0 -61 -42 -97.5t-112 -36.5q-73 0 -108 35.5t-31 93.5h113q-2 -34 29 -34q15 0 24 9.5t9 23.5q0 29 -32 29h-56z" />
    <glyph glyph-name="acute" unicode="&#xb4;" horiz-adv-x="468" 
d="M277 708h150l-95 -140h-148z" />
    <glyph glyph-name="paragraph" unicode="&#xb6;" horiz-adv-x="487" 
d="M112 0l71 405q-54 6 -87.5 42t-33.5 91q0 67 48 110.5t120 43.5h123l-122 -692h-119zM523 692l-122 -692h-119l122 692h119z" />
    <glyph glyph-name="periodcentered" unicode="&#xb7;" horiz-adv-x="238" 
d="M130 230q-42 0 -70 28.5t-28 70.5t27.5 70t70.5 28t70.5 -28t27.5 -70t-28 -70.5t-70 -28.5z" />
    <glyph glyph-name="cedilla" unicode="&#xb8;" 
d="M77 -112l23 129h86l-11 -58q54 -28 54 -100q0 -57 -39 -90t-103 -33h-37l16 87h22q40 0 40 36q0 29 -34 29h-17z" />
    <glyph glyph-name="onesuperior" unicode="&#xb9;" horiz-adv-x="197" 
d="M242 692l-63 -357h-117l46 259l-43 -14l15 91l56 21h106z" />
    <glyph glyph-name="ordmasculine" unicode="&#xba;" horiz-adv-x="443" 
d="M267 583q-42 0 -66.5 -30.5t-24.5 -72.5q0 -34 21.5 -57t54.5 -23q43 0 67.5 29.5t24.5 74.5q0 35 -21 57t-56 22zM51 477q0 91 59.5 156t157.5 65q92 0 146.5 -53t54.5 -136q0 -97 -61 -160.5t-159 -63.5q-88 0 -143 52.5t-55 139.5z" />
    <glyph glyph-name="guillemotright" unicode="&#xbb;" horiz-adv-x="427" 
d="M226 443h128l59 -190l-100 -159h-135l104 171zM52 443h128l53 -173l-109 -176h-135l113 188z" />
    <glyph glyph-name="onequarter" unicode="&#xbc;" horiz-adv-x="699" 
d="M638 54h-36l-9 -54h-113l9 54h-168l18 102l204 205h114l-36 -202h36zM521 233l-75 -74h62zM693 692l-590 -692h-125l586 692h129zM273 692l-63 -357h-117l46 259l-43 -14l15 91l56 21h106z" />
    <glyph glyph-name="onehalf" unicode="&#xbd;" horiz-adv-x="742" 
d="M693 692l-590 -692h-125l586 692h129zM271 692l-63 -357h-117l46 259l-43 -14l15 91l56 21h106zM664 0h-293l14 84l140 87q32 19 44 31t12 27q0 28 -29 28q-15 0 -23.5 -10t-8.5 -26h-110q0 57 38 99.5t111 42.5q65 0 103.5 -33.5t38.5 -83.5q0 -44 -22.5 -70.5
t-66.5 -51.5l-43 -24h112z" />
    <glyph glyph-name="threequarters" unicode="&#xbe;" horiz-adv-x="770" 
d="M709 54h-36l-9 -54h-113l9 54h-168l18 102l204 205h114l-36 -202h36zM592 233l-75 -74h62zM133 485l13 72l66 40h-117l17 95h245l-17 -91l-74 -44q73 -20 73 -95q0 -61 -42 -97.5t-112 -36.5q-73 0 -108 35.5t-31 93.5h113q-2 -34 29 -34q15 0 24 9.5t9 23.5q0 29 -32 29
h-56zM764 692l-590 -692h-125l586 692h129z" />
    <glyph glyph-name="questiondown" unicode="&#xbf;" horiz-adv-x="474" 
d="M161 262l22 124h157l-42 -239h-88q-29 0 -47 -17t-18 -48q0 -25 15 -40t41 -15q59 0 65 70h159q-2 -32 -13.5 -65t-35.5 -67t-70.5 -55.5t-108.5 -21.5q-102 0 -156 51t-54 136q0 79 48 130.5t126 56.5zM280 602q42 0 70 -28.5t28 -70.5t-27.5 -70t-70.5 -28t-70.5 28
t-27.5 70t28 70.5t70 28.5z" />
    <glyph glyph-name="Agrave" unicode="&#xc0;" horiz-adv-x="639" 
d="M431 0l-26 166h-209l-84 -166h-167l357 692h170l126 -692h-167zM267 853h142l44 -132h-135zM355 481l-89 -176h117z" />
    <glyph glyph-name="Aacute" unicode="&#xc1;" horiz-adv-x="639" 
d="M431 0l-26 166h-209l-84 -166h-167l357 692h170l126 -692h-167zM405 853h154l-91 -132h-150zM355 481l-89 -176h117z" />
    <glyph glyph-name="Acircumflex" unicode="&#xc2;" horiz-adv-x="639" 
d="M431 0l-26 166h-209l-84 -166h-167l357 692h170l126 -692h-167zM329 853h144l77 -132h-125l-32 45l-44 -45h-143zM355 481l-89 -176h117z" />
    <glyph glyph-name="Atilde" unicode="&#xc3;" horiz-adv-x="639" 
d="M431 0l-26 166h-209l-84 -166h-167l357 692h170l126 -692h-167zM448 723q-25 0 -58 14.5t-44 14.5q-27 0 -30 -31h-110q5 64 39 104.5t87 40.5q26 0 58 -14.5t44 -14.5q24 0 27 31h110q-7 -67 -39 -106t-84 -39zM355 481l-89 -176h117z" />
    <glyph glyph-name="Adieresis" unicode="&#xc4;" horiz-adv-x="639" 
d="M431 0l-26 166h-209l-84 -166h-167l357 692h170l126 -692h-167zM289 712q-35 0 -58.5 24t-23.5 59t23.5 58.5t58.5 23.5q37 0 61 -23.5t24 -58.5t-24.5 -59t-60.5 -24zM497 712q-35 0 -58.5 24t-23.5 59t23.5 58.5t58.5 23.5q37 0 61 -23.5t24 -58.5t-24.5 -59t-60.5 -24
zM355 481l-89 -176h117z" />
    <glyph glyph-name="Aring" unicode="&#xc5;" horiz-adv-x="639" 
d="M431 0l-26 166h-209l-84 -166h-167l357 692h170l126 -692h-167zM281 819q0 48 32 79.5t81 31.5q52 0 84 -31t32 -78q0 -49 -31.5 -80t-83.5 -31q-50 0 -82 31t-32 78zM355 481l-89 -176h117zM356 821q0 -19 11 -30.5t29 -11.5q17 0 28 11.5t11 30.5q0 18 -10.5 29
t-28.5 11t-29 -11t-11 -29z" />
    <glyph glyph-name="AE" unicode="&#xc6;" horiz-adv-x="774" 
d="M700 0h-319l26 148h-177l-102 -148h-185l494 692h380l-27 -156h-151l-19 -107h146l-26 -154h-147l-21 -119h155zM327 288h104l36 201z" />
    <glyph glyph-name="Ccedilla" unicode="&#xc7;" horiz-adv-x="594" 
d="M209 -112l22 123q-93 35 -146 117.5t-53 198.5q0 69 25 135t70.5 121t119 88.5t162.5 33.5q153 0 233 -85l-118 -118q-46 48 -120 48q-92 0 -146 -65.5t-54 -157.5q0 -79 41 -130.5t124 -53.5q63 0 119 38l68 -131q-79 -62 -192 -62q-27 0 -51 3l-6 -32q54 -28 54 -100
q0 -57 -39 -90t-103 -33h-37l16 87h22q40 0 40 36q0 29 -34 29h-17z" />
    <glyph glyph-name="Egrave" unicode="&#xc8;" horiz-adv-x="384" 
d="M310 0h-319l122 692h314l-27 -156h-151l-19 -107h146l-26 -154h-147l-21 -119h155zM158 853h142l44 -132h-135z" />
    <glyph glyph-name="Eacute" unicode="&#xc9;" horiz-adv-x="384" 
d="M310 0h-319l122 692h314l-27 -156h-151l-19 -107h146l-26 -154h-147l-21 -119h155zM284 853h154l-91 -132h-150z" />
    <glyph glyph-name="Ecircumflex" unicode="&#xca;" horiz-adv-x="384" 
d="M310 0h-319l122 692h314l-27 -156h-151l-19 -107h146l-26 -154h-147l-21 -119h155zM220 853h144l77 -132h-125l-32 45l-44 -45h-143z" />
    <glyph glyph-name="Edieresis" unicode="&#xcb;" horiz-adv-x="384" 
d="M310 0h-319l122 692h314l-27 -156h-151l-19 -107h146l-26 -154h-147l-21 -119h155zM181 712q-35 0 -58.5 24t-23.5 59t23.5 58.5t58.5 23.5q37 0 61 -23.5t24 -58.5t-24.5 -59t-60.5 -24zM389 712q-35 0 -58.5 24t-23.5 59t23.5 58.5t58.5 23.5q37 0 61 -23.5t24 -58.5
t-24.5 -59t-60.5 -24z" />
    <glyph glyph-name="Igrave" unicode="&#xcc;" horiz-adv-x="241" 
d="M277 692l-122 -692h-164l122 692h164zM77 853h142l44 -132h-135z" />
    <glyph glyph-name="Iacute" unicode="&#xcd;" horiz-adv-x="241" 
d="M277 692l-122 -692h-164l122 692h164zM214 853h154l-91 -132h-150z" />
    <glyph glyph-name="Icircumflex" unicode="&#xce;" horiz-adv-x="241" 
d="M142 853h144l77 -132h-125l-32 45l-44 -45h-143zM277 692l-122 -692h-164l122 692h164z" />
    <glyph glyph-name="Idieresis" unicode="&#xcf;" horiz-adv-x="241" 
d="M104 712q-35 0 -58.5 24t-23.5 59t23.5 58.5t58.5 23.5q37 0 61 -23.5t24 -58.5t-24.5 -59t-60.5 -24zM312 712q-35 0 -58.5 24t-23.5 59t23.5 58.5t58.5 23.5q37 0 61 -23.5t24 -58.5t-24.5 -59t-60.5 -24zM277 692l-122 -692h-164l122 692h164z" />
    <glyph glyph-name="Eth" unicode="&#xd0;" horiz-adv-x="596" 
d="M8 0l48 271h-49l28 158h49l46 263h128q159 0 247.5 -79.5t88.5 -227.5q0 -179 -111.5 -282t-291.5 -103h-183zM269 545l-21 -116h82l-28 -158h-81l-22 -124q96 0 159.5 58t63.5 180q0 74 -41 117t-112 43z" />
    <glyph glyph-name="Ntilde" unicode="&#xd1;" horiz-adv-x="656" 
d="M414 0l-190 425l-75 -425h-157l122 692h165l180 -431l77 431h157l-122 -692h-157zM481 723q-25 0 -58 14.5t-44 14.5q-27 0 -30 -31h-110q5 64 39 104.5t87 40.5q26 0 58 -14.5t44 -14.5q24 0 27 31h110q-7 -67 -39 -106t-84 -39z" />
    <glyph glyph-name="Ograve" unicode="&#xd2;" horiz-adv-x="751" 
d="M32 329q0 153 105.5 264.5t274.5 111.5q151 0 242 -90.5t91 -237.5q0 -168 -101.5 -279t-268.5 -111q-157 0 -250 92t-93 250zM406 550q-92 0 -147 -65.5t-55 -155.5q0 -79 42.5 -133t122.5 -54q93 0 148.5 64.5t55.5 170.5q0 76 -44 124.5t-123 48.5zM298 853h142
l44 -132h-135z" />
    <glyph glyph-name="Oacute" unicode="&#xd3;" horiz-adv-x="751" 
d="M32 329q0 153 105.5 264.5t274.5 111.5q151 0 242 -90.5t91 -237.5q0 -168 -101.5 -279t-268.5 -111q-157 0 -250 92t-93 250zM406 550q-92 0 -147 -65.5t-55 -155.5q0 -79 42.5 -133t122.5 -54q93 0 148.5 64.5t55.5 170.5q0 76 -44 124.5t-123 48.5zM434 853h154
l-91 -132h-150z" />
    <glyph glyph-name="Ocircumflex" unicode="&#xd4;" horiz-adv-x="751" 
d="M32 329q0 153 105.5 264.5t274.5 111.5q151 0 242 -90.5t91 -237.5q0 -168 -101.5 -279t-268.5 -111q-157 0 -250 92t-93 250zM406 550q-92 0 -147 -65.5t-55 -155.5q0 -79 42.5 -133t122.5 -54q93 0 148.5 64.5t55.5 170.5q0 76 -44 124.5t-123 48.5zM387 853h144
l77 -132h-125l-32 45l-44 -45h-143z" />
    <glyph glyph-name="Otilde" unicode="&#xd5;" horiz-adv-x="751" 
d="M32 329q0 153 105.5 264.5t274.5 111.5q151 0 242 -90.5t91 -237.5q0 -168 -101.5 -279t-268.5 -111q-157 0 -250 92t-93 250zM406 550q-92 0 -147 -65.5t-55 -155.5q0 -79 42.5 -133t122.5 -54q93 0 148.5 64.5t55.5 170.5q0 76 -44 124.5t-123 48.5zM509 723
q-25 0 -58 14.5t-44 14.5q-27 0 -30 -31h-110q5 64 39 104.5t87 40.5q26 0 58 -14.5t44 -14.5q24 0 27 31h110q-7 -67 -39 -106t-84 -39z" />
    <glyph glyph-name="Odieresis" unicode="&#xd6;" horiz-adv-x="751" 
d="M32 329q0 153 105.5 264.5t274.5 111.5q151 0 242 -90.5t91 -237.5q0 -168 -101.5 -279t-268.5 -111q-157 0 -250 92t-93 250zM406 550q-92 0 -147 -65.5t-55 -155.5q0 -79 42.5 -133t122.5 -54q93 0 148.5 64.5t55.5 170.5q0 76 -44 124.5t-123 48.5zM342 712
q-35 0 -58.5 24t-23.5 59t23.5 58.5t58.5 23.5q37 0 61 -23.5t24 -58.5t-24.5 -59t-60.5 -24zM550 712q-35 0 -58.5 24t-23.5 59t23.5 58.5t58.5 23.5q37 0 61 -23.5t24 -58.5t-24.5 -59t-60.5 -24z" />
    <glyph glyph-name="multiply" unicode="&#xd7;" horiz-adv-x="415" 
d="M40 447l106 89l84 -104l118 104l84 -99l-121 -106l87 -107l-105 -88l-85 104l-117 -102l-83 99l118 104z" />
    <glyph glyph-name="Oslash" unicode="&#xd8;" horiz-adv-x="751" 
d="M655 697l95 -99l-51 -49q46 -73 46 -172q0 -168 -101.5 -279t-268.5 -111q-115 0 -199 55l-54 -52l-96 99l54 53q-48 81 -48 187q0 153 105.5 264.5t274.5 111.5q116 0 193 -56zM406 550q-93 0 -148 -65.5t-55 -155.5q0 -34 7 -62l275 266q-34 17 -79 17zM574 377
q0 21 -5 46l-274 -265q34 -16 72 -16q94 0 150.5 64.5t56.5 170.5z" />
    <glyph glyph-name="Ugrave" unicode="&#xd9;" horiz-adv-x="627" 
d="M38 282l72 410h164l-71 -403q-11 -63 13 -103t84 -40t89 36.5t41 103.5l72 406h164l-73 -414q-25 -142 -97 -215t-200 -73q-141 0 -211 80t-47 212zM278 853h142l44 -132h-135z" />
    <glyph glyph-name="Uacute" unicode="&#xda;" horiz-adv-x="627" 
d="M38 282l72 410h164l-71 -403q-11 -63 13 -103t84 -40t89 36.5t41 103.5l72 406h164l-73 -414q-25 -142 -97 -215t-200 -73q-141 0 -211 80t-47 212zM393 853h154l-91 -132h-150z" />
    <glyph glyph-name="Ucircumflex" unicode="&#xdb;" horiz-adv-x="627" 
d="M38 282l72 410h164l-71 -403q-11 -63 13 -103t84 -40t89 36.5t41 103.5l72 406h164l-73 -414q-25 -142 -97 -215t-200 -73q-141 0 -211 80t-47 212zM338 853h144l77 -132h-125l-32 45l-44 -45h-143z" />
    <glyph glyph-name="Udieresis" unicode="&#xdc;" horiz-adv-x="627" 
d="M38 282l72 410h164l-71 -403q-11 -63 13 -103t84 -40t89 36.5t41 103.5l72 406h164l-73 -414q-25 -142 -97 -215t-200 -73q-141 0 -211 80t-47 212zM295 712q-35 0 -58.5 24t-23.5 59t23.5 58.5t58.5 23.5q37 0 61 -23.5t24 -58.5t-24.5 -59t-60.5 -24zM503 712
q-35 0 -58.5 24t-23.5 59t23.5 58.5t58.5 23.5q37 0 61 -23.5t24 -58.5t-24.5 -59t-60.5 -24z" />
    <glyph glyph-name="Yacute" unicode="&#xdd;" horiz-adv-x="525" 
d="M193 340l-127 352h170l61 -195l133 195h175l-249 -356l-59 -336h-164zM346 853h154l-91 -132h-150z" />
    <glyph glyph-name="Thorn" unicode="&#xde;" horiz-adv-x="507" 
d="M505 369q0 -108 -66.5 -169t-174.5 -61h-86l-24 -139h-163l122 692h163l-24 -133h28q225 0 225 -190zM276 415h-49l-23 -127h60q32 0 50 20t18 54q0 53 -56 53z" />
    <glyph glyph-name="germandbls" unicode="&#xdf;" horiz-adv-x="525" 
d="M503 263q0 -124 -74 -193.5t-199 -69.5h-42l23 134h19q53 1 85 32.5t32 87.5q0 45 -27.5 71.5t-70.5 28.5l23 130h22q29 0 46.5 18t17.5 47q0 24 -15 39t-41 15q-53 0 -63 -62l-95 -541h-158l96 541q35 196 220 196q100 0 155 -48t55 -124q0 -98 -83 -140q74 -55 74 -162
z" />
    <glyph glyph-name="agrave" unicode="&#xe0;" horiz-adv-x="467" 
d="M2 167q0 81 50.5 133.5t141.5 52.5q68 0 100 -22l4 25q9 58 -46 58q-45 0 -51 -46h-146q10 75 58 124t142 49q106 0 159.5 -52.5t34.5 -161.5l-57 -327h-117l5 31q-33 -37 -105 -37q-77 0 -125 48.5t-48 124.5zM215 240q-29 0 -47 -18.5t-18 -46.5q0 -24 15.5 -39
t40.5 -15q28 0 46.5 19.5t18.5 48.5q0 23 -15.5 37t-40.5 14zM151 708h142l47 -140h-135z" />
    <glyph glyph-name="aacute" unicode="&#xe1;" horiz-adv-x="467" 
d="M2 167q0 81 50.5 133.5t141.5 52.5q68 0 100 -22l4 25q9 58 -46 58q-45 0 -51 -46h-146q10 75 58 124t142 49q106 0 159.5 -52.5t34.5 -161.5l-57 -327h-117l5 31q-33 -37 -105 -37q-77 0 -125 48.5t-48 124.5zM215 240q-29 0 -47 -18.5t-18 -46.5q0 -24 15.5 -39
t40.5 -15q28 0 46.5 19.5t18.5 48.5q0 23 -15.5 37t-40.5 14zM283 708h150l-95 -140h-148z" />
    <glyph glyph-name="acircumflex" unicode="&#xe2;" horiz-adv-x="467" 
d="M2 167q0 81 50.5 133.5t141.5 52.5q68 0 100 -22l4 25q9 58 -46 58q-45 0 -51 -46h-146q10 75 58 124t142 49q106 0 159.5 -52.5t34.5 -161.5l-57 -327h-117l5 31q-33 -37 -105 -37q-77 0 -125 48.5t-48 124.5zM215 240q-29 0 -47 -18.5t-18 -46.5q0 -24 15.5 -39
t40.5 -15q28 0 46.5 19.5t18.5 48.5q0 23 -15.5 37t-40.5 14zM223 710h145l72 -143h-125l-28 50l-42 -50h-138z" />
    <glyph glyph-name="atilde" unicode="&#xe3;" horiz-adv-x="467" 
d="M2 167q0 81 50.5 133.5t141.5 52.5q68 0 100 -22l4 25q9 58 -46 58q-45 0 -51 -46h-146q10 75 58 124t142 49q106 0 159.5 -52.5t34.5 -161.5l-57 -327h-117l5 31q-33 -37 -105 -37q-77 0 -125 48.5t-48 124.5zM215 240q-29 0 -47 -18.5t-18 -46.5q0 -24 15.5 -39
t40.5 -15q28 0 46.5 19.5t18.5 48.5q0 23 -15.5 37t-40.5 14zM352 566q-25 0 -56 14.5t-42 14.5q-25 0 -28 -31h-110q5 64 39 104.5t87 40.5q26 0 56 -14.5t42 -14.5q22 0 25 31h110q-7 -68 -39 -106.5t-84 -38.5z" />
    <glyph glyph-name="adieresis" unicode="&#xe4;" horiz-adv-x="467" 
d="M2 167q0 81 50.5 133.5t141.5 52.5q68 0 100 -22l4 25q9 58 -46 58q-45 0 -51 -46h-146q10 75 58 124t142 49q106 0 159.5 -52.5t34.5 -161.5l-57 -327h-117l5 31q-33 -37 -105 -37q-77 0 -125 48.5t-48 124.5zM215 240q-29 0 -47 -18.5t-18 -46.5q0 -24 15.5 -39
t40.5 -15q28 0 46.5 19.5t18.5 48.5q0 23 -15.5 37t-40.5 14zM192 563q-35 0 -58.5 23.5t-23.5 57.5q0 35 23.5 58.5t58.5 23.5q36 0 59.5 -23.5t23.5 -58.5q0 -34 -24 -57.5t-59 -23.5zM386 563q-35 0 -58.5 23.5t-23.5 57.5q0 35 23.5 58.5t58.5 23.5q36 0 59.5 -23.5
t23.5 -58.5q0 -34 -24 -57.5t-59 -23.5z" />
    <glyph glyph-name="aring" unicode="&#xe5;" horiz-adv-x="467" 
d="M2 167q0 81 50.5 133.5t141.5 52.5q68 0 100 -22l4 25q9 58 -46 58q-45 0 -51 -46h-146q10 75 58 124t142 49q106 0 159.5 -52.5t34.5 -161.5l-57 -327h-117l5 31q-33 -37 -105 -37q-77 0 -125 48.5t-48 124.5zM215 240q-29 0 -47 -18.5t-18 -46.5q0 -24 15.5 -39
t40.5 -15q28 0 46.5 19.5t18.5 48.5q0 23 -15.5 37t-40.5 14zM183 666q0 47 32 78.5t80 31.5q52 0 83.5 -30.5t31.5 -77.5q0 -48 -31.5 -79t-82.5 -31q-49 0 -81 31t-32 77zM255 668q0 -19 12 -31.5t30 -12.5q17 0 29 12.5t12 31.5q0 18 -11.5 30t-29.5 12q-19 0 -30.5 -12
t-11.5 -30z" />
    <glyph glyph-name="ae" unicode="&#xe6;" horiz-adv-x="815" 
d="M203 -9q-95 0 -148 50.5t-53 125.5q0 79 52 132.5t144 53.5q64 0 95 -24l5 27q9 58 -46 58q-45 0 -51 -46h-146q10 75 58 124t142 49q108 0 153 -55q60 58 155 58q110 0 175 -63.5t65 -167.5q0 -48 -12 -98h-349q2 -36 27 -59.5t77 -23.5q31 0 57 11.5t37 21.5t26 28
l102 -86q-78 -116 -222 -116q-128 0 -198 73q-21 -29 -59 -51t-86 -22zM556 410q-40 0 -64 -23.5t-31 -58.5h183q0 38 -23 60t-65 22zM215 240q-29 0 -47 -18.5t-18 -46.5q0 -24 15.5 -39t40.5 -15q28 0 46.5 19.5t18.5 48.5q0 23 -15.5 37t-40.5 14z" />
    <glyph glyph-name="ccedilla" unicode="&#xe7;" horiz-adv-x="467" 
d="M135 -112l23 127q-65 30 -103 91t-38 142q0 122 78.5 209t213.5 87q116 0 175 -63l-103 -106q-31 26 -77 26q-58 0 -92.5 -43.5t-34.5 -104.5q0 -52 29 -85.5t78 -33.5q45 0 81 24l65 -119q-63 -48 -157 -48q-12 0 -34 2l-6 -34q54 -28 54 -100q0 -57 -39 -90t-103 -33
h-37l16 87h22q40 0 40 36q0 29 -34 29h-17z" />
    <glyph glyph-name="egrave" unicode="&#xe8;" horiz-adv-x="548" 
d="M525 215h-349q8 -83 105 -83q65 0 121 61l102 -86q-32 -47 -88.5 -81.5t-134.5 -34.5q-123 0 -193 67.5t-70 192.5q0 71 29.5 136t94.5 111t152 46q112 0 177.5 -63t65.5 -168q0 -48 -12 -98zM179 708h142l47 -140h-135zM290 410q-40 0 -64.5 -23.5t-31.5 -58.5h184
q0 38 -23 60t-65 22z" />
    <glyph glyph-name="eacute" unicode="&#xe9;" horiz-adv-x="548" 
d="M525 215h-349q8 -83 105 -83q65 0 121 61l102 -86q-32 -47 -88.5 -81.5t-134.5 -34.5q-123 0 -193 67.5t-70 192.5q0 71 29.5 136t94.5 111t152 46q112 0 177.5 -63t65.5 -168q0 -48 -12 -98zM315 708h150l-95 -140h-148zM290 410q-40 0 -64.5 -23.5t-31.5 -58.5h184
q0 38 -23 60t-65 22z" />
    <glyph glyph-name="ecircumflex" unicode="&#xea;" horiz-adv-x="548" 
d="M525 215h-349q8 -83 105 -83q65 0 121 61l102 -86q-32 -47 -88.5 -81.5t-134.5 -34.5q-123 0 -193 67.5t-70 192.5q0 71 29.5 136t94.5 111t152 46q112 0 177.5 -63t65.5 -168q0 -48 -12 -98zM257 710h145l72 -143h-125l-28 50l-42 -50h-138zM290 410q-40 0 -64.5 -23.5
t-31.5 -58.5h184q0 38 -23 60t-65 22z" />
    <glyph glyph-name="edieresis" unicode="&#xeb;" horiz-adv-x="548" 
d="M525 215h-349q8 -83 105 -83q65 0 121 61l102 -86q-32 -47 -88.5 -81.5t-134.5 -34.5q-123 0 -193 67.5t-70 192.5q0 71 29.5 136t94.5 111t152 46q112 0 177.5 -63t65.5 -168q0 -48 -12 -98zM416 563q-35 0 -58.5 23.5t-23.5 57.5q0 35 23.5 58.5t58.5 23.5
q36 0 59.5 -23.5t23.5 -58.5q0 -34 -24 -57.5t-59 -23.5zM222 563q-35 0 -58.5 23.5t-23.5 57.5q0 35 23.5 58.5t58.5 23.5q36 0 59.5 -23.5t23.5 -58.5q0 -34 -24 -57.5t-59 -23.5zM290 410q-40 0 -64.5 -23.5t-31.5 -58.5h184q0 38 -23 60t-65 22z" />
    <glyph glyph-name="igrave" unicode="&#xec;" horiz-adv-x="222" 
d="M237 535l-92 -535h-158l92 535h158zM36 708h142l47 -140h-135z" />
    <glyph glyph-name="iacute" unicode="&#xed;" horiz-adv-x="222" 
d="M237 535l-92 -535h-158l92 535h158zM185 708h150l-95 -140h-148z" />
    <glyph glyph-name="icircumflex" unicode="&#xee;" horiz-adv-x="222" 
d="M103 710h145l72 -143h-125l-28 50l-42 -50h-138zM237 535l-92 -535h-158l92 535h158z" />
    <glyph glyph-name="idieresis" unicode="&#xef;" horiz-adv-x="222" 
d="M75 563q-35 0 -58.5 23.5t-23.5 57.5q0 35 23.5 58.5t58.5 23.5q36 0 59.5 -23.5t23.5 -58.5q0 -34 -24 -57.5t-59 -23.5zM269 563q-35 0 -58.5 23.5t-23.5 57.5q0 35 23.5 58.5t58.5 23.5q36 0 59.5 -23.5t23.5 -58.5q0 -34 -24 -57.5t-59 -23.5zM237 535l-92 -535h-158
l92 535h158z" />
    <glyph glyph-name="eth" unicode="&#xf0;" horiz-adv-x="588" 
d="M487 622l-52 -14l45 -67q49 -74 70 -128t21 -133q0 -122 -80.5 -205.5t-207.5 -83.5q-117 0 -191.5 72.5t-74.5 188.5q0 126 83 201.5t208 74.5l-25 40l-110 -29l-30 107l81 21l-38 64h168l16 -25l88 24zM301 397q-57 0 -92.5 -42.5t-35.5 -102.5q0 -51 31 -83.5
t79 -32.5q59 0 94.5 41t35.5 103q0 51 -31 84t-81 33z" />
    <glyph glyph-name="ntilde" unicode="&#xf1;" horiz-adv-x="491" 
d="M256 0l58 329q6 34 -7.5 52t-41.5 18q-50 0 -62 -64l-58 -335h-158l92 535h157l-6 -36q36 42 103 42q86 0 120.5 -58.5t18.5 -153.5l-58 -329h-158zM358 566q-25 0 -56 14.5t-42 14.5q-25 0 -28 -31h-110q5 64 39 104.5t87 40.5q26 0 56 -14.5t42 -14.5q22 0 25 31h110
q-7 -68 -39 -106.5t-84 -38.5z" />
    <glyph glyph-name="ograve" unicode="&#xf2;" horiz-adv-x="594" 
d="M306 401q-59 0 -94 -44.5t-35 -105.5q0 -50 30 -83.5t79 -33.5q62 0 96.5 43t34.5 108q0 51 -30 83.5t-81 32.5zM17 248q0 121 79.5 208.5t211.5 87.5q123 0 196 -71t73 -182q0 -130 -82 -215t-213 -85q-117 0 -191 70.5t-74 186.5zM200 708h142l47 -140h-135z" />
    <glyph glyph-name="oacute" unicode="&#xf3;" horiz-adv-x="594" 
d="M306 401q-59 0 -94 -44.5t-35 -105.5q0 -50 30 -83.5t79 -33.5q62 0 96.5 43t34.5 108q0 51 -30 83.5t-81 32.5zM17 248q0 121 79.5 208.5t211.5 87.5q123 0 196 -71t73 -182q0 -130 -82 -215t-213 -85q-117 0 -191 70.5t-74 186.5zM340 708h150l-95 -140h-148z" />
    <glyph glyph-name="ocircumflex" unicode="&#xf4;" horiz-adv-x="594" 
d="M306 401q-59 0 -94 -44.5t-35 -105.5q0 -50 30 -83.5t79 -33.5q62 0 96.5 43t34.5 108q0 51 -30 83.5t-81 32.5zM17 248q0 121 79.5 208.5t211.5 87.5q123 0 196 -71t73 -182q0 -130 -82 -215t-213 -85q-117 0 -191 70.5t-74 186.5zM273 710h145l72 -143h-125l-28 50
l-42 -50h-138z" />
    <glyph glyph-name="otilde" unicode="&#xf5;" horiz-adv-x="594" 
d="M306 401q-59 0 -94 -44.5t-35 -105.5q0 -50 30 -83.5t79 -33.5q62 0 96.5 43t34.5 108q0 51 -30 83.5t-81 32.5zM17 248q0 121 79.5 208.5t211.5 87.5q123 0 196 -71t73 -182q0 -130 -82 -215t-213 -85q-117 0 -191 70.5t-74 186.5zM392 566q-25 0 -56 14.5t-42 14.5
q-25 0 -28 -31h-110q5 64 39 104.5t87 40.5q26 0 56 -14.5t42 -14.5q22 0 25 31h110q-7 -68 -39 -106.5t-84 -38.5z" />
    <glyph glyph-name="odieresis" unicode="&#xf6;" horiz-adv-x="594" 
d="M306 401q-59 0 -94 -44.5t-35 -105.5q0 -50 30 -83.5t79 -33.5q62 0 96.5 43t34.5 108q0 51 -30 83.5t-81 32.5zM17 248q0 121 79.5 208.5t211.5 87.5q123 0 196 -71t73 -182q0 -130 -82 -215t-213 -85q-117 0 -191 70.5t-74 186.5zM238 563q-35 0 -58.5 23.5t-23.5 57.5
q0 35 23.5 58.5t58.5 23.5q36 0 59.5 -23.5t23.5 -58.5q0 -34 -24 -57.5t-59 -23.5zM432 563q-35 0 -58.5 23.5t-23.5 57.5q0 35 23.5 58.5t58.5 23.5q36 0 59.5 -23.5t23.5 -58.5q0 -34 -24 -57.5t-59 -23.5z" />
    <glyph glyph-name="divide" unicode="&#xf7;" horiz-adv-x="468" 
d="M209 70q-39 0 -60.5 23.5t-21.5 56.5q0 40 25.5 66.5t63.5 26.5q36 0 59.5 -21t23.5 -57q0 -41 -26 -68t-64 -27zM272 429q-39 0 -60.5 23.5t-21.5 56.5q0 40 25.5 66.5t63.5 26.5q36 0 59.5 -21t23.5 -57q0 -41 -26 -68t-64 -27zM32 270l24 134h407l-24 -134h-407z" />
    <glyph glyph-name="oslash" unicode="&#xf8;" horiz-adv-x="594" 
d="M17 248q0 121 79.5 208.5t211.5 87.5q83 0 147 -42l42 41l78 -78l-40 -39q42 -55 42 -135q0 -130 -82 -215t-213 -85q-84 0 -146 42l-48 -47l-77 78l47 47q-41 68 -41 137zM424 285q0 15 -3 29l-180 -178q21 -8 45 -8q64 0 101 45.5t37 111.5zM306 407q-62 0 -99 -47
t-37 -109q0 -10 2 -28l179 176q-22 8 -45 8z" />
    <glyph glyph-name="ugrave" unicode="&#xf9;" horiz-adv-x="487" 
d="M235 535l-57 -329q-12 -69 46 -69q50 0 61 64l58 334h158l-92 -535h-152l6 32q-35 -38 -103 -38q-82 0 -119 58.5t-21 150.5l57 332h158zM173 708h142l47 -140h-135z" />
    <glyph glyph-name="uacute" unicode="&#xfa;" horiz-adv-x="487" 
d="M235 535l-57 -329q-12 -69 46 -69q50 0 61 64l58 334h158l-92 -535h-152l6 32q-35 -38 -103 -38q-82 0 -119 58.5t-21 150.5l57 332h158zM299 708h150l-95 -140h-148z" />
    <glyph glyph-name="ucircumflex" unicode="&#xfb;" horiz-adv-x="487" 
d="M235 535l-57 -329q-12 -69 46 -69q50 0 61 64l58 334h158l-92 -535h-152l6 32q-35 -38 -103 -38q-82 0 -119 58.5t-21 150.5l57 332h158zM242 710h145l72 -143h-125l-28 50l-42 -50h-138z" />
    <glyph glyph-name="udieresis" unicode="&#xfc;" horiz-adv-x="487" 
d="M235 535l-57 -329q-12 -69 46 -69q50 0 61 64l58 334h158l-92 -535h-152l6 32q-35 -38 -103 -38q-82 0 -119 58.5t-21 150.5l57 332h158zM205 563q-35 0 -58.5 23.5t-23.5 57.5q0 35 23.5 58.5t58.5 23.5q36 0 59.5 -23.5t23.5 -58.5q0 -34 -24 -57.5t-59 -23.5zM399 563
q-35 0 -58.5 23.5t-23.5 57.5q0 35 23.5 58.5t58.5 23.5q36 0 59.5 -23.5t23.5 -58.5q0 -34 -24 -57.5t-59 -23.5z" />
    <glyph glyph-name="yacute" unicode="&#xfd;" horiz-adv-x="534" 
d="M46 535h164l57 -294l145 294h168l-367 -710h-159l104 205zM323 708h150l-95 -140h-148z" />
    <glyph glyph-name="thorn" unicode="&#xfe;" horiz-adv-x="600" 
d="M294 -9q-87 0 -143 45l-38 -211h-158l160 906h158l-38 -218q39 31 118 31q103 0 166 -67.5t63 -185.5q0 -44 -9.5 -85.5t-31.5 -80.5t-54.5 -68.5t-82 -47.5t-110.5 -18zM315 402q-60 0 -94.5 -44.5t-34.5 -107.5q0 -50 29.5 -82.5t78.5 -32.5q62 0 96 45.5t32 109.5
q-2 50 -31 81t-76 31z" />
    <glyph glyph-name="ydieresis" unicode="&#xff;" horiz-adv-x="534" 
d="M46 535h164l57 -294l145 294h168l-367 -710h-159l104 205zM419 563q-35 0 -58.5 23.5t-23.5 57.5q0 35 23.5 58.5t58.5 23.5q36 0 59.5 -23.5t23.5 -58.5q0 -34 -24 -57.5t-59 -23.5zM225 563q-35 0 -58.5 23.5t-23.5 57.5q0 35 23.5 58.5t58.5 23.5q36 0 59.5 -23.5
t23.5 -58.5q0 -34 -24 -57.5t-59 -23.5z" />
    <glyph glyph-name="Amacron" unicode="&#x100;" horiz-adv-x="639" 
d="M431 0l-26 166h-209l-84 -166h-167l357 692h170l126 -692h-167zM262 722l21 116h245l-21 -116h-245zM355 481l-89 -176h117z" />
    <glyph glyph-name="amacron" unicode="&#x101;" horiz-adv-x="467" 
d="M2 167q0 81 50.5 133.5t141.5 52.5q68 0 100 -22l4 25q9 58 -46 58q-45 0 -51 -46h-146q10 75 58 124t142 49q106 0 159.5 -52.5t34.5 -161.5l-57 -327h-117l5 31q-33 -37 -105 -37q-77 0 -125 48.5t-48 124.5zM215 240q-29 0 -47 -18.5t-18 -46.5q0 -24 15.5 -39
t40.5 -15q28 0 46.5 19.5t18.5 48.5q0 23 -15.5 37t-40.5 14zM158 576l21 116h245l-21 -116h-245z" />
    <glyph glyph-name="Abreve" unicode="&#x102;" horiz-adv-x="639" 
d="M431 0l-26 166h-209l-84 -166h-167l357 692h170l126 -692h-167zM387 718q-78 0 -112.5 41t-34.5 99h115q0 -35 32 -35q34 0 39 35h113q-2 -54 -43 -97t-109 -43zM355 481l-89 -176h117z" />
    <glyph glyph-name="abreve" unicode="&#x103;" horiz-adv-x="467" 
d="M2 167q0 81 50.5 133.5t141.5 52.5q68 0 100 -22l4 25q9 58 -46 58q-45 0 -51 -46h-146q10 75 58 124t142 49q106 0 159.5 -52.5t34.5 -161.5l-57 -327h-117l5 31q-33 -37 -105 -37q-77 0 -125 48.5t-48 124.5zM215 240q-29 0 -47 -18.5t-18 -46.5q0 -24 15.5 -39
t40.5 -15q28 0 46.5 19.5t18.5 48.5q0 23 -15.5 37t-40.5 14zM298 560q-79 0 -114.5 43.5t-32.5 106.5h115q-5 -45 32 -45q17 0 27 12t12 33h113q-2 -61 -42.5 -105.5t-109.5 -44.5z" />
    <glyph glyph-name="Aogonek" unicode="&#x104;" horiz-adv-x="639" 
d="M431 0l-26 166h-209l-84 -166h-167l357 692h170l126 -692q-24 -3 -35.5 -14.5t-11.5 -24.5q0 -25 35 -27l-19 -109q-10 -2 -34 -2q-65 0 -100.5 25t-35.5 65q0 58 75 87h-41zM355 481l-89 -176h117z" />
    <glyph glyph-name="aogonek" unicode="&#x105;" horiz-adv-x="467" 
d="M2 167q0 81 50.5 133.5t141.5 52.5q68 0 100 -22l4 25q9 58 -46 58q-45 0 -51 -46h-146q10 75 58 124t142 49q106 0 159.5 -52.5t34.5 -161.5l-57 -329q-22 -4 -34.5 -14.5t-12.5 -23.5q0 -24 35 -26l-19 -109q-10 -2 -34 -2q-66 0 -101 24.5t-35 65.5q0 63 84 90l5 28
q-33 -37 -105 -37q-77 0 -125 48.5t-48 124.5zM215 240q-29 0 -47 -18.5t-18 -46.5q0 -24 15.5 -39t40.5 -15q28 0 46.5 19.5t18.5 48.5q0 23 -15.5 37t-40.5 14z" />
    <glyph glyph-name="Cacute" unicode="&#x106;" horiz-adv-x="594" 
d="M488 181l68 -131q-79 -62 -192 -62q-149 0 -240.5 92.5t-91.5 246.5q0 69 25 135t70.5 121t119 88.5t162.5 33.5q153 0 233 -85l-118 -118q-46 48 -120 48q-92 0 -146 -65.5t-54 -157.5q0 -79 41 -130.5t124 -53.5q63 0 119 38zM395 853h154l-91 -132h-150z" />
    <glyph glyph-name="cacute" unicode="&#x107;" horiz-adv-x="467" 
d="M284 134q45 0 81 24l65 -119q-63 -48 -157 -48q-110 0 -183 71t-73 186q0 122 78.5 209t213.5 87q116 0 175 -63l-103 -106q-31 26 -77 26q-58 0 -92.5 -43.5t-34.5 -104.5q0 -52 29 -85.5t78 -33.5zM316 708h150l-95 -140h-148z" />
    <glyph glyph-name="Ccircumflex" unicode="&#x108;" horiz-adv-x="594" 
d="M488 181l68 -131q-79 -62 -192 -62q-149 0 -240.5 92.5t-91.5 246.5q0 69 25 135t70.5 121t119 88.5t162.5 33.5q153 0 233 -85l-118 -118q-46 48 -120 48q-92 0 -146 -65.5t-54 -157.5q0 -79 41 -130.5t124 -53.5q63 0 119 38zM343 853h144l77 -132h-125l-32 45l-44 -45
h-143z" />
    <glyph glyph-name="ccircumflex" unicode="&#x109;" horiz-adv-x="467" 
d="M284 134q45 0 81 24l65 -119q-63 -48 -157 -48q-110 0 -183 71t-73 186q0 122 78.5 209t213.5 87q116 0 175 -63l-103 -106q-31 26 -77 26q-58 0 -92.5 -43.5t-34.5 -104.5q0 -52 29 -85.5t78 -33.5zM242 710h145l72 -143h-125l-28 50l-42 -50h-138z" />
    <glyph glyph-name="Cdotaccent" unicode="&#x10a;" horiz-adv-x="594" 
d="M488 181l68 -131q-79 -62 -192 -62q-149 0 -240.5 92.5t-91.5 246.5q0 69 25 135t70.5 121t119 88.5t162.5 33.5q153 0 233 -85l-118 -118q-46 48 -120 48q-92 0 -146 -65.5t-54 -157.5q0 -79 41 -130.5t124 -53.5q63 0 119 38zM408 723q-36 0 -61 24.5t-25 60.5t24 60
t61 24q38 0 63 -23.5t25 -60.5t-24.5 -61t-62.5 -24z" />
    <glyph glyph-name="cdotaccent" unicode="&#x10b;" horiz-adv-x="467" 
d="M284 134q45 0 81 24l65 -119q-63 -48 -157 -48q-110 0 -183 71t-73 186q0 122 78.5 209t213.5 87q116 0 175 -63l-103 -106q-31 26 -77 26q-58 0 -92.5 -43.5t-34.5 -104.5q0 -52 29 -85.5t78 -33.5zM312 561q-36 0 -61 24.5t-25 60.5t24 60t61 24q38 0 63 -23.5
t25 -60.5t-24.5 -61t-62.5 -24z" />
    <glyph glyph-name="Ccaron" unicode="&#x10c;" horiz-adv-x="594" 
d="M488 181l68 -131q-79 -62 -192 -62q-149 0 -240.5 92.5t-91.5 246.5q0 69 25 135t70.5 121t119 88.5t162.5 33.5q153 0 233 -85l-118 -118q-46 48 -120 48q-92 0 -146 -65.5t-54 -157.5q0 -79 41 -130.5t124 -53.5q63 0 119 38zM461 721h-144l-77 132h130l31 -44l47 44
h136z" />
    <glyph glyph-name="ccaron" unicode="&#x10d;" horiz-adv-x="467" 
d="M284 134q45 0 81 24l65 -119q-63 -48 -157 -48q-110 0 -183 71t-73 186q0 122 78.5 209t213.5 87q116 0 175 -63l-103 -106q-31 26 -77 26q-58 0 -92.5 -43.5t-34.5 -104.5q0 -52 29 -85.5t78 -33.5zM369 567h-142l-73 143h127l27 -50l43 50h135z" />
    <glyph glyph-name="Dcaron" unicode="&#x10e;" horiz-adv-x="580" 
d="M-9 0l122 692h128q159 0 247.5 -79.5t88.5 -227.5q0 -179 -111.5 -282t-291.5 -103h-183zM252 545l-70 -398q96 0 159.5 58t63.5 180q0 74 -41 117t-112 43zM393 721h-144l-77 132h130l31 -44l47 44h136z" />
    <glyph glyph-name="dcaron" unicode="&#x10f;" horiz-adv-x="601" 
d="M306 544q93 0 146 -44l41 231h158l-129 -731h-134l6 36q-18 -20 -56.5 -32.5t-80.5 -12.5q-106 0 -173 70t-67 182q0 78 31 145t98.5 111.5t159.5 44.5zM284 135q60 0 94.5 43.5t34.5 106.5q0 54 -29 85.5t-79 31.5q-60 0 -94 -45t-34 -108q0 -49 29 -81.5t78 -32.5z
M690 731h128l-42 -163h-124z" />
    <glyph glyph-name="Dcroat" unicode="&#x110;" horiz-adv-x="596" 
d="M8 0l48 271h-49l28 158h49l46 263h128q159 0 247.5 -79.5t88.5 -227.5q0 -179 -111.5 -282t-291.5 -103h-183zM269 545l-21 -116h82l-28 -158h-81l-22 -124q96 0 159.5 58t63.5 180q0 74 -41 117t-112 43z" />
    <glyph glyph-name="dcroat" unicode="&#x111;" horiz-adv-x="613" 
d="M341 571l19 110h124l9 50h158l-9 -50h43l-19 -110h-43l-101 -571h-134l6 36q-18 -20 -56.5 -32.5t-80.5 -12.5q-106 0 -173 70t-67 182q0 78 31 145t98.5 111.5t159.5 44.5q93 0 146 -44l12 71h-123zM284 135q60 0 94.5 43.5t34.5 106.5q0 54 -29 85.5t-79 31.5
q-60 0 -94 -45t-34 -108q0 -49 29 -81.5t78 -32.5z" />
    <glyph glyph-name="Emacron" unicode="&#x112;" horiz-adv-x="384" 
d="M310 0h-319l122 692h314l-27 -156h-151l-19 -107h146l-26 -154h-147l-21 -119h155zM151 722l21 116h245l-21 -116h-245z" />
    <glyph glyph-name="emacron" unicode="&#x113;" horiz-adv-x="548" 
d="M525 215h-349q8 -83 105 -83q65 0 121 61l102 -86q-32 -47 -88.5 -81.5t-134.5 -34.5q-123 0 -193 67.5t-70 192.5q0 71 29.5 136t94.5 111t152 46q112 0 177.5 -63t65.5 -168q0 -48 -12 -98zM190 576l21 116h245l-21 -116h-245zM290 410q-40 0 -64.5 -23.5t-31.5 -58.5
h184q0 38 -23 60t-65 22z" />
    <glyph glyph-name="Ebreve" unicode="&#x114;" horiz-adv-x="384" 
d="M310 0h-319l122 692h314l-27 -156h-151l-19 -107h146l-26 -154h-147l-21 -119h155zM278 718q-78 0 -112.5 41t-34.5 99h115q0 -35 32 -35q34 0 39 35h113q-2 -54 -43 -97t-109 -43z" />
    <glyph glyph-name="ebreve" unicode="&#x115;" horiz-adv-x="548" 
d="M525 215h-349q8 -83 105 -83q65 0 121 61l102 -86q-32 -47 -88.5 -81.5t-134.5 -34.5q-123 0 -193 67.5t-70 192.5q0 71 29.5 136t94.5 111t152 46q112 0 177.5 -63t65.5 -168q0 -48 -12 -98zM315 560q-79 0 -114.5 43.5t-32.5 106.5h115q-5 -45 32 -45q17 0 27 12t12 33
h113q-2 -61 -42.5 -105.5t-109.5 -44.5zM290 410q-40 0 -64.5 -23.5t-31.5 -58.5h184q0 38 -23 60t-65 22z" />
    <glyph glyph-name="Edotaccent" unicode="&#x116;" horiz-adv-x="384" 
d="M310 0h-319l122 692h314l-27 -156h-151l-19 -107h146l-26 -154h-147l-21 -119h155zM277 723q-36 0 -61 24.5t-25 60.5t24 60t61 24q38 0 63 -23.5t25 -60.5t-24.5 -61t-62.5 -24z" />
    <glyph glyph-name="edotaccent" unicode="&#x117;" horiz-adv-x="548" 
d="M525 215h-349q8 -83 105 -83q65 0 121 61l102 -86q-32 -47 -88.5 -81.5t-134.5 -34.5q-123 0 -193 67.5t-70 192.5q0 71 29.5 136t94.5 111t152 46q112 0 177.5 -63t65.5 -168q0 -48 -12 -98zM320 561q-36 0 -61 24.5t-25 60.5t24 60t61 24q38 0 63 -23.5t25 -60.5
t-24.5 -61t-62.5 -24zM290 410q-40 0 -64.5 -23.5t-31.5 -58.5h184q0 38 -23 60t-65 22z" />
    <glyph glyph-name="Eogonek" unicode="&#x118;" horiz-adv-x="384" 
d="M310 0h-30q-23 -4 -35 -15t-12 -25q0 -24 35 -26l-19 -109q-10 -2 -34 -2q-66 0 -101 24.5t-35 65.5q0 60 75 87h-163l122 692h314l-27 -156h-151l-19 -107h146l-26 -154h-147l-21 -119h155z" />
    <glyph glyph-name="eogonek" unicode="&#x119;" horiz-adv-x="548" 
d="M181 -87q0 52 59 80q-104 11 -163 77.5t-59 180.5q0 71 29.5 136t94.5 111t152 46q112 0 177.5 -63t65.5 -168q0 -48 -12 -98h-349q8 -83 105 -83q65 0 121 61l102 -86q-47 -68 -124 -99q-45 -19 -45 -48q0 -24 35 -26l-19 -109q-10 -2 -33 -2q-65 0 -101 25t-36 65z
M290 410q-40 0 -64.5 -23.5t-31.5 -58.5h184q0 38 -23 60t-65 22z" />
    <glyph glyph-name="Ecaron" unicode="&#x11a;" horiz-adv-x="384" 
d="M310 0h-319l122 692h314l-27 -156h-151l-19 -107h146l-26 -154h-147l-21 -119h155zM337 721h-144l-77 132h130l31 -44l47 44h136z" />
    <glyph glyph-name="ecaron" unicode="&#x11b;" horiz-adv-x="548" 
d="M525 215h-349q8 -83 105 -83q65 0 121 61l102 -86q-32 -47 -88.5 -81.5t-134.5 -34.5q-123 0 -193 67.5t-70 192.5q0 71 29.5 136t94.5 111t152 46q112 0 177.5 -63t65.5 -168q0 -48 -12 -98zM379 567h-142l-73 143h127l27 -50l43 50h135zM290 410q-40 0 -64.5 -23.5
t-31.5 -58.5h184q0 38 -23 60t-65 22z" />
    <glyph glyph-name="Gcircumflex" unicode="&#x11c;" horiz-adv-x="726" 
d="M708 382l-67 -382h-142l7 36q-48 -48 -162 -48q-137 0 -224 90.5t-87 241.5q0 165 108 275t270 110q120 0 189.5 -45.5t98.5 -114.5l-141 -85q-49 90 -148 90q-92 0 -148.5 -64t-56.5 -165q0 -81 44 -130.5t117 -49.5q93 0 148 50l10 54h-99l24 137h259zM369 853h144
l77 -132h-125l-32 45l-44 -45h-143z" />
    <glyph glyph-name="gcircumflex" unicode="&#x11d;" horiz-adv-x="600" 
d="M371 27q-36 -36 -109 -36q-112 0 -178.5 70t-66.5 182q0 126 77 213.5t214 87.5q94 0 148 -44l6 35h152l-87 -505q-20 -116 -90.5 -165.5t-187.5 -49.5q-128 0 -222 62l64 125q75 -49 161 -49q50 0 82.5 18.5t36.5 55.5zM284 134q60 0 94.5 43.5t34.5 106.5
q0 54 -29 85.5t-79 31.5q-60 0 -94 -45t-34 -108q0 -49 29 -81.5t78 -32.5zM286 710h145l72 -143h-125l-28 50l-42 -50h-138z" />
    <glyph glyph-name="Gbreve" unicode="&#x11e;" horiz-adv-x="726" 
d="M708 382l-67 -382h-142l7 36q-48 -48 -162 -48q-137 0 -224 90.5t-87 241.5q0 165 108 275t270 110q120 0 189.5 -45.5t98.5 -114.5l-141 -85q-49 90 -148 90q-92 0 -148.5 -64t-56.5 -165q0 -81 44 -130.5t117 -49.5q93 0 148 50l10 54h-99l24 137h259zM416 718
q-78 0 -112.5 41t-34.5 99h115q0 -35 32 -35q34 0 39 35h113q-2 -54 -43 -97t-109 -43z" />
    <glyph glyph-name="gbreve" unicode="&#x11f;" horiz-adv-x="600" 
d="M371 27q-36 -36 -109 -36q-112 0 -178.5 70t-66.5 182q0 126 77 213.5t214 87.5q94 0 148 -44l6 35h152l-87 -505q-20 -116 -90.5 -165.5t-187.5 -49.5q-128 0 -222 62l64 125q75 -49 161 -49q50 0 82.5 18.5t36.5 55.5zM284 134q60 0 94.5 43.5t34.5 106.5
q0 54 -29 85.5t-79 31.5q-60 0 -94 -45t-34 -108q0 -49 29 -81.5t78 -32.5zM342 560q-79 0 -114.5 43.5t-32.5 106.5h115q-5 -45 32 -45q17 0 27 12t12 33h113q-2 -61 -42.5 -105.5t-109.5 -44.5z" />
    <glyph glyph-name="Gdotaccent" unicode="&#x120;" horiz-adv-x="726" 
d="M708 382l-67 -382h-142l7 36q-48 -48 -162 -48q-137 0 -224 90.5t-87 241.5q0 165 108 275t270 110q120 0 189.5 -45.5t98.5 -114.5l-141 -85q-49 90 -148 90q-92 0 -148.5 -64t-56.5 -165q0 -81 44 -130.5t117 -49.5q93 0 148 50l10 54h-99l24 137h259zM423 723
q-36 0 -61 24.5t-25 60.5t24 60t61 24q38 0 63 -23.5t25 -60.5t-24.5 -61t-62.5 -24z" />
    <glyph glyph-name="gdotaccent" unicode="&#x121;" horiz-adv-x="600" 
d="M371 27q-36 -36 -109 -36q-112 0 -178.5 70t-66.5 182q0 126 77 213.5t214 87.5q94 0 148 -44l6 35h152l-87 -505q-20 -116 -90.5 -165.5t-187.5 -49.5q-128 0 -222 62l64 125q75 -49 161 -49q50 0 82.5 18.5t36.5 55.5zM284 134q60 0 94.5 43.5t34.5 106.5
q0 54 -29 85.5t-79 31.5q-60 0 -94 -45t-34 -108q0 -49 29 -81.5t78 -32.5zM346 561q-36 0 -61 24.5t-25 60.5t24 60t61 24q38 0 63 -23.5t25 -60.5t-24.5 -61t-62.5 -24z" />
    <glyph glyph-name="Gcommaaccent" unicode="&#x122;" horiz-adv-x="726" 
d="M708 382l-67 -382h-142l7 36q-48 -48 -162 -48q-137 0 -224 90.5t-87 241.5q0 165 108 275t270 110q120 0 189.5 -45.5t98.5 -114.5l-141 -85q-49 90 -148 90q-92 0 -148.5 -64t-56.5 -165q0 -81 44 -130.5t117 -49.5q93 0 148 50l10 54h-99l24 137h259zM230 -256l47 68
q-24 8 -37.5 27.5t-13.5 43.5q0 39 26 64.5t66 25.5q35 0 56.5 -21.5t21.5 -56.5q0 -36 -24 -72l-53 -79h-89z" />
    <glyph glyph-name="gcommaaccent" unicode="&#x123;" horiz-adv-x="600" 
d="M371 27q-36 -36 -109 -36q-112 0 -178.5 70t-66.5 182q0 126 77 213.5t214 87.5q94 0 148 -44l6 35h152l-87 -505q-20 -116 -90.5 -165.5t-187.5 -49.5q-128 0 -222 62l64 125q75 -49 161 -49q50 0 82.5 18.5t36.5 55.5zM284 134q60 0 94.5 43.5t34.5 106.5
q0 54 -29 85.5t-79 31.5q-60 0 -94 -45t-34 -108q0 -49 29 -81.5t78 -32.5zM420 790l-48 -69q52 -17 52 -70q0 -40 -25 -65t-65 -25q-35 0 -58 22.5t-23 57.5q0 33 25 70l53 79h89z" />
    <glyph glyph-name="Hcircumflex" unicode="&#x124;" horiz-adv-x="637" 
d="M673 692l-122 -692h-164l48 273h-231l-49 -273h-164l122 692h164l-46 -260h232l46 260h164zM340 853h144l77 -132h-125l-32 45l-44 -45h-143z" />
    <glyph glyph-name="hcircumflex" unicode="&#x125;" horiz-adv-x="490" 
d="M256 0l58 329q5 33 -8.5 51.5t-40.5 18.5q-52 0 -62 -64l-58 -335h-158l129 731h158l-41 -230q40 40 100 40q86 0 120.5 -58.5t18.5 -153.5l-58 -329h-158zM270 895h144l77 -132h-125l-32 45l-44 -45h-143z" />
    <glyph glyph-name="Hbar" unicode="&#x126;" horiz-adv-x="663" 
d="M686 692l-11 -63h49l-21 -119h-49l-90 -510h-164l48 273h-231l-49 -273h-164l90 510h-51l21 119h51l11 63h164l-11 -63h232l11 63h164zM244 432h232l14 78h-232z" />
    <glyph glyph-name="hbar" unicode="&#x127;" horiz-adv-x="502" 
d="M56 571l19 110h43l9 50h158l-9 -50h111l-19 -110h-112l-12 -70q40 40 100 40q86 0 120.5 -58.5t18.5 -153.5l-58 -329h-158l58 329q5 33 -8.5 51.5t-40.5 18.5q-52 0 -62 -64l-58 -335h-158l101 571h-43z" />
    <glyph glyph-name="Itilde" unicode="&#x128;" horiz-adv-x="241" 
d="M277 692l-122 -692h-164l122 692h164zM272 723q-25 0 -58 14.5t-44 14.5q-27 0 -30 -31h-110q5 64 39 104.5t87 40.5q26 0 58 -14.5t44 -14.5q24 0 27 31h110q-7 -67 -39 -106t-84 -39z" />
    <glyph glyph-name="itilde" unicode="&#x129;" horiz-adv-x="222" 
d="M237 535l-92 -535h-158l92 535h158zM229 566q-25 0 -56 14.5t-42 14.5q-25 0 -28 -31h-110q5 64 39 104.5t87 40.5q26 0 56 -14.5t42 -14.5q22 0 25 31h110q-7 -68 -39 -106.5t-84 -38.5z" />
    <glyph glyph-name="Imacron" unicode="&#x12a;" horiz-adv-x="241" 
d="M277 692l-122 -692h-164l122 692h164zM77 722l21 116h245l-21 -116h-245z" />
    <glyph glyph-name="imacron" unicode="&#x12b;" horiz-adv-x="222" 
d="M37 576l21 116h245l-21 -116h-245zM237 535l-92 -535h-158l92 535h158z" />
    <glyph glyph-name="Ibreve" unicode="&#x12c;" horiz-adv-x="241" 
d="M277 692l-122 -692h-164l122 692h164zM209 718q-78 0 -112.5 41t-34.5 99h115q0 -35 32 -35q34 0 39 35h113q-2 -54 -43 -97t-109 -43z" />
    <glyph glyph-name="ibreve" unicode="&#x12d;" horiz-adv-x="222" 
d="M237 535l-92 -535h-158l92 535h158zM173 560q-79 0 -114.5 43.5t-32.5 106.5h115q-5 -45 32 -45q17 0 27 12t12 33h113q-2 -61 -42.5 -105.5t-109.5 -44.5z" />
    <glyph glyph-name="Iogonek" unicode="&#x12e;" horiz-adv-x="241" 
d="M277 692l-122 -692q-22 -4 -35 -15t-13 -25q0 -24 35 -26l-19 -109q-10 -2 -34 -2q-66 0 -101 24.5t-35 65.5q0 60 75 87h-37l122 692h164z" />
    <glyph glyph-name="iogonek" unicode="&#x12f;" horiz-adv-x="222" 
d="M237 535l-92 -535q-23 -4 -35 -15t-12 -24q0 -25 35 -27l-19 -109q-10 -2 -34 -2q-65 0 -100.5 25t-35.5 65q0 51 43 87l92 535h158zM175 556q-38 0 -64.5 26.5t-26.5 64.5t26.5 65t64.5 27t65 -27t27 -65t-27 -64.5t-65 -26.5z" />
    <glyph glyph-name="Idotaccent" unicode="&#x130;" horiz-adv-x="241" 
d="M277 692l-122 -692h-164l122 692h164zM214 723q-36 0 -61 24.5t-25 60.5t24 60t61 24q38 0 63 -23.5t25 -60.5t-24.5 -61t-62.5 -24z" />
    <glyph glyph-name="dotlessi" unicode="&#x131;" horiz-adv-x="222" 
d="M237 535l-92 -535h-158l92 535h158z" />
    <glyph glyph-name="IJ" unicode="&#x132;" horiz-adv-x="539" 
d="M277 692l-122 -692h-164l122 692h164zM579 692l-91 -519q-16 -91 -61.5 -132.5t-142.5 -41.5q-46 0 -68 2l27 153h38q39 1 47 48l87 490h164z" />
    <glyph glyph-name="ij" unicode="&#x133;" horiz-adv-x="446" 
d="M237 535l-92 -535h-158l92 535h158zM175 556q-38 0 -64.5 26.5t-26.5 64.5t26.5 65t64.5 27t65 -27t27 -65t-27 -64.5t-65 -26.5zM462 535l-94 -535q-17 -98 -61 -137t-135 -39q-38 0 -58 1l24 136h25q23 0 33.5 12t14.5 35l93 527h158zM400 556q-38 0 -64.5 26.5
t-26.5 64.5t26.5 65t64.5 27t65 -27t27 -65t-27 -64.5t-65 -26.5z" />
    <glyph glyph-name="Jcircumflex" unicode="&#x134;" horiz-adv-x="298" 
d="M338 692l-91 -519q-16 -91 -61.5 -132.5t-142.5 -41.5q-46 0 -68 2l27 153h38q39 1 47 48l87 490h164zM197 853h144l77 -132h-125l-32 45l-44 -45h-143z" />
    <glyph glyph-name="jcircumflex" unicode="&#x135;" horiz-adv-x="224" 
d="M107 710h145l72 -143h-125l-28 50l-42 -50h-138zM240 535l-94 -535q-17 -98 -61 -137t-135 -39q-38 0 -58 1l24 136h25q23 0 33.5 12t14.5 35l93 527h158z" />
    <glyph glyph-name="Kcommaaccent" unicode="&#x136;" horiz-adv-x="565" 
d="M277 692l-47 -269l228 269h185l-287 -337l168 -355h-176l-140 299l-53 -299h-164l122 692h164zM143 -256l47 68q-24 8 -37.5 27.5t-13.5 43.5q0 39 26 64.5t66 25.5q35 0 56.5 -21.5t21.5 -56.5q0 -36 -24 -72l-53 -79h-89z" />
    <glyph glyph-name="kcommaaccent" unicode="&#x137;" horiz-adv-x="499" 
d="M268 731l-69 -391l164 195h183l-221 -254l124 -281h-171l-98 232l-41 -232h-158l129 731h158zM101 -256l47 68q-24 8 -37.5 27.5t-13.5 43.5q0 39 26 64.5t66 25.5q35 0 56.5 -21.5t21.5 -56.5q0 -36 -24 -72l-53 -79h-89z" />
    <glyph glyph-name="Lacute" unicode="&#x139;" horiz-adv-x="374" 
d="M304 0h-313l122 692h164l-95 -538h149zM213 853h154l-91 -132h-150z" />
    <glyph glyph-name="lacute" unicode="&#x13a;" horiz-adv-x="223" 
d="M272 731l-129 -731h-158l129 731h158zM210 893h154l-91 -132h-150z" />
    <glyph glyph-name="Lcommaaccent" unicode="&#x13b;" horiz-adv-x="374" 
d="M304 0h-313l122 692h164l-95 -538h149zM48 -256l47 68q-24 8 -37.5 27.5t-13.5 43.5q0 39 26 64.5t66 25.5q35 0 56.5 -21.5t21.5 -56.5q0 -36 -24 -72l-53 -79h-89z" />
    <glyph glyph-name="lcommaaccent" unicode="&#x13c;" horiz-adv-x="222" 
d="M272 731l-129 -731h-158l129 731h158zM-39 -256l47 68q-24 8 -37.5 27.5t-13.5 43.5q0 39 26 64.5t66 25.5q35 0 56.5 -21.5t21.5 -56.5q0 -36 -24 -72l-53 -79h-89z" />
    <glyph glyph-name="Lcaron" unicode="&#x13d;" horiz-adv-x="374" 
d="M304 0h-313l122 692h164l-95 -538h149zM315 692h128l-42 -163h-124z" />
    <glyph glyph-name="lcaron" unicode="&#x13e;" horiz-adv-x="223" 
d="M272 731l-129 -731h-158l129 731h158zM311 731h128l-42 -163h-124z" />
    <glyph glyph-name="Ldot" unicode="&#x13f;" horiz-adv-x="449" 
d="M359 253q-43 0 -71.5 29t-28.5 72t28.5 71.5t71.5 28.5t71.5 -28.5t28.5 -71.5t-28.5 -72t-71.5 -29zM304 0h-313l122 692h164l-95 -538h149z" />
    <glyph glyph-name="ldot" unicode="&#x140;" horiz-adv-x="412" 
d="M234 354q0 41 28 69.5t69 28.5t69.5 -28.5t28.5 -69.5t-28.5 -69t-69.5 -28t-69 28t-28 69zM272 731l-129 -731h-158l129 731h158z" />
    <glyph glyph-name="Lslash" unicode="&#x141;" horiz-adv-x="385" 
d="M315 0h-313l34 193l-49 -21l26 146l49 23l62 351h164l-47 -267l98 47l-27 -157l-98 -43l-21 -118h149z" />
    <glyph glyph-name="lslash" unicode="&#x142;" horiz-adv-x="263" 
d="M293 731l-39 -222l50 26l-29 -165l-50 -25l-61 -345h-158l45 258l-49 -25l27 159l51 26l55 313h158z" />
    <glyph glyph-name="Nacute" unicode="&#x143;" horiz-adv-x="656" 
d="M414 0l-190 425l-75 -425h-157l122 692h165l180 -431l77 431h157l-122 -692h-157zM395 853h154l-91 -132h-150z" />
    <glyph glyph-name="nacute" unicode="&#x144;" horiz-adv-x="491" 
d="M256 0l58 329q6 34 -7.5 52t-41.5 18q-50 0 -62 -64l-58 -335h-158l92 535h157l-6 -36q36 42 103 42q86 0 120.5 -58.5t18.5 -153.5l-58 -329h-158zM296 708h150l-95 -140h-148z" />
    <glyph glyph-name="Ncommaaccent" unicode="&#x145;" horiz-adv-x="657" 
d="M414 0l-190 425l-75 -425h-157l122 692h165l180 -431l77 431h157l-122 -692h-157zM189 -256l47 68q-24 8 -37.5 27.5t-13.5 43.5q0 39 26 64.5t66 25.5q35 0 56.5 -21.5t21.5 -56.5q0 -36 -24 -72l-53 -79h-89z" />
    <glyph glyph-name="ncommaaccent" unicode="&#x146;" horiz-adv-x="491" 
d="M256 0l58 329q6 34 -7.5 52t-41.5 18q-50 0 -62 -64l-58 -335h-158l92 535h157l-6 -36q36 42 103 42q86 0 120.5 -58.5t18.5 -153.5l-58 -329h-158zM96 -256l47 68q-24 8 -37.5 27.5t-13.5 43.5q0 39 26 64.5t66 25.5q35 0 56.5 -21.5t21.5 -56.5q0 -36 -24 -72l-53 -79
h-89z" />
    <glyph glyph-name="Ncaron" unicode="&#x147;" horiz-adv-x="656" 
d="M414 0l-190 425l-75 -425h-157l122 692h165l180 -431l77 431h157l-122 -692h-157zM469 721h-144l-77 132h130l31 -44l47 44h136z" />
    <glyph glyph-name="ncaron" unicode="&#x148;" horiz-adv-x="491" 
d="M256 0l58 329q6 34 -7.5 52t-41.5 18q-50 0 -62 -64l-58 -335h-158l92 535h157l-6 -36q36 42 103 42q86 0 120.5 -58.5t18.5 -153.5l-58 -329h-158zM363 567h-142l-73 143h127l27 -50l43 50h135z" />
    <glyph glyph-name="napostrophe" unicode="&#x149;" horiz-adv-x="685" 
d="M450 0l58 329q6 34 -7.5 52t-41.5 18q-50 0 -62 -64l-58 -335h-158l92 535h157l-6 -36q36 42 103 42q86 0 120.5 -58.5t18.5 -153.5l-58 -329h-158zM52 400l72 122q-63 20 -63 83q0 39 28 68.5t75 29.5q45 0 70.5 -27.5t25.5 -68.5q0 -37 -27 -83l-73 -124h-108z" />
    <glyph glyph-name="Eng" unicode="&#x14a;" horiz-adv-x="662" 
d="M415 1l-191 426l-75 -427h-158l122 692h167l179 -433l77 433h158l-119 -679l-4 -20q-16 -91 -60.5 -132.5t-140.5 -41.5q-36 0 -60 2l26 153h33q40 0 46 27z" />
    <glyph glyph-name="eng" unicode="&#x14b;" horiz-adv-x="491" 
d="M472 329l-57 -329q-17 -98 -60.5 -137t-134.5 -39q-38 0 -58 1l24 136h25q23 0 33 11.5t14 35.5l56 321q6 34 -7.5 52t-41.5 18q-50 0 -62 -64l-58 -335h-158l92 535h157l-6 -36q36 42 103 42q86 0 120.5 -58.5t18.5 -153.5z" />
    <glyph glyph-name="Omacron" unicode="&#x14c;" horiz-adv-x="751" 
d="M32 329q0 153 105.5 264.5t274.5 111.5q151 0 242 -90.5t91 -237.5q0 -168 -101.5 -279t-268.5 -111q-157 0 -250 92t-93 250zM406 550q-92 0 -147 -65.5t-55 -155.5q0 -79 42.5 -133t122.5 -54q93 0 148.5 64.5t55.5 170.5q0 76 -44 124.5t-123 48.5zM293 722l21 116
h245l-21 -116h-245z" />
    <glyph glyph-name="omacron" unicode="&#x14d;" horiz-adv-x="594" 
d="M306 401q-59 0 -94 -44.5t-35 -105.5q0 -50 30 -83.5t79 -33.5q62 0 96.5 43t34.5 108q0 51 -30 83.5t-81 32.5zM17 248q0 121 79.5 208.5t211.5 87.5q123 0 196 -71t73 -182q0 -130 -82 -215t-213 -85q-117 0 -191 70.5t-74 186.5zM207 576l21 116h245l-21 -116h-245z
" />
    <glyph glyph-name="Obreve" unicode="&#x14e;" horiz-adv-x="751" 
d="M32 329q0 153 105.5 264.5t274.5 111.5q151 0 242 -90.5t91 -237.5q0 -168 -101.5 -279t-268.5 -111q-157 0 -250 92t-93 250zM406 550q-92 0 -147 -65.5t-55 -155.5q0 -79 42.5 -133t122.5 -54q93 0 148.5 64.5t55.5 170.5q0 76 -44 124.5t-123 48.5zM447 718
q-78 0 -112.5 41t-34.5 99h115q0 -35 32 -35q34 0 39 35h113q-2 -54 -43 -97t-109 -43z" />
    <glyph glyph-name="obreve" unicode="&#x14f;" horiz-adv-x="594" 
d="M306 401q-59 0 -94 -44.5t-35 -105.5q0 -50 30 -83.5t79 -33.5q62 0 96.5 43t34.5 108q0 51 -30 83.5t-81 32.5zM17 248q0 121 79.5 208.5t211.5 87.5q123 0 196 -71t73 -182q0 -130 -82 -215t-213 -85q-117 0 -191 70.5t-74 186.5zM335 560q-79 0 -114.5 43.5
t-32.5 106.5h115q-5 -45 32 -45q17 0 27 12t12 33h113q-2 -61 -42.5 -105.5t-109.5 -44.5z" />
    <glyph glyph-name="Ohungarumlaut" unicode="&#x150;" horiz-adv-x="751" 
d="M32 329q0 153 105.5 264.5t274.5 111.5q151 0 242 -90.5t91 -237.5q0 -168 -101.5 -279t-268.5 -111q-157 0 -250 92t-93 250zM406 550q-92 0 -147 -65.5t-55 -155.5q0 -79 42.5 -133t122.5 -54q93 0 148.5 64.5t55.5 170.5q0 76 -44 124.5t-123 48.5zM328 852h147
l-75 -131h-145zM512 852h147l-75 -131h-145z" />
    <glyph glyph-name="ohungarumlaut" unicode="&#x151;" horiz-adv-x="594" 
d="M306 401q-59 0 -94 -44.5t-35 -105.5q0 -50 30 -83.5t79 -33.5q62 0 96.5 43t34.5 108q0 51 -30 83.5t-81 32.5zM17 248q0 121 79.5 208.5t211.5 87.5q123 0 196 -71t73 -182q0 -130 -82 -215t-213 -85q-117 0 -191 70.5t-74 186.5zM233 708h147l-80 -140h-145zM417 708
h147l-80 -140h-145z" />
    <glyph glyph-name="OE" unicode="&#x152;" horiz-adv-x="723" 
d="M649 0h-281q-158 0 -247 89t-89 223q0 163 109 271.5t285 108.5h340l-27 -156h-151l-19 -107h146l-26 -154h-147l-21 -119h155zM357 155l68 382h-19q-102 0 -152.5 -64t-50.5 -150q0 -71 40.5 -116t113.5 -52z" />
    <glyph glyph-name="oe" unicode="&#x153;" horiz-adv-x="947" 
d="M17 248q0 121 79.5 208.5t211.5 87.5q134 0 206 -80q26 31 73.5 55.5t105.5 24.5q112 0 177 -63.5t65 -167.5q0 -48 -12 -98h-349q2 -36 27 -59.5t77 -23.5q31 0 57 11.5t37 21.5t26 28l102 -86q-78 -116 -222 -116q-136 0 -204 79q-69 -79 -192 -79q-117 0 -191 70.5
t-74 186.5zM306 401q-59 0 -94 -44.5t-35 -105.5q0 -50 30 -83.5t79 -33.5q62 0 96.5 43t34.5 108q0 51 -30 83.5t-81 32.5zM688 410q-40 0 -64.5 -23.5t-31.5 -58.5h184q0 38 -23 60t-65 22z" />
    <glyph glyph-name="Racute" unicode="&#x154;" horiz-adv-x="541" 
d="M530 501q0 -58 -31.5 -110.5t-97.5 -78.5l103 -312h-168l-87 281h-44l-50 -281h-164l122 692h204q103 0 158 -49t55 -142zM324 853h154l-91 -132h-150zM301 548h-50l-22 -127h60q32 0 50 20t18 54q0 53 -56 53z" />
    <glyph glyph-name="racute" unicode="&#x155;" horiz-adv-x="298" 
d="M327 538l-29 -169h-39q-27 0 -41.5 -12t-19.5 -43l-54 -314h-158l92 535h158l-7 -40q33 48 98 43zM212 708h150l-95 -140h-148z" />
    <glyph glyph-name="Rcommaaccent" unicode="&#x156;" horiz-adv-x="539" 
d="M530 501q0 -58 -31.5 -110.5t-97.5 -78.5l103 -312h-168l-87 281h-44l-50 -281h-164l122 692h204q103 0 158 -49t55 -142zM134 -256l47 68q-24 8 -37.5 27.5t-13.5 43.5q0 39 26 64.5t66 25.5q35 0 56.5 -21.5t21.5 -56.5q0 -36 -24 -72l-53 -79h-89zM301 548h-50
l-22 -127h60q32 0 50 20t18 54q0 53 -56 53z" />
    <glyph glyph-name="rcommaaccent" unicode="&#x157;" horiz-adv-x="297" 
d="M327 538l-29 -169h-39q-27 0 -41.5 -12t-19.5 -43l-54 -314h-158l92 535h158l-7 -40q33 48 98 43zM-34 -256l47 68q-24 8 -37.5 27.5t-13.5 43.5q0 39 26 64.5t66 25.5q35 0 56.5 -21.5t21.5 -56.5q0 -36 -24 -72l-53 -79h-89z" />
    <glyph glyph-name="Rcaron" unicode="&#x158;" horiz-adv-x="541" 
d="M530 501q0 -58 -31.5 -110.5t-97.5 -78.5l103 -312h-168l-87 281h-44l-50 -281h-164l122 692h204q103 0 158 -49t55 -142zM386 721h-144l-77 132h130l31 -44l47 44h136zM301 548h-50l-22 -127h60q32 0 50 20t18 54q0 53 -56 53z" />
    <glyph glyph-name="rcaron" unicode="&#x159;" horiz-adv-x="298" 
d="M327 538l-29 -169h-39q-27 0 -41.5 -12t-19.5 -43l-54 -314h-158l92 535h158l-7 -40q33 48 98 43zM277 567h-142l-73 143h127l27 -50l43 50h135z" />
    <glyph glyph-name="Sacute" unicode="&#x15a;" horiz-adv-x="478" 
d="M279 560q-25 0 -38.5 -12.5t-13.5 -34.5q0 -7 1.5 -13.5t3 -11t7 -11l8.5 -10t12 -11l13.5 -11l17 -13t18.5 -14.5l37 -28.5t30.5 -26t30.5 -32.5l19.5 -33t16.5 -44t4 -50q0 -94 -63.5 -154t-167.5 -60q-111 0 -168.5 58.5t-51.5 166.5h161q-2 -82 59 -82q26 0 42 15
t16 41q0 11 -2.5 20t-6 15t-13 15t-15.5 14t-23 18l-27 21q-65 51 -94 96t-29 114q0 87 59 144t160 57q100 0 154.5 -53.5t50.5 -158.5h-153q1 30 -13 49.5t-42 19.5zM295 853h154l-91 -132h-150z" />
    <glyph glyph-name="sacute" unicode="&#x15b;" horiz-adv-x="413" 
d="M224 420q-38 0 -38 -30q0 -11 7 -18.5t15 -11.5t31 -13q8 -3 12 -5q69 -28 102 -64t33 -107q0 -84 -58 -131t-145 -47q-95 0 -146.5 45.5t-46.5 137.5h148q-3 -56 46 -56q42 0 42 33q0 8 -2.5 13.5t-5 9.5t-11 8.5l-14 7.5t-20.5 9t-24 10q-113 50 -113 163
q0 72 51.5 120t137.5 48q85 0 135.5 -40.5t46.5 -133.5h-139q0 52 -44 52zM248 708h150l-95 -140h-148z" />
    <glyph glyph-name="Scircumflex" unicode="&#x15c;" horiz-adv-x="478" 
d="M279 560q-25 0 -38.5 -12.5t-13.5 -34.5q0 -7 1.5 -13.5t3 -11t7 -11l8.5 -10t12 -11l13.5 -11l17 -13t18.5 -14.5l37 -28.5t30.5 -26t30.5 -32.5l19.5 -33t16.5 -44t4 -50q0 -94 -63.5 -154t-167.5 -60q-111 0 -168.5 58.5t-51.5 166.5h161q-2 -82 59 -82q26 0 42 15
t16 41q0 11 -2.5 20t-6 15t-13 15t-15.5 14t-23 18l-27 21q-65 51 -94 96t-29 114q0 87 59 144t160 57q100 0 154.5 -53.5t50.5 -158.5h-153q1 30 -13 49.5t-42 19.5zM246 853h144l77 -132h-125l-32 45l-44 -45h-143z" />
    <glyph glyph-name="scircumflex" unicode="&#x15d;" horiz-adv-x="413" 
d="M224 420q-38 0 -38 -30q0 -11 7 -18.5t15 -11.5t31 -13q8 -3 12 -5q69 -28 102 -64t33 -107q0 -84 -58 -131t-145 -47q-95 0 -146.5 45.5t-46.5 137.5h148q-3 -56 46 -56q42 0 42 33q0 8 -2.5 13.5t-5 9.5t-11 8.5l-14 7.5t-20.5 9t-24 10q-113 50 -113 163
q0 72 51.5 120t137.5 48q85 0 135.5 -40.5t46.5 -133.5h-139q0 52 -44 52zM192 710h145l72 -143h-125l-28 50l-42 -50h-138z" />
    <glyph glyph-name="Scedilla" unicode="&#x15e;" horiz-adv-x="478" 
d="M98 -112l21 116q-133 45 -124 211h161q-2 -82 59 -82q26 0 42 15t16 41q0 11 -2.5 20t-6 15t-13 15t-15.5 14t-23 18l-27 21q-65 51 -94 96t-29 114q0 87 59 144t160 57q100 0 154.5 -53.5t50.5 -158.5h-153q1 30 -13 49.5t-42 19.5q-25 0 -38.5 -12.5t-13.5 -34.5
q0 -7 1.5 -13.5t3 -11t7 -11l8.5 -10t12 -11l13.5 -11l17 -13t18.5 -14.5l37 -28.5t30.5 -26t30.5 -32.5l19.5 -33t16.5 -44t4 -50q0 -94 -63.5 -154t-167.5 -60h-13l-6 -31q54 -28 54 -100q0 -57 -39 -90t-103 -33h-37l16 87h22q40 0 40 36q0 29 -34 29h-17z" />
    <glyph glyph-name="scedilla" unicode="&#x15f;" horiz-adv-x="413" 
d="M72 -112l21 118q-110 37 -103 170h148q-3 -56 46 -56q42 0 42 33q0 8 -2.5 13.5t-5 9.5t-11 8.5l-14 7.5t-20.5 9t-24 10q-113 50 -113 163q0 72 51.5 120t137.5 48q85 0 135.5 -40.5t46.5 -133.5h-139q0 52 -44 52q-38 0 -38 -30q0 -11 7 -18.5t15 -11.5t31 -13
q8 -3 12 -5q69 -28 102 -64t33 -107q0 -84 -58 -131t-145 -47h-7l-6 -34q54 -28 54 -100q0 -57 -39 -90t-103 -33h-37l16 87h22q40 0 40 36q0 29 -34 29h-17z" />
    <glyph glyph-name="Scaron" unicode="&#x160;" horiz-adv-x="478" 
d="M279 560q-25 0 -38.5 -12.5t-13.5 -34.5q0 -7 1.5 -13.5t3 -11t7 -11l8.5 -10t12 -11l13.5 -11l17 -13t18.5 -14.5l37 -28.5t30.5 -26t30.5 -32.5l19.5 -33t16.5 -44t4 -50q0 -94 -63.5 -154t-167.5 -60q-111 0 -168.5 58.5t-51.5 166.5h161q-2 -82 59 -82q26 0 42 15
t16 41q0 11 -2.5 20t-6 15t-13 15t-15.5 14t-23 18l-27 21q-65 51 -94 96t-29 114q0 87 59 144t160 57q100 0 154.5 -53.5t50.5 -158.5h-153q1 30 -13 49.5t-42 19.5zM367 721h-144l-77 132h130l31 -44l47 44h136z" />
    <glyph glyph-name="scaron" unicode="&#x161;" horiz-adv-x="413" 
d="M224 420q-38 0 -38 -30q0 -11 7 -18.5t15 -11.5t31 -13q8 -3 12 -5q69 -28 102 -64t33 -107q0 -84 -58 -131t-145 -47q-95 0 -146.5 45.5t-46.5 137.5h148q-3 -56 46 -56q42 0 42 33q0 8 -2.5 13.5t-5 9.5t-11 8.5l-14 7.5t-20.5 9t-24 10q-113 50 -113 163
q0 72 51.5 120t137.5 48q85 0 135.5 -40.5t46.5 -133.5h-139q0 52 -44 52zM302 567h-142l-73 143h127l27 -50l43 50h135z" />
    <glyph glyph-name="Tcommaaccent" unicode="&#x162;" horiz-adv-x="423" 
d="M451 536h-112l-94 -536h-164l94 536h-114l28 156h390zM61 -256l47 68q-24 8 -37.5 27.5t-13.5 43.5q0 39 26 64.5t66 25.5q35 0 56.5 -21.5t21.5 -56.5q0 -36 -24 -72l-53 -79h-89z" />
    <glyph glyph-name="tcommaaccent" unicode="&#x163;" horiz-adv-x="304" 
d="M278 620l-15 -85h69l-24 -135h-69l-38 -219q-8 -43 29 -43h32l-24 -136q-28 -8 -72 -8q-76 0 -108 46t-18 127l41 233h-47l24 135h47l15 85h158zM16 -256l47 68q-24 8 -37.5 27.5t-13.5 43.5q0 39 26 64.5t66 25.5q35 0 56.5 -21.5t21.5 -56.5q0 -36 -24 -72l-53 -79h-89
z" />
    <glyph glyph-name="Tcaron" unicode="&#x164;" horiz-adv-x="423" 
d="M451 536h-112l-94 -536h-164l94 536h-114l28 156h390zM352 721h-144l-77 132h130l31 -44l47 44h136z" />
    <glyph glyph-name="tcaron" unicode="&#x165;" horiz-adv-x="304" 
d="M278 620l-15 -85h69l-24 -135h-69l-38 -219q-8 -43 29 -43h32l-24 -136q-28 -8 -72 -8q-76 0 -108 46t-18 127l41 233h-47l24 135h47l15 85h158zM338 731h128l-42 -163h-124z" />
    <glyph glyph-name="Tbar" unicode="&#x166;" horiz-adv-x="423" 
d="M451 536h-112l-17 -96h80l-21 -119h-80l-56 -321h-164l56 321h-80l21 119h80l17 96h-114l28 156h390z" />
    <glyph glyph-name="tbar" unicode="&#x167;" horiz-adv-x="304" 
d="M278 620l-15 -85h69l-24 -135h-69l-11 -61h68l-21 -116h-67l-7 -42q-8 -43 29 -43h32l-24 -136q-28 -8 -72 -8q-76 0 -108 46t-18 127l10 56h-46l20 116h46l11 61h-47l24 135h47l15 85h158z" />
    <glyph glyph-name="Utilde" unicode="&#x168;" horiz-adv-x="627" 
d="M38 282l72 410h164l-71 -403q-11 -63 13 -103t84 -40t89 36.5t41 103.5l72 406h164l-73 -414q-25 -142 -97 -215t-200 -73q-141 0 -211 80t-47 212zM467 723q-25 0 -58 14.5t-44 14.5q-27 0 -30 -31h-110q5 64 39 104.5t87 40.5q26 0 58 -14.5t44 -14.5q24 0 27 31h110
q-7 -67 -39 -106t-84 -39z" />
    <glyph glyph-name="utilde" unicode="&#x169;" horiz-adv-x="487" 
d="M235 535l-57 -329q-12 -69 46 -69q50 0 61 64l58 334h158l-92 -535h-152l6 32q-35 -38 -103 -38q-82 0 -119 58.5t-21 150.5l57 332h158zM365 566q-25 0 -56 14.5t-42 14.5q-25 0 -28 -31h-110q5 64 39 104.5t87 40.5q26 0 56 -14.5t42 -14.5q22 0 25 31h110
q-7 -68 -39 -106.5t-84 -38.5z" />
    <glyph glyph-name="Umacron" unicode="&#x16a;" horiz-adv-x="627" 
d="M38 282l72 410h164l-71 -403q-11 -63 13 -103t84 -40t89 36.5t41 103.5l72 406h164l-73 -414q-25 -142 -97 -215t-200 -73q-141 0 -211 80t-47 212zM269 722l21 116h245l-21 -116h-245z" />
    <glyph glyph-name="umacron" unicode="&#x16b;" horiz-adv-x="487" 
d="M235 535l-57 -329q-12 -69 46 -69q50 0 61 64l58 334h158l-92 -535h-152l6 32q-35 -38 -103 -38q-82 0 -119 58.5t-21 150.5l57 332h158zM173 576l21 116h245l-21 -116h-245z" />
    <glyph glyph-name="Ubreve" unicode="&#x16c;" horiz-adv-x="627" 
d="M38 282l72 410h164l-71 -403q-11 -63 13 -103t84 -40t89 36.5t41 103.5l72 406h164l-73 -414q-25 -142 -97 -215t-200 -73q-141 0 -211 80t-47 212zM401 718q-78 0 -112.5 41t-34.5 99h115q0 -35 32 -35q34 0 39 35h113q-2 -54 -43 -97t-109 -43z" />
    <glyph glyph-name="ubreve" unicode="&#x16d;" horiz-adv-x="487" 
d="M235 535l-57 -329q-12 -69 46 -69q50 0 61 64l58 334h158l-92 -535h-152l6 32q-35 -38 -103 -38q-82 0 -119 58.5t-21 150.5l57 332h158zM301 560q-79 0 -114.5 43.5t-32.5 106.5h115q-5 -45 32 -45q17 0 27 12t12 33h113q-2 -61 -42.5 -105.5t-109.5 -44.5z" />
    <glyph glyph-name="Uring" unicode="&#x16e;" horiz-adv-x="627" 
d="M38 282l72 410h164l-71 -403q-11 -63 13 -103t84 -40t89 36.5t41 103.5l72 406h164l-73 -414q-25 -142 -97 -215t-200 -73q-141 0 -211 80t-47 212zM280 819q0 48 32 79.5t81 31.5q52 0 84 -31t32 -78q0 -49 -31.5 -80t-83.5 -31q-50 0 -82 31t-32 78zM355 821
q0 -19 11 -30.5t29 -11.5q17 0 28 11.5t11 30.5q0 18 -10.5 29t-28.5 11t-29 -11t-11 -29z" />
    <glyph glyph-name="uring" unicode="&#x16f;" horiz-adv-x="487" 
d="M235 535l-57 -329q-12 -69 46 -69q50 0 61 64l58 334h158l-92 -535h-152l6 32q-35 -38 -103 -38q-82 0 -119 58.5t-21 150.5l57 332h158zM188 666q0 47 32 78.5t80 31.5q52 0 83.5 -30.5t31.5 -77.5q0 -48 -31.5 -79t-82.5 -31q-49 0 -81 31t-32 77zM260 668
q0 -19 12 -31.5t30 -12.5q17 0 29 12.5t12 31.5q0 18 -11.5 30t-29.5 12q-19 0 -30.5 -12t-11.5 -30z" />
    <glyph glyph-name="Uhungarumlaut" unicode="&#x170;" horiz-adv-x="627" 
d="M38 282l72 410h164l-71 -403q-11 -63 13 -103t84 -40t89 36.5t41 103.5l72 406h164l-73 -414q-25 -142 -97 -215t-200 -73q-141 0 -211 80t-47 212zM295 852h147l-75 -131h-145zM479 852h147l-75 -131h-145z" />
    <glyph glyph-name="uhungarumlaut" unicode="&#x171;" horiz-adv-x="487" 
d="M235 535l-57 -329q-12 -69 46 -69q50 0 61 64l58 334h158l-92 -535h-152l6 32q-35 -38 -103 -38q-82 0 -119 58.5t-21 150.5l57 332h158zM199 708h147l-80 -140h-145zM383 708h147l-80 -140h-145z" />
    <glyph glyph-name="Uogonek" unicode="&#x172;" horiz-adv-x="627" 
d="M38 282l72 410h164l-71 -403q-11 -63 13 -103t84 -40t89 36.5t41 103.5l72 406h164l-73 -414q-45 -247 -228 -282q-46 -9 -46 -36q0 -24 35 -26l-19 -109q-10 -2 -34 -2q-65 0 -100.5 25t-35.5 65q0 54 67 82q-111 18 -163 94.5t-31 192.5z" />
    <glyph glyph-name="uogonek" unicode="&#x173;" horiz-adv-x="487" 
d="M235 535l-57 -329q-12 -69 46 -69q50 0 61 64l58 334h158l-92 -536q-48 -10 -48 -39q0 -24 35 -26l-19 -109q-10 -2 -34 -2q-65 0 -100.5 25t-35.5 65q0 51 50 87l6 32q-35 -38 -103 -38q-82 0 -119 58.5t-21 150.5l57 332h158z" />
    <glyph glyph-name="Wcircumflex" unicode="&#x174;" horiz-adv-x="976" 
d="M571 0l-54 437l-179 -437h-194l-70 692h169l41 -471l187 471h173l51 -471l184 471h169l-285 -692h-192zM499 853h144l77 -132h-125l-32 45l-44 -45h-143z" />
    <glyph glyph-name="wcircumflex" unicode="&#x175;" horiz-adv-x="790" 
d="M380 710h145l72 -143h-125l-28 50l-42 -50h-138zM520 535l26 -328l123 328h162l-220 -535h-177l-31 304l-127 -304h-177l-48 535h160l20 -328l129 328h160z" />
    <glyph glyph-name="Ycircumflex" unicode="&#x176;" horiz-adv-x="525" 
d="M193 340l-127 352h170l61 -195l133 195h175l-249 -356l-59 -336h-164zM279 853h144l77 -132h-125l-32 45l-44 -45h-143z" />
    <glyph glyph-name="ycircumflex" unicode="&#x177;" horiz-adv-x="534" 
d="M46 535h164l57 -294l145 294h168l-367 -710h-159l104 205zM250 710h145l72 -143h-125l-28 50l-42 -50h-138z" />
    <glyph glyph-name="Ydieresis" unicode="&#x178;" horiz-adv-x="525" 
d="M193 340l-127 352h170l61 -195l133 195h175l-249 -356l-59 -336h-164zM239 712q-35 0 -58.5 24t-23.5 59t23.5 58.5t58.5 23.5q37 0 61 -23.5t24 -58.5t-24.5 -59t-60.5 -24zM447 712q-35 0 -58.5 24t-23.5 59t23.5 58.5t58.5 23.5q37 0 61 -23.5t24 -58.5t-24.5 -59
t-60.5 -24z" />
    <glyph glyph-name="Zacute" unicode="&#x179;" horiz-adv-x="566" 
d="M496 0h-517l19 110l349 429h-275l27 153h519l-19 -109l-363 -431h287zM346 853h154l-91 -132h-150z" />
    <glyph glyph-name="zacute" unicode="&#x17a;" horiz-adv-x="435" 
d="M439 417l-250 -287h197l-19 -130h-389l20 118l242 288h-192l24 129h387zM264 708h150l-95 -140h-148z" />
    <glyph glyph-name="Zdotaccent" unicode="&#x17b;" horiz-adv-x="566" 
d="M496 0h-517l19 110l349 429h-275l27 153h519l-19 -109l-363 -431h287zM362 723q-36 0 -61 24.5t-25 60.5t24 60t61 24q38 0 63 -23.5t25 -60.5t-24.5 -61t-62.5 -24z" />
    <glyph glyph-name="zdotaccent" unicode="&#x17c;" horiz-adv-x="435" 
d="M439 417l-250 -287h197l-19 -130h-389l20 118l242 288h-192l24 129h387zM280 561q-36 0 -61 24.5t-25 60.5t24 60t61 24q38 0 63 -23.5t25 -60.5t-24.5 -61t-62.5 -24z" />
    <glyph glyph-name="Zcaron" unicode="&#x17d;" horiz-adv-x="566" 
d="M496 0h-517l19 110l349 429h-275l27 153h519l-19 -109l-363 -431h287zM423 721h-144l-77 132h130l31 -44l47 44h136z" />
    <glyph glyph-name="zcaron" unicode="&#x17e;" horiz-adv-x="435" 
d="M439 417l-250 -287h197l-19 -130h-389l20 118l242 288h-192l24 129h387zM334 567h-142l-73 143h127l27 -50l43 50h135z" />
    <glyph glyph-name="florin" unicode="&#x192;" horiz-adv-x="325" 
d="M298 309h-69l-97 -484h-157l95 484h-47l24 135h50l16 80q18 89 62 129.5t132 40.5q34 0 60 -4l-24 -131h-20q-27 0 -37.5 -11t-15.5 -36l-14 -68h66z" />
    <glyph glyph-name="Aringacute" unicode="&#x1fa;" horiz-adv-x="639" 
d="M431 0l-26 166h-209l-84 -166h-167l357 692h170l126 -692h-167zM282 819q0 48 32 79.5t81 31.5q52 0 84 -31t32 -78q0 -49 -31.5 -80t-83.5 -31q-50 0 -82 31t-32 78zM416 1078h154l-91 -132h-150zM355 481l-89 -176h117zM357 821q0 -19 11 -30.5t29 -11.5q17 0 28 11.5
t11 30.5q0 18 -10.5 29t-28.5 11t-29 -11t-11 -29z" />
    <glyph glyph-name="aringacute" unicode="&#x1fb;" horiz-adv-x="467" 
d="M346 926h151l-90 -132h-148zM2 167q0 81 50.5 133.5t141.5 52.5q68 0 100 -22l4 25q9 58 -46 58q-45 0 -51 -46h-146q10 75 58 124t142 49q106 0 159.5 -52.5t34.5 -161.5l-57 -327h-117l5 31q-33 -37 -105 -37q-77 0 -125 48.5t-48 124.5zM215 240q-29 0 -47 -18.5
t-18 -46.5q0 -24 15.5 -39t40.5 -15q28 0 46.5 19.5t18.5 48.5q0 23 -15.5 37t-40.5 14zM193 666q0 47 32 78.5t80 31.5q52 0 83.5 -30.5t31.5 -77.5q0 -48 -31.5 -79t-82.5 -31q-49 0 -81 31t-32 77zM265 668q0 -19 12 -31.5t30 -12.5q17 0 29 12.5t12 31.5q0 18 -11.5 30
t-29.5 12q-19 0 -30.5 -12t-11.5 -30z" />
    <glyph glyph-name="AEacute" unicode="&#x1fc;" horiz-adv-x="774" 
d="M700 0h-319l26 148h-177l-102 -148h-185l494 692h380l-27 -156h-151l-19 -107h146l-26 -154h-147l-21 -119h155zM629 853h154l-91 -132h-150zM327 288h104l36 201z" />
    <glyph glyph-name="aeacute" unicode="&#x1fd;" horiz-adv-x="815" 
d="M203 -9q-95 0 -148 50.5t-53 125.5q0 79 52 132.5t144 53.5q64 0 95 -24l5 27q9 58 -46 58q-45 0 -51 -46h-146q10 75 58 124t142 49q108 0 153 -55q60 58 155 58q110 0 175 -63.5t65 -167.5q0 -48 -12 -98h-349q2 -36 27 -59.5t77 -23.5q31 0 57 11.5t37 21.5t26 28
l102 -86q-78 -116 -222 -116q-128 0 -198 73q-21 -29 -59 -51t-86 -22zM444 708h150l-95 -140h-148zM556 410q-40 0 -64 -23.5t-31 -58.5h183q0 38 -23 60t-65 22zM215 240q-29 0 -47 -18.5t-18 -46.5q0 -24 15.5 -39t40.5 -15q28 0 46.5 19.5t18.5 48.5q0 23 -15.5 37
t-40.5 14z" />
    <glyph glyph-name="Oslashacute" unicode="&#x1fe;" horiz-adv-x="751" 
d="M655 697l95 -99l-51 -49q46 -73 46 -172q0 -168 -101.5 -279t-268.5 -111q-115 0 -199 55l-54 -52l-96 99l54 53q-48 81 -48 187q0 153 105.5 264.5t274.5 111.5q116 0 193 -56zM406 550q-93 0 -148 -65.5t-55 -155.5q0 -34 7 -62l275 266q-34 17 -79 17zM574 377
q0 21 -5 46l-274 -265q34 -16 72 -16q94 0 150.5 64.5t56.5 170.5zM422 853h154l-91 -132h-150z" />
    <glyph glyph-name="oslashacute" unicode="&#x1ff;" horiz-adv-x="594" 
d="M17 248q0 121 79.5 208.5t211.5 87.5q83 0 147 -42l42 41l78 -78l-40 -39q42 -55 42 -135q0 -130 -82 -215t-213 -85q-84 0 -146 42l-48 -47l-77 78l47 47q-41 68 -41 137zM327 708h150l-95 -140h-148zM424 285q0 15 -3 29l-180 -178q21 -8 45 -8q64 0 101 45.5t37 111.5
zM306 407q-62 0 -99 -47t-37 -109q0 -10 2 -28l179 176q-22 8 -45 8z" />
    <glyph glyph-name="Scommaaccent" unicode="&#x218;" horiz-adv-x="478" 
d="M279 560q-25 0 -38.5 -12.5t-13.5 -34.5q0 -7 1.5 -13.5t3 -11t7 -11l8.5 -10t12 -11l13.5 -11l17 -13t18.5 -14.5l37 -28.5t30.5 -26t30.5 -32.5l19.5 -33t16.5 -44t4 -50q0 -94 -63.5 -154t-167.5 -60q-111 0 -168.5 58.5t-51.5 166.5h161q-2 -82 59 -82q26 0 42 15
t16 41q0 11 -2.5 20t-6 15t-13 15t-15.5 14t-23 18l-27 21q-65 51 -94 96t-29 114q0 87 59 144t160 57q100 0 154.5 -53.5t50.5 -158.5h-153q1 30 -13 49.5t-42 19.5zM92 -256l47 68q-24 8 -37.5 27.5t-13.5 43.5q0 39 26 64.5t66 25.5q35 0 56.5 -21.5t21.5 -56.5
q0 -36 -24 -72l-53 -79h-89z" />
    <glyph glyph-name="scommaaccent" unicode="&#x219;" horiz-adv-x="413" 
d="M224 420q-38 0 -38 -30q0 -11 7 -18.5t15 -11.5t31 -13q8 -3 12 -5q69 -28 102 -64t33 -107q0 -84 -58 -131t-145 -47q-95 0 -146.5 45.5t-46.5 137.5h148q-3 -56 46 -56q42 0 42 33q0 8 -2.5 13.5t-5 9.5t-11 8.5l-14 7.5t-20.5 9t-24 10q-113 50 -113 163
q0 72 51.5 120t137.5 48q85 0 135.5 -40.5t46.5 -133.5h-139q0 52 -44 52zM51 -256l47 68q-24 8 -37.5 27.5t-13.5 43.5q0 39 26 64.5t66 25.5q35 0 56.5 -21.5t21.5 -56.5q0 -36 -24 -72l-53 -79h-89z" />
    <glyph glyph-name="uni021A" unicode="&#x21a;" horiz-adv-x="423" 
d="M451 536h-112l-94 -536h-164l94 536h-114l28 156h390zM61 -256l47 68q-24 8 -37.5 27.5t-13.5 43.5q0 39 26 64.5t66 25.5q35 0 56.5 -21.5t21.5 -56.5q0 -36 -24 -72l-53 -79h-89z" />
    <glyph glyph-name="uni021B" unicode="&#x21b;" horiz-adv-x="304" 
d="M278 620l-15 -85h69l-24 -135h-69l-38 -219q-8 -43 29 -43h32l-24 -136q-28 -8 -72 -8q-76 0 -108 46t-18 127l41 233h-47l24 135h47l15 85h158zM16 -256l47 68q-24 8 -37.5 27.5t-13.5 43.5q0 39 26 64.5t66 25.5q35 0 56.5 -21.5t21.5 -56.5q0 -36 -24 -72l-53 -79h-89
z" />
    <glyph glyph-name="uni0237" unicode="&#x237;" horiz-adv-x="223" 
d="M239 535l-94 -535q-17 -98 -61 -137t-135 -39q-38 0 -58 1l24 136h25q23 0 33.5 12t14.5 35l93 527h158z" />
    <glyph glyph-name="circumflex" unicode="&#x2c6;" 
d="M199 710h145l72 -143h-125l-28 50l-42 -50h-138z" />
    <glyph glyph-name="caron" unicode="&#x2c7;" 
d="M321 567h-142l-73 143h127l27 -50l43 50h135z" />
    <glyph glyph-name="breve" unicode="&#x2d8;" 
d="M267 560q-79 0 -114.5 43.5t-32.5 106.5h115q-5 -45 32 -45q17 0 27 12t12 33h113q-2 -61 -42.5 -105.5t-109.5 -44.5z" />
    <glyph glyph-name="dotaccent" unicode="&#x2d9;" 
d="M257 561q-36 0 -61 24.5t-25 60.5t24 60t61 24q38 0 63 -23.5t25 -60.5t-24.5 -61t-62.5 -24z" />
    <glyph glyph-name="ring" unicode="&#x2da;" 
d="M150 666q0 47 32 78.5t80 31.5q52 0 83.5 -30.5t31.5 -77.5q0 -48 -31.5 -79t-82.5 -31q-49 0 -81 31t-32 77zM222 668q0 -19 12 -31.5t30 -12.5q17 0 29 12.5t12 31.5q0 18 -11.5 30t-29.5 12q-19 0 -30.5 -12t-11.5 -30z" />
    <glyph glyph-name="ogonek" unicode="&#x2db;" 
d="M106 0h119q-40 -18 -40 -40q0 -24 35 -26l-19 -109q-10 -2 -34 -2q-66 0 -101 24.5t-35 65.5q0 59 75 87z" />
    <glyph glyph-name="tilde" unicode="&#x2dc;" 
d="M320 566q-25 0 -56 14.5t-42 14.5q-25 0 -28 -31h-110q5 64 39 104.5t87 40.5q26 0 56 -14.5t42 -14.5q22 0 25 31h110q-7 -68 -39 -106.5t-84 -38.5z" />
    <glyph glyph-name="hungarumlaut" unicode="&#x2dd;" 
d="M132 708h147l-80 -140h-145zM316 708h147l-80 -140h-145z" />
    <glyph glyph-name="Wgrave" unicode="&#x1e80;" horiz-adv-x="976" 
d="M571 0l-54 437l-179 -437h-194l-70 692h169l41 -471l187 471h173l51 -471l184 471h169l-285 -692h-192zM440 853h142l44 -132h-135z" />
    <glyph glyph-name="wgrave" unicode="&#x1e81;" horiz-adv-x="790" 
d="M316 708h142l47 -140h-135zM520 535l26 -328l123 328h162l-220 -535h-177l-31 304l-127 -304h-177l-48 535h160l20 -328l129 328h160z" />
    <glyph glyph-name="Wacute" unicode="&#x1e82;" horiz-adv-x="976" 
d="M571 0l-54 437l-179 -437h-194l-70 692h169l41 -471l187 471h173l51 -471l184 471h169l-285 -692h-192zM572 853h154l-91 -132h-150z" />
    <glyph glyph-name="wacute" unicode="&#x1e83;" horiz-adv-x="790" 
d="M463 708h150l-95 -140h-148zM520 535l26 -328l123 328h162l-220 -535h-177l-31 304l-127 -304h-177l-48 535h160l20 -328l129 328h160z" />
    <glyph glyph-name="Wdieresis" unicode="&#x1e84;" horiz-adv-x="976" 
d="M571 0l-54 437l-179 -437h-194l-70 692h169l41 -471l187 471h173l51 -471l184 471h169l-285 -692h-192zM457 712q-35 0 -58.5 24t-23.5 59t23.5 58.5t58.5 23.5q37 0 61 -23.5t24 -58.5t-24.5 -59t-60.5 -24zM665 712q-35 0 -58.5 24t-23.5 59t23.5 58.5t58.5 23.5
q37 0 61 -23.5t24 -58.5t-24.5 -59t-60.5 -24z" />
    <glyph glyph-name="wdieresis" unicode="&#x1e85;" horiz-adv-x="790" 
d="M352 563q-35 0 -58.5 23.5t-23.5 57.5q0 35 23.5 58.5t58.5 23.5q36 0 59.5 -23.5t23.5 -58.5q0 -34 -24 -57.5t-59 -23.5zM546 563q-35 0 -58.5 23.5t-23.5 57.5q0 35 23.5 58.5t58.5 23.5q36 0 59.5 -23.5t23.5 -58.5q0 -34 -24 -57.5t-59 -23.5zM520 535l26 -328
l123 328h162l-220 -535h-177l-31 304l-127 -304h-177l-48 535h160l20 -328l129 328h160z" />
    <glyph glyph-name="Ygrave" unicode="&#x1ef2;" horiz-adv-x="525" 
d="M193 340l-127 352h170l61 -195l133 195h175l-249 -356l-59 -336h-164zM215 853h142l44 -132h-135z" />
    <glyph glyph-name="ygrave" unicode="&#x1ef3;" horiz-adv-x="534" 
d="M46 535h164l57 -294l145 294h168l-367 -710h-159l104 205zM188 708h142l47 -140h-135z" />
    <glyph glyph-name="uni2009" unicode="&#x2009;" horiz-adv-x="0" 
 />
    <glyph glyph-name="endash" unicode="&#x2013;" horiz-adv-x="604" 
d="M566 218h-547l24 132h547z" />
    <glyph glyph-name="emdash" unicode="&#x2014;" horiz-adv-x="943" 
d="M905 218h-886l24 132h886z" />
    <glyph glyph-name="quoteleft" unicode="&#x2018;" horiz-adv-x="233" 
d="M263 692l-72 -122q63 -20 63 -83q0 -39 -27.5 -68.5t-75.5 -29.5q-45 0 -70.5 27.5t-25.5 68.5q0 37 27 83l73 124h108z" />
    <glyph glyph-name="quoteright" unicode="&#x2019;" horiz-adv-x="233" 
d="M66 400l72 122q-63 20 -63 83q0 39 28 68.5t75 29.5q45 0 70.5 -27.5t25.5 -68.5q0 -37 -27 -83l-73 -124h-108z" />
    <glyph glyph-name="quotesinglbase" unicode="&#x201a;" horiz-adv-x="229" 
d="M-24 -112l72 122q-63 20 -63 83q0 39 28 68.5t75 29.5q45 0 70.5 -27.5t25.5 -68.5q0 -37 -27 -83l-73 -124h-108z" />
    <glyph glyph-name="quotedblleft" unicode="&#x201c;" horiz-adv-x="457" 
d="M263 692l-72 -122q63 -20 63 -83q0 -39 -27.5 -68.5t-75.5 -29.5q-45 0 -70.5 27.5t-25.5 68.5q0 37 27 83l73 124h108zM487 692l-72 -122q63 -20 63 -83q0 -39 -27.5 -68.5t-75.5 -29.5q-45 0 -70.5 27.5t-25.5 68.5q0 37 27 83l73 124h108z" />
    <glyph glyph-name="quotedblright" unicode="&#x201d;" horiz-adv-x="457" 
d="M66 400l72 122q-63 20 -63 83q0 39 28 68.5t75 29.5q45 0 70.5 -27.5t25.5 -68.5q0 -37 -27 -83l-73 -124h-108zM290 400l72 122q-63 20 -63 83q0 39 28 68.5t75 29.5q45 0 70.5 -27.5t25.5 -68.5q0 -37 -27 -83l-73 -124h-108z" />
    <glyph glyph-name="quotedblbase" unicode="&#x201e;" horiz-adv-x="453" 
d="M200 -112l72 122q-63 20 -63 83q0 39 28 68.5t75 29.5q45 0 70.5 -27.5t25.5 -68.5q0 -37 -27 -83l-73 -124h-108zM-24 -112l72 122q-63 20 -63 83q0 39 28 68.5t75 29.5q45 0 70.5 -27.5t25.5 -68.5q0 -37 -27 -83l-73 -124h-108z" />
    <glyph glyph-name="dagger" unicode="&#x2020;" horiz-adv-x="410" 
d="M419 408h-106l-72 -408h-163l72 408h-108l28 159h108l22 125h163l-22 -125h106z" />
    <glyph glyph-name="daggerdbl" unicode="&#x2021;" horiz-adv-x="424" 
d="M29 293h107l21 115h-108l28 159h108l22 125h163l-22 -125h106l-28 -159h-106l-21 -115h107l-28 -159h-107l-23 -134h-163l23 134h-107z" />
    <glyph glyph-name="bullet" unicode="&#x2022;" horiz-adv-x="360" 
d="M30 297q0 67 44.5 112.5t109.5 45.5q66 0 110.5 -45.5t44.5 -112.5t-45 -112t-110 -45q-66 0 -110 45t-44 112z" />
    <glyph glyph-name="ellipsis" unicode="&#x2026;" horiz-adv-x="695" 
d="M317 -12q-42 0 -70 28.5t-28 70.5t27.5 70t70.5 28t70.5 -28t27.5 -70t-28 -70.5t-70 -28.5zM81 -12q-42 0 -70 28.5t-28 70.5t27.5 70t70.5 28t70.5 -28t27.5 -70t-28 -70.5t-70 -28.5zM553 -12q-42 0 -70 28.5t-28 70.5t27.5 70t70.5 28t70.5 -28t27.5 -70t-28 -70.5
t-70 -28.5z" />
    <glyph glyph-name="perthousand" unicode="&#x2030;" horiz-adv-x="1196" 
d="M993 224q-24 0 -41 -17t-17 -45q0 -23 13.5 -38t35.5 -15q28 0 43.5 17.5t15.5 44.5q0 23 -13.5 38t-36.5 15zM816 162q0 68 49.5 122.5t127.5 54.5t124.5 -46t46.5 -120t-51.5 -126.5t-128.5 -52.5q-78 0 -123 47t-45 121zM816 692l-635 -692h-141l636 692h140zM236 584
q-24 0 -41 -17t-17 -45q0 -23 13.5 -38t35.5 -15q28 0 43.5 17.5t15.5 44.5q0 23 -13.5 38t-36.5 15zM59 522q0 68 49.5 122.5t127.5 54.5t124.5 -46t46.5 -120t-51.5 -126.5t-128.5 -52.5q-78 0 -123 47t-45 121zM622 224q-24 0 -41 -17t-17 -45q0 -23 13.5 -38t35.5 -15
q28 0 43.5 17.5t15.5 44.5q0 23 -13.5 38t-36.5 15zM445 162q0 68 49.5 122.5t127.5 54.5t124.5 -46t46.5 -120t-51.5 -126.5t-128.5 -52.5q-78 0 -123 47t-45 121z" />
    <glyph glyph-name="guilsinglleft" unicode="&#x2039;" horiz-adv-x="245" 
d="M198 94h-127l-57 183l107 166h135l-111 -179z" />
    <glyph glyph-name="guilsinglright" unicode="&#x203a;" horiz-adv-x="245" 
d="M47 443h126l58 -182l-107 -167h-135l111 178z" />
    <glyph glyph-name="fraction" unicode="&#x2044;" horiz-adv-x="642" 
d="M691 692l-590 -692h-125l586 692h129z" />
    <glyph glyph-name="Euro" unicode="&#x20ac;" horiz-adv-x="632" 
d="M51 489h53q43 96 131 156t211 60q158 0 236 -87l-120 -113q-46 48 -121 48q-89 0 -145 -64h160l-21 -117h-192q-3 -22 -3 -45v-2h187l-21 -117h-134q43 -66 134 -67q64 0 120 38l67 -129q-79 -62 -192 -62q-117 0 -200 58.5t-115 161.5h-85l21 117h47v2q0 30 2 45h-40z
" />
    <glyph glyph-name="trademark" unicode="&#x2122;" horiz-adv-x="626" 
d="M275 692l-16 -89h-46l-34 -193h-96l34 193h-48l16 89h190zM536 410l30 173l-80 -173h-95l-19 173l-31 -173h-88l50 282h141l15 -168l76 168h139l-50 -282h-88z" />
    <glyph glyph-name="onethird" unicode="&#x2153;" horiz-adv-x="736" 
d="M477 152l13 72l66 40h-117l17 95h245l-17 -91l-74 -44q73 -20 73 -95q0 -61 -42 -97.5t-112 -36.5q-73 0 -108 35.5t-31 93.5h113q-2 -34 29 -34q15 0 24 9.5t9 23.5q0 29 -32 29h-56zM271 692l-63 -357h-117l46 259l-43 -14l15 91l56 21h106zM693 692l-590 -692h-125
l586 692h129z" />
    <glyph glyph-name="twothirds" unicode="&#x2154;" horiz-adv-x="857" 
d="M814 692l-590 -692h-125l586 692h129zM336 335h-293l14 84l140 87q32 19 44 31t12 27q0 28 -29 28q-15 0 -23.5 -10t-8.5 -26h-110q0 57 38 99.5t111 42.5q65 0 103.5 -33.5t38.5 -83.5q0 -44 -22.5 -70.5t-66.5 -51.5l-43 -24h112zM598 152l13 72l66 40h-117l17 95h245
l-17 -91l-74 -44q73 -20 73 -95q0 -61 -42 -97.5t-112 -36.5q-73 0 -108 35.5t-31 93.5h113q-2 -34 29 -34q15 0 24 9.5t9 23.5q0 29 -32 29h-56z" />
    <glyph glyph-name="oneeighth" unicode="&#x215b;" horiz-adv-x="741" 
d="M531 257q0 -12 8 -20t21 -8t21.5 9t8.5 22q0 12 -8 20t-21 8t-21.5 -9t-8.5 -22zM502 110q0 -14 8.5 -23t23.5 -9q14 0 23.5 9t9.5 23q0 15 -8.5 24t-23.5 9q-14 0 -23.5 -9.5t-9.5 -23.5zM421 259q0 46 36 79t103 33t103.5 -30t36.5 -81q0 -57 -60 -78q41 -20 41 -72
q0 -49 -36 -82.5t-110 -33.5q-71 0 -109 30t-38 78q0 67 68 91q-35 25 -35 66zM271 692l-63 -357h-117l46 259l-43 -14l15 91l56 21h106zM693 692l-590 -692h-125l586 692h129z" />
    <glyph glyph-name="threeeighths" unicode="&#x215c;" horiz-adv-x="823" 
d="M613 257q0 -12 8 -20t21 -8t21.5 9t8.5 22q0 12 -8 20t-21 8t-21.5 -9t-8.5 -22zM584 110q0 -14 8.5 -23t23.5 -9q14 0 23.5 9t9.5 23q0 15 -8.5 24t-23.5 9q-14 0 -23.5 -9.5t-9.5 -23.5zM503 259q0 46 36 79t103 33t103.5 -30t36.5 -81q0 -57 -60 -78q41 -20 41 -72
q0 -49 -36 -82.5t-110 -33.5q-71 0 -109 30t-38 78q0 67 68 91q-35 25 -35 66zM775 692l-590 -692h-125l586 692h129zM138 485l13 72l66 40h-117l17 95h245l-17 -91l-74 -44q73 -20 73 -95q0 -61 -42 -97.5t-112 -36.5q-73 0 -108 35.5t-31 93.5h113q-2 -34 29 -34
q15 0 24 9.5t9 23.5q0 29 -32 29h-56z" />
    <glyph glyph-name="fiveeighths" unicode="&#x215d;" horiz-adv-x="831" 
d="M511 259q0 46 36 79t103 33t103.5 -30t36.5 -81q0 -57 -60 -78q41 -20 41 -72q0 -49 -36 -82.5t-110 -33.5q-71 0 -109 30t-38 78q0 67 68 91q-35 25 -35 66zM783 692l-590 -692h-125l586 692h129zM207 485q-16 0 -23 -10h-106l37 217h258l-16 -95h-146l-6 -32q16 9 46 9
q48 0 76 -29t28 -80q0 -60 -43 -98.5t-109 -38.5q-70 0 -106 32.5t-34 87.5h113q0 -9 7 -17t21 -8q15 0 24 9.5t9 23.5q0 29 -30 29zM592 110q0 -14 8.5 -23t23.5 -9q14 0 23.5 9t9.5 23q0 15 -8.5 24t-23.5 9q-14 0 -23.5 -9.5t-9.5 -23.5zM621 257q0 -12 8 -20t21 -8
t21.5 9t8.5 22q0 12 -8 20t-21 8t-21.5 -9t-8.5 -22z" />
    <glyph glyph-name="seveneighths" unicode="&#x215e;" horiz-adv-x="766" 
d="M556 257q0 -12 8 -20t21 -8t21.5 9t8.5 22q0 12 -8 20t-21 8t-21.5 -9t-8.5 -22zM527 110q0 -14 8.5 -23t23.5 -9q14 0 23.5 9t9.5 23q0 15 -8.5 24t-23.5 9q-14 0 -23.5 -9.5t-9.5 -23.5zM446 259q0 46 36 79t103 33t103.5 -30t36.5 -81q0 -57 -60 -78q41 -20 41 -72
q0 -49 -36 -82.5t-110 -33.5q-71 0 -109 30t-38 78q0 67 68 91q-35 25 -35 66zM366 607l-159 -272h-134l146 252h-136l18 105h280zM718 692l-590 -692h-125l586 692h129z" />
    <glyph glyph-name="minus" unicode="&#x2212;" horiz-adv-x="464" 
d="M28 270l24 134h407l-24 -134h-407z" />
    <glyph glyph-name="uni24C5" unicode="&#x24c5;" horiz-adv-x="770" 
d="M566 413q0 -62 -36.5 -96.5t-95.5 -34.5h-45v-126h-112v383h154q65 0 100 -34.5t35 -91.5zM420 444h-31v-67h31q31 0 31 34q0 33 -31 33zM34 345q0 153 101 256.5t259 103.5q167 0 267.5 -101t100.5 -256q0 -154 -100.5 -257.5t-262.5 -103.5q-164 0 -264.5 101.5
t-100.5 256.5zM133 345q0 -118 71.5 -193.5t194.5 -75.5t193.5 75.5t70.5 196.5q0 120 -71.5 194t-197.5 74q-118 0 -189.5 -76t-71.5 -195z" />
    <glyph glyph-name="f_i" unicode="&#xfb01;" horiz-adv-x="517" 
d="M268 551l-3 -16h62l-23 -135h-63l-70 -400h-158l70 400h-49l24 135h49l5 28q16 89 58 129t130 40q32 0 62 -1l-24 -133h-18q-27 0 -37 -11t-15 -36zM532 535l-92 -535h-158l92 535h158zM470 556q-38 0 -64.5 26.5t-26.5 64.5t26.5 65t64.5 27t65 -27t27 -65t-27 -64.5
t-65 -26.5z" />
    <glyph glyph-name="f_l" unicode="&#xfb02;" horiz-adv-x="518" 
d="M268 551l-3 -16h62l-23 -135h-63l-70 -400h-158l70 400h-49l24 135h49l5 28q16 89 58 129t130 40q32 0 62 -1l-24 -133h-18q-27 0 -37 -11t-15 -36zM568 731l-129 -731h-158l129 731h158z" />
    <glyph glyph-name="space_uni0326" 
d="M54 -256l47 68q-24 8 -37.5 27.5t-13.5 43.5q0 39 26 64.5t66 25.5q35 0 56.5 -21.5t21.5 -56.5q0 -36 -24 -72l-53 -79h-89z" />
    <glyph glyph-name="caron.alt" 
d="M218 731h128l-42 -163h-124z" />
    <glyph glyph-name="space_uni0326.alt" 
d="M346 790l-48 -69q52 -17 52 -70q0 -40 -25 -65t-65 -25q-35 0 -58 22.5t-23 57.5q0 33 25 70l53 79h89z" />
    <glyph glyph-name="acute.pl" 
d="M232 708h141l-64 -140h-137z" />
    <glyph glyph-name="grave.uc" 
d="M160 853h142l44 -132h-135z" />
    <glyph glyph-name="dieresis.uc" 
d="M179 712q-35 0 -58.5 24t-23.5 59t23.5 58.5t58.5 23.5q37 0 61 -23.5t24 -58.5t-24.5 -59t-60.5 -24zM387 712q-35 0 -58.5 24t-23.5 59t23.5 58.5t58.5 23.5q37 0 61 -23.5t24 -58.5t-24.5 -59t-60.5 -24z" />
    <glyph glyph-name="macron.uc" 
d="M154 722l21 116h245l-21 -116h-245z" />
    <glyph glyph-name="acute.uc" 
d="M269 853h154l-91 -132h-150z" />
    <glyph glyph-name="circumflex.uc" 
d="M230 853h144l77 -132h-125l-32 45l-44 -45h-143z" />
    <glyph glyph-name="caron.uc" 
d="M346 721h-144l-77 132h130l31 -44l47 44h136z" />
    <glyph glyph-name="breve.uc" 
d="M272 718q-78 0 -112.5 41t-34.5 99h115q0 -35 32 -35q34 0 39 35h113q-2 -54 -43 -97t-109 -43z" />
    <glyph glyph-name="dotaccent.uc" 
d="M280 723q-36 0 -61 24.5t-25 60.5t24 60t61 24q38 0 63 -23.5t25 -60.5t-24.5 -61t-62.5 -24z" />
    <glyph glyph-name="ring.uc" 
d="M162 819q0 48 32 79.5t81 31.5q52 0 84 -31t32 -78q0 -49 -31.5 -80t-83.5 -31q-50 0 -82 31t-32 78zM237 821q0 -19 11 -30.5t29 -11.5q17 0 28 11.5t11 30.5q0 18 -10.5 29t-28.5 11t-29 -11t-11 -29z" />
    <glyph glyph-name="tilde.uc" 
d="M352 723q-25 0 -58 14.5t-44 14.5q-27 0 -30 -31h-110q5 64 39 104.5t87 40.5q26 0 58 -14.5t44 -14.5q24 0 27 31h110q-7 -67 -39 -106t-84 -39z" />
    <glyph glyph-name="hungarumlaut.uc" 
d="M178 852h147l-75 -131h-145zM362 852h147l-75 -131h-145z" />
    <glyph glyph-name="acute.ucpl" 
d="M253 853h141l-61 -132h-137z" />
    <glyph glyph-name="Cacute.pl" horiz-adv-x="594" 
d="M488 181l68 -131q-79 -62 -192 -62q-149 0 -240.5 92.5t-91.5 246.5q0 69 25 135t70.5 121t119 88.5t162.5 33.5q153 0 233 -85l-118 -118q-46 48 -120 48q-92 0 -146 -65.5t-54 -157.5q0 -79 41 -130.5t124 -53.5q63 0 119 38zM370 853h141l-61 -132h-137z" />
    <glyph glyph-name="Nacute.pl" horiz-adv-x="657" 
d="M414 0l-190 425l-75 -425h-157l122 692h165l180 -431l77 431h157l-122 -692h-157zM386 853h141l-61 -132h-137z" />
    <glyph glyph-name="Oacute.pl" horiz-adv-x="751" 
d="M32 329q0 153 105.5 264.5t274.5 111.5q151 0 242 -90.5t91 -237.5q0 -168 -101.5 -279t-268.5 -111q-157 0 -250 92t-93 250zM406 550q-92 0 -147 -65.5t-55 -155.5q0 -79 42.5 -133t122.5 -54q93 0 148.5 64.5t55.5 170.5q0 76 -44 124.5t-123 48.5zM405 853h141
l-61 -132h-137z" />
    <glyph glyph-name="Sacute.pl" horiz-adv-x="478" 
d="M279 560q-25 0 -38.5 -12.5t-13.5 -34.5q0 -7 1.5 -13.5t3 -11t7 -11l8.5 -10t12 -11l13.5 -11l17 -13t18.5 -14.5l37 -28.5t30.5 -26t30.5 -32.5l19.5 -33t16.5 -44t4 -50q0 -94 -63.5 -154t-167.5 -60q-111 0 -168.5 58.5t-51.5 166.5h161q-2 -82 59 -82q26 0 42 15
t16 41q0 11 -2.5 20t-6 15t-13 15t-15.5 14t-23 18l-27 21q-65 51 -94 96t-29 114q0 87 59 144t160 57q100 0 154.5 -53.5t50.5 -158.5h-153q1 30 -13 49.5t-42 19.5zM284 853h141l-61 -132h-137z" />
    <glyph glyph-name="Zacute.pl" horiz-adv-x="566" 
d="M496 0h-517l19 110l349 429h-275l27 153h519l-19 -109l-363 -431h287zM338 853h141l-61 -132h-137z" />
    <glyph glyph-name="cacute.pl" horiz-adv-x="467" 
d="M284 134q45 0 81 24l65 -119q-63 -48 -157 -48q-110 0 -183 71t-73 186q0 122 78.5 209t213.5 87q116 0 175 -63l-103 -106q-31 26 -77 26q-58 0 -92.5 -43.5t-34.5 -104.5q0 -52 29 -85.5t78 -33.5zM286 708h141l-64 -140h-137z" />
    <glyph glyph-name="idotaccent" horiz-adv-x="222" 
d="M237 535l-92 -535h-158l92 535h158zM175 556q-38 0 -64.5 26.5t-26.5 64.5t26.5 65t64.5 27t65 -27t27 -65t-27 -64.5t-65 -26.5z" />
    <glyph glyph-name="nacute.pl" horiz-adv-x="491" 
d="M256 0l58 329q6 34 -7.5 52t-41.5 18q-50 0 -62 -64l-58 -335h-158l92 535h157l-6 -36q36 42 103 42q86 0 120.5 -58.5t18.5 -153.5l-58 -329h-158zM277 708h141l-64 -140h-137z" />
    <glyph glyph-name="oacute.pl" horiz-adv-x="594" 
d="M306 401q-59 0 -94 -44.5t-35 -105.5q0 -50 30 -83.5t79 -33.5q62 0 96.5 43t34.5 108q0 51 -30 83.5t-81 32.5zM17 248q0 121 79.5 208.5t211.5 87.5q123 0 196 -71t73 -182q0 -130 -82 -215t-213 -85q-117 0 -191 70.5t-74 186.5zM310 708h141l-64 -140h-137z" />
    <glyph glyph-name="sacute.pl" horiz-adv-x="413" 
d="M224 420q-38 0 -38 -30q0 -11 7 -18.5t15 -11.5t31 -13q8 -3 12 -5q69 -28 102 -64t33 -107q0 -84 -58 -131t-145 -47q-95 0 -146.5 45.5t-46.5 137.5h148q-3 -56 46 -56q42 0 42 33q0 8 -2.5 13.5t-5 9.5t-11 8.5l-14 7.5t-20.5 9t-24 10q-113 50 -113 163
q0 72 51.5 120t137.5 48q85 0 135.5 -40.5t46.5 -133.5h-139q0 52 -44 52zM232 708h141l-64 -140h-137z" />
    <glyph glyph-name="zacute.pl" horiz-adv-x="435" 
d="M439 417l-250 -287h197l-19 -130h-389l20 118l242 288h-192l24 129h387zM253 708h141l-64 -140h-137z" />
    <glyph glyph-name="zero.num" horiz-adv-x="346" 
d="M373 550l-12 -73q-25 -152 -160 -152q-76 0 -115 41.5t-28 110.5l11 73q22 152 160 152q75 0 115 -42t29 -110zM240 473l14 81q2 16 -5.5 25.5t-23.5 9.5q-28 0 -34 -35l-14 -81q-5 -35 28 -35q28 0 35 35z" />
    <glyph glyph-name="one.num" horiz-adv-x="192" 
d="M232 692l-63 -357h-117l46 259l-43 -14l15 91l56 21h106z" />
    <glyph glyph-name="two.num" horiz-adv-x="334" 
d="M329 335h-293l14 84l140 87q32 20 44.5 32.5t12.5 29.5q0 28 -29 28q-15 0 -23.5 -10t-8.5 -26h-110q0 57 38 99.5t111 42.5q65 0 103.5 -33.5t38.5 -83.5q0 -46 -23 -73.5t-67 -52.5l-43 -24h112z" />
    <glyph glyph-name="three.num" horiz-adv-x="320" 
d="M130 482l13 72l67 43h-117l17 95h245l-17 -91l-75 -47q73 -20 73 -95q0 -61 -42 -97.5t-112 -36.5q-73 0 -108 35.5t-31 93.5h113q-2 -34 29 -34q15 0 24 9.5t9 23.5q0 29 -32 29h-56z" />
    <glyph glyph-name="four.num" horiz-adv-x="348" 
d="M359 385h-36l-9 -54h-113l9 54h-168l18 102l204 205h114l-36 -202h36zM242 564l-75 -74h62z" />
    <glyph glyph-name="five.num" horiz-adv-x="325" 
d="M197 482q-16 0 -23 -10h-106l39 220h258l-16 -95h-146l-8 -35q16 9 46 9q48 0 76 -29t28 -80q0 -60 -43 -98.5t-109 -38.5q-70 0 -106 32.5t-34 87.5h113q0 -9 7 -17t21 -8q15 0 24 9.5t9 23.5q0 29 -30 29z" />
    <glyph glyph-name="six.num" horiz-adv-x="329" 
d="M360 652l-74 -70q-24 24 -53 24q-40 0 -47 -44q18 9 44 9q54 0 88 -30.5t34 -82.5q0 -59 -40.5 -96t-106.5 -37q-75 0 -117 42.5t-29 117.5l12 69q25 148 162 148q85 0 127 -50zM171 452q0 -14 8.5 -23t23.5 -9q14 0 23.5 9t9.5 23q0 15 -8.5 24t-23.5 9
q-14 0 -23.5 -9.5t-9.5 -23.5z" />
    <glyph glyph-name="seven.num" horiz-adv-x="304" 
d="M351 607l-159 -272h-134l146 252h-136l18 105h280z" />
    <glyph glyph-name="eight.num" horiz-adv-x="325" 
d="M190 588q0 -12 8 -20t21 -8t21.5 9t8.5 22q0 12 -8 20t-21 8t-21.5 -9t-8.5 -22zM161 441q0 -14 8.5 -23t23.5 -9q14 0 23.5 9t9.5 23q0 15 -8.5 24t-23.5 9q-14 0 -23.5 -9.5t-9.5 -23.5zM80 590q0 46 36 79t103 33t103.5 -30t36.5 -81q0 -57 -60 -78q41 -21 41 -72
q0 -49 -36 -82.5t-110 -33.5q-71 0 -109 30t-38 78q0 67 68 91q-35 25 -35 66z" />
    <glyph glyph-name="nine.num" horiz-adv-x="328" 
d="M55 375l71 72q26 -26 57 -26q37 0 45 44q-18 -9 -41 -9q-55 0 -90 30t-35 83q0 58 41 95.5t106 37.5q74 0 116 -43.5t30 -116.5l-11 -69q-11 -72 -48 -110t-113 -38q-83 0 -128 50zM243 575q0 14 -8.5 23t-23.5 9q-14 0 -23.5 -9t-9.5 -23q0 -15 8.5 -24t23.5 -9
q14 0 23.5 9.5t9.5 23.5z" />
    <glyph glyph-name="zero.den" horiz-adv-x="346" 
d="M316 215l-12 -73q-25 -152 -160 -152q-76 0 -115 41.5t-28 110.5l11 73q22 152 160 152q75 0 115 -42t29 -110zM183 138l14 81q2 16 -5.5 25.5t-23.5 9.5q-28 0 -34 -35l-14 -81q-5 -35 28 -35q28 0 35 35z" />
    <glyph glyph-name="one.den" horiz-adv-x="192" 
d="M175 357l-63 -357h-117l46 259l-43 -14l15 91l56 21h106z" />
    <glyph glyph-name="two.den" horiz-adv-x="334" 
d="M272 0h-293l14 84l140 87q32 20 44.5 32.5t12.5 29.5q0 28 -29 28q-15 0 -23.5 -10t-8.5 -26h-110q0 57 38 99.5t111 42.5q65 0 103.5 -33.5t38.5 -83.5q0 -46 -23 -73.5t-67 -52.5l-43 -24h112z" />
    <glyph glyph-name="three.den" horiz-adv-x="320" 
d="M73 147l13 72l67 43h-117l17 95h245l-17 -91l-75 -47q73 -20 73 -95q0 -61 -42 -97.5t-112 -36.5q-73 0 -108 35.5t-31 93.5h113q-2 -34 29 -34q15 0 24 9.5t9 23.5q0 29 -32 29h-56z" />
    <glyph glyph-name="four.den" horiz-adv-x="348" 
d="M302 50h-36l-9 -54h-113l9 54h-168l18 102l204 205h114l-36 -202h36zM185 229l-75 -74h62z" />
    <glyph glyph-name="five.den" horiz-adv-x="325" 
d="M140 147q-16 0 -23 -10h-106l39 220h258l-16 -95h-146l-8 -35q16 9 46 9q48 0 76 -29t28 -80q0 -60 -43 -98.5t-109 -38.5q-70 0 -106 32.5t-34 87.5h113q0 -9 7 -17t21 -8q15 0 24 9.5t9 23.5q0 29 -30 29z" />
    <glyph glyph-name="six.den" horiz-adv-x="329" 
d="M303 317l-74 -70q-24 24 -53 24q-40 0 -47 -44q18 9 44 9q54 0 88 -30.5t34 -82.5q0 -59 -40.5 -96t-106.5 -37q-75 0 -117 42.5t-29 117.5l12 69q25 148 162 148q85 0 127 -50zM114 117q0 -14 8.5 -23t23.5 -9q14 0 23.5 9t9.5 23q0 15 -8.5 24t-23.5 9
q-14 0 -23.5 -9.5t-9.5 -23.5z" />
    <glyph glyph-name="seven.den" horiz-adv-x="304" 
d="M294 272l-159 -272h-134l146 252h-136l18 105h280z" />
    <glyph glyph-name="eight.den" horiz-adv-x="325" 
d="M133 253q0 -12 8 -20t21 -8t21.5 9t8.5 22q0 12 -8 20t-21 8t-21.5 -9t-8.5 -22zM104 106q0 -14 8.5 -23t23.5 -9q14 0 23.5 9t9.5 23q0 15 -8.5 24t-23.5 9q-14 0 -23.5 -9.5t-9.5 -23.5zM23 255q0 46 36 79t103 33t103.5 -30t36.5 -81q0 -57 -60 -78q41 -20 41 -72
q0 -49 -36 -82.5t-110 -33.5q-71 0 -109 30t-38 78q0 67 68 91q-35 25 -35 66z" />
    <glyph glyph-name="nine.den" horiz-adv-x="328" 
d="M-2 40l71 72q26 -26 57 -26q37 0 45 44q-18 -9 -41 -9q-55 0 -90 30t-35 83q0 58 41 95.5t106 37.5q74 0 116 -43.5t30 -116.5l-11 -69q-11 -72 -48 -110t-113 -38q-83 0 -128 50zM186 240q0 14 -8.5 23t-23.5 9q-14 0 -23.5 -9t-9.5 -23q0 -15 8.5 -24t23.5 -9
q14 0 23.5 9.5t9.5 23.5z" />
    <glyph glyph-name="a.alt" horiz-adv-x="602" 
d="M388 0l6 36q-18 -20 -56.5 -32.5t-80.5 -12.5q-105 0 -172.5 70t-67.5 182q0 122 76.5 211.5t213.5 89.5q90 0 145 -44l6 35h159l-95 -535h-134zM177 249q0 -49 29 -81.5t78 -32.5q60 0 94.5 43.5t34.5 106.5q0 54 -29 85.5t-79 31.5q-60 0 -94 -45t-34 -108z" />
    <glyph glyph-name="k.alt" horiz-adv-x="478" 
d="M474 373q0 -45 -14 -80.5t-37.5 -56t-44 -32t-43.5 -18.5l94 -186h-174l-80 179l-30 -179h-158l126 731h157l-35 -207q27 17 79 17q74 0 117 -48t43 -120zM265 413q-29 0 -47 -18.5t-18 -46.5q0 -24 15.5 -39t40.5 -15q29 0 47 18.5t18 47.5q0 24 -15.5 38.5t-40.5 14.5z
" />
    <glyph glyph-name="u.alt" horiz-adv-x="481" 
d="M341 535h158l-57 -323q-38 -218 -224 -218q-107 0 -160.5 59t-36.5 159l56 323h158l-57 -323q-5 -30 6.5 -47.5t39.5 -17.5q48 0 60 65z" />
    <glyph glyph-name="w.alt" horiz-adv-x="745" 
d="M605 535h158l-57 -323q-17 -100 -73 -159t-150 -59q-100 0 -141 45q-49 -45 -125 -45q-110 0 -161.5 57.5t-34.5 160.5l56 323h158l-57 -323q-5 -30 6.5 -47.5t39.5 -17.5q48 0 60 65l57 323h158l-57 -323q-5 -31 7 -48t39 -17q48 0 60 65z" />
    <glyph glyph-name="y.alt" horiz-adv-x="487" 
d="M502 535l-89 -512q-17 -101 -83 -154.5t-171 -53.5q-93 0 -177 51l61 120q57 -34 118 -34q46 0 72.5 19t31.5 53q-32 -34 -100 -34q-83 0 -122 58.5t-23 151.5l58 335h158l-58 -329q-12 -69 46 -69q50 0 61 64l59 334h158z" />
    <glyph glyph-name="aacute.alt" horiz-adv-x="602" 
d="M341 708h150l-95 -140h-148zM388 0l6 36q-18 -20 -56.5 -32.5t-80.5 -12.5q-105 0 -172.5 70t-67.5 182q0 122 76.5 211.5t213.5 89.5q90 0 145 -44l6 35h159l-95 -535h-134zM177 249q0 -49 29 -81.5t78 -32.5q60 0 94.5 43.5t34.5 106.5q0 54 -29 85.5t-79 31.5
q-60 0 -94 -45t-34 -108z" />
    <glyph glyph-name="abreve.alt" horiz-adv-x="602" 
d="M344 560q-79 0 -114.5 43.5t-32.5 106.5h115q-5 -45 32 -45q17 0 27 12t12 33h113q-2 -61 -42.5 -105.5t-109.5 -44.5zM388 0l6 36q-18 -20 -56.5 -32.5t-80.5 -12.5q-105 0 -172.5 70t-67.5 182q0 122 76.5 211.5t213.5 89.5q90 0 145 -44l6 35h159l-95 -535h-134z
M177 249q0 -49 29 -81.5t78 -32.5q60 0 94.5 43.5t34.5 106.5q0 54 -29 85.5t-79 31.5q-60 0 -94 -45t-34 -108z" />
    <glyph glyph-name="acircumflex.alt" horiz-adv-x="602" 
d="M296 710h145l72 -143h-125l-28 50l-42 -50h-138zM388 0l6 36q-18 -20 -56.5 -32.5t-80.5 -12.5q-105 0 -172.5 70t-67.5 182q0 122 76.5 211.5t213.5 89.5q90 0 145 -44l6 35h159l-95 -535h-134zM177 249q0 -49 29 -81.5t78 -32.5q60 0 94.5 43.5t34.5 106.5
q0 54 -29 85.5t-79 31.5q-60 0 -94 -45t-34 -108z" />
    <glyph glyph-name="adieresis.alt" horiz-adv-x="602" 
d="M250 563q-35 0 -58.5 23.5t-23.5 57.5q0 35 23.5 58.5t58.5 23.5q36 0 59.5 -23.5t23.5 -58.5q0 -34 -24 -57.5t-59 -23.5zM444 563q-35 0 -58.5 23.5t-23.5 57.5q0 35 23.5 58.5t58.5 23.5q36 0 59.5 -23.5t23.5 -58.5q0 -34 -24 -57.5t-59 -23.5zM388 0l6 36
q-18 -20 -56.5 -32.5t-80.5 -12.5q-105 0 -172.5 70t-67.5 182q0 122 76.5 211.5t213.5 89.5q90 0 145 -44l6 35h159l-95 -535h-134zM177 249q0 -49 29 -81.5t78 -32.5q60 0 94.5 43.5t34.5 106.5q0 54 -29 85.5t-79 31.5q-60 0 -94 -45t-34 -108z" />
    <glyph glyph-name="agrave.alt" horiz-adv-x="602" 
d="M219 708h142l47 -140h-135zM388 0l6 36q-18 -20 -56.5 -32.5t-80.5 -12.5q-105 0 -172.5 70t-67.5 182q0 122 76.5 211.5t213.5 89.5q90 0 145 -44l6 35h159l-95 -535h-134zM177 249q0 -49 29 -81.5t78 -32.5q60 0 94.5 43.5t34.5 106.5q0 54 -29 85.5t-79 31.5
q-60 0 -94 -45t-34 -108z" />
    <glyph glyph-name="amacron.alt" horiz-adv-x="602" 
d="M213 576l21 116h245l-21 -116h-245zM388 0l6 36q-18 -20 -56.5 -32.5t-80.5 -12.5q-105 0 -172.5 70t-67.5 182q0 122 76.5 211.5t213.5 89.5q90 0 145 -44l6 35h159l-95 -535h-134zM177 249q0 -49 29 -81.5t78 -32.5q60 0 94.5 43.5t34.5 106.5q0 54 -29 85.5t-79 31.5
q-60 0 -94 -45t-34 -108z" />
    <glyph glyph-name="aogonek.alt" horiz-adv-x="602" 
d="M388 0l6 36q-18 -20 -56.5 -32.5t-80.5 -12.5q-105 0 -172.5 70t-67.5 182q0 122 76.5 211.5t213.5 89.5q90 0 145 -44l6 35h159l-95 -537q-47 -9 -47 -38q0 -24 35 -26l-19 -109q-10 -2 -34 -2q-65 0 -100.5 25t-35.5 65q0 57 67 87zM177 249q0 -49 29 -81.5t78 -32.5
q60 0 94.5 43.5t34.5 106.5q0 54 -29 85.5t-79 31.5q-60 0 -94 -45t-34 -108z" />
    <glyph glyph-name="aring.alt" horiz-adv-x="602" 
d="M237 666q0 47 32 78.5t80 31.5q52 0 83.5 -30.5t31.5 -77.5q0 -48 -31.5 -79t-82.5 -31q-49 0 -81 31t-32 77zM309 668q0 -19 12 -31.5t30 -12.5q17 0 29 12.5t12 31.5q0 18 -11.5 30t-29.5 12q-19 0 -30.5 -12t-11.5 -30zM388 0l6 36q-18 -20 -56.5 -32.5t-80.5 -12.5
q-105 0 -172.5 70t-67.5 182q0 122 76.5 211.5t213.5 89.5q90 0 145 -44l6 35h159l-95 -535h-134zM177 249q0 -49 29 -81.5t78 -32.5q60 0 94.5 43.5t34.5 106.5q0 54 -29 85.5t-79 31.5q-60 0 -94 -45t-34 -108z" />
    <glyph glyph-name="aringacute.alt" horiz-adv-x="602" 
d="M237 666q0 47 32 78.5t80 31.5q52 0 83.5 -30.5t31.5 -77.5q0 -48 -31.5 -79t-82.5 -31q-49 0 -81 31t-32 77zM309 668q0 -19 12 -31.5t30 -12.5q17 0 29 12.5t12 31.5q0 18 -11.5 30t-29.5 12q-19 0 -30.5 -12t-11.5 -30zM380 934h150l-95 -140h-148zM388 0l6 36
q-18 -20 -56.5 -32.5t-80.5 -12.5q-105 0 -172.5 70t-67.5 182q0 122 76.5 211.5t213.5 89.5q90 0 145 -44l6 35h159l-95 -535h-134zM177 249q0 -49 29 -81.5t78 -32.5q60 0 94.5 43.5t34.5 106.5q0 54 -29 85.5t-79 31.5q-60 0 -94 -45t-34 -108z" />
    <glyph glyph-name="atilde.alt" horiz-adv-x="602" 
d="M404 566q-25 0 -56 14.5t-42 14.5q-25 0 -28 -31h-110q5 64 39 104.5t87 40.5q26 0 56 -14.5t42 -14.5q22 0 25 31h110q-7 -68 -39 -106.5t-84 -38.5zM388 0l6 36q-18 -20 -56.5 -32.5t-80.5 -12.5q-105 0 -172.5 70t-67.5 182q0 122 76.5 211.5t213.5 89.5q90 0 145 -44
l6 35h159l-95 -535h-134zM177 249q0 -49 29 -81.5t78 -32.5q60 0 94.5 43.5t34.5 106.5q0 54 -29 85.5t-79 31.5q-60 0 -94 -45t-34 -108z" />
    <glyph glyph-name="kcommaaccent.alt" horiz-adv-x="478" 
d="M474 373q0 -45 -14 -80.5t-37.5 -56t-44 -32t-43.5 -18.5l94 -186h-174l-80 179l-30 -179h-158l126 731h157l-35 -207q27 17 79 17q74 0 117 -48t43 -120zM97 -256l47 68q-24 8 -37.5 27.5t-13.5 43.5q0 39 26 64.5t66 25.5q35 0 56.5 -21.5t21.5 -56.5q0 -36 -24 -72
l-53 -79h-89zM265 413q-29 0 -47 -18.5t-18 -46.5q0 -24 15.5 -39t40.5 -15q29 0 47 18.5t18 47.5q0 24 -15.5 38.5t-40.5 14.5z" />
    <glyph glyph-name="uacute.alt" horiz-adv-x="481" 
d="M341 535h158l-57 -323q-38 -218 -224 -218q-107 0 -160.5 59t-36.5 159l56 323h158l-57 -323q-5 -30 6.5 -47.5t39.5 -17.5q48 0 60 65zM301 708h150l-95 -140h-148z" />
    <glyph glyph-name="ugrave.alt" horiz-adv-x="481" 
d="M341 535h158l-57 -323q-38 -218 -224 -218q-107 0 -160.5 59t-36.5 159l56 323h158l-57 -323q-5 -30 6.5 -47.5t39.5 -17.5q48 0 60 65zM174 708h142l47 -140h-135z" />
    <glyph glyph-name="ucircumflex.alt" horiz-adv-x="481" 
d="M341 535h158l-57 -323q-38 -218 -224 -218q-107 0 -160.5 59t-36.5 159l56 323h158l-57 -323q-5 -30 6.5 -47.5t39.5 -17.5q48 0 60 65zM238 710h145l72 -143h-125l-28 50l-42 -50h-138z" />
    <glyph glyph-name="udieresis.alt" horiz-adv-x="481" 
d="M341 535h158l-57 -323q-38 -218 -224 -218q-107 0 -160.5 59t-36.5 159l56 323h158l-57 -323q-5 -30 6.5 -47.5t39.5 -17.5q48 0 60 65zM205 563q-35 0 -58.5 23.5t-23.5 57.5q0 35 23.5 58.5t58.5 23.5q36 0 59.5 -23.5t23.5 -58.5q0 -34 -24 -57.5t-59 -23.5zM399 563
q-35 0 -58.5 23.5t-23.5 57.5q0 35 23.5 58.5t58.5 23.5q36 0 59.5 -23.5t23.5 -58.5q0 -34 -24 -57.5t-59 -23.5z" />
    <glyph glyph-name="ubreve.alt" horiz-adv-x="481" 
d="M341 535h158l-57 -323q-38 -218 -224 -218q-107 0 -160.5 59t-36.5 159l56 323h158l-57 -323q-5 -30 6.5 -47.5t39.5 -17.5q48 0 60 65zM300 560q-79 0 -114.5 43.5t-32.5 106.5h115q-5 -45 32 -45q17 0 27 12t12 33h113q-2 -61 -42.5 -105.5t-109.5 -44.5z" />
    <glyph glyph-name="uhungarumlaut.alt" horiz-adv-x="481" 
d="M341 535h158l-57 -323q-38 -218 -224 -218q-107 0 -160.5 59t-36.5 159l56 323h158l-57 -323q-5 -30 6.5 -47.5t39.5 -17.5q48 0 60 65zM200 708h147l-80 -140h-145zM384 708h147l-80 -140h-145z" />
    <glyph glyph-name="umacron.alt" horiz-adv-x="481" 
d="M341 535h158l-57 -323q-38 -218 -224 -218q-107 0 -160.5 59t-36.5 159l56 323h158l-57 -323q-5 -30 6.5 -47.5t39.5 -17.5q48 0 60 65zM172 576l21 116h245l-21 -116h-245z" />
    <glyph glyph-name="uogonek.alt" horiz-adv-x="481" 
d="M341 535h158l-57 -323q-31 -170 -151 -208q-38 -17 -38 -44q0 -24 35 -26l-19 -109q-10 -2 -34 -2q-65 0 -100.5 25t-35.5 65q0 57 65 86q-81 14 -119.5 70t-23.5 143l56 323h158l-57 -323q-5 -30 6.5 -47.5t39.5 -17.5q48 0 60 65z" />
    <glyph glyph-name="uring.alt" horiz-adv-x="481" 
d="M341 535h158l-57 -323q-38 -218 -224 -218q-107 0 -160.5 59t-36.5 159l56 323h158l-57 -323q-5 -30 6.5 -47.5t39.5 -17.5q48 0 60 65zM187 666q0 47 32 78.5t80 31.5q52 0 83.5 -30.5t31.5 -77.5q0 -48 -31.5 -79t-82.5 -31q-49 0 -81 31t-32 77zM259 668
q0 -19 12 -31.5t30 -12.5q17 0 29 12.5t12 31.5q0 18 -11.5 30t-29.5 12q-19 0 -30.5 -12t-11.5 -30z" />
    <glyph glyph-name="utilde.alt" horiz-adv-x="481" 
d="M341 535h158l-57 -323q-38 -218 -224 -218q-107 0 -160.5 59t-36.5 159l56 323h158l-57 -323q-5 -30 6.5 -47.5t39.5 -17.5q48 0 60 65zM361 566q-25 0 -56 14.5t-42 14.5q-25 0 -28 -31h-110q5 64 39 104.5t87 40.5q26 0 56 -14.5t42 -14.5q22 0 25 31h110
q-7 -68 -39 -106.5t-84 -38.5z" />
    <glyph glyph-name="wacute.alt" horiz-adv-x="745" 
d="M443 708h150l-95 -140h-148zM605 535h158l-57 -323q-17 -100 -73 -159t-150 -59q-100 0 -141 45q-49 -45 -125 -45q-110 0 -161.5 57.5t-34.5 160.5l56 323h158l-57 -323q-5 -30 6.5 -47.5t39.5 -17.5q48 0 60 65l57 323h158l-57 -323q-5 -31 7 -48t39 -17q48 0 60 65z
" />
    <glyph glyph-name="wcircumflex.alt" horiz-adv-x="745" 
d="M370 710h145l72 -143h-125l-28 50l-42 -50h-138zM605 535h158l-57 -323q-17 -100 -73 -159t-150 -59q-100 0 -141 45q-49 -45 -125 -45q-110 0 -161.5 57.5t-34.5 160.5l56 323h158l-57 -323q-5 -30 6.5 -47.5t39.5 -17.5q48 0 60 65l57 323h158l-57 -323q-5 -31 7 -48
t39 -17q48 0 60 65z" />
    <glyph glyph-name="wdieresis.alt" horiz-adv-x="745" 
d="M335 563q-35 0 -58.5 23.5t-23.5 57.5q0 35 23.5 58.5t58.5 23.5q36 0 59.5 -23.5t23.5 -58.5q0 -34 -24 -57.5t-59 -23.5zM529 563q-35 0 -58.5 23.5t-23.5 57.5q0 35 23.5 58.5t58.5 23.5q36 0 59.5 -23.5t23.5 -58.5q0 -34 -24 -57.5t-59 -23.5zM605 535h158l-57 -323
q-17 -100 -73 -159t-150 -59q-100 0 -141 45q-49 -45 -125 -45q-110 0 -161.5 57.5t-34.5 160.5l56 323h158l-57 -323q-5 -30 6.5 -47.5t39.5 -17.5q48 0 60 65l57 323h158l-57 -323q-5 -31 7 -48t39 -17q48 0 60 65z" />
    <glyph glyph-name="wgrave.alt" horiz-adv-x="745" 
d="M299 708h142l47 -140h-135zM605 535h158l-57 -323q-17 -100 -73 -159t-150 -59q-100 0 -141 45q-49 -45 -125 -45q-110 0 -161.5 57.5t-34.5 160.5l56 323h158l-57 -323q-5 -30 6.5 -47.5t39.5 -17.5q48 0 60 65l57 323h158l-57 -323q-5 -31 7 -48t39 -17q48 0 60 65z
" />
    <glyph glyph-name="yacute.alt" horiz-adv-x="487" 
d="M502 535l-89 -512q-17 -101 -83 -154.5t-171 -53.5q-93 0 -177 51l61 120q57 -34 118 -34q46 0 72.5 19t31.5 53q-32 -34 -100 -34q-83 0 -122 58.5t-23 151.5l58 335h158l-58 -329q-12 -69 46 -69q50 0 61 64l59 334h158zM299 708h150l-95 -140h-148z" />
    <glyph glyph-name="ydieresis.alt" horiz-adv-x="487" 
d="M502 535l-89 -512q-17 -101 -83 -154.5t-171 -53.5q-93 0 -177 51l61 120q57 -34 118 -34q46 0 72.5 19t31.5 53q-32 -34 -100 -34q-83 0 -122 58.5t-23 151.5l58 335h158l-58 -329q-12 -69 46 -69q50 0 61 64l59 334h158zM400 563q-35 0 -58.5 23.5t-23.5 57.5
q0 35 23.5 58.5t58.5 23.5q36 0 59.5 -23.5t23.5 -58.5q0 -34 -24 -57.5t-59 -23.5zM206 563q-35 0 -58.5 23.5t-23.5 57.5q0 35 23.5 58.5t58.5 23.5q36 0 59.5 -23.5t23.5 -58.5q0 -34 -24 -57.5t-59 -23.5z" />
    <glyph glyph-name="ycircumflex.alt" horiz-adv-x="487" 
d="M502 535l-89 -512q-17 -101 -83 -154.5t-171 -53.5q-93 0 -177 51l61 120q57 -34 118 -34q46 0 72.5 19t31.5 53q-32 -34 -100 -34q-83 0 -122 58.5t-23 151.5l58 335h158l-58 -329q-12 -69 46 -69q50 0 61 64l59 334h158zM248 710h145l72 -143h-125l-28 50l-42 -50h-138
z" />
    <glyph glyph-name="ygrave.alt" horiz-adv-x="487" 
d="M502 535l-89 -512q-17 -101 -83 -154.5t-171 -53.5q-93 0 -177 51l61 120q57 -34 118 -34q46 0 72.5 19t31.5 53q-32 -34 -100 -34q-83 0 -122 58.5t-23 151.5l58 335h158l-58 -329q-12 -69 46 -69q50 0 61 64l59 334h158zM174 708h142l47 -140h-135z" />
    <glyph glyph-name="f.short" horiz-adv-x="293" 
d="M268 551l-3 -16h60l-24 -135h-60l-70 -400h-158l70 400h-49l24 135h49l5 28q16 89 58 129t130 40q30 0 60 -1l-24 -133h-16q-27 0 -37 -11t-15 -36z" />
    <glyph glyph-name="f_f.short" horiz-adv-x="553" 
d="M268 551l-3 -16h102l5 28q16 89 58 129t130 40q30 0 60 -1l-24 -133h-16q-27 0 -37 -11t-15 -36l-3 -16h60l-24 -135h-60l-70 -400h-158l70 400h-102l-70 -400h-158l70 400h-49l24 135h49l5 28q16 89 58 129t130 40q32 0 62 -1l-24 -133h-18q-27 0 -37 -11t-15 -36z" />
    <glyph glyph-name="questiondown.uc" horiz-adv-x="474" 
d="M178 361l23 127h157l-43 -242h-88q-29 0 -47 -17t-18 -48q0 -25 15 -40t41 -15q59 0 65 70h159q-2 -32 -13.5 -65t-35.5 -67t-70.5 -55.5t-108.5 -21.5q-102 0 -156 51t-54 136q0 79 48 130.5t126 56.5zM297 704q42 0 70 -28.5t28 -70.5t-27.5 -70t-70.5 -28t-70.5 28
t-27.5 70t28 70.5t70 28.5z" />
    <glyph glyph-name="exclamdown.uc" horiz-adv-x="247" 
d="M-4 0l86 488h158l-86 -488h-158zM182 704q42 0 70 -28.5t28 -70.5t-27.5 -70t-70.5 -28t-70.5 28t-27.5 70t28 70.5t70 28.5z" />
    <glyph glyph-name="hyphen.uc" horiz-adv-x="303" 
d="M19 247l27 150h261l-27 -150h-261z" />
    <glyph glyph-name="endash.uc" horiz-adv-x="604" 
d="M573 254h-547l24 132h547z" />
    <glyph glyph-name="emdash.uc" horiz-adv-x="943" 
d="M912 254h-886l24 132h886z" />
    <glyph glyph-name="guilsinglleft.uc" horiz-adv-x="245" 
d="M198 94h-127l-57 183l107 166h135l-111 -179z" />
    <glyph glyph-name="guilsinglright.uc" horiz-adv-x="245" 
d="M47 443h126l58 -182l-107 -167h-135l111 178z" />
    <glyph glyph-name="guillemotleft.uc" horiz-adv-x="427" 
d="M201 94h-128l-59 190l100 159h135l-104 -171zM375 94h-128l-53 173l109 176h135l-113 -188z" />
    <glyph glyph-name="guillemotright.uc" horiz-adv-x="427" 
d="M226 443h128l59 -190l-100 -159h-135l104 171zM52 443h128l53 -173l-109 -176h-135l113 188z" />
    <glyph glyph-name="parenleft.uc" horiz-adv-x="283" 
d="M-3 62l92 522q24 137 85 185t185 41l-25 -143q-46 1 -65 -17.5t-28 -65.5l-92 -522q-9 -49 5 -70t56 -24l-25 -143q-110 4 -159 63.5t-29 173.5z" />
    <glyph glyph-name="parenright.uc" horiz-adv-x="283" 
d="M305 573l-92 -522q-24 -137 -85 -185t-185 -41l25 143q46 -1 65 17.5t28 65.5l92 522q9 49 -5 70t-56 24l25 143q110 -4 159 -63.5t29 -173.5z" />
    <glyph glyph-name="bracketleft.uc" horiz-adv-x="283" 
d="M-45 -175l174 985h231l-25 -144h-80l-123 -697h80l-26 -144h-231z" />
    <glyph glyph-name="bracketright.uc" horiz-adv-x="282" 
d="M346 810l-174 -985h-231l25 144h80l123 697h-80l26 144h231z" />
    <glyph glyph-name="braceleft.uc" horiz-adv-x="323" 
d="M34 62l23 132q5 32 -6 46t-42 14l26 150q36 0 49.5 13t21.5 55l21 118q24 135 85.5 181t186.5 39l-26 -144q-49 2 -68 -16.5t-27 -64.5l-23 -132q-12 -68 -31 -99.5t-59 -40.5q61 -26 44 -122l-23 -129q-8 -49 5 -70t59 -23l-25 -144q-117 4 -164 62t-27 175z" />
    <glyph glyph-name="braceright.uc" horiz-adv-x="325" 
d="M308 573l-23 -132q-5 -32 6 -46t42 -14l-26 -150q-36 0 -49.5 -13t-21.5 -55l-21 -118q-24 -135 -85.5 -181t-186.5 -39l26 144q49 -2 68 16.5t27 64.5l23 132q12 68 31 99.5t59 40.5q-61 26 -44 122l23 129q8 49 -5 70t-59 23l25 144q117 -4 164 -62t27 -175z" />
    <glyph glyph-name="slash.uc" horiz-adv-x="483" 
d="M556 731l-408 -786h-151l407 786h152z" />
    <glyph glyph-name="backslash.uc" horiz-adv-x="449" 
d="M213 -55l-125 786h133l125 -786h-133z" />
    <glyph glyph-name="bar.uc" horiz-adv-x="298" 
d="M230 731v-786h-133v786h133z" />
    <glyph glyph-name="at.uc" horiz-adv-x="960" 
d="M488 394q-37 0 -57 -26.5t-20 -62.5q0 -29 17.5 -48.5t46.5 -19.5q37 0 57.5 25.5t20.5 62.5q0 31 -17.5 50t-47.5 19zM726 103q-90 0 -126 52q-53 -53 -137 -53q-85 0 -140 54t-55 140q0 93 59 162t163 69q66 0 105 -34l5 27h130l-44 -247q-10 -53 44 -53q40 0 65.5 46
t25.5 117q0 124 -84.5 195.5t-235.5 71.5t-240 -96.5t-89 -236.5q0 -151 97.5 -241.5t255.5 -90.5q67 0 129.5 23t104.5 58l70 -87q-50 -51 -130.5 -81.5t-175.5 -30.5q-222 0 -354.5 125.5t-132.5 317.5q0 202 131.5 329t336.5 127q208 0 327.5 -107.5t119.5 -275.5
q0 -127 -64.5 -203.5t-160.5 -76.5z" />
    </font>
</defs>
</svg>
